<svg xmlns="http://www.w3.org/2000/svg" viewBox="0 0 482.4 482.3">
  <path d="M220 477c-14.5-7.3-26.4-17.4-34.8-31.3-10.2 8-21.2 15-32.8 20.8-2.4 1.2-4.8 2.4-7.3 3.6-1 .4-2 .8-3 1-3.9.9-5.3.2-7.2-3.3-4.7-8.6-6.4-18.1-7.7-27.6-.9-7.1-1.5-14.2-1.5-21.3-4.3.8-8.6 1.1-12.9 1.2-15-.1-27.9-3.7-40.7-8.3-2-.7-3.7-2.1-4.9-3.8-6.9-9.3-10.1-20-11.7-31.3-1.5-10.1-1.1-20.5 1.3-30.5-15.6-1.9-31-5.6-45.7-11.2-.8-.3-1.7-.7-2.4-1.2-3.5-2.1-4.2-3.9-3-7.7 2.9-9.4 8.3-17.3 14.2-25 4.3-5.6 8.9-10.9 13.8-15.9-2.4-1.7-4.6-3.5-6.8-5.5-7.7-6.7-13.7-14.8-18.7-23.7-2.7-4.5-5.1-9.2-7.3-14-.5-1.2-.8-2.4-1-3.6.6-6.5 2.4-12.7 5.3-18.5 7.3-14.5 17.4-26.4 31.3-34.8-8-10-14.9-20.8-20.6-32.2-1.1-2.1-2.1-4.2-3.1-6.4-.7-1.4-1.2-2.9-1.6-4.4-1-3.8-.3-5.3 3.2-7.2 8.8-4.7 18.4-6.6 28.1-7.8 6.9-.9 13.9-1.4 20.9-1.4-.8-4.2-1.1-8.5-1.2-12.8 0-15 3.7-27.8 8.2-40.4.8-2.3 2.4-4.3 4.5-5.7 9.6-6.8 20.4-10 31.9-11.4 9.8-1.4 19.8-.9 29.4 1.5 1.1-9 2.7-17.9 5.1-26.6 1.7-6.4 3.7-12.8 6.1-19 .3-.9.8-1.8 1.3-2.7 2.1-3.4 3.8-4 7.6-2.8 9.4 2.9 17.3 8.3 25 14.1 5.6 4.3 10.9 8.9 16 13.8 1.7-2.4 3.6-4.8 5.6-6.9 6.6-7.7 14.7-13.6 23.5-18.5 4.5-2.7 9.2-5.1 14-7.3 1.3-.5 2.6-.9 4-1 4.4.5 8.8 1.5 13 3.1 16.6 6.5 30.7 18.3 40.1 33.5 10.2-8 21.2-15 32.8-20.8 2.7-1.5 5.4-2.8 8.2-3.9 1.1-.4 2.2-.7 3.3-.9 2.8-.5 4.5.7 5.9 3.2 4.8 9.1 6.6 19 7.9 29.1.9 6.6 1.4 13.3 1.4 19.9 2.5-.4 5-.7 7.5-.8 10.3-.7 20.6.4 30.5 3.2 5.4 1.5 10.8 2.8 15.9 5.1 1.7.7 3.1 1.8 4.2 3.3 8.2 10.9 11.4 23.5 12.5 36.8.8 8.5.2 17-1.9 25.3 12.8 1.5 25.5 4.3 37.8 8.3 2.7.9 5.4 1.9 8.1 2.9 1.8.7 3.5 1.9 4.8 3.4 1 1 1.4 2.5.9 3.8-1.8 6.2-4.5 12-8.1 17.3-5.9 9.1-12.7 17.5-20.4 25.3 3.9 2.7 7.6 5.7 10.8 9.2 9.6 9.7 16.2 21.4 21.9 33.7.6 1.2.9 2.6 1.1 4-.7 6.4-2.5 12.6-5.3 18.4-7.3 14.4-17.4 26.3-31.3 34.8 8.1 10.2 15 21.2 20.8 32.9 1.2 2.3 2.4 4.7 3.5 7.1.4.9.7 1.8 1 2.8 1.1 4.1.5 5.6-3.3 7.6-9 4.8-18.9 6.5-28.8 7.8-6.6.9-13.3 1.4-19.9 1.4.7 3.9 1.1 7.9 1.1 11.9 0 15.8-3.7 28.5-8.1 41.1-.8 2.3-2.4 4.3-4.4 5.7-9.3 6.6-19.8 9.9-30.9 11.4-10.2 1.5-20.5 1.1-30.5-1.4-1.8 15.6-5.6 30.8-11.1 45.5-.3.8-.7 1.7-1.1 2.5-2.1 3.6-4 4.3-7.9 3.1-9.3-2.9-17.2-8.2-24.8-14-5.6-4.3-11-8.9-16.1-13.9-1.7 2.4-3.5 4.6-5.5 6.8-6.7 7.7-14.8 13.7-23.7 18.7-4.5 2.7-9.2 5.2-14 7.3-1.2.5-2.5.9-3.9 1-6.4-.8-12.6-2.6-18.4-5.5zm-30.8-34.5c9.8 15.7 23.2 26.8 40.7 32.9 2.5.8 5.1 1.3 7.7 1.7.9.2 1.8 0 2.6-.4 11.4-5.5 22.5-11.6 31.9-20.3 3.7-3.4 7-7.2 9.7-11.3-.8-.8-1.5-1.6-2.3-2.4-1.3 1.8-2.8 3.5-4.5 5.1-10 9.9-20.8 18.6-33.8 24.3-3.4 1.5-7.3 1.5-10.6-.2-3-1.4-6.1-2.5-9-3.9-9.5-4.5-16.8-11.8-23.9-19.2-2.3-2.2-4.4-4.6-6.4-7.2-.1-.2-.2-.4-.4-.6-.6.4-1.2.9-1.7 1.5zm133.1 20.4c-.6 2-3 4.3-1.3 6.2 1.5 1.6 4.2 2.1 6.5 2.8.6.2 1.1.4 1.5-.3 1.2-2.2 2.2-4.6 3-7 .2-1-.4-1.3-.8-1.6-1.3-.8-2.5-1.6-3.8-2.2-1.9-.9-2.8-1.6-3.4-1.6-.7 0-.9 1-1.7 3.7zm-178.5-8.8c-2.2 1.1-4.4 2.3-6.6 3.3-1.1.5-1.2 1.1-.7 2.1.8 1.8 1.6 3.6 2.3 5.4.4 1.1 1 1.5 2.3 1 2-.7 4-1.5 5.9-2.5.7-.3 1.2-.6 1-1.2-.5-2.5-1.2-5-2-7.4-.3-.9-.6-1.2-1-1.2-.5.2-.8.3-1.2.5zm174.5-5.7c-2.1 3.6-3.9 7.4-5.7 11.2-1.7 3.7-1.7 3.7 1.6 5.9 1.1.7 1.6.8 2-.6.9-3 2-5.9 3.1-8.8.6-1.6 1.5-2.7 3.1-2.8 1 .1 1.9.4 2.7.9 2.2 1.3 4.4 2.6 6.7 3.7.6.3 1.7 2 2.1 0 .2-1.3 2.6-2.9-.1-4.1-4.4-1.9-8.7-3.8-12.9-6.2-.4-.2-.8-.4-1.3-.4-.4.1-.8.4-1.3 1.2zm-93.6-17.3c.6 11.4 3.9 22.4 9.5 32.4 1.8 3.2 2 3.1 3.9 0 7.6-12.5 12-26.6 12.9-41.2.3-3.2.3-6.5-.1-9.7-2.7 7.2-5.3 14.2-14.1 13.8-8.2-.4-9.7-7.1-11.5-13.5-.9 6.1-1.1 12.2-.6 18.2zm3.9 32.3c-2.6-5.2-4.8-10.7-6.4-16.4-1.5-5.5-2.4-11.1-2.6-16.7-.4-5.8-.3-11.5.3-17.3-10.1 15.6-3.9 40.7 8.7 50.4zm-78.8-12.8c.8 2.7 1.4 5.4 2.3 8 .2.7.2 2.4 1.5 1.3 1-.8 3.9-.2 2.8-2.9-1.8-4.4-3.4-8.9-4.8-13.4-.5-1.7-1.3-1.8-2.7-1.4-4.1 1.1-8.1 2.7-12.1 4-2.5.8-3.7 1.8-2.7 4.7.5 1.5.6 2.4 2.4 1.3 2.4-1.3 4.9-2.3 7.3-3.5.9-.5 1.9-.8 2.9-.8h.3c1.6 0 2.4 1.2 2.8 2.7zm44.9-13.1c.2.3.5.5.7.8 6.6 8.2 14.3 15.5 22.8 21.7-5.4-8.4-8.4-18.2-8.6-28.3-.1-4 .4-8.1 1.6-12-5.1 6.4-10.6 12.4-16.5 17.8zm118.4-2.5c-.8 2.1-2 4.2-2.9 6.2-2.3 4.7-4.5 9.5-6.7 14.2-.7 1.5.2 3.2 2.5 4.1 1.8.8 1.5-1 1.8-1.7 2.3-4.6 4.5-9.3 7.4-13.6 2-2.9 3.2-3.2 6.4-1.7 4.1 2 8.2 4 12.4 6 2.6 1.2 3.5.6 3.4-2.6-.2-1.1-1.7-.9-2.6-1.4-6.3-3.5-12.7-6.9-19-10.4-.4-.3-.9-.5-1.4-.5-.6.1-1 .4-1.3 1.4zm-66.9 24.6c16.6-13.5 19.5-28.9 10.1-45.7.4 15.8-3.1 31.5-10.1 45.7zm20.3-26.1c-.2 7.5-2.9 14.8-7.6 20.7-.3.4-.9.7-.8 1.6 6.6-4.5 12.5-9.9 17.7-16 .2-.2.3-.4.5-.7-3.7-4.3-7.2-8.7-10.5-13.4.6 2.6.8 5.2.7 7.8zM155.4 440c1.6 4.7 3.2 9.5 4.9 14.2.2.7.3 2.2 1.7 1.2.9-.7 2.8-.5 2.2-2.6-2.2-7.3-4.6-14.6-6.6-21.9-.6-2.2-1.4-2.4-3.4-1.7-6.8 2.6-13.7 5-20.6 7.4-1.2.4-1.9.9-1.5 2.1.1 3.6.1 3.6 3.4 2.5 4.9-1.7 9.7-3.5 14.9-4.3.5-.1 1-.1 1.5-.1 1.9.1 2.7.9 3.5 3.2zm89.2-85.5c.1 2.6.5 5.2 1.1 7.8 2.8 13.7 6.2 27.2 12.2 39.9 7.1 14.8 16.6 28.2 28.1 39.9h.1c.6.2 1 .7 1.2 1.3 3.1 3.1 6.3 6.1 9.6 9 1.4 1.2 1.8.6 2.4-.6 3.2-6.8 6.5-13.6 9.8-20.4 1.7-3.6 4.1-4.3 7.5-2.4 6.6 3.8 13.3 7.5 20 11.2 1.1.6 2 1.1 2.3-.8 1.5-7.5 2.5-15.1 3-22.7.8-15.4-.5-30.9-3.8-46-1.5-6.9-3.6-13.7-6.3-20.3-3.7-5.6-6.9-11.6-9.4-17.9-2-3-4.2-6-6.5-8.8-.6-.8-1.1-1.8-2.4-2-.3 1.2-.9 2.4-1.7 3.3-1.4 1.1-1 2-.1 3.2 2.7 3.4 2.3 8.2-.8 11.2-1.4 1.3-1.3 2.1-.3 3.5 2.7 3.7 1.8 8.9-1.9 11.6l-1.5.9c-2.2.9-2 1.6-1.2 3.4 2.7 5.7 1.3 11.2-3.4 13.5-1.7.8-1.7 1.6-1.4 3.2.8 4.7-2.1 9.2-6.6 10.5-4.4 1.3-8.9-.8-11.1-5.1-.3-.6 0-1.8-1.5-1.4-6.2 1.7-9.2.5-12.5-5.2-.5-.9-1-.9-1.9-.8-5.4.5-9.5-2.3-10.7-7.7-.3-1.4-.9-1.6-2.1-1.7-5-.5-7.9-3.2-8.8-8.1-.2-.9-.3-1.4-1.3-1.4.1-.2 0-.2-.1-.1zm-82.9 72.7c2 7.3 4.1 14.5 6.1 21.8.5 1.7.9 2.3 2.7 1.1 4.9-3.4 9.8-6.9 14.4-10.8 13.7-11.5 25.4-25.2 34.6-40.4 3.2-5.1 6-10.5 8.4-16 1.4-6.8 3.4-13.5 6.1-19.9 1-4.5 1.5-9 1.7-13.6-1.3.4-2.4 1-3.5.9-2.1-.1-2.5.9-2.8 2.7-.7 4.2-4.5 7.3-8.8 7.1-1.7-.1-2 .4-2.3 1.9-.9 5.3-6.1 8.6-11.1 6.8-2.4-.9-2.8-.3-3.6 1.7-1.9 5.2-7 9.3-12.8 6.5-1.3-.6-1.5.5-2 1.2-2.8 3.7-6.9 5.2-10.8 3.8-5.1-1.8-7.5-6.8-5.7-12.2.2-.6 1.1-1.3-.2-2-5.5-3.1-6.8-6.4-5.1-12.4.3-.7.1-1.6-.6-2-4.4-3.7-5.2-8.1-2.3-12.9.8-1.4.5-2-.4-3.1-2.9-3.2-3.1-8.1-.3-11.5.6-.8 1.1-1.5-.1-2.3-.5.6-1 1.2-1.5 1.9-5.9 8.3-11.2 17-15.9 26-9.3 17.3-13.5 36-14.9 55.5-.2 2.6-.2 5.3-.2 7.9 0 .1 0 .1.1.2.2.5.1 1.1-.1 1.6 0 4 .2 8 .3 12 .1 3.3 0 3.3 3.1 2.2 6.9-2.4 13.8-4.9 20.7-7.3.8-.3 1.6-.5 2.5-.5 2.1 0 3.5 1.4 4.3 4.1zm185-6.9c1.1.3 2.3.5 3.4.7 17.3 3.1 33.9 1.1 49.9-6.7 6.2-3 8.4-8.3 9.9-14.3 2.1-8.3 4.6-16.6 5.2-25.2.4-6.1.1-12.1-1-18.1-1.1 0-2.1-.1-3.2-.1.1.4.1.9.1 1.3.8 14.3-.9 28.6-4.9 42.3-1.1 3.7-2.6 7.2-5.8 9.8-1.4 1.2-3.1 1.4-4.6 2.2-12.3 6.3-25.5 7.2-38.9 6.5-3.2-.1-6.4.1-9.6-.6-.1 0-.2-.1-.3-.1-.1.7-.1 1.5-.2 2.3zm-110.2-45.9c-1 3.6-2.3 7.2-3.8 10.6-1 4.7-1.7 9.4-2.1 14.2-.5 5.4-.7 10.9.9 16.2.9 2.8 2 5.5 5.4 6 2.7.3 5.2-1.4 6.9-5 .5-1.1 1-2.3 1.4-3.4 2-5.9 1.3-11.8.7-17.8-1.1-10.2-3.6-20.1-6.1-30l-.6-.3c-1 3.1-1.8 6.3-2.7 9.5zM61.3 350.1c-3.1 17.3-1 33.9 6.7 49.8 3 6.2 8.3 8.4 14.3 9.9 8.5 2.2 16.9 4.7 25.7 5.3 5.9.4 11.9 0 17.7-1.1 0-1.1.1-2.1.1-3.2-.5.1-.9.1-1.4.2-14.3.8-28.6-.9-42.4-4.9-3.7-1.1-7.2-2.6-9.8-5.8-1.1-1.4-1.3-3-2.1-4.4-6.4-12.5-7.3-25.9-6.6-39.6.2-3-.1-6.1.6-9.1 0-.1 0-.2.1-.3-.8-.1-1.6-.1-2.4-.2-.1 1.1-.3 2.3-.5 3.4zm285.9 62.8c.3 0 .5 0 .8.1 10.7 1.1 21.5.9 32.2-.7-6.8-1.5-13.3-4.3-19.2-8.1-6.1-3.9-11.2-9.2-14.8-15.6 1 8.1 1.3 16.2 1 24.3zm42-5.8c-16.7-5.4-29.9-15.4-41.3-29 3.5 18.2 27.4 31.6 41.3 29zM121 396.9c-4.8 3.9-10.6 6.4-16.7 7.2-.9.1-1.8.3-2.6.6 7.4 1.5 15 2 22.5 1.5.7-.1 1.4-.2 2-.2.4-5.4 1-10.8 1.8-16.1 0-.2.1-.4.1-.6-2 2.8-4.4 5.4-7.1 7.6zm242.6-10.1c8.7 7.8 19.1 13.5 30.4 16.6 2.9.8 3 .6 2.4-2.2-2.8-12.3-8.2-23.8-16-33.8-3.2-4.4-6.9-8.4-11.1-11.9 3.2 7 6.3 13.9-.3 19.8-6 5.5-11.9 1.7-18.1-2 3.7 5 8 9.5 12.7 13.5zm-252.4 2.4c-6.7 4.1-13.8 7.4-21.2 10 20.9 1.8 33.6-5.7 39.8-25.1-5.7 5.8-11.9 10.8-18.6 15.1zm-15.6-25.8c-7.9 8.7-13.7 19.2-16.8 30.6-.8 2.8-.6 3 2.3 2.3 13.4-3 25.8-9.2 36.3-18 3.4-2.8 6.6-5.8 9.5-9.2-7.1 3.3-13.7 6.3-19.7.1-5.9-6.1-2.1-12.1 1.7-18.3-4.8 3.7-9.3 7.8-13.3 12.5zm303.7 28.9c2.1-20.5-5.8-34.1-24.9-39.6 11.3 11.1 19.8 24.6 24.9 39.6zm-324.2-3.5c5.5-16.5 15.6-29.7 29-40.9-15.5 2.5-31 23.7-29 40.9zM288 377.7c.3 1.8 1.7 3.1 3.4 3.4 1.6.4 3.2-.3 4-1.7 1.1-1.9 1-3.9-.5-6-1.8 3.8-1.9 3.8-5.8 3-.2 0-.4-.1-.6-.1-.7.1-.7.6-.5 1.4zm108.8-16.5c4 4.8 6.5 10.7 7.4 16.9.1.9.3 1.8.6 2.6 1.5-7.4 2-14.9 1.5-22.5-.1-.7-.2-1.3-.2-2-2.2-.2-4.3-.3-6.5-.6-3.5-.4-6.9-.8-10.3-1.4 2.9 2 5.4 4.3 7.5 7zM69.4 348c-1.1 10.7-.9 21.5.7 32.2 1.5-6.7 4.1-13 7.8-18.8 3.9-6.3 9.3-11.5 15.8-15.1-8 .9-16.1 1.2-24.2.9-.1.2-.1.5-.1.8zm108.1 27.3c.7 1.7 2.6 2.5 4.3 2 2.1-.4 3.6-2.2 3.6-4.4-4.1 1.1-4.1 1.1-6.9-3.2-1.6 1.7-2 3.5-1 5.6zm96.7-5.3c-.3.4-.4.9-.4 1.4.1 1.9 2.6 4.1 4.7 4.1.4 0 .8-.1 1.2-.3.7-.4 1.5-.9 1.6-1.7.1-.9-1-.9-1.6-1.2-1.4-.7-2.8-1.4-4.2-2-.3-.1-.6-.5-1-.5-.1 0-.2.1-.3.2zm-81.1-1.4c-1.9 1-2 2.4-.2 3.5 1.3 1 3.1.8 4.2-.5 1.7-1.9 2.8-4.3 3-6.9-2.6 1.4-4.8 2.7-7 3.9zm134.1-38.8c0 .2 0 .5.1.7 3.9 5.7 7.1 11.8 9.5 18.2 4.4 6.8 9.6 13.1 15.5 18.8 2.4 2.5 5.5 4.3 8.9 5.1 2.8.6 5.7-1.1 6.3-4 .1-.3.1-.5.1-.8.1-1.6-.1-3.3-.6-4.8-1.3-3.8-3.6-7.3-6.5-10-8-7.7-17.2-13.9-26.8-19.6-1.9-1.2-4.1-2-5.8-3.6h-.7zm-85.6-18.7c.1 1.3.1 2.6.1 3.9-.3 12.2 4.9 22.5 12.1 31.5 9.1 11.2 21.2 18.7 34.4 24.6 1.7.8 1.9-.1 2.3-1.3 3-9.6 5.8-19.2 7.9-29 1.8-8.5 2.6-17.1.5-25.6-1.3-5.3-2.3-10.9-6.4-14.9-.3 3.3-1.1 6.5-2.2 9.6-.9 2.3-1.7 4.6-2.4 7-.5 2.1-1.8 2.9-3.8 2.4-1.2-.3-2.3-.6-3.5-.9 3.9 4.3 7.4 9 12.4 12.2 1.3.8 2.1 2.1 2.3 3.6.1 3.4-2.1 4.9-4.8 3.8-3.3-1.3-5.1-4.3-7-7-2.9-4.2-6-8.2-9.2-12.1l-.5-.5c-.6-.6-1-1.3-1.4-2.1-.3-.1-.6-.2-.8-.2 2.3 6 4.7 12 6.8 18 1.7 4.9 4.5 9.4 8.1 13 1.5 1.5 2.6 3.4 3.2 5.5.9 3.3-1.1 6.6-4.4 7.5-3.2.6-6.3-1.5-6.9-4.7v-.1c-.3-1.1-.5-2.2-.5-3.4.2-7-2.8-13.2-5.3-19.5l-7.5-18.6-.3-.1c.5 9.5 1 18.9 3.7 28.1.7 1.7 1 3.5 1.1 5.3-.1 2.5-1.7 4.5-3.6 4.6-1.7.1-3.7-1.7-4.3-3.8-.7-2.7-.5-5.4-.4-8.1.4-9-.8-17.8-2-26.7-.1-1.1-.2-2.1-.1-3.2-.4-.3-.7-.6-1.1-1-1.5-1.5-2.4-3.4-2.6-5.5-.7.1-.7.7-.8 1.1-2.3 5.1-5.3 6.9-10.9 6.3-.3 0-.6-.1-.9-.1-.7-.1-1.1.1-1.3.4zm20.6 50.8c-1 .8-.7 2.4-.2 3.7.8 1.9 2.6 3.2 4.7 3.2 1-.2 2.4-.4 2.8-1.5.4-1.2-1.1-1.3-1.8-1.9-.9-.8-1.9-1.6-2.9-2.2-.7-.5-1.5-1.4-2.2-1.4-.2-.1-.3 0-.4.1zm35 3.4c-.6 2 .1 2.9 2.2 2.7 1.7-.2 3-1.7 2.8-3.4v-.3c-.2-2.4-1.1-4.8-2.7-6.6-.8 2.8-1.6 5.2-2.3 7.6zm-156-31.9c-2.6 1.4-5.3 2.6-8.1 3.7-6.7 4.3-12.8 9.4-18.3 15.2-2.5 2.4-4.3 5.5-5.1 8.9-.6 2.8 1.1 5.6 3.9 6.3.3.1.5.1.8.1 1.6.1 3.1 0 4.6-.5 3.7-1.2 7-3.3 9.7-6.1 8-8.1 14.3-17.5 20.1-27.3 1.2-1.9 2-4.1 3.6-5.8-.1-.3-.1-.6-.3-.9-3.5 2.1-7.1 4.4-10.9 6.4zm50.6-42.2c-.3.3-.5.6-.8.9-2.4 2.5-5.3 4.6-6.9 7.6-5.5 9.7-9.4 20-8.9 31.4.4 11.9 2.8 23.6 7.1 34.6.7 1.9 1.4 2.1 3.1 1.2 9.2-4.9 18.3-10 27.1-15.7 9.7-6.3 17.1-14.6 21.6-25.3 1-2.1 1.5-4.4 1.5-6.7-2.3 1.9-4.8 3.5-7.5 4.8-2.5 1.3-5.1 2.2-7.5 3.7-1.8 1.1-3.3.7-4.4-1.1l-1.8-3c-.4 5.7-1.3 11.5.1 17.2v.7c0 2.8-1.7 5.2-3.7 5.4s-3.6-1.7-4-4.8c-.4-4 .6-7.8 1.2-11.7.6-3.9 1.2-7.8 1.4-11.7 0-.7.1-1.3.3-1.9 0-.2.1-.3.1-.4-.2-.3-.3-.5-.5-.8-3.2 7.1-6.4 14.1-9.4 21.2-1.2 2.7-1.8 5.7-1.8 8.6 0 2.9-.1 5.8-1.6 8.4-1.9 3.2-5.6 4.4-8.4 2.6-2.9-1.8-3.6-5.5-1.6-8.6.5-.9 1.2-1.8 1.9-2.5 4.6-4.2 6.7-9.8 9.1-15.3 3-6.9 6.2-13.7 8.8-20.8-.1-.2-.1-.3-.2-.5-6.6 7.9-13.7 15.5-18.4 24.9-.7 1.3-1.7 2.4-3 3.2-1.3 1-3.1 1-4.4 0-1.4-1.1-1.6-2.6-1.3-4.2.4-1.5 1.2-2.9 2.5-3.9 6.6-6.2 12.6-12.9 18.1-20 1.3-1.8 2.7-3.5 4.1-5.3.3-.4.7-.8 1.1-1.2 0-.4-.1-.8-.1-1.1-.1-2.4.8-4.8 2.5-6.5-1.8.6-3.5 1.5-5.3 1.7-3.2.4-6.4-1-8.1-3.7-.4-.8-1.2-1.4-2.2-1.4h.2zm19.5 66.8c-1.4.8-2.8 1.8-4.2 2.6-1.3.7-1.5 1.4-.2 2.3s2.6 1.7 4.3 1c2-.9 2.3-2.7 2.4-4.8-.1-.4 0-1.4-.4-1.8-.1-.1-.3-.2-.4-.2-.5 0-1 .6-1.5.9zm-38.8-2c-1.2 1.3-1.7 3.1-1.1 4.8.3 1.6 1.7 2.8 3.4 2.7.8-.1 1.7 0 1.2-1.4-.7-1.8-1.3-3.7-1.9-5.6-.2-.6-.5-.9-.9-.9-.2 0-.5.2-.7.4zm79.8 1.6c1.5 1.6 3.5 2.1 5.6.4-1.9-1.7-3.7-3.3-5.5-4.9-1.5 1.6-1.4 3.2-.1 4.5zm-29.1-8.1c-1.3 1.1-2.6 2.2-4 3.2-1.2.8-.9 1.4.1 1.9 1.1.6 2.4.6 3.5-.1 1.6-1 1.8-2.6 2-4.3-.1-.4.1-1-.4-1.3-.1 0-.2-.1-.3-.1-.4 0-.6.4-.9.7zM323.7 319c.6.5 1.3 1 1.9 1.5 7.6 5.4 15.5 10.3 23.7 14.7 18.2 10.1 37.8 14.8 58.4 16.1 2.4.2 4.9.2 7.3.2h.2c.5-.2 1-.1 1.5 0 4.1 0 8.1-.2 12.2-.3 3.1-.1 3.1 0 2.1-3-.1-.4-.3-.8-.4-1.2-2.3-6.6-4.7-13.1-7-19.7-1.2-3.4.1-5.7 3.6-6.6 7.3-2 14.5-4.1 21.8-6 1.9-.5 2.3-1.1 1.1-2.9-12.5-18.7-28.8-34.6-47.7-46.8-6.3-4.1-12.8-7.6-19.7-10.5-6.7-1.4-13.2-3.4-19.5-6.1-.8-.2-1.6-.3-2.5-.4-3.7-.8-7.4-1.2-11.2-1.2.4 1.3 1 2.4.9 3.5-.1 2.1.9 2.5 2.7 2.8 4.2.7 7.3 4.5 7.1 8.8-.1 1.7.4 2 1.9 2.3 5.3.9 8.6 6.1 6.8 11.1-.9 2.4-.3 2.8 1.7 3.6 5.8 2.2 8.5 7 6.8 11.9-.5 1.5-.3 2.2 1 3.1 3.6 2.4 5.1 7 3.5 11.1-1.6 4-5.5 6.6-9.8 5.6-2.7-.6-4-.5-5.5 2.2-1.9 3.4-6.4 4.2-10.6 2.9-.9-.3-1.6-.7-2.5.4-3.6 4.4-8 5.2-12.9 2.3-1.2-.7-1.8-.7-2.9.2-3.6 3.2-7.8 3.3-11.7.5-.3-.3-.8-.5-1.2-.6-.4-.3-.8-.1-1.1.5zm-21 25.6c-.2 1.8-.8 3.5-1.2 5.2-.3 1.1 0 1.8 1.4 1.5 1.7 0 3.2-.5 3.9-2.3.8-2.1-.3-3.6-1.7-5-.5-.5-1.1-1-1.5-1-.4 0-.7.4-.9 1.6zm-134.8-.8c-.2.6-.4 1.2-.4 1.8.1 2.1.7 3.6 2.4 4.4.8.4 1.7.8 2.3.4.7-.4.1-1.3 0-2-.2-1.4-.4-2.8-.6-4.1-.1-1 0-2.7-.8-2.8h-.2c-1.3-.1-2.2 1.2-2.7 2.3zm285.2-25.7c-7.6 2.2-15.2 4.7-22.8 6.9-1.5.4-1.7 1-1.2 2.4 2.6 7.1 5.1 14.2 7.6 21.3.4 1.2.9 1.9 2.1 1.5 3.6-.1 3.6-.1 2.5-3.4-1.7-4.9-3.5-9.7-4.3-14.9-.4-3 .2-4 3.1-5 4.8-1.7 9.6-3.3 14.4-5 .7-.2 1.9-.5 1-1.6-.6-.7-.7-2.3-1.8-2.3-.2 0-.4 0-.6.1zm-206.4 31.2c.6.3 1.3.6 1.9.1.7-.6-.1-1-.3-1.4-1.2-1.9-2.5-3.8-3.9-6-.8 2.8.4 6.4 2.3 7.3zm210.7-23.4c-4.6 1.7-9.2 3.4-13.9 4.9-1.1.3-1.5.7-1.2 1.9 1.3 5.1 3 10.1 5 14.9.3.6.6 1.2 1.9.9.6-.1 1.3-.2 1.9-.3 1.9-.1 2.1-.9 1.2-2.5-1.4-2.7-2.7-5.4-3.9-8.2-1.1-2.7-.3-4.2 2.5-5 2.7-.8 5.4-1.5 8-2.3.6-.2 2.2 0 1.3-1.3-.7-1-.5-3.2-2-3.2-.3.1-.6.1-.8.2zm-3 10.7c-1 .3-.5 1-.3 1.6 1.1 2.4 2.3 4.7 3.5 7.1.4.8.8 1 1.7.7 7.4-2 8.1-3.7 4.4-10.3-.1-.2-.2-.4-.3-.7-.2-.6-.7-.7-1.3-.8-2.5.8-5.1 1.6-7.7 2.4zm-224.8 6.2c-1.1 1.4-.4 2 .8 2.5 1.2.5 2.5 0 3.1-1.1v-.1c1.4-2.2 1.3-4.6.8-7.5-1.7 2.4-3.1 4.3-4.7 6.2zm-109.5-97.1c-13.7 2.8-27.2 6.2-39.9 12.2-14.7 7.1-28.2 16.5-39.8 28 0 .1-.1.1-.1.2-.3.5-.7 1-1.3 1.2-3.1 3.1-6.1 6.3-9.1 9.6-1.2 1.4-.6 1.8.7 2.4l20.7 9.9c3.3 1.6 4 4.1 2.3 7.2-3.8 6.7-7.6 13.5-11.4 20.2-.7 1.2-1 1.9.8 2.3 7.1 1.4 14.2 2.4 21.5 2.9 15.1.9 30.2-.2 45.1-3.3 7.6-1.6 15.1-3.8 22.4-6.7 5.7-3.8 11.8-7 18.1-9.5 1.1-.8 2.2-1.5 3.3-2.3 2.7-1.8 5.3-3.9 7.6-6.3-1.4-.5-2.6-.8-3.4-1.7-1.1-1.3-2-1.3-3.4-.2-3.5 2.7-8.4 2.3-11.4-.9-1.2-1.3-1.9-1.1-3.2-.3-4.5 3.1-10.7 1.6-12.7-3.3-.9-2.3-1.6-1.9-3.4-1.1-6.3 2.8-12 1-14-4.3-.6-1.5-1.6-.7-2.5-.6-4.8.9-9.5-2.1-10.8-6.9-1.2-4.3 1-8.7 5.2-10.8.6-.3 1.8 0 1.4-1.5-1.7-5.9-.2-9.6 5-12.4.8-.3 1.3-1.2 1.1-2-.8-5 2.5-9.7 7.4-10.6 1.6-.4 1.8-1 2-2.4.5-4.9 3.2-7.6 8.1-8.5.9-.2 1.6-.4 1.4-1.6-2.6.1-5.2.4-7.7 1.1zm-96.9 59.4c-.9 1.3-.9 1.8.6 2.4 5.1 2.1 9.9 4.7 14.5 7.8 2.6 1.9 2.9 3.1 1.5 6-2.1 4.2-4.1 8.4-6.1 12.6-1.3 2.7-1.1 2.8 2 3.2.7.4 1 0 1.4-.7 3.6-6.7 7.1-13.5 10.8-20.2 1-1.8 1.2-2.6-1-3.6-6.4-2.8-12.7-5.8-18.9-9-.6-.4-1.3-.6-2-.6-1.2.1-2 .9-2.8 2.1zm281.9 25c-.1 1.5-.3 3.1-.4 4.6-.1.7-.6 1.6.2 2 .9.4 1.8-.1 2.5-.7.8-.7 1.2-1.6 1.1-2.6-.1-1.5-.8-2.9-1.9-3.8-.2-.3-.5-.4-.8-.5-.5 0-.7.3-.7 1zm-136.9-1.4c-1.6.8-2 3.1-1 5 .6 1.1 1.6 2.1 2.6 1.9 1.3-.3.1-1.6.3-2.5v-.7c0-.9-.2-1.8-.1-2.7 0-1-.3-1.3-.7-1.3-.4-.1-.8.1-1.1.3zM16.7 314.3c-.7 1.1-.6 1.5.6 1.9 3 1 5.9 2 8.8 3.1 1.5.6 2.8 1.5 2.9 3.1 0 1-.3 1.9-.9 2.7-1.3 2.3-2.6 4.6-3.8 6.9-.3.6-1.7 1.6 0 1.9 1.3.3 2.9 2.5 4.1 0 2-4.4 3.9-8.8 6.3-13.1.7-1.2.5-1.8-.7-2.5-3.6-2.1-7.4-3.9-11.2-5.7-1-.6-2.1-1-3.3-1.2-1 .1-1.5.9-2.8 2.9zM13 321l-2.7 6.9c-.2.6 0 .9.5 1.2 2.4 1.4 4.9 3 7.5 2.8 1.8-.1 2.2-3 3.2-4.6.5-.8.9-1.6 1.3-2.4.2-.5.6-1.1-.2-1.4-2.9-1-5.7-2-8.5-3h-.3c-.4-.2-.7.1-.8.5zm157.3 2c.6-2.7 1.2-5.4 1.9-8.6-3.9 2.8-4.7 7-1.9 8.6zm134.5-2.6c.1 1.2 0 2.7 1.9 2.2 1.2-.1 2.2-1.2 2-2.5 0-.2-.1-.4-.1-.6-.7-2.5-2.5-4.6-4.8-5.9.4 2.5.8 4.6 1 6.8zm-94.6-18.1c.7 5.9 3.8 10.8 6.8 15.7 2.6 4.3 2.7 4.3 7.2 2.3 1.1-.5 2.3-.9 3.4-1.5 3.3-1.8 6.4-4 8.4-7.2.3-.7.6-1.4 1-2.1.1-.2.2-.3.3-.5.2-.9 0-1.9-.6-2.7-2.3-3.6-1.2-8.3 2.4-10.6.1-.1.2-.1.2-.1 2.6-1.5 5.9-.8 7.7 1.5.8 1 .8 2.4-.1 3.4-.7 1-2 1.2-3 .5l-.1-.1c-1-.8-1.8-1.4-2.8.1-.9 1.4-.5 2.5.6 3.5 1.8 1.8 4.7 1.9 6.6.1.6-.5 1-1.2 1.2-2 1.2-3.4 1.2-7 .1-10.4-1.1-3.8-2.7-7.4-4.6-10.8-.6.8-1.4 1.3-2.2 1.6.1.6.1 1.2 0 1.8-.6 3.3-2.6 6.1-5.5 7.8-2.1 1.4-4.3 2.8-6.4 4.1-1.9 1.2-3.8 1.2-5.2-.7-2.9-3.9-5.9-7.8-5.5-13.1 0-1.1.1-2.3.3-3.4 0-.2.1-.3.1-.5-.7-1-1.2-2.2-1.3-3.4-1.8 6.6-4.7 12.7-9.8 17.5 1.2-.3 2.4-.7 3.6-.9 4.4-1.1 8.8 1.7 9.9 6.1.1.5.2 1.1.2 1.7.2 2.4-.9 4.6-2.9 5.9-1.6 1.2-3.8 1.4-5.6.6-1.2-.3-1.9-1.5-1.7-2.7.1-1.2 1.2-2.1 2.4-2h.4c1.1 0 2.2 0 2.1-1.7 0-1.5-1.2-2.7-2.7-2.7-.3 0-.7-.1-1-.1-2.9 0-4.3 1.7-3.9 5zm118.2 10.5c-.1.8.3 1.6 1 2.1 2.2 1.8 5.4.4 6.4-3-1.1.1-2 .2-2.9.3s-1.8.1-2.7.2h-1c-.4-.1-.7 0-.8.4zm21-2.9c-2.7.5-5.5.9-8.2 1.4 1.3 2.8 2.8 3.8 5.4 3.5 2-.1 3.6-1.6 3.8-3.6.1-.7.3-1.4-.5-1.4-.2.1-.3.1-.5.1zm-26.2 2.1l-8.5-1.8c2.2 3.7 6.4 4.7 8.5 1.8zm-59.8-13.3c-3.3 1.4-3.9 5-1.2 7.3 3.7 3.2 8.3 4.6 12.9 5.8 2.7.7 6 2.5 8 1.6 2.2-1 2.5-4.9 3.3-7.6 1.3-3.6 1.6-7.5.9-11.2-.3-.7-.6-1.4-.8-2.1 0-.2-.1-.4-.1-.5-.5-.8-1.4-1.4-2.4-1.5-4.6-.9-7-6.5-5-10.8 1.2-2.1 3.5-3.3 5.9-3.1 1.3 0 2.4 1 2.5 2.3.2 1.3-.7 2.5-1.9 2.6h-.1c-1.1.3-2.1.4-1.8 1.9.2 1.3 1.4 2.3 2.7 2.1h.1c3.9-.3 5.8-3.8 4-7.3-1.5-2.9-3.8-5.2-6.7-6.7-3.6-2-7.4-3.6-11.4-4.6v.5c0 .8-.1 1.5-.4 2.2.5.4.9.8 1.2 1.3 1.4 2.1 2.1 4.5 2 7.1-.3 3.3-1.5 7-2.3 10.7-.4 1.6-2 2.7-3.6 2.3-5.9-.6-11.2-2.2-15-7.2-.3-.4-.6-.8-.8-1.3-1.2-.2-2.4-.7-3.3-1.5 3.3 6.3 6.1 12.8 4.9 20.7.6-1.9 1.6-3.7 2.8-5.2 2.7-3.2 6.6-4.2 10.2-2.5 2.6 1.1 4.3 3.6 4.3 6.4 0 2.3-1.3 4.4-3.3 5.4-1.2.6-2.4.8-3.3-.4-.9-1-.8-2.6.2-3.5.7-.7 1.8-1.3.8-2.4-.5-.7-1.3-1.1-2.2-1.1-.3 0-.7.1-1.1.3zm98.3 7.7c-1.4.6-2.8.9-4.2 1.5-.7.3-1.9.1-1.8 1.2 0 1 1 1.4 1.9 1.7.6.2 1.3.3 1.7.4 2.4 0 4.1-1.5 4.2-3.3.1-.9 0-1.7-.8-1.7-.4 0-.7.1-1 .2zm-200.9-1.5c-1.1.1-1.1.8-1.1 1.6.1 1.3 1.2 2.3 2.5 2.3.2 0 .5-.1.7-.1 2.5-.6 4.2-2.3 5.9-4.7-3 .3-5.5.6-8 .9zm-15.2-.2c-.3.6-.2 1.3.2 1.9.5 1.1 1.7 1.8 3 1.8 2 0 3.8-1.2 4.6-3.1-2.2-.3-4.2-.5-6.2-.7-.3-.1-.7-.1-1-.1-.3-.2-.5 0-.6.2zm150.7-24.6c.4 3.2-1 6.4-3.7 8.1-.9.4-1.4 1.3-1.4 2.3.3.3.6.5.9.8 2.5 2.4 4.6 5.3 7.6 6.9 9.6 5.4 19.9 9.3 31.1 8.9 11.9-.3 23.8-2.7 34.9-7.1 1.9-.8 2.1-1.4 1.2-3.1-4.9-9.2-9.9-18.3-15.7-27.1-6.2-9.5-14.2-16.8-24.6-21.3-2.3-1.1-4.7-1.7-7.3-1.8 1.9 2.3 3.5 4.9 4.8 7.7 1.1 2.5 2.3 4.9 3.6 7.3 1.1 1.8.7 3.3-1.1 4.4l-3 1.8c4.3.4 8.6 1.1 13 .5 1.6-.3 3.2-.4 4.9-.5 1.5-.2 3 .3 4.1 1.3 2 1.9 1.6 4.4-.8 5.6-1.7.9-3.5.8-5.5.8-5.3-.8-10.8-1.6-16.3-2.4-1.7-.2-3.4-.3-5.1-.5l-1.5-.3c-.2.1-.5.3-.7.4 6.8 3 13.5 6 20.3 9.1 3 1.4 6.2 2.1 9.5 2.2 2.9 0 5.8.1 8.4 1.6 3.2 1.9 4.4 5.6 2.6 8.4-1.8 2.9-5.5 3.6-8.6 1.6-.9-.5-1.8-1.2-2.5-1.9-4.2-4.6-9.8-6.7-15.3-9.1-6.8-3-13.5-5.9-20.3-8.8-.1 0-.2-.1-.3-.1-.2.1-.4.2-.6.2 8 6.6 15.5 13.7 24.9 18.4 1.1.5 2.1 1.4 2.8 2.4 1.2 1.7 1.8 3.5.2 5.2-1.5 1.6-3.4 1.5-5.2.7-1.2-.6-2.2-1.4-3.1-2.4-7.5-7.8-15.6-15-24.4-21.4-.1 0-.1-.1-.2-.1-.5-.5-1.1-.9-1.6-1.4-.2 0-.4 0-.7.1-2.6.2-5.1-.7-6.9-2.5.4 1.5 1.4 3.3 1.6 5.1zm-165.4 22.1c-.4 2.2 1.1 4.4 3.3 4.8.2 0 .4.1.6.1 1.8-.3 3.4-1.4 4.3-3 .4-.7.2-1-.6-1.1-2.1-.4-4.1-.9-6.2-1.4-.2-.1-.4-.1-.7-.1-.3-.1-.6 0-.7.7zm241.9-5.3c1.4 4 1.4 4-3 6.7 1.8 1.8 3.8 2.3 5.7 1.1 1.6-.8 2.4-2.7 1.8-4.4-.6-1.9-1.9-3.4-4.3-3.4h-.2zm-257.9.3c-.7.9-.8 2-.4 3 .5 1.4 1.9 2.2 3.4 2 2.5-.1 4.9-1.1 6.7-2.8-2.6-.8-5-1.5-7.4-2.2-.5-.2-1-.4-1.5-.5-.4.1-.6.2-.8.5zm16.2-39.2c-8.4 8.6-15.2 18.7-19.8 29.9-.7 1.5-.4 2.1 1.1 2.6 8.6 2.6 17.3 5.2 26.1 7.2 9.5 2.1 19 3.6 28.5 1.1 5.3-1.3 10.9-2.3 14.9-6.5-3.3-.3-6.5-1.1-9.6-2.2-2.3-.9-4.6-1.7-7-2.4-2.1-.5-2.9-1.8-2.3-3.8.3-1.2.6-2.3.9-3.5-4.3 3.8-9 7.3-12.2 12.3-.9 1.5-2.6 2.4-4.4 2.4-2.9 0-4.3-2.2-3.1-4.9 1.4-3.3 4.4-5.1 7.1-7 4.1-2.9 8.1-5.9 11.9-9.1.3-.2.5-.5.7-.7.6-.5 1.3-1 2-1.4.1-.2.1-.5.2-.7-6 2.3-11.9 4.7-17.9 6.8-4.9 1.7-9.4 4.5-13 8.1-1.5 1.5-3.4 2.6-5.5 3.2-3.3.9-6.6-1.1-7.5-4.4-.6-3.2 1.5-6.3 4.7-6.9h.1c1.1-.3 2.2-.5 3.4-.5 7 .1 13.2-2.8 19.5-5.3 6.2-2.5 12.5-5 18.7-7.6l.1-.2c-9.4.5-18.8 1-27.9 3.7-1.7.6-3.5 1-5.3 1.1-2.6-.1-4.8-1.6-4.9-3.6-.1-1.8 1.7-3.9 4-4.3 4.1-.6 8.2-.7 12.3-.3 4.6.3 9-.6 13.4-.9 3.7-.2 7.3-.8 11-1.2h1c.3-.4.6-.7.9-1.1 1.5-1.5 3.4-2.4 5.5-2.6-.1-.7-.7-.7-1.1-.8-5.1-2.3-6.9-5.3-6.2-10.9.1-.8.2-1.3-.4-1.8-1.1 0-2.2.1-3.3.1-14.5-.2-26.6 6.1-36.6 16.1zm-26.5 29.9c-1.9.3-3.3 1.8-3.5 3.7-.3 1.6.5 3.2 1.9 3.9 1.8 1.1 4.2.8 5.7-.6-3.2-1.5-4.3-2-2.9-5.8.3-.9.1-1.2-.5-1.2-.2-.1-.4 0-.7 0zm338.1-85.1c1.9 1.4 3.6 2.9 5.2 4.6 9.8 10 18.5 20.7 24.1 33.6 1.5 3.4 1.5 7.3-.2 10.6-1.4 3-2.5 6.1-3.9 9.1-4.5 9.5-11.8 16.7-19.2 23.9-2.3 2.4-4.8 4.5-7.4 6.5-.1.1-.2.2-.4.2.5.6 1 1.2 1.5 1.7 2.7-1.6 5.3-3.3 7.8-5.3 11.6-9.5 20.4-21.1 25.2-35.4.7-2.4 1.3-4.9 1.6-7.4.2-1 0-2-.4-2.9-5.5-11.4-11.6-22.5-20.3-31.8-3.3-3.7-7.1-6.9-11.3-9.7-.7.8-1.5 1.6-2.3 2.3zm-215.6 77.3c-.6.1-1.1.3-1.7.3-.1 1.5-.1 3 0 4.6.5 2.3 1.5 4.5 2.9 6.4.2.5.7.7 1.2.5.1 0 .2-.1.3-.2 2-1.3 4.1-2.5 6-3.8 1.5-1 2-2.7 2.6-4.4.1-.4.3-.9.6-1.2-.7-.6-1.3-1.2-1.8-1.9-3.9 3.3-5.3 3.3-8.8 0-.2-.2-.4-.3-.7-.3-.3-.1-.5-.1-.6 0zm-28.4 3.5c-1.3.3-2.2 1.6-1.9 2.9v.1c.5 3.9 4 5.6 7.5 3.7 2.8-1.5 5-3.8 6.5-6.6 2-3.6 3.6-7.4 4.6-11.4v-.1c-.9.1-1.9 0-2.8-.3-.3.5-.8.9-1.3 1.2-2.1 1.4-4.5 2.1-7 2-3.3-.3-7-1.5-10.7-2.3-1.6-.4-2.7-1.9-2.4-3.6.6-5.9 2.2-11.2 7.2-15 .4-.3.8-.6 1.3-.8.1-1.2.6-2.4 1.4-3.3-6.3 3.3-12.8 6.1-20.4 4.9 1.7.6 3.3 1.5 4.7 2.5 2.8 2.2 4.1 5.1 3.4 8.7-.7 3.1-3.1 5.4-6.2 6-2.5.3-5-1-6.2-3.2-.7-1.3-.9-2.6.4-3.5 1.1-.9 2.6-.7 3.5.4.7.8 1.4 1.6 2.4.7 1-.8 1.3-2.2.7-3.4-1.5-3.3-5-3.8-7.3-1-.7.8-1.3 1.7-1.8 2.6-3.2 5.4-4.1 11.5-5.6 17.5-.3 1.1.4 1.3 1 1.5 2.5.9 5 2 7.6 2.7 3.2 1 6.7 1.3 10 .7.8-.4 1.6-.7 2.4-.9.2 0 .4-.1.6-.1.8-.5 1.4-1.4 1.5-2.4.9-4.6 6.5-7.1 10.7-5.1 2.2 1.2 3.4 3.7 3.1 6.2-.1 1.3-1.2 2.3-2.5 2.3-1.2.1-2.3-.8-2.4-2-.2-1.1-.5-1.9-1.4-1.9-.1.2-.4.2-.6.3zm169.9 5.6c.4.6.4 1.8 1.5 1.7 1-.2 1.9-.8 2.3-1.7.7-1.3.4-2.9-.7-3.8-1.9-1.7-4.4-2.8-7-3.1 1.5 2.5 2.7 4.7 3.9 6.9zm69-1.6c.3-.2.5-.4.8-.7 8.2-6.6 15.5-14.3 21.7-22.8-7.8 4.9-16.8 7.9-26 8.5-4.8.4-9.7-.1-14.4-1.5 6.4 5.1 12.4 10.6 17.9 16.5zm-178.9-8.8c-.3.5-.6.9-.9 1.4.1.1.2.2.3.4 2.2 2.9 5.5 4.8 9.2 5.2.6.1 1.4.6 1.5-.5.5-2.7 1.6-5.2 1.6-7.9-.1-1.5-.5-2.9-1.3-4.2-.2-.4-.4-.9-.5-1.3h-.7c-1.5 0-2.1.2-2.2 1.9-.3 3.1-2.4 4.7-5.7 4.3h-.4c-.3-.1-.6.1-.9.7zm-252-48.4c-1.8 5.1-1.8 9.8 1.1 14.8 5.5 9.3 10.4 18.9 17.9 26.7 3.4 3.7 7.3 7 11.5 9.9.8-.8 1.6-1.5 2.4-2.3-2.8-2-5.3-4.4-7.6-7-8.7-9.5-16.8-19.4-21.8-31.4-1.4-3.3-1.3-7.2.3-10.4 1.5-3.3 2.6-6.7 4.3-10 4.6-9.1 11.6-16.1 18.8-23 1.6-1.6 3.2-3.1 4.9-4.5.9-.8 1.9-1.6 3-2.3l-1.5-1.8c-16 9.9-27.1 23.6-33.3 41.3zm104.2 43.4c-2.3.5-4 2.4-4.1 4.8-.1 1.2.7 2.4 1.9 2.7 1.1.3 1.1-1.2 1.5-1.9.7-1.3 1.4-2.6 2-4 .2-.4.7-.8.2-1.3-.3-.3-.6-.4-1-.4-.2.1-.4.1-.5.1zm130.9 3.9c1.1-3.7.5-7-.4-10.7-1.4 3.7-1.3 7.9.4 10.7zm7.4-11.7c-.5 0-.5.5-.6.9-.4 2.8 2.4 8.5 5.4 10.2-.3-4.2-2.1-7.5-4-10.8-.2-.2-.5-.3-.8-.3zm-16.3 10.6c1.8-2.9 2.6-6.2 2.2-9.6-1.1 3.1-2.7 6.1-2.2 9.6zM29.5 262.2c3.9 5.3 8.5 10 13.7 14.1 4.3-3.7 8.7-7.2 13.3-10.4-9.9 1.9-20.1-.5-28.1-6.7-.5-.4-1-.8-2-1.4.9 1.5 1.9 3.1 3.1 4.4zm327.7 7c-.4.7.5 1.3.8 1.9.8 1.4 1.8 2.7 2.6 4.2s1.5 1.2 2.3 0c.9-1.3 1.7-2.7.9-4.3-.9-1.8-2.6-2.2-4.4-2.3H358.2c-.3 0-.7.2-1 .5zm-129.1-4.4c-2 2.4-3.3 5.3-3.7 8.4.1.6-.3 1.5.4 1.8.8.3 1.1-.6 1.4-1.1 1.6-2.6 2.7-5.4 3.4-8.3.1-.5.2-.9-.3-1.3-.1-.1-.3-.1-.4-.1-.4 0-.6.3-.8.6zm47.5-1.9c6.7 1.8 12.8 4.8 17.6 9.9-.4-1.3-.8-2.7-1-4.1-.7-3.9 1.5-7.7 5.2-9.1 2.8-1 5.5-.9 7.7 1.4 1.8 1.6 2.3 4.1 1.5 6.3-.5 1.3-1.3 2.2-2.8 1.9-1.3-.2-2.2-1.4-2-2.6.1-1.2.1-2.3-1.5-2.2-1.3-.1-2.5.7-2.8 2-1 3.6 1 6.1 4.6 5.8.4 0 .8-.1 1.2-.2 6.9-1.3 12.4-5.4 18.3-8.9.8-.5.5-1 .2-1.7-1.2-2.4-2.1-5-3.5-7.3-1.6-3.1-3.9-5.8-6.8-7.8-.7-.3-1.4-.6-2.1-1l-.3-.2c-1.1-.3-2.2-.1-3.1.6-3.7 2.4-8.8.6-10.7-3.3-1.1-2.5-.5-5.4 1.6-7.1 1-.9 2.6-.9 3.6 0 .9.7 1.1 2.1.3 3 0 0 0 .1-.1.1-.7.9-1.3 1.7 0 2.6 1 .8 2.5.7 3.3-.2 2-1.7 2.3-4.6.6-6.6-.5-.6-1.2-1.1-2-1.4-3.3-1.2-6.9-1.3-10.2-.2-3.9 1.1-7.7 2.7-11.2 4.7.7.6 1.3 1.3 1.6 2.2.8-.1 1.7 0 2.5.2 3 .7 5.6 2.6 7.1 5.3 1.4 2.1 2.8 4.3 4.1 6.4 1.2 1.9 1.2 3.8-.7 5.2-3.9 3-8 5.9-13.4 5.4-.8 0-1.6-.1-2.5-.1-.4 0-.8-.1-1.2-.3-.6.8-1.9 1.2-3.1 1.3zm-15.1 9.4c-.8-3.6-3.3-7.5-5.9-8.9 2 3.2 2.8 6.5 5.9 8.9zm-58.7-14.2c-2.9 2.3-4.8 5.7-5.3 9.4-.1.8-.1 1.2.8 1.4 2.1.4 4.1 1 6.2 1.4 2 .3 4-.1 5.7-1.1.4-.2.9-.4 1.4-.5 0-.3-.1-.7-.1-1 0-1.1 0-1.7-1.5-1.8-3.6-.3-5-2.2-4.7-5.8.1-.7 0-1-.6-1.4-.5-.3-1-.7-1.4-1-.2.1-.3.2-.5.4zm-85.1 3.8c-1.9.7-3.2 2.6-3.2 4.7.1 1.1.4 2.4 1.5 2.8 1.2.5 1.3-1.1 1.9-1.7.8-.9 1.6-1.9 2.2-2.9.6-.8 1.9-1.9 1.3-2.6-.4-.5-1-.7-1.7-.7-.6 0-1.3.1-2 .4zm346.2-7.7c-15.6 7.8-32.1 9.9-49.9 8.3 15.7 10.1 40.9 3.7 49.9-8.3zm-247 13c3.1-1.7 5.5-4.4 6.9-7.6-2.9 2-6 3.8-6.9 7.6zm51.9-.5c-2.5-3.3-4.8-5.8-8.2-7.1 3.6 5.1 4.9 6.2 8.2 7.1zm81.7-9.1c-.9.3-.7.7-.3 1.2 1 1.2 1.9 2.4 3 3.6.5.5.7 1.8 1.6 1.5 1-.3 1.1-1.5 1.3-2.4 0-2.1-2.5-4-4.7-4-.3-.1-.6 0-.9.1zm-281.3-1.2c-15.8.2-31.4-3.3-45.5-10.2 12.9 15.6 27 19.9 45.5 10.2zm164.7 3.7c1.6 1.4 3.1 1.2 4.7 1.1.6-.1 1.2-.1 1.8-.1 3.1.2 4.3-1.5 5.4-3.7 1.6-3.6.4-6.7-2-9.9-1.3 6-3.9 10.6-9.9 12.6zm-23.1.6c3.5-1 6.6-2.9 9-5.6-3.1 1.5-6.4 2.3-9 5.6zm38.9-.3c3.8-.8 7.3-4.9 7-7.8-.4-4.4-3.9-7.6-8.9-7.8 3.3 4.9 4.7 10 1.9 15.6zm164.5-28.8c6.6 2.5 13.4 5 13.2 13.6-.2 8.5-7 10.1-13.9 11.8 17.2 3.2 42.3-1.8 53.5-10.6-6.1-7.2-32.4-15.3-47.1-15.3-1.9-.1-3.8.1-5.7.5zm-286.6 19.8c-2.8.5-3.9 3.4-2.3 6.6.7-.9 1.3-1.5 1.9-2.2.6-.6 1.2-1.3 1.8-2 .4-.5 1.5-.8.8-1.7-.4-.5-1.1-.8-1.7-.8-.2 0-.4 0-.5.1zm137.9 2.6c1.4 2.2 7.8 4.4 11.1 3.5-3.1-2.8-6.8-3.8-10.4-4.8h-.2c-.7 0-1 .6-.5 1.3zm17.1-9.8c-1.1 1-.9 1.4-.1 2.4 2.1 2.4 1.8 5.1-.6 7.1-.6.5-1 .7-.7 1.7.2.5.3 1 .4 1.5 3.6.5 7.3-.4 10.3-2.5 1.1-.8 1.5-1.3.6-2.5-.9-1.3-1.7-2.6-2.4-4-1.1-1.9-2.8-3.3-4.9-3.8-.6-.2-1.2-.4-1.8-.8-.3.4-.6.7-.8.9zm-51.8 11.5c4.5-.4 7.6-4 7.7-8.9-4.9 3.2-9.9 4.7-15.6 1.8.9 4 5 7.4 7.9 7.1zm-14.6-7.1c-2 .1-3.9.7-5.7 1.6-1.6.8-3.5 1.4-4.2 3.7 4.1-.3 7.4-2.1 10.6-3.9.4-.2.5-.6.3-1-.1-.3-.4-.4-.7-.4h-.3zm121.6-.5c2.3 1.7 4.4 3.3 6.4 4.9.4.4 1.1.5 1.6 0 .1-.1.2-.2.3-.4 1-1.5.8-2.8-.8-3.7-1.3-.8-2.8-1.2-4.4-1.2-1 0-2.1.1-3.1.4zm48.7-10.1c-6.8 1-13.4 3-20.4 4.6-.2.3-.3.5-.5.8 6.4 1.3 12.6 3.2 18.7 5.5.6.2 1.2.5 1.8.7 7 1.5 14.2 2.3 21.4 2.4 3.4.1 6.8-.4 9.9-1.5 2.5-.9 4.7-2.2 4.9-5.2.2-3-1.6-4.7-3.8-6.2-2.5-1.5-5.2-2.5-8.1-2.9-2-.3-4-.5-6-.5-5.9.1-11.9 1.4-17.9 2.3zm-369.8-1.9c16.5 11 34.2 15.5 53.4 14.8-6.6-2.6-13.4-5.2-13.3-13.8.1-8.4 7.1-10 13.5-11.9-3.9-.4-7.9-.6-11.9-.6-14.4 0-28.4 3.1-41.7 11.5zm162.3 5.6c-1.9 1.8-2 4.8-.2 6.7.5.5 1.1.9 1.8 1.2 3.3 1.2 7 1.3 10.4.2 3.8-1.1 7.5-2.7 11-4.7-.7-.6-1.3-1.4-1.6-2.3-.6.1-1.2.1-1.8 0-3.3-.6-6.1-2.6-7.8-5.5-1.4-2.1-2.8-4.3-4.1-6.4-1.2-1.9-1.2-3.8.7-5.2 3.8-2.8 7.6-5.8 13-5.3h2.8c.4 0 .8.1 1.2.2.9-.8 2.1-1.2 3.3-1.3-6.5-1.9-12.6-4.5-17.3-9.8l-1.2-1.5c-.8-2.3-2.2-4.5-2-7.2.2-2.9 1.8-5.6 4.2-7.2.6-.4 1.2-.7 1.1-1.5-.4-.3-.7-.7-1.1-1-2.6-2.5-4.9-5.4-8.1-7.2-8.8-4.9-18.1-8.5-28.2-8.6-13.1-.1-26.1 2.4-38.3 7.4-1.7.7-.9 1.6-.4 2.5 4.9 9.6 10.3 18.9 16.1 27.9 6 9.3 14.6 16.7 24.8 21 2.1 1 4.4 1.5 6.7 1.5-1.9-2.3-3.5-4.8-4.8-7.5-1.3-2.5-2.2-5.1-3.7-7.5-1.1-1.8-.7-3.3 1.1-4.4 1-.6 2-1.2 3.1-1.8-5.8-.4-11.6-1.2-17.4.2-.4.1-.8.1-1.2 0-2.5-.2-4.7-2-4.7-3.9s1.7-3.4 4.5-3.8c3.9-.5 7.7.5 11.5 1.1 4.2.7 8.4 1.3 12.7 1.6.7.1 1.4.2 2 .4.3-.2.6-.3.9-.5-7.1-3.2-14.2-6.4-21.4-9.5-2.7-1.2-5.7-1.8-8.6-1.8-2.9 0-5.8-.1-8.4-1.6-3.2-1.8-4.4-5.5-2.6-8.4s5.5-3.6 8.6-1.6c.9.5 1.8 1.2 2.5 1.9 4.2 4.6 9.8 6.7 15.3 9.1 6.9 2.9 13.7 6.1 20.7 8.8.2-.1.3-.1.5-.2-7.9-6.6-15.5-13.7-24.8-18.3-1.3-.7-2.4-1.7-3.2-3-.9-1.3-.9-3.1 0-4.4 1.1-1.4 2.6-1.5 4.2-1.2 1.5.4 2.9 1.2 3.9 2.5 6.2 6.6 12.9 12.6 20 18.1 1.8 1.3 3.5 2.7 5.3 4.1.4.3.8.7 1.2 1.1.4 0 .8-.1 1.2-.1 2.6-.2 5.1.9 6.7 2.9l1.2 1.5c.3 1.2.6 2.4.8 3.6 1.1 4.4-1.7 8.9-6.1 9.9-.5.1-1.1.2-1.7.2-2.4.2-4.6-.9-5.9-2.9-1.2-1.6-1.4-3.8-.6-5.6.3-1.2 1.5-1.9 2.7-1.7 1.2.1 2.1 1.2 2 2.4 0 1.3-.2 2.6 1.7 2.5 1.5 0 2.6-1.2 2.6-2.6v-.1c.4-3.7-1.3-5.5-5-5-5.9.7-10.8 3.8-15.7 6.8-4.3 2.6-4.3 2.7-2.3 7.2.5 1.1.9 2.3 1.5 3.4 1.8 3.3 4 6.3 7.2 8.4.7.3 1.4.6 2 1 .2.1.3.2.4.3 1 .2 2.1 0 3-.6 3.8-2.4 9-.6 10.8 3.5 1 2.5.3 5.4-1.9 7.1-1 .8-2.5.8-3.4-.1-1-.7-1.1-2.1-.4-3l.1-.1c.6-.9 1.4-1.7.1-2.6-.5-.4-1-.6-1.6-.6-.4 0-1.1.3-1.6.9zm69.8-1.9c5.9 1 10.3 3.8 12.5 9.7.3-.6.5-.8.7-1.1 1.3-1.9 0-3.8.2-5.7.2-1.6-.5-3.1-1.8-4-1.4-1.2-3.2-1.8-5.1-1.8-2.5.1-4.8 1.1-6.5 2.9zm19.2 7.4c3.1 1.2 6.1 2.8 9.6 2.2-2.5-1.5-5.2-2.3-8.1-2.3-.5 0-1 0-1.5.1zm-133.9-.8c-.4.6-.8 1.4-.3 2.1.6.9 1.1-.1 1.6-.4 1.9-1.2 3.8-2.5 6-3.9-.6-.1-1.2-.2-1.7-.2-2.3.1-4.7 1.1-5.6 2.4zm-68.4-14.1c-2.8 1.3-4.1 3.4-3.7 6 .4 2.5 2.2 4 4.2 5.2 2.9 1.6 6.1 2.5 9.4 2.8 6.6.7 13.1-.6 19.6-1.5 7.8-1.1 15.3-3.3 23-5.1l.3-.6c-1.2-.8-2.7-.8-4.1-1.2-5.4-1.3-10.7-3-15.8-5.2-7-1.5-14.2-2.3-21.4-2.5h-1c-3.6-.1-7.2.6-10.5 2.1zM223 243.5c3.3 2.8 8.1 2.5 11.6-.9-5.8-1.2-10.3-3.8-12.3-9.7-2.2 3.1-1.8 8.5.7 10.6zm-18.6-1.9c3.9 1.5 7.2.7 10.6-.4-1.8-.4-3.6-.7-5.5-.8-1.8.1-3.5.4-5.1 1.2zm63-.5c3.4.8 6.8 1.4 10.8-.4-1.5-.5-3-.7-4.5-.7-2.2 0-4.3.4-6.3 1.1zm47.6-.3c5.4.2 10.7-.9 15.6-3.1 7.8-3.3 15.2-7.1 21-13.5 7.8-8.7 14.5-18.2 19.2-29.1.9-2 .8-2.7-1.4-3.4-7.9-2.4-15.7-4.8-23.7-6.6-10.1-2.3-20.2-4.2-30.5-1.5-5.3 1.3-10.9 2.3-14.9 6.5 3.1.3 6.2.9 9.1 2 2.6.9 5 2 7.7 2.6 2 .5 2.6 1.9 2.1 3.7-.3 1.2-.6 2.4-.9 3.5 4.3-3.9 9-7.4 12.3-12.4.8-1.3 2.1-2.1 3.6-2.3 3.4 0 4.9 2.1 3.8 4.8-1.3 3.3-4.3 5.1-7 7-4.2 2.9-8.2 6-12.1 9.2l-.5.5c-.6.6-1.3 1-2.1 1.4-.1.3-.2.5-.2.8 6-2.3 12-4.7 18-6.8 4.9-1.7 9.4-4.5 13-8.1 1.5-1.5 3.4-2.6 5.5-3.2 3.3-.9 6.6 1.1 7.5 4.4.6 3.2-1.5 6.3-4.7 6.9h-.1c-1.1.3-2.2.5-3.4.5-7-.2-13.2 2.8-19.5 5.3l-18.6 7.5c0 .1-.1.2-.1.3 9.5-.5 18.9-1 28.1-3.7 1.6-.6 3.3-1 5-1.1 2.6.1 4.8 1.6 4.9 3.6.1 1.8-1.7 3.9-4 4.3-4.1.6-8.2.7-12.3.3-4.6-.3-9 .6-13.4.9-3.7.2-7.3.8-11 1.2h-1c-.3.4-.6.7-.9 1.1-1.5 1.7-3.5 2.3-6.2 2.8 3.9 1.4 6.9 3.1 7.9 6.9.1.4.4.8.3 1.2-.7 1.8-.3 3.9 1.1 5.3h.1c.7.2 1.7.2 2.7.3zm-117.2-15.5c-2.6.2-4.7 1.5-6.7 2.9-.6.4-1 .8-.5 1.6 1.3 2.1 2.6 4.2 4 6.2 1 1.4 2.6 1.9 4.2 2.4.5.1.9.3 1.3.6.2-.3.5-.6.7-.8.8-.8 1.3-1.1.3-2.2-2.3-2.6-2-5.1.6-7.4.4-.4.8-.5.6-1.3l-.3-1.8h-.2c-1 0-1.9-.1-2.9-.1-.4-.1-.7-.1-1.1-.1zm150 8.9c-1.9 1.2-3.7 2.4-5.8 3.8 2.7.7 6.2-.4 7.3-2.2.4-.6.8-1.4.2-2.1-.1-.2-.3-.3-.5-.3-.5.1-.8.6-1.2.8zm37.6-48.2c2.4 4.6.6 10.2-4 12.5-.1.1-.3.1-.4.2-.6.3-2 0-1.4 1.6 1.9 5.4.2 9.5-5 12.2-.8.5-1.3.8-1.2 2 .6 5.6-2.2 9.4-7.8 10.8-.9.1-1.6.8-1.5 1.7-.6 5.5-2.8 7.9-8.3 9.1-.9.2-1.3.5-1.3 1.7 1.1-.1 2.3-.2 3.4-.4 6.5-1 12.9-2.5 19.2-4.3 10.6-3 21.1-6.2 30.8-11.5 12.5-6.9 24-15.4 34.2-25.4 0 0 0-.1.1-.1.2-.5.7-.9 1.2-1.1 2.7-2.7 5.3-5.4 7.9-8.3 2.5-2.8 2.6-2.8-.9-4.4-6.2-3-12.5-5.9-18.7-8.8-3.8-1.8-4.6-4.3-2.5-7.9 3.8-6.6 7.5-13.3 11.3-20 .7-1.2.7-1.8-.9-2.1-7.1-1.3-14.2-2.6-21.5-2.9-15.1-.7-30.1 0-45.1 3.3-7.6 1.6-15.1 3.8-22.4 6.7-5.7 3.8-11.8 7-18.1 9.6-.2.1-.3.2-.5.3-3.7 2.4-7.3 5.2-10.5 8.3 1.6.6 3 1 3.8 2 1 1.2 1.7 1 2.8.1 3.9-2.9 8.6-2.6 11.8.8 1.2 1.3 1.9 1 3 .2 3.8-2.5 7.8-2.2 10.8.6 1.4 1.3 2.4 3 2.9 4.9.9-.4 1.7-.9 2.5-1.2 5.8-2.5 11.2-1.1 13.4 3.7.7 1.4 1.3 1.7 2.8 1.4.6-.1 1.3-.2 1.9-.2 3.4-.1 6.6 1.8 8.2 4.9zm-158.5 41.8c-.3.5-.4 1.1-.3 1.7.2 4.7 4.2 8.3 8.9 8-3.2-4.8-4.6-9.9-1.8-15.6-4 .4-4.9 3.7-6.8 5.9zm210.7.5c7.8 1.9 15.4 4.6 22.6 8.2-13.4-16.4-28.7-20.1-46.3-10.5h1.4c7.5 0 15 .7 22.3 2.3zM54.8 131.1c-4.5.3-4.5.1-2.9 4.3 2.3 6.4 4.6 12.8 6.8 19.3 1.3 3.7.1 6-3.6 7-7.2 2-14.4 4.1-21.6 6-2.2.6-2.3 1.3-1.1 3 12.3 18 27.1 33.3 45.5 45.2 6.8 4.5 13.9 8.5 21.3 11.9 6.8 1.4 13.5 3.4 20 6.1 4.6.9 9.2 1.5 13.8 1.8-.4-1.5-1-2.6-1-3.7.1-2-.9-2.4-2.5-2.7-4.3-.7-7.5-4.5-7.3-8.9 0-1.5-.3-1.9-1.8-2.2-5.4-.9-8.8-5.9-6.9-10.9 1.1-2.8 0-3.1-2-3.9-5.6-2.3-8.2-6.9-6.6-11.6.5-1.6.4-2.3-1.1-3.3-3.6-2.4-5-6.9-3.5-10.9s5.3-6.6 9.5-5.8c2.8.5 4.3.6 6.1-2.3 2.2-3.6 6.4-4 10.4-2.7.9.3 1.6.7 2.5-.4 3.7-4.4 8-5.2 12.9-2.3.8.7 2.1.7 2.8-.2 0 0 0-.1.1-.1 3.6-3.2 7.8-3.3 11.7-.5.8.6 1.5 1 2.3-.1l-1.5-1.2c-8.4-6.2-17.4-11.2-26.4-16.2-13.6-7.5-28.3-11.4-43.5-13.7-6.5-.9-13.1-1.4-19.7-1.4-.1 0-.1.1-.2.1-.6.2-1.3.2-1.9-.1-3.5.1-7 .2-10.6.4zM245 235.3c7.4-3.8 8.3-3.9 15.4-1.9-.5-2.8-4.4-6.6-6.9-6.8h-.5c-4.4-.1-8.4 4.3-8 8.7zm-39.9-2.5c3.1 1.8 6.7 2.6 10.3 2.3-2.7-.9-5.3-2.4-8.7-2.4-.6 0-1.1 0-1.6.1zm-67.7-3.1c-1 1.4-.9 2.8.7 3.8 2.3 1.5 4.7 1.4 7.6.9-2.4-1.8-4.5-3.4-6.6-5-.2-.2-.4-.3-.7-.3-.5-.1-.8.2-1 .6zm101.7-7c-3 3.3-2.8 8.4.7 11.8 1.1-5.7 3.8-10.3 9.6-12.3-1.6-1.7-3.3-1.4-4.9-1.1-.7.1-1.4.2-2.2.2h-.3c-1.1 0-2.2.5-2.9 1.4zm28.3 11.1c3.2-.4 6.2-1.7 8.8-3.7.4-.3.8-.7.6-1.2-.3-.7-1-.4-1.5-.3-3 .8-5.9 2-8.6 3.5-.5.3-.9.5-.7 1.1.1.5.5.5.9.5.2 0 .3 0 .5.1zm10.8-26.7c3.1.3 6.7 1.5 10.4 2.3 1.7.4 2.8 2.1 2.5 3.8-.6 5.9-2.3 11.2-7.3 15-.4.3-.8.5-1.2.7-.1 1.2-.6 2.4-1.5 3.3 6.3-3.4 12.8-6.1 20.5-4.9-1.8-.6-3.5-1.5-5-2.7-3.3-2.7-4.3-6.8-2.5-10.4 1.1-2.5 3.5-4.1 6.3-4.1 2.4-.1 4.6 1.3 5.6 3.4.6 1.2.7 2.4-.5 3.3-1 .8-2.5.7-3.4-.3-.8-.7-1.4-1.9-2.6-.8-1.1.9-1.3 2.6-.4 3.8 1.9 3 4.8 3.2 7.1.6.4-.4.7-.9 1-1.4 3.9-5.7 4.7-12.5 6.5-19 .3-1-.6-1-1.1-1.2-2.5-.9-4.9-2-7.4-2.7-3.4-1.1-7.1-1.4-10.6-.7-.7.3-1.4.6-2.1.8-.1 0-.2.1-.3.1-.9.6-1.6 1.5-1.7 2.6-1 4.6-6.7 6.9-10.9 4.8-2.1-1.3-3.2-3.6-2.9-6 .1-1.3 1.2-2.3 2.5-2.3 1.2-.1 2.3.8 2.4 2 .2 1.3.6 2.2 2.2 1.8 1.3-.3 2.2-1.6 1.9-2.9v-.1c-.6-3.9-4-5.6-7.5-3.7-2.8 1.5-5 3.8-6.5 6.6-2 3.6-3.6 7.4-4.6 11.4h.4c.8 0 1.5.1 2.3.4.4-.5.9-1 1.4-1.3 1.9-1.6 4.4-2.3 7-2.2zm76.2 21.5c-.4.5-1.3.9-.9 1.5.6.7 1.5 1.1 2.4.9 2.8-.5 3.9-3.4 2.3-6.5-1.4 1.4-2.7 2.7-3.8 4.1zm-147-3.9c-.3.8.6 1.1 1.1 1.4 2.6 1.6 5.4 2.7 8.3 3.4.5.1.9.2 1.3-.3.3-.6-.1-.9-.5-1.2-2.4-2-5.3-3.3-8.4-3.7h-.9c-.5-.1-.8.1-.9.4zm-188.2 3.7c15.9-8.1 32.4-10.3 50.1-8.6-5.5-3.4-11.9-5.2-18.4-5-13 0-26.3 5.9-31.7 13.6zm244.5-1.2c3.3-.9 6.2-2.8 8.5-5.3-3.3.7-7.2 3.2-8.5 5.3zm-136-7.7c-1.3 2.6 1 5.3 4.4 5.3h.4c.4 0 .7 0 .9-.3.3-.6-.2-.9-.5-1.2-1.1-1.3-2.3-2.6-3.2-4-.4-.6-.7-.8-1-.8-.4-.1-.7.4-1 1zm145.6-6.4c-.5.3-.9.4-1.5.5v.6c0 1.7.4 2.1 2.1 2.3 3 .3 4.5 2.5 4.2 5.6-.1.7-.1 1.1.6 1.6.5.3 1 .6 1.4.9l.3-.3c2.9-2.2 4.8-5.5 5.3-9.1.2-1.1.2-1.6-1.1-1.8-2-.3-4-.9-6-1.4-.4-.1-.8-.1-1.3-.1-1.3.1-2.8.5-4 1.2zm165.6 3.3c5.8 1.1 11.3 3.7 15.9 7.5.2.2.6.3.9.4-3.5-5.4-7.7-10.3-12.4-14.8-1.2-1.2-2.6-2.3-3.9-3.4l-.1-.1c-3.3 2.8-6.6 5.6-10.1 8.2-1 .8-2.1 1.5-3.1 2.3 2.3-.4 4.6-.7 6.9-.7 1.9 0 3.9.2 5.9.6zm-216.1 6.4c-2-2.9-3.9-5.8-7.6-6.9 1.9 3 4.2 5.5 7.6 6.9zm36.8-.1c2.9-2 5.8-3.9 6.9-7.6-3.1 1.7-5.5 4.4-6.9 7.6zm106.8-9.4c-1.4 2.4-3.5 4.3-4.8 6.8 2.7 1 4.7.6 6.2-1.3 1.3-1.5 1.3-3.7.2-5.2-.3-.4-.5-.8-.9-.8-.2-.1-.4.1-.7.5zm-139.2 5.5c-1.4-3-2.2-6.3-5.1-8.3.8 3.2 2.6 6.1 5.1 8.3zM44.4 195c-7.9 6.1-14.6 13.3-20.8 20.9-.7.6-1.2 1.5-1.4 2.5 5.6-3.7 11.8-6.3 18.4-7.7 7.3-1.7 14.9-1.5 22 .5-6.3-5-12.3-10.6-17.8-16.5-.1.1-.2.2-.4.3zm211.9 13.4c-1.5 2.6-2.7 5.4-3.5 8.4-.2.5-.3.9.3 1.3s.9 0 1.2-.4c2.1-2.5 3.4-5.6 3.8-8.8-.2-.4.2-1.2-.4-1.4-.1 0-.2-.1-.3-.1-.6-.2-.9.5-1.1 1zm-27.5-2.8c-.6.3-.3 1-.2 1.6.8 2.9 1.9 5.7 3.5 8.3.3.5.6 1.1 1.3.8.6-.2.4-.8.4-1.3 0-2.2-2-7.3-3.5-8.7-.3-.3-.6-.8-1.1-.8-.2 0-.3.1-.4.1zm-33.1-8.8c-3.8.5-5.7 3.8-3.8 7.2 1 2.1 2.5 3.9 4.4 5.3 4 2.7 8.5 4.8 13.1 6 .2.1.4.1.6.2v-.5c0-.8.2-1.5.4-2.2-.5-.3-.9-.8-1.2-1.3-1.4-2.1-2.1-4.5-2-7 .3-3.3 1.5-7 2.3-10.7.4-1.6 2-2.7 3.6-2.4 5.9.6 11.2 2.2 15 7.2.3.4.6.8.8 1.3 1.2.2 2.4.7 3.4 1.5-3.4-6.3-6.2-12.8-5-20.7-.6 1.7-1.4 3.4-2.5 4.8-2.2 2.8-5 4.2-8.7 3.4-3.1-.6-5.4-3-6-6.1-.3-2.5.9-5 3.1-6.2 1.3-.7 2.6-1 3.5.4.9 1.1.7 2.6-.3 3.5h-.1c-.7.7-1.7 1.3-.7 2.4.8 1 2.2 1.3 3.3.8 3.3-1.4 3.8-5 1.1-7.3-.5-.4-1-.8-1.6-1.2-5.7-3.8-12.4-4.7-18.8-6.3-1-.3-1.1.5-1.3 1.1-.9 2.5-2 5-2.8 7.6-1.1 3.3-1.3 6.8-.7 10.2.4.7.7 1.5.9 2.4 0 .1 0 .2.1.3.6.9 1.5 1.5 2.6 1.7 4.6 1 6.9 6.6 4.8 10.8-1.2 2.1-3.6 3.3-6 2.9-1.3-.1-2.3-1.2-2.4-2.4-.1-1.2.8-2.3 2-2.5 1.3-.3 2.3-.5 1.8-2.1-.2-1.2-1.3-2-2.5-1.9 0-.2-.2-.2-.4-.2zm51.5 18.5c1.2-3.1 2.8-6.1 2.2-9.6-1.7 2.9-2.5 6.3-2.2 9.6zm-5.8-.3c.5-3.5 1.1-6.8-.5-10.2-1.5 2.3-1.3 8 .5 10.2zm-121.9-8.1c-1 1.4-1.8 2.8-.9 4.5.9 1.8 2.6 2 4.6 2.2.5-.1 1.5 0 1.9-.4.6-.8-.4-1.4-.8-2.1-.8-1.4-1.8-2.8-2.6-4.2-.4-.6-.7-.9-1-.9-.5 0-.8.4-1.2.9zm94-9.6c-.4 1.9-1 3.8-1.4 5.7-.4 2.1 0 4.3 1.1 6.2.2.4.4.9.5 1.3h.7c1.5 0 2.1-.2 2.2-1.9.2-3.2 2.4-4.7 5.6-4.4.8.1 1.1 0 1.5-.7.3-.5.6-.9.9-1.4-.1-.1-.2-.2-.3-.4-2.2-2.9-5.5-4.8-9.2-5.2-.3-.1-.6-.1-.9-.1-.3.1-.6.2-.7.9zm158.9 5.3c-.7 1.4-1.4 2.8-2 4.2-.2.5-.9.9-.3 1.5.4.3.9.4 1.4.4 1.9-.1 4.1-2.6 4.1-4.7 0-.4-.1-.8-.3-1.2-.4-.7-.9-1.5-1.7-1.6h-.1c-.8-.2-.8.8-1.1 1.4zm-115.8-16.4c3 3.9 5.9 7.8 5.5 13.1 0 .9-.1 1.8-.1 2.7 0 .4-.1.9-.2 1.3.7.9 1.1 2 1.2 3.1v.5c1.8-6.7 4.8-12.7 9.9-17.6-1.2.3-2.4.7-3.6.9-4.4 1.1-8.8-1.7-9.9-6.1-.1-.5-.2-1.1-.2-1.7-.2-2.4.9-4.6 2.9-5.9 1.6-1.2 3.8-1.4 5.6-.6 1.2.3 1.9 1.5 1.7 2.7-.1 1.2-1.2 2.1-2.4 2h-.4c-1.2 0-2.3 0-2.1 1.7 0 1.5 1.2 2.6 2.7 2.6 3.7.4 5.5-1.3 5-5-.7-5.9-3.8-10.8-6.8-15.7-2.6-4.3-2.7-4.3-7.2-2.3-1 .5-2.1.9-3.1 1.4-3.4 1.9-6.5 4-8.7 7.3-.2.6-.5 1.3-.9 1.9-.1.2-.2.4-.3.5-.2 1 0 2.1.6 3 2.4 3.8.6 8.9-3.5 10.8-2.4 1-5.2.3-6.9-1.7-.9-1-1-2.6 0-3.6.8-1 2.1-1.1 3.1-.4l.2.2c.8.6 1.4 1.2 2.3.1.8-1 1.2-2 .3-3.1-1.1-1.5-2.9-2.2-4.8-2-1.6.1-3 1.2-3.5 2.7-.7 1.7-1 3.5-1 5.3.1 5.9 2.5 11 5.2 16 .1.1.1.2.2.3.6-.7 1.4-1.3 2.3-1.6-.1-.6-.1-1.3.1-1.9.6-3.2 2.6-6 5.3-7.7 2.2-1.4 4.4-2.9 6.6-4.2.7-.5 1.5-.7 2.4-.8.9.3 1.9.9 2.5 1.8zm-4.7 4.8c-1.3.9-2.6 1.7-4 2.4-1.9 1.1-3.3 3-3.8 5.2-.1.5-.3.9-.6 1.4.7.6 1.3 1.2 1.8 2 .6-.6 1.2-1.1 1.8-1.5 1.8-1.1 4-1.6 5.5 0 1 1.3 2.8 1.9 4.4 1.3v-.2c.5-3.5-.4-7.1-2.5-10-.5-.7-.9-1.1-1.4-1.1-.4 0-.8.2-1.2.5zm-141.5 1.6c-1.2 1.1-1.2 2.9-.1 4.1l.3.3c1.9 1.8 4.3 2.9 6.9 3.1-1.4-2.5-2.6-4.8-3.8-7.1-.5-1-1-1.5-1.6-1.5-.5 0-1 .3-1.7 1.1zm263.2-5.2c3.4 1.8 3.4 1.9 2.8 6-.2 1.3.4 1.1 1.2 1 1.9-.3 3.3-1.7 3.5-3.6.3-1.6-.4-3.2-1.9-4-.8-.4-1.7-.7-2.6-.7-1 .1-2.1.5-3 1.3zm-88.3-.2c.4.2.9.5 1.3.8 2.3 1.8 3.1 2.5 4.5 2.6l.2-.3c2.4-2.5 5.3-4.8 7.1-7.9 4.8-8.6 8.5-17.8 8.7-27.7.2-12.9-2.2-25.8-7-37.8-.8-2-1.3-2.3-3.2-1.3-9.2 4.8-18.2 9.9-26.9 15.6-9.5 6.2-16.8 14.1-21.4 24.5-1.1 2.3-1.8 4.8-1.9 7.4 2.3-1.9 4.8-3.4 7.5-4.6 2.6-1.1 5.1-2.3 7.5-3.7 1.8-1.1 3.3-.6 4.4 1.2l1.8 3c0-.9.1-1.8.2-2.7.7-4.5.6-9.2-.3-13.7-.3-1.5-.1-3 .5-4.4.5-1.4 1.8-2.4 3.4-2.5 1.4 0 2.7 1 3.2 2.4.6 1.7.8 3.5.7 5.4-.8 5.3-1.6 10.9-2.4 16.5-.2 1.8-.2 3.6-.5 5.4-.1.4-.2.7-.3 1.1.1.3.3.5.4.8 3.2-7.1 6.4-14.2 9.5-21.4 1.1-2.6 1.7-5.5 1.8-8.4 0-2.9 0-5.9 1.6-8.6 1.9-3.2 5.5-4.4 8.4-2.6s3.6 5.5 1.6 8.6c-.5.9-1.2 1.8-1.9 2.5-4.6 4.2-6.7 9.8-9.1 15.3-2.9 6.9-6.1 13.7-8.8 20.7.1.2.1.3.2.5 6.6-7.9 13.7-15.5 18.3-24.8.5-1.1 1.4-2.1 2.4-2.8 1.7-1.2 3.5-1.7 5.2-.2 1.6 1.4 1.5 3.4.7 5.2-.6 1.2-1.4 2.2-2.4 3.1-7.8 7.5-15 15.6-21.4 24.3-.4.7-1 1.3-1.5 1.8 0 .2 0 .4.1.6.3 2.7-.8 5.5-2.9 7.2 2.3-1.1 4.5-2.1 6.9-2.1 1.2-.1 2.6.3 3.8 1zm-178.2-9.7c-1.7.7-2.5 2.6-2.1 4.3.5 2.1 1.9 3.5 4.5 3.8-1.4-4.2-1.4-4.2 3.1-6.9-.9-1-2.2-1.6-3.5-1.7-.6 0-1.3.2-2 .5zm257.6 2.6c-2.6.1-5 1.1-6.9 2.8 2.6.8 5 1.5 7.5 2.2.7.2 1.6.9 2.2 0 1-1.4.7-3.4-.8-4.4-.5-.4-1.1-.6-1.7-.6h-.3zm-172.9-67.4c-3 9.6-5.8 19.2-7.8 29-1.8 8.5-2.6 17.1-.4 25.6 1.3 5.2 2.3 10.8 6.4 14.8.3-3.3 1.1-6.5 2.2-9.5.9-2.3 1.7-4.6 2.3-7 .5-2.1 1.8-2.9 3.8-2.4 1.1.3 2.3.6 3.4.8-.8-1-1.7-2-2.5-3-2.6-3.2-5.5-6.1-8.9-8.5-1.9-1.4-3.4-3.1-3.1-5.7.2-1.9 1.5-2.6 3.1-2.9 2.4.4 4.5 1.8 5.9 3.8 2.3 2.9 4.4 5.9 6.6 8.9 1.9 2.6 3.9 5.1 6 7.5.3.3.5.7.7 1 .3.3.5.7.7 1.1.3.1.5.1.8.2-2.3-6-4.7-12-6.8-18-1.7-4.9-4.5-9.3-8.1-13-1.5-1.4-2.5-3.2-3.1-5.2-1-3.2.8-6.6 4.1-7.6 3.2-.9 6.3 1.2 7.2 4.7.3 1.1.5 2.2.5 3.4-.2 7 2.8 13.2 5.3 19.5l7.5 18.6c.1 0 .2.1.3.1-.5-9.4-1-18.7-3.7-27.8-.6-1.7-1-3.5-1.1-5.3 0-2.7 1.6-4.8 3.6-4.9 1.8-.1 3.9 1.7 4.3 4 .6 4.1.7 8.2.3 12.3-.3 4.6.6 9 .9 13.4.2 3.7.8 7.3 1.2 11v1c.4.3.7.6 1.1.9 1.6 1.5 2.3 3.5 2.8 6.2 1.4-4 3.1-6.9 6.9-7.9.4-.2.8-.2 1.2-.2 1.8.6 3.8.1 5.2-1.1v-2.4c.1-14.7-6.3-26.8-16.3-36.8-8.6-8.5-18.7-15.2-29.8-19.8-.4-.2-.9-.3-1.3-.4-.7 0-1.1.5-1.4 1.6zm151.4 65.7c-.4.9.1.9.7 1.1 2 .4 4 .9 6 1.4 1.1.2 1.8.1 1.5-1.3-.1-2-.7-3.7-3-4.1h-.4c-2 0-3.8 1.2-4.8 2.9zm102.1-32.6c-3.6 7-7.3 13.9-11.1 20.8-.8 1.4-.7 2 .9 2.7 6.5 3 13 5.9 19.3 9.2 2.3 1.2 3.4.6 4.8-1.3 1.1-1.5.6-1.9-.8-2.6-5-2.1-9.8-4.7-14.3-7.7-2.6-1.8-2.9-3.2-1.5-6 2.1-4.3 4.2-8.7 6.3-13.1.2-.5.4-1.1.7-1.6-.2-1-1.1-.9-1.7-1-.5 0-1-.4-1.5-.4-.4.2-.7.4-1.1 1zm-125.9 28c-2.4.8-4.5 2.4-5.8 4.7 2.9-.4 5.5-.7 8-1 .9-.1 1-.7 1-1.4 0-1.3-.9-2.3-2.2-2.4h-.2c-.2-.1-.5 0-.8.1zm9.6 3.3c2.2.2 4 .5 5.9.6.7.1 1.6.6 2-.2.2-.8 0-1.7-.6-2.3-.6-.8-1.6-1.3-2.6-1.3-1.6.1-3.4 1.1-4.7 3.2zm-207.5-5.6c-1.5.3-2.6 1.6-2.6 3.1 0 1.2.2 2 1.6 1.4 1.7-.7 3.4-1.2 5.1-1.8 1-.3 1.5-.9.7-1.7-.8-.8-2-1.3-3.1-1.3-.6 0-1.1.1-1.7.3zm14.3-4c-2 .1-3.6 1.6-3.8 3.6-.2.8-.3 1.5 1 1.3 2.7-.5 5.5-.9 8.2-1.4-1.1-2.5-2.5-3.5-4.5-3.5-.3-.1-.6 0-.9 0zm23.5 2.8c2.8.6 5.5 1.2 8.8 1.9-1.5-2.2-3.9-3.6-6.6-3.8h-.2c-1 0-1.7.7-2 1.9zm294.8-22.1c-2.2 4.6-4.2 9.3-6.6 13.7-.7 1.3.2 1.6.9 2 3.1 1.8 6.3 3.5 9.6 5 1.6.7 3.1 1.4 4.8 2.1 1.6-.4 1.9-2.1 2.8-3.1.9-.9.6-1.4-.6-1.8-2.8-.9-5.6-1.9-8.4-2.9-3.5-1.3-4.1-3-2.3-6.2l3.9-6.9c.3-.6 1.5-1.5-.2-1.8-.9-.1-1.9-1.1-2.8-1.1-.4 0-.8.3-1.1 1zm-307.5 22.2c1.1-.1 2-.2 2.9-.2s1.8-.1 2.7-.2h.6c.5.1 1.1.1 1.2-.6 0-.8-.4-1.6-1.1-2.1-.6-.4-1.3-.7-2-.7-1.8 0-3.4 1.3-4.3 3.8zm27.2-7.4c.7 2.5 2.3 4.2 4.7 5.7-.4-2.9-.7-5.4-1-8-.1-.9-.7-1-1.4-1-1.3 0-2.4 1.1-2.4 2.4-.1.3-.1.6.1.9zm138-2.8c-.5 2.4-1 4.9-1.7 7.9 2-1.4 3.4-3.5 3.7-5.9.2-.8 0-1.7-.6-2.2-.3-.3-.6-.6-.9-.6-.2-.1-.4.1-.5.8zM43.5 132.1c-3.6.1-3.5.1-2.5 3.4 1.6 4.8 3.4 9.6 4.2 14.6.5 3.3-.1 4.3-3.2 5.3-4.7 1.6-9.5 3.2-14.2 4.9-.6.2-2 .4-1.1 1.6.7.9.5 2.9 2.5 2.3 7.6-2.3 15.2-4.7 22.8-6.9 1.4-.4 1.7-.8 1.2-2.2-2.6-7.2-5.2-14.5-7.7-21.8-.3-1-.8-1.3-1.5-1.3-.1 0-.3.1-.5.1zm419.4 19.4c-1 1.9-2.1 3.9-3.2 5.8-.3.5-.8 1.3.1 1.6 2.8 1.1 5.7 2 8.5 3 .3.1.7 0 .8-.3 1.2-2.4 2.8-4.9 2.8-7.5 0-1.8-2.9-1.9-4.5-2.7-.7-.3-1.4-.5-2.1-.8-.3-.2-.7-.3-1-.3-.6 0-1 .5-1.4 1.2zM143.5 43c-1.2 7-2.6 14.1-2.9 21.2-.9 15.2.2 30.4 3.3 45.3 1.6 7.6 3.8 15.1 6.7 22.4 3.8 5.7 7 11.8 9.5 18.1.8 1.2 1.6 2.4 2.5 3.5 1.8 2.7 3.9 5.2 6.2 7.5.4-1.6.8-2.9 1.8-3.7 1.4-1.1 1-2 .1-3.2-2.7-3.5-2.3-8.4.9-11.4 1.2-1.2 1.2-1.8.3-3.1-3.1-4.5-1.8-10.3 3.1-12.6 2.2-1 2.3-1.6 1.3-3.7-2.6-5.6-1.1-11.1 3.5-13.2 1.7-.8 1.8-1.6 1.5-3.2-.7-4.4 1.7-8.7 5.9-10.3 4.6-1.7 9.5.3 11.8 4.9.3.6 0 1.8 1.5 1.4 6.3-1.7 9.4-.4 12.5 5.2.5.9.9 1 1.9.9 5.2-.6 9.5 2.3 10.6 7.4.4 1.5.9 1.8 2.4 2 4.9.5 7.7 3.2 8.5 8.1.2.9.3 1.6 1.5 1.5v-.9c-.7-5.3-1.7-10.5-3-15.7-2.9-11.7-6.1-23.4-11.7-34.2-7-13.5-16-25.9-26.6-36.8h-.1c-.6-.3-1-.7-1.2-1.3-2.5-2.5-5-4.9-7.7-7.2-3.6-3.2-3.5-3.2-5.5 1-2.9 6.2-5.8 12.3-8.8 18.5-1.6 3.3-4.2 4-7.2 2.3-6.7-3.8-13.5-7.6-20.2-11.4-.4-.3-.9-.5-1.4-.6-.5-.1-.8.2-1 1.3zm160.6 57.2c5.2 1.8 7.6 6.9 5.8 12.3-.2.7-1 1.2.3 1.9 5.2 2.6 6.8 6.4 5.1 12.2-.4.8-.2 1.8.6 2.3 4.4 3.6 5.2 8 2.3 12.9-.7.8-.6 2.1.2 2.8 0 0 .1 0 .1.1 3.1 3.6 3.3 7.8.4 11.7-.6.9-1 1.5.1 2.2.2-.2.4-.5.6-.7 9.7-13.4 18.3-27.6 23.9-43.2 5.5-15.3 7.8-31 8.1-47.1 0-.1-.1-.2-.1-.2-.3-.6-.2-1.4.1-1.9 0-4.4-.1-8.8-.4-13.2-.1-1.6-.7-1.8-2-1.2-1.5.6-3.1 1.1-4.6 1.6-5.6 2-11.3 4.1-16.9 6-3.7 1.3-5.9 0-7-3.7l-6-21.6c-.5-1.8-.9-2.5-2.9-1.1-18.1 12.3-33.5 27.2-45.4 45.7-4.5 6.8-8.5 13.8-11.9 21.2-1.4 6.8-3.4 13.5-6.1 20-.9 4.5-1.5 9.1-1.8 13.8 1.2-.5 2.4-.8 3.7-.9 1.8.1 2.3-.6 2.6-2.3.6-4.4 4.5-7.7 8.9-7.5 1.5 0 1.9-.4 2.1-1.8.9-5.4 6.2-8.8 11.2-6.8 2.4.9 2.7.2 3.4-1.7 2.2-5.9 7-8.7 12-6.9 1.5.5 2.1.3 2.9-1 1.7-2.6 4.6-4.2 7.7-4.2 1.1-.1 2.1 0 3 .3zm-273 33.9c-1.4.2-2 .6-1.2 2.1 1.4 2.7 2.7 5.4 4 8.2 1.3 2.9.5 4.5-2.5 5.4-2.7.8-5.4 1.5-8 2.3-.7.2-2 .3-1.1 1.5.8 1 .4 3.7 2.7 2.8 4.7-1.8 9.4-3.5 14.1-5 .7-.2 1.3-.4 1.1-1.6 0-.1-.1-.6-.3-1.1-1-4-2.3-7.9-3.8-11.7-.9-2.5-1.2-3.2-2.5-3.2-.8.1-1.7.2-2.5.3zM364 115.2c-4.2 1.2-8 3.6-11 6.8-7.7 8-13.9 17.2-19.6 26.8-1.2 1.9-2 4.1-3.6 5.8 0 .3.1.7.2 1 4.6-2.9 9.4-5.6 14.3-8 1.6-.8 3.3-1.5 4.9-2.1 6.7-4.4 12.8-9.5 18.4-15.2 2.5-2.4 4.3-5.5 5.1-8.9.7-2.8-1.1-5.6-3.9-6.3-.2 0-.4-.1-.6-.1-.4 0-.9-.1-1.3-.1-1.1-.1-2 0-2.9.3zm-51.6 37c.1.6-.4 1.7.6 1.8.8 0 1.6-.4 2.1-1.1 1.6-2.2.3-5-3.1-6.2.1 1.9.2 3.7.4 5.5zm-137.2-6.1c-.9.7-1.3 1.7-1.3 2.8.1 1.3.7 2.6 1.6 3.5.3.3.8.7 1.2.7.6-.1.4-.8.5-1.2.2-1.5.3-2.9.4-4.4.1-.7.6-1.6-.2-2-.2-.1-.4-.1-.6-.1-.5 0-1.1.3-1.6.7zm-60.4-31.9c-.2 1.4-.1 2.8.3 4.1 1.2 4 3.3 7.6 6.3 10.4 8.1 8 17.5 14.3 27.3 20.1 1.9 1.2 4.1 2 5.8 3.6.3-.1.6-.1.8-.3-1.7-2.8-3.4-5.6-5-8.4-1.9-3.4-3.6-7-5-10.7-4.4-6.7-9.5-12.9-15.2-18.4-2.4-2.5-5.5-4.3-8.9-5.1-.4-.1-.8-.1-1.2-.1-2.6.2-4.9 2.2-5.2 4.8zm-91.6 22.1c-7.2 1.7-8.1 3.5-4.7 10.1.2.3.3.6.4.9.3.7.8.8.9.8 2.7-.5 5.4-1.3 8-2.2 1.2-.4.7-1.1.4-1.7-1.1-2.3-2.3-4.6-3.4-6.8-.3-.6-.5-1-1.1-1-.2-.2-.3-.1-.5-.1zm225.6 2c-1.2 2.2-1.4 4.9-.7 7.3 1.7-2.3 3.3-4.4 4.9-6.4.7-.9.2-1.6-.5-2-.5-.3-1-.5-1.5-.5-1 .1-1.8.7-2.2 1.6zm61.3-4.8c.4 1.6.5 3.2.8 4.9.1.9 0 2.4.8 2.6 1.2.3 1.9-1.1 2.6-1.9 1.4-2.3.6-5.2-1.6-6.5-.3-.2-.6-.3-.9-.4-.3-.1-.7-.2-1-.2-.8-.1-1.1.3-.7 1.5zm-76.3-.6c-.7.6 0 1 .3 1.4 1.3 2 2.6 4 4 6.2.6-3-.6-6.5-2.4-7.5-.3-.2-.7-.3-1.1-.4-.3 0-.6.1-.8.3zm-54.2-1.9c-2 .1-3.7.7-4.1 3-.3 1.7 1.4 4.6 3 5.2.9.4.9-.1 1.1-.7.4-2 .9-4 1.4-5.9.2-.9.1-1.6-.8-1.6-.3-.1-.5-.1-.6 0zm224.7-9.7c-3.9 6.1-9.2 11.2-15.6 14.7 6.4-.8 12.8-1.1 19.2-1 1.7 0 3.4.1 5.1.2v-.1c1-9.3 1-18.7.1-28-.1-1.8-.4-3.5-.8-5.2-1.4 6.9-4.1 13.5-8 19.4zm-1.5-44.1c4.3 1.4 7.8 4.7 9.3 9 2.1 5.6 4.7 11 5.6 17 1.1 7.2 1.5 14.6 1.1 21.9-.2 3.4.1 6.9-.7 10.3v.1c.8.1 1.6.1 2.3.2v-.1c4.1-16.9 2.4-34.7-4.8-50.5-2.7-6.2-6.6-10.4-13.7-12.1-9.2-2.1-18.2-5-27.6-5.8-2.3-.2-4.6-.2-6.9 0-3.6.1-7.2.4-10.7 1.1 0 1.1-.1 2.2-.1 3.2.3-.1.7-.1 1-.1 2.3-.1 4.7-.2 7-.2 13-.2 25.9 1.9 38.2 6zm-24.5 57.2c15.9-2.7 30.9-24 29-40.9-5.5 16.5-15.6 29.6-29 40.9zm-120.7-2.2c.1.3-.2.9.4 1.2.6.3.9-.2 1.2-.5 1.3-1.1 2.6-2.3 4-3.2 1.5-1 .7-1.5-.3-2-.5-.2-1-.4-1.5-.4-2.1 0-3.8 2-3.8 4.9zM375 112.9c6.1 6.1 2.3 12.2-1.1 18.1 10.2-7.7 18.6-17.6 24.4-28.9 2.4-4.6 4.2-9.5 5.4-14.5.5-2-.3-2.1-1.8-1.8-3.8.8-7.5 1.9-11.1 3.3-13.4 5-25.3 13.1-34.9 23.7 3.7-1.6 7.4-3.3 11.1-3.3 3-.1 5.9 1.2 8 3.4zm-287.8 2c4.7 7.7 11.9 12 20.4 14.5C96.5 118.3 88.1 104.8 83 90c-.5 8.7-.5 17.2 4.2 24.9zm137.2 9.3c1.5 1.4 2.8 2.6 4.2 3.7.5.4.8 1.5 1.7.9.6-.5.9-1.4.7-2.2-.3-1.9-1.9-3.2-3.8-3.1-1 0-1.9.3-2.8.7zM76.1 124c.1.7.2 1.4.2 2.1 5.7.4 11.3 1 16.9 2-3-2-5.6-4.4-7.8-7.2-3.9-4.8-6.4-10.6-7.2-16.7-.1-.9-.3-1.8-.6-2.6-1.6 7.4-2.1 14.9-1.5 22.4zM86 81.2c3 13.4 9.2 25.8 18 36.3 2.8 3.4 5.9 6.6 9.2 9.6-3.3-7.1-6.3-13.8-.1-19.7 6.1-5.9 12.1-2.1 18.3 1.7-3.6-4.9-7.8-9.4-12.4-13.3-8.8-7.9-19.2-13.7-30.6-16.8-.6-.2-1.3-.3-1.9-.4-1-.1-1 .6-.5 2.6zm220.4 39.3c.7 1.7 1.2 3.4 1.8 5.1.3 1 1 1.5 1.7.6 1.2-1.3 1.6-3.1 1-4.8-.3-1.5-1.6-2.6-3.1-2.6h-.3c-1.1.1-1.6.4-1.1 1.7zM82.5 68c-6.3 3-8.6 8.3-10.1 14.5-2.1 8.3-4.6 16.4-5.1 25-.5 6.1-.1 12.3 1.1 18.3 1.1 0 2.1.1 3.2.1-.1-.4-.1-.8-.1-1.2-.7-15.1.7-30 5.6-44.4 1.6-4.8 4.5-8.2 9.5-10.1 5.5-2.1 10.9-4.6 16.8-5.5 7.2-1.1 14.6-1.5 21.9-1.1 3.4.2 6.9-.1 10.3.7.1-.8.1-1.6.2-2.3-1.1-.2-2.2-.5-3.3-.7-5.1-.9-10.2-1.4-15.4-1.4-12.1 0-23.9 2.8-34.6 8.1zM271 118.6c-1.9.9-2.2 2.7-2.3 4.7.3.5-.3 1.5.5 1.9.7.4 1.2-.4 1.7-.7 1.5-.9 2.9-1.9 4.4-2.7 1.4-.8 1.2-1.5 0-2.3-.8-.7-1.8-1.1-2.9-1.2-.5-.1-.9 0-1.4.3zm-89.1-4c-1.3.6-2.1 2-1.8 3.5.2 2.4 1.2 4.7 2.8 6.6.8-2.7 1.5-5.1 2.2-7.4.2-.8 1-1.7-.1-2.4-.5-.3-1.1-.5-1.7-.5-.5-.1-1 0-1.4.2zm31.6-.2c-.8.5-1.1.9-.1 1.6 2.2 1.5 4.4 3.1 6.8 4.9 1.1-2.8.6-4.8-1.5-6.4-.7-.6-1.6-.9-2.6-1-.9.1-1.9.4-2.6.9zm72-3.8c-1.9 1.9-3 4.4-3.2 7l7-3.9c1.9-1.1 2.1-2 .4-3.4-.6-.5-1.3-.8-2-.8-.9.1-1.6.4-2.2 1.1zm-45.8-46.5c-1.8 2.6-2.9 5.6-3.3 8.7C235 81 236.8 89 238 97c1 6.8 3.1 13.4 4.6 20.2.3.1.5.3.8.4 1.2-4.9 2.4-9.7 4-14.4.7-2.1 1.5-4.1 2.3-6.1 1.5-7 2.3-14.2 2.4-21.4.1-3.5-.4-7.1-1.8-10.4-1.2-2.9-3.3-4.4-5.4-4.4-1.8 0-3.7 1.1-5.2 3.2zm64.1 48.6c1.7-2 2.2-3.9.9-6-.9-1.6-2.8-2.2-4.5-1.6-2 .5-3.3 2.3-3.3 4.4 1-.4 2.1-.6 3.2-.8 1.3.1 1.9 1.1 3.7 4zm-102.7-4.1c-.3 1.1 1.1 1.1 1.8 1.5 1.3.7 2.7 1.3 4 2 1.5.8 1.8 0 1.7-1.2-.1-2-2.5-4.2-4.8-4.2h-.2c-1.2.1-2.2.9-2.5 1.9zm-14.2-5.7c-1.1 1.9-1 3.9.5 6 1.9-3.8 1.9-3.9 5.9-3 1.3.3 1.4-.2 1.1-1.2-.3-1.8-1.7-3.1-3.4-3.4-.3-.1-.6-.1-.9-.1-1.3-.1-2.5.6-3.2 1.7zm165.9 5.2c11.5-11.6 24.5-19.9 39.6-24.9-2.1-.2-4.2-.3-6.3-.4-16.7 0-28.3 7.9-33.3 25.3zM93.1 75.2c16.8 5.4 30 15.5 41.3 28.9-2.5-15.6-22.7-29.2-37.6-29.2-1.2 0-2.4.1-3.7.3zm13.9-5.9c-1.8.1-3.5.4-5.2.8 6.8 1.4 13.3 4 19.1 7.7 6.3 3.9 11.5 9.3 15.1 15.8-.9-8-1.2-16.1-.9-24.2h-.1c-4.6-.5-9.2-.8-13.8-.8-4.7.1-9.4.3-14.2.7zm251.3 6.8c-.7.1-1.3.2-2 .2-.1 2.1-.3 4.3-.6 6.4-.4 3.5-.8 6.9-1.4 10.3 1.9-2.8 4.2-5.4 6.9-7.5 4.9-4 10.7-6.5 16.9-7.4.9-.1 1.8-.3 2.6-.6-5.5-1.1-11.2-1.7-16.8-1.7-1.8 0-3.7.1-5.6.3zM245 55.8c8.6.3 10.3 7 12.1 13.6 2-18.9-.2-36.8-10.6-53.2-8.6 7.5-18 41.3-14.9 52.8 4.6-10 7.5-13.2 12.8-13.2h.6zm17.5 13.6c10.2-16.2 3.5-41.2-8.3-49.9 7.9 15.6 10 32.1 8.3 49.9zm-36.4-.9c-.4-15.8 3.1-31.5 10.1-45.7-16.4 13.1-19.7 28.5-10.1 45.7zM271 37.7c2.4 8.1 2.5 16.8.2 24.9 5-6.3 10.5-12.3 16.5-17.8l-.3-.3c-6-7.8-13.2-14.4-20.7-20.7-.7-.8-1.7-1.3-2.7-1.6 3 4.8 5.4 10 7 15.5zm-51.8-7.4c-1.6 1.3-3.2 2.6-4.7 4-3 2.9-6.1 5.6-8.5 9 3.7 4.3 7.2 8.8 10.5 13.4-.9-4.2-.9-8.5-.2-12.8 1.2-6.3 3.9-12.2 7.8-17.2-1.6 1.1-3.3 2.3-4.9 3.6zm100.5-3.1c-1.4.9-1.7 1.6-1.1 3.4 2.3 6.8 4.2 13.8 6.2 20.7.5 1.9.9 2.7 3.2 1.8 6.9-2.7 13.9-5 20.8-7.4 1.3-.4 1.7-1.1 1.4-2.2-.1-3.5-.1-3.5-3.4-2.4-4.8 1.6-9.6 3.4-14.6 4.2-3.3.5-4.2-.1-5.3-3.2-1.6-4.7-3.2-9.3-4.8-13.9-.3-.9-.6-1.4-1.2-1.4-.5-.1-.9.1-1.2.4zm-174.1 6.4c-.1 1.1-1.6 2.4.2 3.4 6.9 3.7 13.8 7.3 20.6 11.1 1.6.9 2.3.7 3-1 2.7-5.9 5.6-11.7 8.4-17.5.6-1.3 1.1-2.5 1.7-4-.2-.9-1.1-1.2-1.7-1.9-1.5-1.6-2.4-1.5-3.3.8-2 4.7-4.4 9.2-7.2 13.4-2.1 3.1-3.3 3.4-6.5 1.8-4.4-2.2-8.9-4.3-13.3-6.4-.4-.2-.8-.4-1.3-.5-.3 0-.5.2-.6.8zm106-23.1c3.3 1.5 6.7 2.7 9.9 4.3 9.2 4.5 16.2 11.6 23.2 18.9 2.4 2.3 4.5 4.8 6.5 7.4.1.1.1.2.2.3l1.8-1.5c-.1-.2-.2-.4-.4-.6C283 23.8 269.5 12.8 252 6.8c-5-1.7-9.8-1.9-14.8 1.1-9.3 5.5-19 10.5-26.9 18-3.7 3.4-6.9 7.2-9.7 11.3.8.8 1.5 1.6 2.3 2.4 1.3-1.9 2.9-3.6 4.6-5.1 10-9.8 20.8-18.6 33.8-24.3 1.5-.7 3.2-1 4.9-1 1.8 0 3.7.5 5.4 1.3zm77.3 11.7c-1.1.8-3.9.4-3 2.9 1.7 4.5 3.4 9.1 4.9 13.7.4 1.3 1 1.7 2.3 1.4 4.9-1.3 9.7-3 14.4-4.9.7-.3 1.4-.6 1-1.9-.1-.4-.2-1.1-.3-1.8-.2-1.8-.6-2.5-2.6-1.4-2.6 1.4-5.3 2.7-8 3.8-2.7 1.2-4.4.4-5.2-2.5-.8-2.7-1.5-5.4-2.3-8-.1-.5-.1-1.5-.7-1.5-.1-.1-.3 0-.5.2zm-180.5 2.1c-.3 1.3-2.4 3-.1 4.1 4.4 2.1 9 4.1 13.3 6.4.5.3 1.2.9 1.7.1 3-4.8 5.5-9.9 7.6-15.2 0-.1.1-.3.1-.4-.6-1.3-2.2-1.7-3.2-2.6-.9-.8-1.3-.4-1.7.6-1 3-2 6.1-3.2 9-1.1 2.8-2.8 3.4-5.4 2-2.5-1.3-4.9-2.7-7.3-4.1-.4-.2-.9-.7-1.2-.7-.3 0-.5.2-.6.8zm187.2-5.6c-.2.1-.3.2-.4.2-.7.2-.9.7-.9 1.4.8 2.6 1.6 5.2 2.4 7.7.3.8.9.5 1.4.3 2.4-1.2 4.9-2.4 7.3-3.6.8-.4 1-.9.6-1.8-2.1-5-2.4-6.8-4-6.8-1.1.1-2.9 1.1-6.4 2.6zm-182.3-7.8c-1.3 2.4-3 4.9-2.8 7.4.2 1.8 3.1 2.3 4.8 3.3.8.5 1.6.8 2.4 1.2.6.3 1.1.2 1.3-.5 1-2.8 1.9-5.6 2.9-8.3.2-.7-.2-.9-.7-1.1-2.2-.9-4.4-1.7-6.6-2.6-.2-.1-.3-.1-.5-.1-.3 0-.6.3-.8.7zm68.5 308.2c-1.1 0-1.9-.9-1.9-1.9v-.2c-.1-1.1.8-2 1.9-2.1h.4c1.2 0 1.9.9 1.9 2.2 0 1.1-1 2-2.1 2-.1.1-.2.1-.2 0zm5.2-3.3c-1.1 0-2-.8-2-1.9v-.1c-.1-1.1.6-2 1.7-2.1h.4c1.2 0 2.2.9 2.2 2.1-.3 1.2-.9 2-2.2 2h-.1zm2.5-6.3c-.1-1.1.7-2.1 1.8-2.2h.3c1.1-.1 2.1.7 2.2 1.9.1 1.2-.7 2.2-1.8 2.4h-.3-.1c-1.1.1-2-.7-2.1-1.8v-.3zm49.7-1.3c0-1 .8-1.9 1.9-1.9h.3c1.1 0 2 .8 2 1.9v.4c-.1 1.3-.9 1.8-2.1 1.9-1.5-.2-2.3-.9-2.1-2.3zm1.3-5.8c-.1-1.1.7-2 1.8-2.1h.4c1-.1 1.9.7 2 1.7v.4c0 1.4-.9 2-2.2 2.1-1 .1-1.9-.6-2-1.6v-.5zm.1-6.2c-.1-1.4.8-2 2.1-2.2 1.1-.1 2 .7 2.1 1.8v.2c.2 1.1-.6 2.1-1.7 2.3h-.3-.1c-1.1 0-2-.9-2.1-2v-.1zm-52.3-9.8c-.2-1.1.6-2.1 1.7-2.3h.2c1-.2 2 .6 2.2 1.6v.3c.2 1-.4 2-1.4 2.2-.2 0-.4.1-.5 0h-.1c-1 .1-1.9-.6-2-1.6-.1 0-.1-.1-.1-.2zm-44.3-3.7c-.1-1.1.8-2 1.9-2.1h.4c1.4 0 2 .9 2.1 2.2 0 1.3-.9 1.8-2 2-1.5-.1-2.4-.7-2.4-2.1zm-4.1 2c-1.1.1-2-.8-2.1-1.8v-.4c-.1-1 .7-1.9 1.6-1.9h.4c1.4 0 2.1.9 2.1 2.3 0 1-.8 1.8-1.8 1.9h-.2v-.1zm-6.2-1.5c-1 0-1.9-.8-1.9-1.8v-.3c0-1.1.8-2 1.8-2h.5c1.1.1 2 1.1 1.9 2.2-.1 1.1-1 2-2.1 1.9h-.2zm89.6-2.5c-.1-1 .6-1.9 1.6-2.1h.5c1 0 1.9.8 2 1.8v.2c0 1.4-.8 2-2.2 2.1-1.1 0-1.9-.9-1.9-1.9v-.1zm-61.7-13.3c-1 .1-1.9-.7-2-1.7v-.5c.1-1.3.9-1.8 2.1-1.9 1-.1 1.9.7 2 1.7v.2c.1 1.1-.6 2-1.7 2.1-.1.1-.2.1-.4.1zm113.4-7.1c0-1.3.8-1.9 2.1-2 1.1 0 2.1.9 2.1 2v.2c0 1.1-.8 1.9-1.8 2h-.2c-1.1.1-2-.7-2.1-1.8-.2-.2-.2-.3-.1-.4zm-3.3-4.9c-.1-1.2.8-2.3 1.9-2.4 1.3.2 2.1.8 2.2 2.2.1 1.1-.7 2.1-1.7 2.2h-.3c-1 .1-1.9-.8-2-1.8-.1-.1-.1-.2-.1-.2zm-27.6-3.5c-.1-1 .7-1.9 1.7-2h.2c1.3 0 2.1.6 2.2 1.8.1 1.3-.5 2.3-1.9 2.3-1.1.1-2-.6-2.2-1.7v-.4zm25.4.9c-1.1.1-2.1-.7-2.2-1.8v-.3c-.1-1.1.7-2 1.7-2.2 1.8 0 2.5.9 2.6 2.1.1 1.1-.6 2-1.7 2.2h-.4zm-138.7-21.1c-.1-1.1.6-2.1 1.7-2.2h.4c1.2-.1 2.2.8 2.2 2v.3c-.2 1.1-.7 2.1-2.1 2.1h-.1c-1.1.1-2.1-.8-2.1-1.9v-.3zm23.3-1.3c-.1-1 .6-2 1.7-2.1h.3c1.1-.1 2.1.7 2.1 1.8v.2c.1 1-.6 1.9-1.6 2h-.5c-1 .1-1.9-.6-2-1.6v-.3zm-27.6-3.2c-.1-1.1.8-2.1 2-2.2 1.1-.1 2 .7 2.2 1.8 0 1.5-.7 2.5-2 2.5h-.1c-1.1 0-1.9-.8-2-1.8-.1-.2-.1-.2-.1-.3zm-3.3-5.3c-.1-1.1.7-2 1.8-2h.2c1.4-.1 2 .9 2.3 2.1-.2 1.3-.8 2.1-2.1 2.1h-.1c-1.1.1-2-.7-2.1-1.8v-.4zm115.4-4.7c-.2-1 .5-2 1.6-2.2h.4c1.1 0 2.1.8 2.1 2 0 1.1-.8 2.1-2 2.1-1.2-.1-2-.7-2.1-1.9zM215 201.5c.1-1.1 1-2 2.2-1.9s2 1 1.9 2.2v.1c0 1.1-.9 1.9-1.9 1.9h-.1c-1.4-.2-2.2-.9-2.1-2.3zm91.3-.4c-.1-1.1.7-2 1.8-2.1h.5c1-.1 1.9.7 2 1.7v.3c0 1.3-.8 2.1-2.3 2.1-1.1.1-2-.8-2-2 0 .1 0 .1 0 0zm-5.9-1.4c-.1-1 .6-1.9 1.6-2h.4c1.1-.1 2 .7 2.1 1.7v.4c0 1.3-.7 1.9-2.1 2-1.1 0-2-.9-2-2v-.1zm-6.4-.1c-.1-1 .6-2 1.7-2.1h.3c1.2-.2 2.2.7 2.4 1.8s-.7 2.2-1.8 2.4h-.4-.1c-1.3 0-2-.8-2.1-2.1zm-44-3.5c0-1.3.7-1.9 2-2 1.1.1 2 .6 2 1.9.2 1.1-.6 2.1-1.6 2.2h-.4-.1c-1.3 0-1.9-.8-1.9-2.1zm-52.5-9.8c-.2-1.1.5-2.1 1.6-2.3h.4c1.4-.1 2.1.8 2.2 2.1.1 1.1-.8 2.1-1.9 2.1h-.5c-1 0-1.9-.8-1.9-1.8.1 0 .1 0 .1-.1zm.2-6.4c-.1-1.1.7-2 1.7-2.1h.4c1-.1 1.9.6 2 1.6v.4c0 1.4-.8 2.1-2.3 2.1-1 0-1.9-.7-1.9-1.8.1 0 .1-.1.1-.2zm3.5-3.9c-1.1.1-2-.7-2.1-1.8v-.5c-.1-1 .7-1.9 1.7-2h.3c1.3 0 2.1.8 2.1 2.3 0 1.2-.9 2-2 2zm49.5-1c-1.1.1-2.1-.8-2.1-1.9v-.2c0-1.4.9-2 2.3-2.2 1.2.2 2.1.9 2.1 2.2.1 1.1-.7 2-1.8 2.1h-.5zm4.4-4.4c-1.1 0-2-.8-2.1-1.9v-.3c0-1.1.9-1.9 2-1.9h.2c1.4 0 2 .9 2.2 2.1-.3 1.2-.9 2-2.1 2h-.2zm3.3-5.1c-.2-1.2.7-2.2 1.8-2.4h.1c1.1-.1 2.1.8 2.2 1.9.2 1.1-.5 2.1-1.6 2.3H260.3c-1 .1-1.9-.7-1.9-1.8 0 .1 0 0 0 0z" fill="#f1f4f4"/>
</svg>
