<svg xmlns="http://www.w3.org/2000/svg" viewBox="0 0 689.5 688.3">
  <path d="M338.8 685.6c-19.3-12-35.8-26.8-48.4-45.9-10.8-16.4-17.7-35.2-20.1-54.7-.1-.6-.1-1.2-.2-1.9-3.1 1.7-6.1 3.4-9.2 5.1-7.3 4-14.5 8-21.8 11.9-4.6 2.5-8.8.1-9.3-5.2-.5-6-1-12.1-1.5-18.1-.5-6-.9-12-1.3-18-4.9 3-9.9 5.8-15 8.4-16.8 8.7-34.8 15-53.4 18.7-16 3.1-32 4.5-48.3 2.9-2.3-.2-4.6-.8-6.9-1.2-1.4-.2-1.7-1.2-1.9-2.4-1.7-7.5-1.8-15.1-1.6-22.7.6-29.5 8.2-57.2 21.2-83.5 2.9-5.8 6-11.4 9.3-16.8-8.3-.6-16.6-1.3-24.9-1.9-3.5-.3-7.1-.7-10.6-.8-3.2 0-5.1-1.9-6.9-4.1-1.1-1.4-.3-2.8.4-4.1 4.7-8.5 9.3-17 14-25.4 1.2-2.2 2.5-4.5 3.7-6.7-9.5-1.1-18.8-3.2-27.8-6.3-19.9-6.8-37-18.1-51.8-33.1-9-9.3-17-19.7-23.6-30.8-.4-.7-1-1.4-1.5-2.1-1.1-1.2-1.2-3-.3-4.4 6.4-9.7 12.7-19.5 20.6-28.2C41.5 292.7 65.4 278 94.3 272c4-.8 7.9-1.4 11.9-1.9-5.9-10.8-11.9-21.6-17.8-32.5-1.8-3.3 1.1-7.3 5.6-7.7 6.5-.6 13.1-1.1 19.7-1.6 5.6-.4 11.1-.8 16.9-1.3-1.9-3.2-3.8-6.4-5.6-9.7-10.1-18.3-17.3-38.1-21.4-58.7-3.1-15.8-4.5-31.7-3-47.8.2-2.5.8-4.9 1.2-7.4.2-1.4 1.1-1.7 2.3-2 7.5-1.7 15.1-1.8 22.7-1.6 29.5.6 57.2 8.2 83.5 21.2 5.8 2.9 11.4 6 16.9 9.3.9-12.2 1.9-24.3 2.8-36.5.2-2.8 2.1-4.5 4.1-6 1.4-1 2.8-.1 4.1.7 9.8 5.4 19.5 10.7 29.3 16.1l2.7 1.5c.3-2.9.8-5.8 1.3-8.7 5.1-27.9 18.2-51.6 38.5-71.3 9.2-8.8 19.3-16.5 30.2-23.1.8-.5 1.5-1.1 2.3-1.7 1.3-1 3.1-1 4.4-.1 9.8 6.5 19.7 12.9 28.4 20.8 21.6 19.7 36.2 43.4 42.2 72.2.8 4 1.4 8 1.9 11.9 2.6-1.5 5.2-2.9 7.9-4.3 7.8-4.3 15.6-8.6 23.4-12.8 4.2-2.3 8.6 0 9 4.9 1 12.2 1.9 24.3 2.8 36.6 6.7-4.1 13.6-7.9 20.7-11.2 23.6-11.4 49.2-17.9 75.4-19.3 9-.4 18-.4 26.9 1.5 1.4.1 2.5 1.2 2.6 2.6 2.6 13.4 2 26.9.4 40.3-1.5 13.1-4.5 26.1-8.8 38.6-5.2 15.4-12.1 30.1-20.5 44 12.5 1 24.4 1.9 36.4 2.8 2.8.2 4.5 2.1 6 4 1 1.3.3 2.6-.4 3.9-4.7 8.5-9.3 17-14 25.4-1.3 2.3-2.5 4.6-3.8 6.9 26.7 2.9 51.8 14 71.8 31.9 12.3 10.9 22.8 23.7 31.2 37.9.5.9 1.2 1.7 1.8 2.5 1 1.3 1.1 3 .2 4.4-6.5 9.8-12.8 19.7-20.8 28.4-19.6 21.6-43.4 36.2-72.2 42.2-4 .8-8 1.4-12 1.9 1.7 3.1 3.5 6.2 5.2 9.4 4 7.3 8 14.5 11.9 21.8 2.3 4.2.1 8.6-4.7 9-11.4 1-22.7 1.8-34.1 2.7l-2.6.2c2.8 4.6 5.5 9.3 8 14.1 8.2 15.6 14.2 32.3 18.1 49.5 3.9 17.6 5.6 35.3 3.9 53.4-.8 7.9-1.9 8.9-10.2 9.6-23.3 1.9-45.9-1.2-68.1-8.1-16.9-5.2-33.1-12.6-48.2-21.9-.6 8.3-1.3 16.6-1.9 24.9-.3 3.5-.7 7.1-.8 10.6 0 3.2-1.9 5.1-4.1 6.9-1.3 1-2.6.4-3.9-.3-8.5-4.6-17-9.3-25.5-14-2.3-1.3-4.6-2.6-6.9-3.8-.3 2.9-.8 5.7-1.3 8.6-5.1 27.9-18.2 51.6-38.5 71.4-8.8 8.6-18.8 15.7-29.1 22.5-1.7 1.3-3.6 2-5.7 2.1-1.9 0-3.8-.7-6.1-2.2zm-60-154.1c-4 17-5.1 34.6-3.1 52 1.8 15.7 6.6 30.8 14.2 44.7 12.5 22.9 30.9 40.1 53.1 53.5 1.1.8 2.7.8 3.8 0 2.7-1.8 5.5-3.5 8.3-5.4 18.9-12.7 34.4-28.7 45.1-48.8 14.2-26.6 17.5-55 12.9-84.6-2.2-13.8-6.1-27.3-11.4-40.3-1.6-4.4-3.5-8.7-5.7-12.9-.9 1.8-.6 3.5-1 5.1-.2 1.1-.5 2.2-.8 3.2.2.3.4.7.6 1.1 6.5 13.1 10.6 27.3 12.3 41.8 2.5 21.3.3 42.9-6.5 63.2-9.1 27.3-24.4 50.4-47.2 68.4-1.6 1.2-3.2 2.4-4.8 3.5-2.8 2-4.8 2-7.6 0-11.7-8.3-22.1-18.5-30.6-30.1-13.7-18.6-22.9-40.1-26.7-62.9-4.9-28.7-2.1-56.5 10.6-83 .3-.7.7-1.3 1.1-2-.7-2.9-1.2-5.8-1.5-8.7-.3.4-.6.9-.9 1.4-6.2 13.1-10.9 26.7-14.2 40.8zm63.8 126.7c-2 2.2-4.2 4.1-6.6 5.7-1 .6-.6 1 0 1.5l7.8 6c.6.5 1.5.5 2.1 0 3-2 5.9-4.3 8.6-6.8-2.8-1.8-5.3-3.9-7.5-6.4-.5-.7-1.3-1.1-2.1-1.2-1 .1-1.8.5-2.3 1.2zm4.8-6c3.1 2.8 6.3 5.6 9.5 8.4.3.3.3.8 1 .7.3-.2.5-.4.8-.6 1.4-1.3 2.7-2.6 4.1-3.9.8-.7.6-1.1-.2-1.8-5.5-5.3-11-10.6-16.4-15.9-1.3-1.2-2-1.1-3.2.1-4.2 4.2-8.5 8.4-12.8 12.5-4.7 4.4-4.7 4.4 0 8.7.1.1.3.2.4.3.7.7 1.1.8 2-.1 3-2.9 6.3-5.6 9.5-8.4.7-.7 1.6-1.1 2.6-1.2 1.1.1 2 .5 2.7 1.2zm18.7-1.4c.3.4.5.8.7 1.2.3-.1.6-.3.9-.4 1.2-1.4 2.5-2.9 3.7-4.4.5-.6-.2-.9-.5-1.2-8.1-7.4-16.3-14.7-24.4-22.1-1.3-1.2-2.1-1.1-3.4.1-7.2 6.6-14.5 13.1-21.7 19.7-3.6 3.3-3.5 3.3-.3 7 1 1.2 1.5 1.1 2.5.1 6.2-6.2 12.5-12.2 18.7-18.4.6-.7 1.5-1.2 2.5-1.3 1 .1 1.9.6 2.6 1.3 6.1 6.2 12.4 12.2 18.7 18.4zm7.6-9.4c.4.4.9 1.3 1.4.6 1.6-2 3-4.2 4.3-6.1.2-1-.4-1.1-.9-1.3-1-.4-1.8-1-2.6-1.7l-29.7-25.5c-1.1-.9-1.9-1.1-3.1-.1-6.5 5.6-12.9 11.3-19.5 16.7-4.4 3.6-8.3 7.9-13.2 10.7-1 .6-.5 1.1-.1 1.6 1.1 1.7 2.2 3.3 3.3 5 .6 1 1.2.9 2 .2 8.9-8.1 17.8-16.2 26.6-24.3.6-.7 1.5-1.1 2.4-1.2.9.1 1.7.4 2.3 1.1 9.1 8.1 17.9 16.2 26.8 24.3zm-67.8-12.3c1 1.7 1.6 2.4 3.1.5.9-1.1 2.7-1.8 3.1-3 .4-1.2-1.4-2.3-2.1-3.5-5-9.6-8.9-19.7-11.8-30.1-5.7-20-6.8-40.9-3.4-61.4 1-6.7 3.4-13.1 7-18.8-.4-.7-.9-1.4-1.3-2.1-1.1-1.8-2-3.6-2.8-5.6-7.7 17.1-11.4 35.7-10.9 54.4.5 24.5 7 48.4 19.1 69.6zm86.7-105.5c4.5 15.2 4.7 30.7 3.1 46.3-1.9 17.4-6.8 34.3-14.5 50-.9 2-2 3.8-3.4 5.5-.9.9-.6 1.3.2 2 4.4 4.2 4.4 4.3 7.3-1.2 10.3-19.3 16.2-40.6 17.2-62.4 1-18.8-2.2-37.6-9.2-55-.5-1.2-1-2.3-1.5-3.5-1.1 2.7-2.5 5.3-4.1 7.7 2.1 3.2 3.8 6.8 4.9 10.6zm-20.3 89.8c-.4.8-.8 1.5-1.2 2.3-2.3 3.9-2.3 3.9 1.1 6.7.4.3.8.6 1.4 1 9.4-16.5 14.2-34.2 16.6-52.5 2.1-14.2 1.4-28.8-1.9-42.8-.9-3.7-2.2-7.2-4.1-10.4-3.8 4.7-8.1 8.8-12.9 12.4-7.8 5.9-16.2 10.9-24.4 16.1-1.4.9-3.1.8-4.4-.1-5.9-3.8-11.7-7.6-17.6-11.4-7.4-4.6-14-10.3-19.4-17.1-.9 1.5-1.7 3.1-2.3 4.8-2.5 6.9-4 14.2-4.4 21.5-1.7 24.3 2.8 47.5 12.3 69.8 1.4 3.3 3.2 6.4 4.9 9.6.1 0 .2-.1.3-.1 4.6-3.4 4.6-3.3 1.8-8.2-3.6-6.4-4.9-13.4-4.8-20.7.1-12.7 3.6-24.2 11.9-34 5.5-6.5 12.4-9.7 19.5-9.7 6.5 0 13 2.8 18.5 8.4 12.8 13.2 16.9 37.8 9.1 54.4zm-11.4-41.7c7 10.3 7.3 27.5.3 38.4-.9 1.4-1.1 2.3.4 3.3 3.3 2.4 2.4 3.2 5-.9.6-.9 1.1-2 1.5-3 5.4-16 2.9-30.9-7-44.5-8.6-11.8-23.4-11.9-32.4-.4-6.8 8.6-9.7 18.6-10 29.2.2 6.8 1 13.3 4.5 19.1 1.8 3 1.8 3 4.5.7 1-.8 2-1.3.9-3.1-7.2-11.8-7.5-24.2-1.4-36.3 4-8 10.7-11.9 17.3-11.9 6.1 0 12.2 3.2 16.4 9.4zm-32.3 19.7c-.1 5.4 1.3 10.7 3.9 15.4.8 1.3 1.4 1.8 2.7.5 1.3-1.4 2.8-2.6 4.3-3.7 1.4-1.1 1.5-1.9.8-3.6-2.1-4.8-4-9.8-1.9-15.2 1.3-3.4 3.8-5.6 6.5-5.5 2.7 0 5.3 2.4 6.4 5.6 1.4 3.7.6 7.3-.3 10.9-.6 2.2-2.9 4.4-2.1 6.4.8 2 3.5 3.2 5.2 4.9 1.6 1.6 2.3 1.1 3.1-.6 5.6-11.2 5.1-22.1-1.6-32.7-2.3-3.7-6.5-5.5-10.8-5.5-4.3-.1-8.3 1.9-10.8 5.4-3.5 5.2-5.4 11.4-5.4 17.7zm91.3-14.1l.4.2c9.8 5.4 19.7 10.8 29.5 16.3.8.4 1.6.7 2.3 1.2 1.5.9 2 .4 2.1-1.2l2.1-26.4c.3-3.9.6-7.9.9-11.8-9.3-6.2-18-13.1-26.1-20.8-6.6-6.2-12.7-13-18.1-20.3-.5-.7-.8-1.5-1.9-1.9 2.5 7.6 4.5 15.3 6 23.2 2.8 13.7 3.7 27.6 2.8 41.5zm-187.7-21.7l.9 10.8c.7 9.1 1.5 18.3 2.1 27.4.2 2.4 1.3 1.7 2.5 1 10.1-5.5 20.1-11.1 30.2-16.6.6-.3 1.1-.6 1.7-.9-1.5-21.5 1.8-42.5 8.2-63.2.1-.4.3-.8.4-1.2h-.1c-.8 0-1 .7-1.3 1.1-12.3 16.4-27.4 30.5-44.6 41.6zm-94-95.1c-.1.3-.3.7-.6.9-1.5 2.3-3 4.7-4.4 7.1-15.7 26.7-25.2 55.4-27.5 86.4-.6 8.5-.5 17 .3 25.4.2 2.1 1 3.1 3.2 3.1 2.3.1 4.6.4 7 .5 18.3.7 36.5-1.4 54.2-6.3 20.2-5.5 39.4-14 57-25.4.3-.3.6-.5 1-.6 2.5-1.6 5-3.3 7.4-5.1 16.1-11.6 30.1-25.1 41-41.8 4.3-6.4 7.8-13.3 10.3-20.6-2.1 2-4.3 3.8-6.6 5.5v.1c-4.2 10-10.6 18.6-17.9 26.5-18.5 19.8-41 33.7-65.6 44.5-17.5 7.7-35.9 13.1-54.8 16-6.8 1.1-13.7 1.8-20.6 1.9-2.4-.1-4.8 0-7.2.3-2.3.3-3.6-1.1-3.5-3.4.2-13.9 1.8-27.8 4.7-41.4 6.1-27.7 17.4-53.9 33.1-77.5 9.8-14.7 21.3-27.9 35.6-38.4 4.9-3.7 10.3-6.7 15.9-9.1.4-.6.8-1.1 1.3-1.7 1.3-1.7 2.9-3.2 4.3-4.8-8.6 2.8-16.6 7-23.9 12.3-18.1 12.3-32.2 27.8-43.7 45.6zm271.7 39.4c12.2 20.8 29.2 36.9 49 50.2.6.4 1.2.8 1.7 1.1.3.1.6.3.8.5 20.8 13.6 44 23.2 68.4 28.4 16.4 3.5 33.3 4.7 50 3.3 2.3-.2 3.5-.8 3.7-3.4.8-10.1.8-20.2-.2-30.3-2.1-21-7.7-41.5-16.5-60.7-4.2-9.2-9-18.1-14.4-26.7-.4-.4-.6-.8-.8-1.3-11.4-18-26.1-33.6-43.4-46-7.4-5.4-15.5-9.6-24.1-12.6 2 2.1 3.9 4.3 5.5 6.6h.1c10 4.3 18.6 10.6 26.5 17.9 19.8 18.5 33.7 41 44.5 65.6 7.7 17.5 13.1 35.9 16 54.8 1.2 8.2 1.9 16.5 2.1 24.8.2 6.6-.1 6.6-6.3 6.4-42.3-1.1-80.6-14.6-115.8-37.6-14.8-9.7-27.9-21.3-38.4-35.6-3.7-4.9-6.7-10.3-9.1-15.9-.6-.4-1.1-.8-1.7-1.3-1.7-1.3-3.2-2.9-4.8-4.3.4 2.1 1.1 4.2 2.1 6.2 1.6 3.5 3.2 6.8 5.1 9.9zm-291.4 60c-1.5.1-2.2.6-2.2 2.2 0 3.2-.2 6.4-.3 9.5-.1 1.3.5 1.9 1.8 1.8 3.2-.1 6.4-.3 9.6-.3 1.6 0 2.2-.7 2.2-2.2v-5.2h.2c.1-1.6.2-3.3.3-4.9.1-1-.3-1.5-1.3-1.5h-.2c-3.4.3-6.8.4-10.1.6zm442 12.5c1.1 1.1 2.8 1 4.5.8.7-.1 1.5-.1 2.2-.1 6.5.4 6.5.4 6.1-6.3-.2-2 .8-4.8-.6-6.3-1.1-1.2-2.8-1-4.5-.9-.7.1-1.5.1-2.2.1-1.4-.1-2.4-.2-3.3-.2-3.3 0-3.2 1.1-2.9 6.3.2 2.3-.7 5.1.7 6.6zm-15.1-24.7c.4 6 .5 11.9.9 17.9.3 5.8.4 5.8 6.3 6.4h.5c1.2.2 1.7-.2 1.6-1.5-.3-3.9-.5-7.8-.6-11.7-.3-2.5 1.5-4.7 4-5h1c2.9.1 5.9.4 9.2.6h3c.5 0 1.1.1 1-.7-.1-2.3-.4-4.7-1-6.9-.2-.6-.6-.5-1-.5h-.3c-7.4-.3-14.7-.6-22-1h-.4c-1.8-.1-2.4.6-2.2 2.4zm-409.9 11.5c0 3.8-.7 7.6-.6 11.4 0 .9-.1 1.6 1.1 1.4 2-.3 3.9-.6 5.9-.8.8-.1 1.1-.5 1.1-1.4.1-3.8.3-7.6.5-11.4h-.1c.2-3.6.3-7.3.6-10.9.1-1.9-.6-2.4-2.4-2.3-6 .3-11.9.5-17.9.9-6 .3-6 .4-6.5 6.4v.3c-.3 1.4.3 1.8 1.7 1.7 3.7-.3 7.4-.5 11.1-.6h.3c3.6 0 5.3 1.8 5.2 5.3zm13.9-9.5c-.3 6.1-.6 12.2-.9 18.4-.1 1.7.4 2.2 2.1 1.7 1.3-.4 2.7-.7 4-.9 1.6-.2 2.2-.9 2.2-2.7-.2-5.1-.1-10.2-.1-15.3h-.6v-15.8c0-1.3-.3-1.8-1.7-1.8-9.2-.1-18.5-.3-27.7-.4-1.9 0-4.2-1.1-5.5.2-1.1 1.2-.8 3.6-1.5 5.4-.8 2.2.2 2.5 2.1 2.4 6.5-.4 12.9-.6 19.4-.9h1.3c5.5 0 7.3 2.2 7.1 8.3-.1.4-.2.9-.2 1.4zm383.5 13c0 1.9-1.1 4.3.2 5.4s3.8 1 5.6 1.6c2 .6 2.2-.2 2.1-1.9-.4-6.7-.6-13.5-1-20.2-.3-5.8 2-8.1 7.8-7.8 6.7.4 13.5.6 20.2 1 1.9.1 2.6-.4 1.9-2.3-.4-1.3-.7-2.7-.9-4-.2-1.4-.7-2-2.3-1.9-5.1.2-10.2.1-15.3.1v.6H535c-1.3 0-1.7.4-1.7 1.7 0 9.3-.3 18.5-.4 27.7zM123 525.2c-.4 1.5-.3 2.1 1.6 2.1 10.7.1 21.4.3 32.1.4 2.6.1 4.8 2.2 5 4.8v15.8h.4v8c0 2.6.2 5.4.1 8-.2 2.3.8 2.5 2.5 1.9 1.6-.5 3.5-.5 4.6-1.5 1.4-1.2-.1-3.1-.2-4.7-.8-11.5-1.7-22.9-2.6-34.4-.1-1.9-.8-2.7-2.7-2.9-11.5-.8-23.1-1.8-34.6-2.5-1.1-.1-2.2-.9-3.3-.9-.6 0-1.1.3-1.4.7-1 1.6-1 3.5-1.5 5.2zm437.4-4.9c-11.5.9-23.1 1.8-34.6 2.6-1.8.1-2.6.7-2.7 2.6-.8 11.5-1.8 23.1-2.5 34.6-.1 1.6-1.7 3.5-.2 4.7 1.2 1 3.2 1 4.9 1.5 1.6.5 2.3.3 2.3-1.7-.1-5.4 0-10.9 0-16.3h.5v-15.8c0-2.2 2.4-4.8 4.5-4.8h9.3c7.9-.1 15.7-.3 23.6-.4h.3c.7 0 1.4 0 1.1-1.1-.4-2.2-1.1-4.3-2-6.4 0-.1-.2-.1-.4-.1-.8 0-2.6.5-3.7.6h-.4zm-47.3 42.5c.4.1.8.2 1.5.4.4-5 .8-9.8 1.3-14.5.1-1.5-1-1.4-1.8-1.8-8.3-3.6-15.6-8.7-20.9-16.1-6.5-9.1-9.3-19-3.9-29.7 6.9-13.8 22.6-18.5 36.3-11.3 10.2 5.4 16.9 13.8 21.4 24.2.6 1.4 1.2 1.9 2.8 1.7 3.9-.5 7.9-.7 11.9-1 1.4-.1 1.7-.6 1.2-1.9-10.1-28.9-24.3-55.4-45.8-77.5-6.6-6.9-14.1-12.9-22.3-17.6l.3.6c4.8 10.6 4.5 21.7 3.9 32.9-.7 12.6-5 24.3-9.4 35.9-.5 1.2-1.5 2.2-2.8 2.5-1.1.3-2.2.6-3.2 1-13.1 5.6-27.1 8.5-41.3 8.5-8.7 0-16.8-1.2-24.4-4.6 7.3 12.9 17.6 23.4 29.2 32.7 19.7 16 42 27.4 66 35.6zm-324.6-73.5c13.3 6.8 18.1 21.8 11.5 35.2-5.2 10.8-13.9 17.6-24.6 22.3-1.4.6-1.9 1.1-1.7 2.8.5 3.9.7 7.9 1 11.9.1 1.4.5 1.7 1.9 1.2 28.9-10.1 55.4-24.3 77.5-45.8 6.9-6.6 12.9-14.1 17.6-22.3l-.6.3c-9.9 4.5-20.3 4.5-30.8 4.1-13.4-.5-25.9-4.9-38.2-9.7-1.1-.5-2-1.5-2.3-2.7-.3-1.1-.6-2.2-1-3.2-5.6-13.1-8.5-27.1-8.5-41.3 0-8.7 1.2-16.8 4.6-24.4-12.9 7.3-23.3 17.6-32.6 29.1-15.8 19.7-27.2 41.8-35.4 65.6-.6 1.8-.1 2.2 1.5 2.3 4.1.3 8.1.5 12.2 1 1.6.2 1.7-.8 2-1.7 3.6-8.3 8.6-15.6 16.1-20.9 5.8-4.1 11.9-6.8 18.3-6.8 3.9.1 7.9 1.1 11.5 3zm303.7 25.6c1.6 12.4 12.9 22.1 23 26.5.4.2 1.1.5 1.2-.3.3-1.6.4-3.3.4-4.9-.1-1.3-1.7-1.2-2.7-1.7-10.1-5.6-16-13.9-17.2-22.5-.6-10 5.1-15.9 12.2-15.2 12 1.1 20.3 7.6 25.7 18 .8 1.6 1.5 2.3 3.3 1.9.7-.2 1.4-.2 2.1-.2 1.6.1 1.8-.5 1.1-1.9-4-8.4-9.5-15.5-18-19.8-3.4-1.8-7.2-2.8-11.1-2.9-5 0-9.8 2-13.4 5.6-4.9 4.8-7.5 10.4-6.6 17.4zM175 534.6c-1.8 1-2.8 1.7-2.2 3.8.1.5.2 1 .1 1.6-.1 1.6.4 2 1.9 1.3 8.3-4 15.3-9.5 19.6-17.8 4.2-8.1 4.5-17.3-2.7-24.6-4.5-4.6-9.6-7.5-16.1-6.7-14 1.7-21.8 11.2-27.6 22.9-.2.4-.6 1.2.1 1.3 1.6.3 3.2.5 4.9.5 1.3 0 1.2-1.3 1.6-2.1 5.5-10.5 14-16.5 23.1-17.8h1.3c9 0 14.2 5.4 13.7 12.1-.9 11.8-7.5 20-17.7 25.5zm126.6-83.9c1.7.2 2.2 1.5 2.1 3 0 1-.2 1.9-.5 2.8-1.6 5.1-2.7 10.4-3.3 15.7-.8 5.3-1.1 10.8-.7 16.1.2 3 .7 6 1.5 8.9 1.4 4.6 3.5 9.1 6.1 13.1.4.6.7 1.1 1 1.6.8 1.2 1.7 2.3 2.6 3.5 2.3 2.8 4.9 5.5 7.7 7.9 2.8 2 5.5 4.2 8.4 6.1 3.3 2.2 9 5.8 9.7 6.3 7.8 5.8 8.4 5.8 16.4.4.1-.1 6.5-4.3 7.7-5.1 3.8-2.3 7.5-4.9 11-7.8 1-.8 5-4.7 6-5.9 1.5-1.7 3-3.6 4.3-5.5.5-.8.8-1.2 1.1-1.6 2.8-4.3 4.9-8.9 6.2-13.8.6-2.9 1.1-5.9 1.4-8.8.1-.4.1-.8.1-1.3.1-9.9-1.2-19.7-4-29.2-.5-1.4-.7-2.9-.6-4.3 0-1.2.8-2.2 2-2.3 1.1-.2 2.2.4 2.5 1.5 1.5 6.1 4.4 11.4 7.7 16.6 2.1 3.5 4.5 6.7 7.2 9.8 2.5 2.6 5.1 5 7.9 7.3 7 4.8 15.2 7.6 23.7 7.9 1.7.1 8 0 9.6 0 7.3-.2 14.5-1.3 21.5-3.3 2.2-.6 7.9-2.6 8.5-2.8 5.2-1.6 9.5-4.3 11.3-10.6 0-.2 2.1-6.9 2.7-8.9 2-7.2 3.2-14.5 3.4-22 0-1.3.1-7.8 0-9.6-.4-8.4-3.1-16.5-7.8-23.4-3.8-4.8-5.5-6.6-8.2-8.8-7.6-5.7-15.3-11.3-24.7-13.8-1.5-.4-2.4-1.2-2.2-2.7.2-1.7 1.5-2.2 3.1-2.1.9 0 1.7.1 2.6.4 6.9 2.3 14 3.2 21.1 4 3.7.5 7.5.5 11.2 0 4.3-.6 6.9-.9 8.8-1.4 5.2-1.7 10.1-4.1 14.6-7.1 1.2-.8 2.4-1.7 3.5-2.7 2.8-2.4 5.4-5 7.9-7.7 2.9-3.5 5.5-7.3 7.9-11.2.6-1 4-6.1 4.5-6.8 5.8-7.8 5.8-8.4.4-16.4-.2-.3-4.1-6.1-4.9-7.4-2.4-4-5.1-7.8-8.1-11.4-.6-.7-4.5-4.8-5.9-6-1.7-1.5-3.4-2.8-5.3-4.1-6.1-3.8-10.3-5.9-15.2-7.3-.9-.4-3-1.1-9.1-1.5-10-.3-20.1 1-29.7 3.7-1.6.5-3.2.8-4.8.9-1.3.1-2.4-.8-2.6-2.1-.2-1.1.4-2.2 1.5-2.5 6-1.4 11.2-4.3 16.3-7.6 3.6-2.2 7-4.7 10.2-7.5 4.1-3.9 5.9-5.9 6.5-6.8.1-.1.1-.2.2-.2.1-.2.3-.5.5-.6 4.6-6.7 7.3-14.6 7.8-22.7.2-3 .1-9 .1-10.6-.1-6.7-1.1-13.3-2.9-19.7-1.1-4-2.9-9.5-3.1-10.3-1.6-5-2.8-8.8-10.2-10.8-.3-.1-7.3-2.6-9.4-3.1-7.2-2-14.5-3.2-22-3.4-1.3 0-7.5-.1-9.6 0-8.5.4-16.7 3.1-23.6 7.9-5.1 4.1-6.1 5-9 8.5-5.5 7.6-11.1 15.2-13.5 24.6-.1 1.3-1.3 2.2-2.5 2h-.1c-1.6-.2-2.1-1.3-2.1-2.8 0-1 .1-1.9.4-2.8 2.3-6.9 3.2-14 4-21.1.4-3.5.5-7 .1-10.5-1.1-7.8-1-8.8-3.4-14.8-1.5-3.2-3.2-6.4-5.2-9.4-1.6-2.3-3.5-4.5-5.4-6.6-1.5-1.7-3.2-3.3-4.9-4.7-2.2-1.8-4.5-3.5-6.8-5.1-4.4-3.1-10.5-6.8-11.1-7.2-3.8-2.9-6.2-4.3-8.6-4.3s-4.8 1.4-8.6 4.3c-.8.4-5.2 3.5-6.7 4.4-4 2.4-7.8 5.1-11.4 8.1-1.7 1.4-3.3 3-4.8 4.7-2 2.1-5.9 7.7-6.4 8-2.4 3.5-4.3 7.3-5.6 11.4-1.1 4.3-1.9 8.7-2.2 13.1-.1 9.4 1.2 18.8 3.8 27.9.5 1.6.8 3.2.9 4.8.2 1.3-.7 2.4-2 2.7-1.2.3-2.4-.5-2.7-1.7v-.2c-1.9-8.2-6.7-14.9-11.3-21.7-.9-1.4-9.4-10.2-10.2-10.7-.2-.1-1-.7-1.2-.9-7.1-4.8-15.3-7.6-23.9-7.8-1.6-.1-8.1-.1-10 0-6.4.3-12.7 1.2-18.9 2.9-3.9 1.1-9.4 3.1-9.8 3.1-.2 0-.5.1-.7.1-5.3 1.5-9.7 3.9-10.6 10 0 .2-.1.3-.2.5-1 1.4-2.3 6.6-2.8 8.6-2.2 7.4-3.4 15-3.5 22.7 0 1.1-.1 7.6 0 9 .4 8.4 3.1 16.6 7.8 23.6.2.2.4.5.6.8.8 1.1 7.5 7.9 7.8 8.1 7.5 5.7 15.2 11.2 24.5 13.7 1.5.4 2.6 1.1 2.4 2.8-.3 1.6-1.6 2.2-3.1 2-1-.1-2.1-.2-3.1-.5-6.8-2.3-13.8-3.2-20.9-3.9-6.1-.6-12.3-.2-18.4 1.1-5.1 1.3-10 3.4-14.3 6.4-2.8 1.9-5.5 4.1-8.1 6.4-2.9 3-4.2 4.1-4.8 5-2.1 2.9-4.3 5.6-6.3 8.6-2.4 3.6-5.7 8.9-6 9.4-5.7 7.6-5.7 9.7 0 17.2.4.8 3.4 4.9 4.3 6.5 2.4 4.1 5.2 8 8.2 11.6.5.6 4.6 4.9 6.1 6.2 2.1 1.8 4.3 3.4 6.6 4.9 4 2.6 8.4 4.7 12.9 6.1 3.2.9 6.5 1.5 9.8 1.7 10.3.3 20.5-1.1 30.4-4 1.4-.5 2.9-.7 4.3-.6 1.2 0 2.2.9 2.3 2.1.2 1.1-.4 2.2-1.5 2.4-6 1.5-11.2 4.3-16.3 7.6-3.4 2-6.6 4.4-9.6 7-4.2 4.1-6.4 6.4-7 7.3-.1.1-.1.2-.2.2-.1.2-.3.5-.5.6-4.8 7-7.5 15.1-7.9 23.5-.1 2 0 8 0 9.6.2 7.5 1.4 15 3.5 22.2.2.8 2.6 12.1 6.4 15.7 3.9 3.7 14.4 5.9 15.5 6.2 7.2 2.1 14.7 3.3 22.2 3.4 1.1 0 7.5.1 9.5 0 8.4-.4 16.5-3.1 23.4-7.8 3.1-2.5 6.1-5.3 8.9-8.2 5.8-7.6 11.3-15.3 13.8-24.7.4-1.3 1-2.3 2.3-2.3-.5.1-.3.1-.2.1zm-120.9 62.7c-1.2 3.3-3.4 6.1-6.3 7.9-2.8 1.8-3.5 4.4-2.5 7.5.4 1.1.9.7 1.6.4 6.5-2.5 13.8-13.4 13.7-20.4 0-4.5-2.4-6.8-6.9-6.7-7 .1-17.6 7.2-20.2 13.7-.3.6-.7 1.2.4 1.6 2.8 1.2 6 .2 7.6-2.4 1.8-2.9 4.6-5.2 7.9-6.3.6-.2 1.1-.3 1.8-.4.9 0 1.7.4 2.3 1 1.1 1.1 1.3 2.7.6 4.1zm328.5-11.2c-5 0-6.8 1.9-7 6.9.1 7 7.3 17.6 13.7 20.2.6.3 1.2.7 1.6-.4 1.2-2.8.2-6-2.4-7.5-3.1-2-5.4-4.9-6.5-8.4-.6-1.8.4-3.8 2.2-4.4.7-.2 1.5-.2 2.2 0 3.3 1.1 6.3 2.8 7.9 5.9 1.8 3.3 4.3 3.6 7.5 3.1 1.2-.2 1.4-.6.9-1.7-2.5-6.5-13-13.7-20.1-13.7zm-412.7-48l37.2 3c9.9-15.1 22-28.7 35.9-40.2 2.3-1.9 4.8-3.7 7.1-5.7-6.9 2-13.8 3.9-20.8 5.3-14.4 3.1-29.1 4.2-43.8 3.2-5.8 10.4-11.5 20.9-17.2 31.3-1.6 2.8-1.5 2.8 1.6 3.1zm459.2 3c3.5-.3 7-.6 10.4-.8 9-.7 18.1-1.5 27.1-2.1 2.3-.2 2.7-.7 1.6-2.7l-16.5-30c-.3-.6-.6-1.2-1-1.7-7.1.5-14.2.5-21.3 0-14.7-1-29-4.2-43.2-8.4 4 3.4 8.1 6.5 12 10 11.9 10.4 22.3 22.4 30.9 35.7zm-450-181.6c-23.1 2.7-44.9 11.9-63 26.4-14.3 11.3-25.5 25.2-35 40.7-.9 1.2-.8 2.9.2 4.1 2.5 3.7 4.8 7.4 7.3 11C27.5 375.5 43 389.9 62 400c26.6 14.2 55.1 17.5 84.6 12.8 16.2-2.5 31.7-7.6 46.8-14 2.1-.9 4.1-1.9 6.8-3.2-2.4-.4-4-.6-5.6-.9-1.1-.2-2.1-.5-3.1-.7-.3.2-.7.4-1.1.6-13.1 6.5-27.3 10.7-41.8 12.3-21.5 2.6-43.2.3-63.7-6.6-27.2-9.1-50.2-24.5-68-47.2-1.1-1.4-2.2-2.9-3.2-4.4-2.2-3.1-2.2-5 0-8 9.8-13.7 22-25.5 36.1-34.7 17.1-11.3 36.5-19 56.7-22.4 28.7-4.8 56.5-2.1 83 10.6.7.3 1.3.7 1.9 1.1 2.7-.7 5.6-1 8.8-1.6-4.1-2.1-8.4-3.9-12.7-5.6-20.9-8.4-42.3-13.5-64.4-13.5-5.9 0-11.6.3-17.4 1zM490 396.1c3 1.3 5.9 2.7 8.9 3.9 26 10.8 52.8 16.8 81.1 14.2 16.9-1.5 33.4-6.5 48.3-14.6 22.9-12.5 40.1-30.9 53.5-53.1.8-1.1.8-2.7-.1-3.8-1.8-2.7-3.5-5.5-5.4-8.3-12.7-18.9-28.7-34.3-48.9-45.1-26.4-14.1-54.7-17.4-84.1-12.9-13.8 2.2-27.4 6-40.3 11.3-4.6 1.7-9.1 3.7-13.4 5.9 3 .6 5.8 1 8.5 1.7.2-.1.3-.2.5-.3 4.3-2.3 8.9-4.3 13.5-5.9 21.8-7.6 45.2-9.7 68-6 27.4 4 53 15.7 74.1 33.6 8.2 7 15.4 14.9 21.6 23.7 2.3 3.3 2.3 5.1-.1 8.5-14.5 20.1-33.2 35-55.7 45.3-22.8 10.6-47.9 15.1-72.9 13.3-16.4-1.1-32.5-5.3-47.3-12.5-.5-.2-.9-.5-1.4-.7-.1-.1-.2-.1-.3-.2-2.6.7-5.3 1.2-8.1 2zm15.4-4.5c1.7.8 3.4 1.5 5.2 2.2 17 6.7 35.3 9.6 53.6 8.5 22.9-1.1 45.2-7.5 65.1-18.8 1.4-.8 2.5-1.4.5-2.9-1.2-.9-1.9-3-3.2-3.2-1-.2-2.4 1.5-3.7 2.2-9.7 5.1-20 9.1-30.6 11.9-17.5 4.8-35.7 6.2-53.7 4.2-9-.9-17.7-3.1-25.5-8l-.1-.1c-2.5 1.5-5 2.8-7.6 4zM62.8 377.4c-1.3.4-2 2.3-3.2 3.3-2 1.6-.8 2.1.6 2.9 19.9 11.3 42.3 17.7 65.1 18.8 18.9 1 37.8-2.1 55.3-9.2 1.2-.5 2.3-1 3.5-1.5-2.7-1.1-5.3-2.5-7.7-4.1-6.6 4-13.9 6.5-21.5 7.5-20.9 3-42.2 1.3-62.3-4.9-9-2.7-17.8-6.2-26.1-10.6-1.2-.6-2.3-2.3-3.4-2.3-.1 0-.2 0-.3.1zm492.1-79.2c-5.4 0-10.7.3-16 .9-7.4.8-14.6 2.4-21.1 6.1 4.7 3.8 9 8.2 12.6 13.1 5.8 7.7 10.8 16.1 16 24.2.9 1.3.9 3.1 0 4.4-4.3 6.8-8.6 13.5-13.1 20.2-4.2 6.4-9.4 12.2-15.4 17 8.1 4.5 17 5.9 26.1 6.6 18.7 1.6 36.9-1.2 54.8-6.6 8.6-2.6 17-5.8 24.8-10.6l-.3-.6c-3.3-4.2-3.3-4.2-7.9-1.6-6.6 3.7-13.7 5-21.2 4.9-12.7-.1-24.2-3.8-33.9-12.1-12.2-10.5-12.7-26.3-1.2-37.6 13-12.9 37.8-17.1 54.5-9.4.6.3 1.2.6 1.8 1 5 2.9 5 2.9 8.3-2.2-12.8-7.3-26.7-11.6-41-14.7-9-1.9-18.1-2.9-27.3-2.9l-.5-.1zM69.8 369.1c-1.4 1.2-2.6 2.5-3.6 4.1-.6.8.6.8 1 1 9.5 5.3 19.7 9.3 30.3 11.8 9.9 2.5 19.9 4.7 30.1 5 13.4.4 26.8.2 39.6-4.7 1.5-.6 2.9-1.3 4.3-2.1-4.5-3.7-8.6-7.9-12.2-12.5-6.1-7.9-11.1-16.5-16.4-24.9-.8-1.3-.8-2.9.1-4.2 4.4-6.9 8.8-13.8 13.4-20.6 4.1-6.3 9.2-11.9 15.1-16.6-1.5-.9-3.1-1.6-4.7-2.3-6.9-2.5-14.2-4-21.5-4.4-24.3-1.7-47.5 2.8-69.8 12.4-1.3.5-2.6 1-3.8 1.7-2 1-3.9 2.1-5.8 3.2 0 .1.1.2.1.3 3.4 4.6 3.3 4.6 8.2 1.8 6.5-3.7 13.6-4.9 21-4.8 12.6.1 24 3.7 33.8 11.9 12.5 10.5 13 26.5 1.4 37.9-13.2 12.9-37.8 17.1-54.5 9.2-1.2-.6-2.4-1.4-3.6-2-.7-.3-1.3-1.4-2-1.4-.2 0-.4 0-.5.2zm-21.4-55.7c-.1.1-.1.1-.2.1-1.1.6-1.1 1.2-.2 2.2 8.1 8.8 16.2 17.8 24.3 26.6 1.5 1.7 1.4 3.1-.1 4.8-7.3 8-14.6 15.9-21.8 24-3.5 3.9-3.4 3.9 1.1 7 1.6 1.1 3.1 2.3 4-.7.2-.6.8-1.1 1.3-1.6 8.4-9.8 16.9-19.7 25.3-29.6.4-.4.7-1 1.1-1.5-.3-.5-.6-.9-.9-1.3-8.3-9.7-16.6-19.5-25-29.1-1.2-1.3-1.6-4.1-3.3-4.1h-.2c-2 .2-3.7 2.1-5.4 3.2zm584 .7c-8.3 9.7-16.6 19.4-25 29.2-.8.6-.9 1.8-.3 2.6l.3.3c8.3 9.7 16.6 19.5 25 29.1 1.2 1.4 1.5 4.3 3.5 4 1.9-.3 3.5-2.2 5.2-3.2 1.1-.7 1.3-1.2.3-2.3-8.1-8.8-16.2-17.7-24.3-26.6-1.4-1.5-1.4-3 0-4.6 8.1-8.9 16.2-17.8 24.3-26.6.3-.4.6-.8 1-1.2-.5-.4-.9-.8-1.3-1.1-1.2-.8-2.5-1.6-3.6-2.5-.5-.5-1.2-.8-1.9-1-.5 0-1 .4-1.4 1.6-.2.8-1.2 1.5-1.8 2.3zm-593.9 7.1c-.9.7-.9 1.2-.1 2 6.1 6.2 12.2 12.5 18.3 18.7 2.1 2.2 2.1 3.4 0 5.6-6.1 6.2-12.2 12.5-18.3 18.8-.4.4-1.2.8-.4 1.4 1.4 1.2 2.8 2.4 4.1 3.5.7.6 1-.1 1.4-.5 7.3-8.1 14.6-16.2 21.9-24.2 1.3-1.4 1.2-2.2 0-3.6-7.4-8-14.6-16.1-21.9-24.2-.3-.3-.4-.7-1.1-.7h-.1c-1.2 1-2.5 2.1-3.8 3.2zm585.7 21.5c-1.5 1.6-1.3 2.5.1 4 6.5 7 12.9 14.2 19.4 21.3 3.4 3.7 3.4 3.7 7.2.3 1-.9 1.1-1.4.1-2.4-6.2-6.2-12.2-12.5-18.3-18.7-1.9-1.9-1.8-3.3.1-5.2 6.1-6.2 12.2-12.5 18.3-18.8.4-.3.6-.8.9-1.2.1-.2-4.6-4.1-5.1-4.1-.2.2-.5.5-.7.8-7.5 8-14.7 16.1-22 24zM76.8 366.5c1 .6 2.1 1.1 3.3 1.6 14.8 5.1 28.8 2.8 42-5.2 4.6-2.8 8.4-6.6 10.1-11.8 2.6-8 1-15.2-6.3-21.4-8.7-7.6-19.2-10.6-30.3-10.9-6.7.1-13.1.9-18.8 4.3-3.9 2.3-3.4 1.5-.7 5 .7.9 1.3 1.5 2.7.6 11.6-7.1 23.8-7.5 35.9-1.7 15.7 7.5 16.3 24.7 3.3 33.7-10.4 7.1-27.7 7.6-38.6.6-.5-.4-1.1-.7-1.8-.7-.6 0-1.1.4-1.7 1.2-2.4 2.8-2.5 2.7.9 4.7zm480.6-28.2c-2.6 7.9-1.1 15.2 6.2 21.4 9.9 8.5 21.6 11.6 34.5 10.8 5.6-.2 11.1-1.9 16-4.8 1.6-1 1.8-1.8.4-3.1-.5-.5-.9-1-1.3-1.6-.7-1-1.3-1-2.3-.3-5.7 4-12.2 5.5-19.3 5.4-5.8.3-11.5-.9-16.6-3.6-5.9-3-10.7-7.2-12-14.1-1.8-9.2 2.6-17.2 11.7-21.5 12.2-5.7 24.4-5.5 36.2 1.5.6.4 1.1 1 2 .2 3.3-2.7 3.3-3.9-.2-6-1-.6-2.1-1.1-3.3-1.5-5-1.7-10.2-2.6-15.5-2.7-9.1 0-17.8 2.8-26.3 7.9-4.7 3.1-8.5 6.9-10.2 12zm-528.8-7.6c-.6.6-.7 1 .1 1.8 3 3.1 5.7 6.5 8.6 9.7 1.5 1.7 1.5 3.3-.1 5-1.8 2-3.5 4.1-5.3 6-4.4 4.8-4.4 4.8.4 9.2.1.1.3.2.4.4.6.7 1 .5 1.6-.1l16.2-16.8c.3-.4.7-.9.9-1.3-.5-.6-.9-1.1-1.4-1.6-4.1-4.2-8.3-8.4-12.3-12.7-2.3-2.5-3.5-3.7-4.6-3.7s-2.2 1.3-4.4 3.9c0 .1 0 .2-.1.2zM639 343.3c-1.2 1.2-.8 2 .2 3 4.2 4.2 8.4 8.5 12.5 12.8 4.6 4.9 4.7 4.9 9-.3.6-.7.9-1 0-2-3-3.1-5.7-6.5-8.6-9.7-1.3-1.2-1.5-3.2-.3-4.5l.3-.3c2.9-3.2 5.7-6.5 8.5-9.7.3-.3.8-.3.8-.9-.1-.2-.2-.3-.3-.5-1.5-1.6-3.1-3.3-4.7-4.9-.1-.2-.3-.3-.5-.3-.4 0-.6.4-.9.7-5.2 5.6-10.5 11.1-16 16.6zM82.4 353.9c-1.6 1.5-1.2 2.3.5 3.2 11.3 5.7 22.2 5.1 33-1.7 7-4.4 7-16.7.2-21.3-5.3-3.6-11.6-5.5-18-5.6-5.2-.1-10.3 1.2-14.9 3.7-2.1 1.1-2.1 2-.5 3.5 1.2 1.1 2.3 2.4 3.2 3.7 1 1.3 1.8 1.7 3.6.9 4.7-2.1 9.6-3.9 15-2.1 3.5 1.2 5.8 3.8 5.8 6.5 0 2.8-2.6 5.5-6.1 6.7-3.7 1.2-7.1.3-10.7-.6-1.9-.4-3.6-2.2-5.3-2.2-.4 0-.7.1-1 .2-2 1-3.1 3.5-4.8 5.1zm491.1 1.5c5.5 3.6 12 5.6 18.6 5.5 5.2 0 10.3-1.4 14.9-4 1.4-.8 1.7-1.5.4-2.7-1.2-1.2-2.4-2.5-3.4-3.9-1.2-1.6-2.1-2-4.2-1-4.8 2.2-9.8 3.9-15.2 1.8-3.1-1.2-5.4-3.9-5.2-6.5.2-3.2 2.3-5 5.2-6.2 3.8-1.6 7.6-.8 11.4.2 2.2.6 4.4 2.9 6.4 2 2-.9 3.2-3.5 4.9-5.2 1.4-1.4 1.2-2.1-.4-3-4.5-2.6-9.7-3.9-14.9-3.8-6.6-.1-13.1 1.8-18.6 5.6-6.7 4.7-6.7 16.6.1 21.2zm84.5-8.9c2.5 2.4 4.7 5 6.7 7.8 2.3-2.6 4.5-5.3 6.5-8.2.7-.8.8-2 0-2.8-2-2.9-4.2-5.7-6.6-8.3-1.9 2.9-4.1 5.5-6.6 7.8-1.3 1.3-1.3 2.4 0 3.7zm-640-.8l6 7.8c.4.6.8 1.1 1.5 0 1.6-2.4 3.5-4.7 5.7-6.6 1.8-1.7 1.5-2.9-.1-4.5-2.4-2.2-4.5-4.7-6.3-7.4-2.5 2.7-4.8 5.6-6.9 8.7-.4.6-.4 1.5.1 2zm42.1-39.8c-1.5.8-2.2 1.4-.5 2.8 1.3 1 2.1 3.1 3.4 3.4 1 .2 2.4-1.7 3.8-2.4 9.4-4.9 19.4-8.8 29.6-11.6 20-5.7 40.9-6.8 61.4-3.4 6.7 1 13.1 3.4 18.8 7 2.5-1.6 5-2.9 7.7-4.1-16.2-7.3-33.8-11-51.6-10.9h-2.8c-24.5.5-48.5 7.1-69.8 19.2zm494.2-13.1c9.1 0 18.1.9 27 2.6 13.5 2.5 26.6 6.9 39 13 1.7.8 3.4 1.8 4.8 3 1.3 1.2 1.8.7 2.8-.3 3.6-4 3.6-4.1-1.2-6.6-19-10.2-40.1-16.1-61.6-17.3-17.3-1-34.6 1.4-51 7.1-3 1-5.9 2.3-8.8 3.6 2.7 1.1 5.3 2.5 7.7 4.1 3.3-2.1 6.8-3.8 10.5-4.9 9.9-2.7 20.1-4.1 30.3-4.1l.5-.2zm16.5-123.7c-7.7 26-19.2 50.2-35.4 71.9-9.5 12.7-20.4 24-33.6 32.8-3.8 2.6-7.8 4.7-12 6.4-1.5 2-3.1 4-4.9 5.8-.2.2-.7.5-.4 1.1 2.2-.9 4.4-1.7 6.5-2.7 5.9-2.8 11.5-6 16.8-9.7 17.2-11.9 31.2-27.1 42.7-44.4.3-.5.7-1.1 1-1.6.1-.4.4-.7.7-1 18.2-28.3 29.2-59.2 31.8-93 .6-8.5.5-17.1-.2-25.7-.2-2.1-1-3.1-3.2-3.1-2.3-.1-4.6-.4-7-.5-18.1-.7-36.2 1.4-53.6 6.2-20.4 5.5-39.8 14.1-57.5 25.5-.3.3-.6.5-1 .6-2.4 1.6-4.9 3.3-7.3 5-16.2 11.6-30.3 25.2-41.2 42-4.3 6.4-7.8 13.3-10.2 20.6 2-2 4.3-3.9 6.6-5.5 0 0 0-.1.1-.1 4.3-10 10.6-18.6 17.9-26.5 19.2-20.5 42.6-34.8 68.3-45.6 20.2-8.6 41.5-14 63.3-16.2 5.7-.6 11.4-.3 17.1-.9h.4c1.8 0 2.8 1.2 2.7 3.2-.4 18.7-3.1 37.3-8.4 55.4zM106 109.2c-.1 2.3-.4 4.6-.5 7-.7 18 1.4 36 6.2 53.4 6.3 23.7 16.9 46 31.2 66 12.6 17.5 27.5 32.6 46.2 43.7 5.1 3.2 10.7 5.7 16.4 7.5-.6-.7-1.2-1.4-1.9-2-1.4-1.4-2.6-2.9-3.8-4.5 0 0-.1 0-.1-.1-10-4.3-18.6-10.6-26.5-17.9-20.5-19.2-34.8-42.6-45.6-68.3-8.6-20.1-14-41.5-16.2-63.3-.6-5.7-.3-11.4-.9-17.1-.2-2.1 1.1-3.2 3.2-3.2 25.1.4 50 5.2 73.4 14.3 20.8 8 40.2 18.4 57.7 32.3 13.9 11.1 26.2 23.6 34.2 39.8.5 1 .9 2 1.3 3 2.4 1.8 4.7 3.9 6.9 6-.1-.5-.2-1.1-.3-1.6-3.2-8-7.3-15.7-12.3-22.8-12.3-17.6-27.9-31.7-45.6-43.3-.3-.1-.6-.3-.9-.6-2.5-1.6-5-3.1-7.5-4.6-26.6-15.6-55.3-25.1-86.2-27.3-3.5-.3-7.1-.4-10.6-.4-4.8 0-9.7.2-14.5.6-2.3.3-3.3 1.2-3.3 3.4zm407 168.9c2.6-.8 5.3-1.5 8-2.3 17.9-5.3 36.5-7.5 55.1-6.4.5 0 .9.1 1.4.1 5.7-10.4 11.5-20.8 17.2-31.2 1.6-2.8 1.5-2.9-1.8-3.2-12.4-1-24.7-2-37.1-3-10 15.2-22.2 28.8-36.2 40.4-2.2 1.9-4.5 3.6-6.6 5.6zm-337.1-.1h1.1c-4.9-3.6-9.7-7.5-14.2-11.6-11.1-10.2-20.8-21.7-29-34.2-12.8 1-25.5 2.1-38.3 3-2.1.2-1.7 1.1-1 2.4 4.5 8.1 8.9 16.2 13.4 24.3l4.2 7.8c3.4-.2 6.8-.3 10.3-.3 3.7 0 7.4.1 11.2.4 14.4.9 28.6 3.8 42.3 8.2zm311.3-78.1c1.2.5 2.2 1.5 2.5 2.8.3 1.1.6 2.2 1 3.2 5.6 13.1 8.5 27.1 8.5 41.3.1 8.8-1.3 16.9-4.6 24.3 12.8-7.2 23.1-17.3 32.4-28.8 16.1-19.9 27.6-42.3 35.8-66.5.1-.4.2-.8.4-1.5-5-.4-9.9-.9-14.8-1.3-1.3-.1-1.2 1.1-1.5 1.8-4.7 10.6-11.5 19.3-22.1 24.5-15.4 7.6-33 0-37.5-16.4-2.5-9.2.4-17.4 5.8-24.9 5.4-7.4 12.6-12.5 20.9-16 1.5-.6 1.8-1.2 1.7-2.8-.5-4.4-.8-8.9-1.1-13.6-9.6 3.1-19 6.9-28.1 11.3-16.7 8.1-32.4 17.9-46.2 30.4-8.8 7.9-16.7 16.7-22.5 26.9l.6-.3c7.4-3.4 15.2-4.2 23-4.2 3.3 0 6.6.2 9.9.3 12.6.8 24.3 5.2 35.9 9.5zm-361.1-25.1c3.1 9.6 6.9 19 11.3 28.1 8.1 16.7 17.9 32.4 30.4 46.2 7.9 8.8 16.6 16.6 26.8 22.4-1.5-3.3-2.5-6.7-3.2-10.2-2.3-12.5-1.4-25 1.3-37.3 1.6-7.4 4.8-14.4 7.1-21.6.5-1.3 1.6-2.3 3-2.6 1.1-.3 2.2-.6 3.2-1 13.1-5.6 27.1-8.5 41.3-8.5 8.5 0 16.6 1.1 24.2 4.5-1.6-2.8-3.3-5.4-5.2-8-9-12.4-20.3-22.4-32.7-31.2-17.4-12.2-36.4-21.8-56.5-28.6-.7-.2-1.5-.5-2.4-.8-.4 5-.9 9.9-1.3 14.8-.1 1.3 1.1 1.2 1.8 1.5 10.6 4.7 19.3 11.5 24.5 22.1 7.6 15.4 0 33-16.4 37.5-9.2 2.5-17.5-.4-24.9-5.8-7.4-5.4-12.5-12.6-16-21-.5-1.2-1-1.7-2.2-1.7h-.7c-4.2.6-8.7.8-13.4 1.2zm216.7-167c-2.7 1.8-5.5 3.5-8.3 5.4-19.7 13.3-35.6 30.1-46.4 51.4-10.7 21-14.6 43.5-13.2 66.9 1 15 3.9 29.9 8.9 44.1 2.8 8.4 6.2 16.6 10 24.6.3-1.5.4-2.2.5-3 .1-.9.2-1.7.4-2.6.2-1.1.5-2.1.7-3.2-.2-.3-.4-.6-.5-.9-4.8-9.4-8.3-19.4-10.3-29.8-8.6-45.2 1.6-85.9 29.7-122.2 7.5-9.5 16.4-17.9 26.3-24.9 3.3-2.3 5.1-2.3 8.5.1 21 15.1 36.3 34.8 46.6 58.5 9 20.6 13.2 43 12.2 65.4-.6 17.9-4.9 35.6-12.6 51.8-.3.6-.7 1.3-1.1 1.9.3 1.1.6 2.2.8 3.3.3 1.6 0 3.3 1.1 5.2 1.4-3.3 2.8-6.2 4-9.1 9.1-21.8 14.8-44.4 14.8-68.2.2-21.4-5-42.5-15.2-61.3-12.5-22.9-30.9-40.1-53.1-53.5-.6-.4-1.2-.6-1.9-.6s-1.4.3-1.9.7zM152.3 172.6c-5.1.8-5.7-.8-2.7 4.8 4.7 8.7 11.1 15.7 20.8 18.8 7.7 2.5 14.6 1.1 20.5-4.7 5.6-5.5 7.9-11.9 5.9-19.5-3.2-12-11.8-18.9-22.3-24-.4-.2-1.2-.5-1.3.1-.3 1.6-.5 3.2-.5 4.9 0 1.4 1.5 1.2 2.4 1.6 10.2 5.5 16.2 13.9 17.8 24.6-.2 4.1-.7 7-3.1 9.6-3.7 3.9-8.2 4.4-12.8 3.3-9.8-2.1-18.1-8.7-22.3-17.8-.4-.9-.6-1.9-1.8-1.9-.3.2-.5.2-.6.2zm342.6-6.5c-4.2 8.1-4.3 17.1 2.7 24.4 4.8 5 10.3 7.6 17.4 6.7 12.1-1.6 22-12.7 26.5-23 .2-.4.5-1.1-.3-1.2-1.6-.3-3.3-.4-4.9-.4-1.3.1-1.2 1.7-1.7 2.7-5.6 10-13.9 16-22.5 17.2-10 .6-15.8-5.1-15.2-12.2 1.1-12 7.6-20.3 18.1-25.7 1.6-.8 2.3-1.5 1.9-3.3-.2-.7-.2-1.4-.2-2.1 0-1-.2-1.5-.7-1.5-.4 0-.8.2-1.1.3-8.6 4.2-15.7 9.7-20 18.1zm-334.9 6c-.4.5-.1 1 .1 1.4 2.7 6.5 13.2 13.6 20.2 13.7 4.5 0 6.9-2.3 6.9-6.8.1-7-7.3-18-13.8-20.4-.7-.3-1.2-.6-1.6.5-1.1 3.4-.4 5.6 2.7 7.7 2.8 1.9 5 4.6 6.1 7.8.7 1.4.4 3-.8 4-1.1 1.1-2.7 1.3-4 .6-3-1.1-5.7-3.1-7.5-5.7-.6-.9-1.3-1.8-2.1-2.6-.3-.4-2.1-.6-3.7-.6-.7-.1-1.6.1-2.5.4zm342.2 8.2c0 4.5 2.3 6.9 6.8 6.9 7 .1 17.9-7.3 20.4-13.8.3-.7.6-1.2-.5-1.6-3.3-1.1-5.6-.3-7.7 2.7-2 3-4.9 5.2-8.3 6.3-1.3.5-2.7.1-3.5-.9-1-.9-1.3-2.3-.8-3.5 1.1-3.2 2.7-6.1 5.7-7.8 3-1.7 4.1-4 3.3-7.4-.2-.9-.3-1.4-.9-1.4-.3 0-.6.1-.9.2-6.4 2.8-13.5 13.3-13.6 20.3zM377.4 62.8c-.2 1.1 1.5 2.4 2.2 3.8 5.1 9.7 9.1 20 11.9 30.6 4.8 17.5 6.2 35.7 4.2 53.7-.9 9-3.1 17.7-8 25.5 0 0 0 .1-.1.1 1.6 2.5 2.9 5 4 7.7 7.7-17.1 11.4-35.7 10.9-54.4-.4-24.4-6.9-48.3-19-69.5-.5-.9-.9-1.6-1.5-1.6-.4 0-.8.3-1.4 1.1-.9 1-2.9 1.8-3.2 3zm-90.1 58.5c-1.8 20.3 1.4 40.8 9.1 59.7.4 1.1.9 2.1 1.4 3.2 1.1-2.7 2.5-5.3 4.1-7.7-1.5-2.3-2.8-4.7-3.8-7.3-3-7.7-4.2-15.8-4.8-24.1-1.6-20.1 1.4-39.5 7.9-58.4 2.3-7.2 5.3-14.1 9-20.6 2.1-3.4 2-3.2-.8-6-.8-.8-1.4-1.2-1.9-1.2-.7 0-1.2.7-1.9 1.9-10.5 18.6-16.7 39.2-18.3 60.5zm164.4-26.8c-10.1 5.6-20.3 11.2-30.4 16.8-.5.3-1 .5-1.4.8.5 7.1.5 14.3 0 21.4-1.1 14.6-4 29-8.5 42.9 0 .1 0 .2.2.5 3-3.7 5.7-7.4 8.7-10.9 10.9-12.3 23.3-23.2 37.1-32.2l-.9-10.8c-.7-9-1.5-18.1-2.1-27.1-.1-1.4-.4-1.9-1-1.9-.7 0-1.2.2-1.7.5zm-219.5 39.2c15.2 9.9 28.7 22.1 40.3 36 .9 1.1 1.8 2.3 2.7 3.5.9 1.2 1.8 2.3 2.8 3.4-1.6-6.2-3.4-12.2-4.8-18.4-3.5-15.1-4.7-30.7-3.7-46.2-9.7-5.4-19.5-10.7-29.2-16.2-2-1.1-3.2-1.8-3.9-1.8-1 0-1.1 1.3-1.4 4.4-1 11.9-1.9 23.6-2.8 35.3zm69-26.8c-3 14.3-3.7 29-2 43.6.8 7.4 2.4 14.6 6.1 21.1 3.8-4.7 8.1-8.9 12.9-12.5 7.8-5.9 16.2-10.9 24.4-16.1 1.4-.9 3.1-.8 4.4.1.7.5 1.4 1.1 2.1 1.5 7 4 13.9 8.5 20.4 13.3 5.5 3.8 10.4 8.4 14.6 13.6 4.5-8.1 5.9-17 6.6-26.1 1.6-18.7-1.2-36.9-6.6-54.7-2.6-8.6-5.8-17-10.6-24.8l-.6.3c-4.2 3.3-4.2 3.3-1.6 7.9 3.7 6.6 5 13.7 4.9 21.2-.2 13.3-4 25.3-13.2 35.1-10.7 11.3-25.5 11.2-36.5.1-12.9-13-17.2-37.8-9.4-54.4.3-.6.6-1.2 1-1.8 2.9-4.9 2.9-4.9-2.2-8.3-7.3 12.8-11.6 26.6-14.7 40.9zm223 16.3c-1.4.4-3.2.4-4.1 1.3-1.2 1.1.3 2.8.4 4.3.8 11.5 1.7 23.1 2.6 34.6.1 2 .9 2.8 2.9 3 11.5.8 22.9 1.8 34.4 2.6 1.6.1 3.5 1.7 4.7.2 1-1.2 1-3.3 1.5-4.9.6-1.7.1-2.2-1.7-2.2-10.7-.1-21.4-.3-32.1-.4-2.5-.2-4.6-2.2-4.8-4.8v-16.1h-.4v-15.3c0-2.1-.1-2.8-.9-2.8-1 .1-1.7.3-2.5.5zm-362.6 33.5c-.2 2.7-2.5 4.9-5.2 4.9-10.7.1-21.4.3-32.1.5-1.5 0-1.8.4-1.4 1.8.6 1.9.7 4.1 1.8 5.6.5.7 3-.3 4.6-.4 11.4-.9 22.9-1.8 34.3-2.6 1.9-.1 2.6-.9 2.8-2.8.8-11.4 1.8-22.9 2.6-34.3.1-1.6 1.4-3.6.4-4.6-1.1-1.1-3.2-1.1-4.8-1.6-1.7-.5-2.6-.5-2.6 1.8.2 5.4.1 10.7.1 16.1h-.5v15.6zm401.2-.2c.6 0 1.2.1 1.8.2 1.4.2 2.8.5 3.6-.4 1.2-1.3 1-3.7 1.6-5.6.7-2.1-.3-2.3-2-2.2-6.8.4-13.6.7-20.4 1-5.5.2-7.7-2.1-7.4-7.7.4-6.7.7-13.5.9-20.2 0-.8.7-2.5-1.1-2.2-2.1.3-4.2 1-6.3 1.4-1 .2-.7 1-.7 1.7.2 10.6.4 21.2.6 31.9 0 1.2.4 1.7 1.6 1.7h16.1v.5c3.9 0 7.8 0 11.7-.1zm-442.2-1.6c.3 1.4.8 1.9 2.4 1.9 10.4-.3 20.9-.5 31.3-.7 1.3 0 1.8-.4 1.8-1.8-.1-5.2 0-10.4 0-15.5h.5v-12.2c0-1.8.9-4-.1-5.3-1.1-1.3-3.6-.9-5.3-1.6-2.5-.9-2.7.2-2.6 2.3.4 6.7.7 13.4 1 20.2.2 5.3-2 7.5-7.3 7.3-5.5-.2-11-.4-16.6-.7-1.3-.1-2.4-.1-3.2-.1-3.4-.1-3.2 1-1.9 6.2zm426.2-36.6c-.6.2-.4.7-.5 1.1-.3 7.5-.6 15-1 22.5-.1 1.8.6 2.3 2.3 2.2 3.6-.2 7.3-.4 10.9-.6v.1c2.3-.1 4.7-.3 7-.4 6.3-.4 6.2-.4 6.6-6.6.1-1.3-.1-1.7-1.6-1.8-3.8-.1-7.6.6-11.4.6-3.4 0-5.3-1.8-5.2-5.3.1-3.7.4-7.4.5-11.1 0-.6.5-1.7-.5-1.7h-.3c-2.2.1-4.5.4-6.8 1zm-429 16.7c-1.1 2.1.2 4.1.2 6.2 0 .8 0 1.8 1.5 1.9 7.5.2 15 .6 22.5 1 1.6.1 2.2-.5 2.1-2.1-.2-3.6-.4-7.3-.6-10.9h.1c-.1-2.4-.3-4.8-.4-7.3-.4-6-.4-6-6.4-6.5-1.3-.1-1.9 0-1.9 1.7 0 3.9.7 7.8.6 11.6.1 2.5-1.8 4.7-4.3 4.8h-.5c-1.7 0-3.4-.1-5.1-.3-2.1-.3-4.2-.3-6.3-.2h-1.2c-.1 0-.3 0-.3.1zm205.1-58c-.6 1-1.1 2.1-1.5 3.3-5.3 15.9-2.7 30.6 7 44 8.9 12.3 24.1 11.8 33-.2 5.4-7.3 8.6-16.1 9.2-25.2.6-7.6-.3-15-4-21.9-2.1-3.8-2.1-3.7-5.4-.8-.9.8-1.2 1.3-.4 2.5 4 5.7 5.5 12.2 5.4 19.3.3 5.8-1 11.5-3.6 16.6-7.7 15.5-24.8 16.3-33.7 3.4-7.1-10.3-7.6-27.7-.6-38.6.7-1.1 1.6-1.9 0-3.2s-2.4-2-3-2c-.8-.1-1.3.8-2.4 2.8zm236.6 51.5c-.1 1.1.3 1.6 1.5 1.5 3.4-.2 6.9-.4 10.3-.5 1.2-.1 1.9-.6 1.9-1.9.1-3.4.2-6.7.4-10.1 0-1.1-.5-1.6-1.5-1.6-3.4.1-6.9.3-10.3.4-1.3 0-1.6.8-1.6 1.8v5.4h-.2c-.3 1.7-.4 3.4-.5 5zm-436 1.2c6.6.5 6.7.4 6.2-6.2-.2-2.2.7-5-.7-6.5-1.1-1.1-2.7-1-4.2-.8-.7.1-1.4.1-2.1.1-6.8-.3-6.8-.3-6.5 6 .1 2.2-.8 5 .5 6.5 1.1 1.2 2.8 1.1 4.5.9.5 0 1.1-.1 1.6-.1h.2c.2 0 .4.1.5.1zm209-47.1c-2.7 4.7-4 10-3.9 15.4 0 6.3 1.9 12.5 5.4 17.8 4.7 7.2 17.1 7.1 21.7-.1 6.3-10.1 7.1-20.5 2.3-31.4-1.6-3.7-1.8-3.6-5-.9-.7.7-1.4 1.3-2.2 1.8-2.3 1.3-2.2 2.7-1.2 5 2 4.6 3.6 9.4 1.6 14.5-1.2 3.1-3.7 5.3-6.3 5.4-2.6.1-5.1-2.1-6.4-5.2-1.6-3.9-.7-7.6.2-11.4.5-2.3 3-4.4 1.9-6.5-1.1-2-3.6-3.2-5.3-4.9-.3-.4-.8-.7-1.3-.8-.6.1-1 .5-1.5 1.3zm-18-35.1c-1.4.4-2.1 2.8-3.3 4.2-1.4 1.7-1.9 2.9.8 3.8.8.3 1.5 1.2 2.2 1.8 9.7 8.3 19.4 16.6 29.2 25 .6.7 1.7.9 2.4.3l.3-.3c1.7-1.5 3.4-2.9 5.1-4.4 9.3-7.7 18-16.2 27.8-23.2.3-.2.7-.3.4-1.3-1.2-1.8-2.7-4-4.4-6.1-.3-.4-.9.3-1.2.6-8.9 8.1-17.8 16.2-26.6 24.3-1.6 1.5-3.1 1.5-4.8 0-7.9-7.2-15.8-14.5-23.8-21.6-1.2-1.1-2.3-3.2-3.7-3.2-.1 0-.3 0-.4.1zm4.1-5.9c0 .1-.1.1-.2.2-.7.6-.5 1 .2 1.6 8.2 7.4 16.5 14.8 24.7 22.2.4.4.9.7 1.4 1.2.7-.6 1.3-1 1.9-1.5 7.2-6.5 14.4-13 21.5-19.5 3.6-3.3 3.6-3.3.4-7-1-1.1-1.4-1.2-2.5-.1-6.2 6.2-12.5 12.2-18.7 18.3-1.7 1.7-3.3 1.8-4.9.2L325.9 41c-1.9-1.9-2.9-2.9-3.8-2.9-1 0-1.8 1.1-3.5 3.5zm12.6-13.3c-1.6 1.5-3.1 3-4.7 4.5-.8.8-.1 1.1.4 1.6 5.4 5.2 10.8 10.4 16.2 15.7 1.3 1.3 2 1.3 3.3 0 4.2-4.2 8.5-8.4 12.8-12.5 4.6-4.3 4.6-4.2.1-8.5-.1-.1-.3-.2-.4-.4-.7-.7-1.1-1-2.2 0-3.1 3-6.5 5.7-9.7 8.6-1.2 1.3-3.1 1.4-4.4.2l-.2-.2c-3.2-2.8-6.5-5.7-9.8-8.5-.3-.3-.6-.6-.8-1-.2.2-.4.4-.6.5zM343.7 18l-7.8 6c-.7.6-.7.9.1 1.5 2.5 1.8 4.9 3.8 7 6.1 1.3 1.2 2.2 1.2 3.5 0 2.1-2.2 4.5-4.3 7-6.1.3-.2.7-.2.7-.8-.2-.2-.4-.5-.6-.6l-7.8-6c-.3-.2-.7-.4-1-.4-.4-.1-.8.1-1.1.3zm101.1 567.5c-5.8-3.1-11.5-6.2-17.3-9.3-2.1-1.1-2.6-2.8-2.5-5 .4-9.5-.6-19-2.9-28.2-.3-1.3-.7-2.5-1.2-3.7-.7-1.3-.2-2.9 1-3.6 1.4-.8 2.6-.2 3.6 1 3.8 4.4 8.1 8.3 12.8 11.7 3.2 2.3 6.7 4.2 10.5 5.6 2.7 1 3.9 2.6 3.5 5.5-.1 1.3-.1 2.6 0 3.9h-.8c0 6.1.1 12.2 0 18.4.1 2.4-1.8 4.4-4.1 4.4h-.2c-.8-.1-1.6-.3-2.4-.7zm-14.7-15.2c0 .7.4 1.4 1 1.6 4.6 2.5 9.2 5.1 13.8 7.6 1 .5 1.5.6 1.6-.8.2-6.1.4-12.2.6-18.4.1-.8-.4-1.5-1.1-1.7-6.4-2.7-12.2-6.5-17.3-11.3 1.2 7.6 1.6 15.3 1.4 23zm-192.2 10.9c-.1-1.7 0-3.5 0-5.2-.4-5.8-.8-11.6-.8-17.4-.2-1.9 1-3.8 2.9-4.3 9.6-3.7 17.3-10.1 24-17.7 1.1-1.2 2.3-1.7 3.7-.9 1.1.7 1.6 2.2 1 3.4-3.2 10.3-4.6 21-4.1 31.7.3 2.5-1 4.8-3.3 5.8-5.4 2.8-10.6 5.7-16 8.6-.9.5-2 .8-3.1.9-2.5.1-4.1-1.7-4.3-4.9zm5.5-22.6c-1.1.5-.9 1.3-.9 2.1.2 5.8.5 11.6.5 17.3 0 1.9.5 2.1 2 1.2 4.3-2.4 8.6-4.8 12.9-7.1 1-.4 1.7-1.5 1.5-2.6-.1-3.5-.1-7.1.2-10.6.3-3.9.8-7.8 1.3-12.2-5 5.2-10.9 9.2-17.5 11.9zm195.1 12.3c-2.2-.1-4.1-2.4-4-4.9.1-2.3 2-4.1 4.2-4h.2c2.2.1 4 1.9 4 4.2.1 2.5-1.9 4.5-4.4 4.7zm-187.6 0c-2.4-.2-4.3-2.1-4.4-4.6 0-2.3 2-4.2 4.3-4.2 2.2 0 4.1 1.8 4.2 4 0 2.6-1.9 4.8-4.1 4.8zm66.5-15.8c-3.7 0-7.6-4.1-7.5-7.9.3-3.5 3.1-6.2 6.6-6.4 3.8.2 6.8 3.2 6.9 7 .1 3.8-2.8 7.3-6 7.3zm54.7 0c-3.1 0-6-3.4-6-7.1.1-3.8 3-6.9 6.8-7.1 3.6.1 6.6 2.9 6.8 6.5 0 3.6-3.8 7.6-7.4 7.7h-.2zm-153.8-30.6c-3.6 0-6.2-2.7-6.2-6.6 0-3.6 2.2-6.3 5.1-6.4 3.4-.1 7.3 3.7 7.4 7.1-.1 3.3-2.8 5.9-6.1 5.9h-.2zm252.9 0h-.2c-3.3 0-5.9-2.7-6-5.9.1-3.4 4.1-7.2 7.4-7.1 3 .1 5.2 3 5 6.7-.1 3.8-2.6 6.3-6.2 6.3zm46.6-47.1c-3.6-.1-6.3-2.3-6.2-5.3.1-3.4 3.9-7.2 7.3-7.2 3.4.2 5.9 3.1 5.7 6.5-.1 3.5-2.9 6-6.7 6h-.1zm-352.9-6.3c-.1-3.3 2.6-6.1 5.9-6.2h.1c3.4.1 7.2 4.1 7 7.5-.1 2.9-2.8 5-6.3 5h-.2c-3.8-.1-6.6-2.7-6.5-6.3zM559 452.4c-2.3 0-3.7-.7-4.5-2.9-3.7-9.6-10-17.2-17.7-23.9-1.2-1.1-1.7-2.3-.9-3.6.7-1.2 2.2-1.6 3.4-1 10.2 3.2 20.9 4.6 31.7 4.1 2.5-.3 5 1.1 5.9 3.4 2.7 5.4 5.7 10.6 8.6 15.9 2 3.8.3 6.9-4 7.2-1.7.1-3.5 0-5.2 0-5.6.4-11.3.8-16.9.8h-.4zm-11.4-23.1c4.7 4.7 8.4 10.3 10.9 16.5.3.9 1.2 1.5 2.2 1.3 5.9-.3 11.7-.5 17.6-.6 1.7 0 1.9-.5 1.1-1.9-2-3.5-4-6.8-5.7-10.4-1.4-3.1-3.3-4.4-6.9-4.1-6.6.3-13.2-.2-19.7-1.6.3.3.4.6.5.8zm-416.3 23.1h-.4c-1.5-.1-3.1 0-5.4 0-5.4-.2-11.6-.4-17.9-.8-3.7-.2-5.5-3.5-3.8-6.8 3.1-5.8 6.2-11.5 9.3-17.3 1.1-2.1 2.8-2.6 5-2.4 9.4.4 18.8-.6 28-2.9 1.3-.3 2.7-.7 4-1.2 1.3-.7 2.9-.2 3.6 1.1.8 1.3.3 2.5-.8 3.4-7.7 6.8-14.2 14.6-17.9 24.4-.4 1.5-1.8 2.6-3.4 2.6-.2-.1-.2-.1-.3-.1zM117.5 431c-2.5 4.6-5 9.2-7.6 13.8-.6 1-.5 1.5.9 1.5 4.6.1 9.2.1 13.7.6 4.1.4 6.7-.4 8.3-4.8 1.9-5.2 5.7-9.4 9.4-13.6-7.5 1.2-15.1 1.7-22.7 1.4h-.1-.1c-.9.1-1.5.5-1.8 1.1zm225 11.7c-7.9-6.1-13.8-14.5-16.9-24-2-6.5-2.5-13.4-1.5-20.1-2.4 2.7-5 5.2-7.9 7.4-11.2 8-23.7 10.4-37.1 8.8-2.9-.3-4.2-2.2-4.4-4.9-1.6-17 2.2-32.1 15.7-43.8.4-.2.5-.6.4-1-11.1 2.1-21.3-.7-31-6.3-5.4-3.1-9.3-7.7-13.2-12.3-1-1.2-.8-2.7.3-4.1 6.1-7.9 14.5-13.8 24-16.9 6.5-2 13.3-2.5 20.1-1.6-2.8-2.4-5.3-5.1-7.5-8.1-7.9-11.2-10.2-23.6-8.6-37 .3-2.8 2-4.1 4.6-4.4 17.1-1.6 32.3 2.1 44 15.6.3.3.6.5.9.7-.2-3.6-.8-7-.4-10.4 1.3-12.9 6.7-23.6 16.7-32 .7-.6 1.4-1.3 2.1-1.9 1.2-1.1 3-1.2 4.3-.1 8.9 6.7 15.2 16.3 17.9 27.2 1.3 5.6 1.5 11.4.7 17 3.4-4.1 7.5-7.5 12.1-10.1 10.2-5.7 21.3-7.5 32.8-6.1 3.2.4 4.3 1.6 4.6 5 1.6 17.1-2.3 32.2-15.9 43.9-.2.2-.3.4-.4.7 3.5-.2 6.9-.8 10.2-.4 12.9 1.3 23.6 6.7 32 16.7.6.7 1.3 1.4 1.9 2.1 1.2 1.2 1.2 3 .1 4.3-6.7 8.9-16.3 15.2-27.2 17.9-5.6 1.3-11.4 1.5-17 .7 3.9 3.2 7.2 7 9.7 11.4 5.9 10.1 8.2 21.9 6.5 33.5-.4 3.2-1.6 4.3-4.9 4.6-17 1.6-32.1-2.2-43.7-15.7-.2-.4-.6-.5-1-.4 2.1 11.2-.8 21.3-6.3 31-3.1 5.4-7.7 9.3-12.3 13.2-.5.4-1.1.7-1.7.7-1.2.1-2-.3-2.7-.8zm-13.1-44.1c-2.3 15 2.7 27.3 13.7 37.4 1.3 1.2 2 1.1 3.2 0 12.8-11.7 16.9-26 12.7-42.7-.4-1.5-.4-3.2-1.6-4.8-1.6 2.2-3 4.2-4.6 6.1-1 1.1-.9 1.9-.2 3.2 2.5 4.2 2 9.6-1.4 13.3-1.4 1.7-3 3.2-4.1 5.3-.9 1.8-4 1.7-4.9-.3-.8-1.5-1.9-2.9-3.1-4.1-4.2-4.8-4.8-9.1-1.9-14.7.4-.8.6-1.3 0-2.1-1.7-2.2-3.3-4.4-5.3-7-1.1 3.4-1.9 6.9-2.5 10.4zm14.7 11.3c.3.2.6.3.9.3 3-.7 4.9-6.5 3.2-9.2-1.8 3.9-4.5 4.6-7.1-.2-1.3 3.3-.1 7.1 3 9.1zm-48.7-41c-12.7 8.7-17.2 25.9-15.6 39 .2 1.4 1 1.7 2.1 1.7 12.1.9 23.2-1.6 32.8-9.4 4.5-3.5 7.8-8.4 9.3-14-3.8.4-7.2.9-10.6 1.2-1.2-.1-2.3.8-2.4 2.1-.9 3.8-4.3 6.6-8.2 6.8-2.4.2-4.8.3-7.3.3-2 .1-2.8-1-2.8-2.9.1-2.2.1-4.3.3-6.5.4-4.9 2.5-7.5 7.2-8.9 1-.3 1.5-.7 1.6-1.7.4-3.7.8-7.3 1.3-11.1-2.8.6-5.4 1.8-7.7 3.4zm75.5 27.6c10 11 22.8 14.3 37.2 13.2 1.6-.1 1.7-1.2 1.8-2.4.8-10.6-1.2-20.5-7-29.4-3.9-5.9-9.1-10.4-16.4-12.4.2 2.1.5 3.8.7 5.5s.5 3.4.6 5.2c-.1 1.2.8 2.3 2.1 2.4 3.8.9 6.6 4.3 6.8 8.2.2 2.4.3 4.8.3 7.3.1 2-1 2.8-2.9 2.8-2.1-.1-4.1-.2-6.2-.3-5-.3-7.8-2.4-9.2-7.2-.3-1-.7-1.5-1.7-1.6-3.7-.4-7.3-.8-11.2-1.2.6 3.6 2.5 7 5.1 9.9zm-37-14.6c-.4.9.1 1.4.6 2.1 3 3.7 6 7.4 8.8 11.2.9 1.2 1.4 1.6 2.6.1 2.9-3.9 6-7.6 9-11.4.6-.5.8-1.4.5-2.1l-7.2-17.1c-.8.5-.6 1.1-.6 1.5v15.6c0 1.1-.1 2.2-.4 3.3-.3 1.2-1.5 2.1-2.7 1.9-1.2 0-2.2-.8-2.5-1.9-.3-1.2-.4-2.4-.3-3.6v-17.2l-.3-.1-7.5 17.7zm49.9 6.8c.9 2.2 5.1 3.8 7.2 2.6.2-.1.5-.3.5-.5.1-2.1.5-4.3-1-6.2-.4-.5-.9-1-1.5-.8-.8.2-.4 1-.4 1.5 0 1.8-.6 3-2.6 3.2-.3 0-.5 0-.8-.1-.2 0-.4-.1-.6-.1-.3.1-.6.2-.8.4zm-83.1 2.8c1.7 0 3.5-.1 4.7-1.6.6-.8.7-1.5-.6-1.4-2.8.3-4-.9-3.7-3.7.1-.6.1-1.3-.9-1-1.4.4-2.4 3.5-2.1 6.2.2 1.5 1 1.4 1.8 1.4h.5s.2 0 .3.1zm11.6-32.2c-2.6 1-3.5 2.8-3.7 5.3-.6 5.6-1.2 11.2-1.8 16.7-.1 1.3-.1 1.7 1.4 1.5 5.7-.7 11.3-1.2 17-1.9 2.4-.3 4.3-1.2 5.1-3.9.6-1.8 1.4-3.5 2.2-5.2 2.3-5.5 4.6-11.1 6.9-16.6-.1-.1-.2-.1-.4-.2-.3.3-.6.5-.9.8-4.1 4-8.3 8.1-12.4 12.1-1.5 1.4-3.1 2.3-4.8.7s-.9-3.3.6-4.7c1.2-1.2 2.4-2.5 3.6-3.7 3.1-3.2 6.3-6.5 9.4-9.7-7.6 2.7-14.9 5.9-22.2 8.8zm37.9-4c3 7.2 6.2 14.4 9.1 21.7.7 2.2 2.8 3.8 5.1 3.9 5.7.6 11.4 1.2 17 1.9 1.5.2 1.6-.2 1.4-1.5-.8-4.7-1.3-9.4-1.5-14.2-.1-4.9-2.2-7.4-6.7-9-6.6-2.3-12.9-5.3-19.3-8 4.1 4.8 8.3 9.3 12.7 13.7 1.4 1.5 2.2 3 .8 4.8-1.1 1.5-3.1 1.2-4.9-.8-4.2-4.5-8.3-9-12.5-13.5-.4.3-.8.6-1.2 1zm-96.8-12.2c-1.1 1.2-1.2 2 0 3.2 10.1 11 22.4 16.1 37.4 13.7 3.5-.5 7-1.3 10.3-2.5-2.3-1.7-4.3-3.1-6.2-4.7-.8-.9-2.2-1-3.2-.3-4.7 2.5-9.4 1.9-13.5-1.5-1.5-1.5-3.3-2.8-5.1-3.9-1.9-.9-1.7-4 .2-4.9 1.6-.9 3-2 4.3-3.3 4.7-4 9.1-4.6 14.5-1.8.5.3 1 .8 1.6.4 2.4-1.8 4.7-3.6 7.3-5.5-.4-.2-.9-.5-1.3-.6-2.9-.7-5.9-1.4-8.9-1.9-2.4-.4-4.8-.6-7.1-.6h-.1c-11.7-.1-21.7 5-30.2 14.2zm141.8 9.2c-2.2 1.7-4.4 3.3-6.9 5.3 3.4 1.1 6.9 1.9 10.4 2.5 15 2.3 27.3-2.7 37.4-13.8 1.2-1.3 1-2-.1-3.2-12.1-13.7-29.7-17.7-47.6-11.1 2.3 1.7 4.3 3.1 6.2 4.7 1.1 1 1.9.9 3.2.2 4.6-2.5 9.4-1.8 13.5 1.5 1.6 1.3 3 2.8 4.9 3.8 1.4.8 1.9 2.5 1.1 3.9-.3.5-.7.9-1.2 1.2-1.5.8-2.9 1.9-4.1 3.1-4.9 4.3-8.9 4.8-14.7 1.9-.3-.2-.7-.3-1.1-.3-.4-.1-.7.1-1 .3zm-89.7-17.8c-3.7 3.1-7.5 6.1-11.4 9-1.3 1-1.2 1.4 0 2.4 3.8 2.9 7.6 6 11.4 9 .6.6 1.5.8 2.3.5 5.6-2.4 11.2-4.7 16.9-7.1 0-.2-.1-.4-.1-.6H307c-3.1 0-4.7-1.1-4.5-3.1.3-2.7 2.3-2.9 4.4-2.9h18.4c-5.7-2.8-11.4-5.2-17.1-7.6-.3-.2-.7-.2-1.1-.3-.7.1-1.2.3-1.6.7zm59.3 13.8c5.6 2.4 11.2 4.7 16.7 7 .9.4 1.9.3 2.6-.4 3.7-3 7.4-6 11.2-8.9 1.2-.9 1.7-1.4.1-2.6-3.9-2.9-7.6-5.9-11.4-9-.6-.6-1.5-.8-2.3-.4-5.8 2.5-11.6 4.9-17.4 7.3 0 .1.1.2.1.4h17.3c1.2-.1 2.4 0 3.6.4 1.4.6 2.2 2.2 1.6 3.6-.3.7-.9 1.3-1.6 1.6-1.2.4-2.4.5-3.6.4h-15.3c-.2 0-.5-.1-.7-.1-.4 0-.8.3-.9.7zm-85.4-4.1c-.2.4-.2.8.1 1.2 2 3.1 5.9 4.3 9.3 3-1.6-1.1-3.5-1.4-3.4-3.7 0-2.3 2-2.4 3.3-3.5-.9-.4-1.8-.6-2.8-.5-2.7-.1-5.4 1.3-6.5 3.5zm121.6-3.1c4.2 3.2 4.2 4 0 7.2 3 1.5 8.2-.4 9.2-3.2.1-.2.1-.5 0-.7-.7-2.2-3.9-3.7-6.7-3.7h-.1c-.9-.1-1.7.1-2.4.4zm-32.3-20.3c1.7 1.7.6 3.4-.9 4.9-4.3 4.3-8.5 8.8-12.8 13.1.1.1.2.3.3.4 7.9-3.3 15.7-6.7 23.6-10 .8-.4 1.3-1.1 1.4-2 1.5-6.5 1.7-13.2 2.6-19.7.1-1.1-.5-1-1.3-.9-5.8.7-11.7 1.2-17.5 1.9-2.2.1-4.1 1.6-4.8 3.6-2.6 6.8-5.6 13.5-8.5 20.3-.2.6-.8 1.1-.4 2 4.5-4.3 8.9-8.6 13.2-12.9.8-.9 1.9-1.5 3-1.7.9.1 1.6.5 2.1 1zm-62-12.9c.7 5.8 1.2 11.5 1.9 17.3.1 2.3 1.5 4.2 3.7 5 6.6 2.6 13 5.5 19.6 8.2.8.3 1.5 1 2.7.7-.3-.4-.5-.7-.8-.9-4.2-4.3-8.4-8.5-12.5-12.8-1.9-2-1.6-4.3.5-5.1 1.6-.6 2.8.2 3.9 1.3 4.4 4.3 8.9 8.7 13.3 13 .1-.1.2-.1.3-.2-.3-.8-.5-1.6-.8-2.3-2.8-6.5-5.7-13-8.2-19.6-.7-2.2-2.8-3.8-5.1-3.8-5.7-.6-11.3-1.2-17-1.9-.2 0-.4 0-.7-.1-.7-.1-1 .2-.8 1.2zm36.8-13.7c-2.9 3.8-5.8 7.5-8.9 11.2-.8.8-.9 2.1-.3 3 2.2 5.2 4.4 10.5 6.7 15.7.2.4.1 1.1.8 1v-16.9c0-1 0-1.9.1-2.8.2-1.7 1.1-3 3-3s2.7 1.4 2.9 3.1c.1.9.1 1.9.1 2.9v16.2c.2 0 .4 0 .6.1l6.9-16.5c.5-.9.4-2-.4-2.8-3-3.7-6-7.4-8.9-11.2-.5-.7-.9-1-1.3-1s-.8.3-1.3 1zm-62.2-14.4c-1.3.2-1.5 1-1.5 2-1 13.1 1.9 25.1 11.2 34.9 3.2 3.5 7.5 6 12.1 7.2-.4-3.8-.9-7.4-1.2-11 0-1-.7-1.8-1.7-1.9-4.5-1.3-6.8-4.1-7.1-8.7-.2-2.2-.2-4.5-.3-6.7-.1-1.9.9-2.9 2.8-2.8 2.2.1 4.5.1 6.7.3 4.7.4 7.4 2.6 8.7 7.1.1 1 .9 1.7 1.9 1.7 3.6.4 7.2.8 10.9 1.2-.2-1.6-.8-3.2-1.6-4.7-6.7-13.1-22.5-18.9-35.7-18.9h-.1c-1.7-.1-3.4 0-5.1.3zm115.5 15.8c-.1 2.1-.2 4.2-.3 6.2-.3 5-2.4 7.8-7.2 9.2-1 .3-1.5.6-1.6 1.7-.4 3.7-.8 7.3-1.3 11.2 3.5-.8 6.8-2.4 9.5-4.8 11.5-10 14.9-23 13.8-37.6 0-.9-.7-1.7-1.6-1.7h-.3c-2.2-.1-4.3-.3-6.5-.2-10.7.4-20.4 3.6-28.3 11-3.7 3.3-6.3 7.7-7.6 12.5 3.8-.4 7.3-.9 10.8-1.2 1 0 2-.7 2.1-1.8 1.2-4.4 4-6.7 8.5-7.1 2.3-.2 4.7-.2 7-.3h.2c2 0 2.9 1 2.8 2.9zm-98 2.5c-.3.2-.5.4-.6.7-.2 2.2-.5 4.3 1.1 6.1.3.4.8.8 1.3.6.7-.2.4-.8.4-1.3.1-2.9.6-3.4 3.6-3.4h.2c.3.1.7 0 1-.3-1.1-1.8-3-2.9-5.1-2.9h-.1c-.7.1-1.3.3-1.8.5zm89.7 6.3c0 .4-.1.9.2 1.2 2.2-.9 3.8-5.1 2.6-7.1-.1-.2-.3-.4-.6-.5-2.2-.3-4.5-.5-6.4 1.1-.4.3-.8.8-.6 1.3.2.7.8.4 1.3.4h.5c2.3.1 3.3 1.3 3 3.6zm-41.3-31.3c1 1.7 2.2 3.3 3.6 4.7 3.8 4.4 4.3 8.9 1.7 14.1-.4.7-.9 1.3-.2 2.1 1.7 2.2 3.4 4.5 5.4 7.1 1.1-3.4 1.9-6.9 2.5-10.5 2.3-14.9-2.7-27.1-13.6-37.2-1.2-1.2-2.1-1.3-3.4-.1-10.9 10.2-16 22.4-13.6 37.4.5 3.5 1.3 6.9 2.5 10.2 1.8-2.4 3.3-4.5 5-6.5.8-1 .6-1.7.1-2.7-2.6-4.8-2-9.6 1.5-13.7 1.3-1.6 2.8-3 3.8-4.9.5-.9 1.5-1.5 2.5-1.4h.1c.7.1 1.6.6 2.1 1.4zm1.1 15.4c1.5-3-.3-8.1-3.2-9.1-.2-.1-.5-.1-.7 0-2.8.9-4.7 6.1-3.3 9.2 1.6-2.1 2.6-3.1 3.6-3.1s2.1.9 3.6 3zM118.5 438.7c-.1-2.2 2-4.2 4.6-4.3 2.3-.1 4.2 1.7 4.3 4v.2c.1 2.3-1.8 4.3-4.1 4.3h-.1c-2.4 0-4.4-1.8-4.7-4.2zm447.6 4.2c-2.3-.1-4.2-2.1-4-4.5.1-2.3 2.1-4.2 4.5-4 2.4.1 4.5 2 4.4 4.1-.2 2.4-2.3 4.3-4.7 4.4h-.2zm-223.9-17.4c0-1.4 1.2-2.5 2.6-2.5 1.3 0 2.4 1.1 2.5 2.4.1 1.6-1.1 2.2-2.3 2.4-1.7-.1-2.8-.7-2.8-2.3zm-7.2-6v-.3c-.1-1.1.7-2.1 1.8-2.2h.2c1.1-.2 2.2.6 2.4 1.7v.3c.1 1.2-.7 2.2-1.9 2.4h-.5c-1 0-1.9-.9-2-1.9zm17.2 1.9c-1.1.1-2.1-.8-2.2-2v-.4c0-1.1.8-2 1.9-2.1h.2c1.2-.1 2.2.7 2.3 1.9v.1c-.1 1.5-.8 2.4-2.1 2.4 0 .1-.1.1-.1.1zm-19.2-9.2c-1.1 0-2.1-.9-2.1-2v-.4c0-1.1.8-2 1.9-2.1h.3c1.2-.1 2.2.8 2.3 2v.4c-.2 1.2-.9 2.1-2.2 2.1h-.2zm23.4 0c-1.2 0-2.2-.9-2.2-2.1 0-1.2.8-2.2 1.9-2.4h.2c1.4-.1 2.2.8 2.3 2.2-.1 1.3-.7 2.3-2.2 2.3zm37.4-7.2h-.2c-1.1 0-2-.8-2-1.9v-.3c0-1.1.9-2.1 2.1-2.1h.1c1.2 0 2.2.9 2.2 2.1v.1c.1 1.1-.7 2-1.7 2.1h-.5zm-100.2-1.8v-.2c-.2-1.1.6-2.2 1.8-2.3h.4c1.2 0 2.1.9 2.2 2v.1c0 1.1-.8 2.1-2 2.1h-.5c-1 .1-1.8-.7-1.9-1.7zm-9.1-.5v-.3c0-1.1.9-2.1 2-2.1h.4c1.3 0 2.3 1.1 2.3 2.4v.2c-.1 1.4-1.1 2.1-2.6 2.1-1.2-.1-2.2-1.1-2.1-2.3zm118.2 2.3c-1.2.1-2.2-.7-2.3-1.9v-.4c-.1-1.3.9-2.4 2.2-2.5h.2c1.4 0 2.2.9 2.3 2.3.1 1.2-.8 2.3-2 2.4h-.2c-.1.1-.2.1-.2.1zm-97.6-2.5c-1.2 0-2.1-.9-2.1-2v-.2c-.1-1 .7-2 1.7-2.1h.4c1.1 0 2 .8 2 1.9v.3c.1 1-.7 2-1.7 2.1h-.2-.1zm77.2-1.8v-.4c-.1-1.1.8-2 1.9-2.1h.3c1.4 0 1.9.9 2.1 2.1 0 1.1-.8 2.1-2 2.1H384.3h-.1c-1.1 0-1.9-.7-1.9-1.7zm-51.5-.4v-.5c-.1-1.1.8-2.1 1.9-2.1h.2c1.1-.1 2.2.7 2.3 1.9v.4c.1 1.2-.8 2.3-2.1 2.4h-.2c-1-.1-2-1-2.1-2.1zm23.5-.1v-.2c-.1-1.4.8-2.2 2.3-2.3 1.2 0 2.1 1 2.1 2.2v.2c.1 1.2-.8 2.1-2 2.2H356.4c-1.2 0-2.1-1-2.1-2.1zm20-5.4v-.5c-.1-1.1.7-2 1.8-2h.4c1.1-.1 2 .8 2.1 1.9v.4c0 1.1-.8 2-1.9 2h-.5c-1 0-1.8-.8-1.9-1.8zm-63.3 0v-.3c-.1-1 .6-2 1.7-2.1h.4c1.2 0 2.2.9 2.2 2s-.8 2.1-2 2.2h-.2-.1c-1.1-.1-2-.8-2-1.8zm-26.6-.8v-.5c-.1-1.1.8-2 1.8-2h.3c1.1 0 2.1.9 2.1 2v.1c.1 1.2-.8 2.2-2 2.2h-.2-.1c-.9.1-1.8-.7-1.9-1.8zm118.5 1.9c-1.1.1-2.1-.8-2.1-1.9v-.5c.1-1.2 1.2-2 2.3-1.9 1.1.1 2 1.1 1.9 2.3.1 1.1-.8 2-1.8 2H402.9zm-4.6-11.5c-.1-1.1.7-2.1 1.8-2.2h.3c1-.2 2 .5 2.2 1.5v.5c.1 1.1-.8 2.1-1.9 2.2h-.2c-1.3-.1-2.2-.6-2.2-2zm-109.1 2h-.1c-1.1.1-2-.7-2.1-1.8v-.2c-.1-1.4.8-2 2.1-2.2 1.2.2 2.1.7 2.1 2.1.1 1-.6 2-1.6 2.1h-.4zm-147.3-6.8c-3.6-.1-7.7-4.1-7.6-7.6.1-3.3 3.5-6 7.3-6 3.8.2 6.8 3.2 7 6.9-.2 3.6-3.1 6.5-6.7 6.7zm405.7 0c-3.6-.2-6.5-3.1-6.6-6.7.2-3.8 3.3-6.7 7-6.9 3.8 0 7.2 2.9 7.2 6 0 3.6-4 7.5-7.6 7.6zm-155.2-3v-.3c-.1-1.1.7-2 1.7-2.1h.4c1.1-.1 2.1.7 2.2 1.8v.5c0 1.1-.9 2-1.9 2H394.5c-1.2 0-2.1-.8-2.1-1.9zm-99.5.1v-.3c-.1-1.1.7-2.1 1.8-2.2h.5c1.4.1 1.9.9 2 2.2-.2 1.3-.8 2-2.1 2H294.8c-1 .1-1.8-.7-1.9-1.7zm78.6-2.4v-.2c-.1-1.4.9-2.6 2.2-2.7h.2c1.6.1 2.5.9 2.5 2.4 0 1.3-1 2.5-2.4 2.5h-.2-.1c-1.2 0-2.1-.9-2.2-2zm-58.4-.3v-.3c0-1.4.8-2.2 2.4-2.4 1.4 0 2.5 1.1 2.5 2.5v.1c.1 1.2-.8 2.2-1.9 2.3H315.5c-1.2.1-2.3-.9-2.4-2.2zm227.9-1.1zm-143.2-16.6c0-1.1.9-2.1 2-2.1h.2c1.2-.1 2.2.7 2.4 1.9v.3c0 1.5-1.1 2-2.2 2.3-1.6-.3-2.6-.9-2.4-2.4zm-110.6.3v-.1c-.1-1.2.8-2.2 2-2.3h.3c1.4-.1 2.2.9 2.3 2.2 0 1.2-.9 2.2-2.1 2.2h-.4c-1.2 0-2.1-.9-2.1-2zm-9.9.1v-.4c.1-1.4 1-2.1 2.4-2.2 1.2 0 2.1 1 2.1 2.2v.2c0 1.1-.9 2-2 2h-.5c-1.1.1-1.9-.7-2-1.8zm132.7 1.9h-.3c-1.1 0-2-.8-2-1.9v-.3c.1-1.3.8-2.3 2.3-2.2 1.2 0 2.2 1 2.2 2.2v.1c0 1.1-.9 2-2.2 2.1zm9.2-4.2c-1.1.1-2.1-.8-2.1-1.9v-.2c-.2-1.1.5-2.1 1.6-2.3h.5c1.5-.1 2.1.9 2.3 2.2.1 1.2-.8 2.2-2 2.2H419.2zM268 352.5v-.2c-.1-1.1.7-2.2 1.8-2.3h.4c1.2-.1 2.2.8 2.3 1.9v.2c-.2 1.4-.8 2.3-2.2 2.3H270c-1 0-1.9-.8-2-1.9zm155.1-7.5v-.1c-.1-1.3.8-2.5 2.1-2.6h.2c1.6-.2 2.2 1 2.5 2.4-.1 1.5-.7 2.6-2.3 2.7h-.1c-1.2-.2-2.3-1.2-2.4-2.4zm-159.3 2.2c-1.5 0-2.2-1.1-2.2-2.5 0-1.5.7-2.6 2.3-2.5 1.4 0 2.5 1.1 2.5 2.5s-1.1 2.5-2.5 2.5h-.1zm155.4-7.8c-1.2 0-2.2-1-2.2-2.3 0-1.2.9-2.1 2.1-2.2 1.2-.1 2.2.7 2.4 1.9v.3c-.2 1.4-.8 2.3-2.3 2.3zM268 337.5v-.3c-.1-1.1.7-2.1 1.8-2.2h.2c1.5-.1 2.2.8 2.4 2.1-.1 1.4-.8 2.3-2.2 2.3h-.1-.1c-1 0-1.9-.8-2-1.9zm11.5-2.3c-1.2.1-2.2-.8-2.2-2v-.3c0-1.1.9-2.1 2-2.1h.2c1.2-.1 2.3.8 2.4 2v.1c-.3 1.3-.8 2.3-2.1 2.3h-.3zm130.4 0c-1.1 0-2.1-.8-2.1-2v-.4c0-1.1.8-2 1.9-2h.3c1.2-.1 2.2.8 2.3 2v.1c0 1.3-1 2.3-2.3 2.3h-.1zm-122.7-1.9v-.3c0-1.2.9-2.1 2-2.2h.1c1.2-.2 2.3.6 2.5 1.8-.1 1.6-.8 2.5-2.2 2.5h-.2c-1.2.1-2.1-.7-2.2-1.8zm112.6 1.9c-1.1 0-2.1-.9-2.1-2 0-1.2.9-2.3 2.2-2.4h.2c1.2 0 2.2.9 2.3 2.1-.3 1.5-1.1 2.2-2.4 2.2 0 .1-.1.1-.2.1zm148.1-11.8c-3.8-.2-6.8-3.2-7-7 .2-3.5 2.9-6.3 6.4-6.6 3.8-.1 7.9 3.9 7.8 7.6.1 3.2-3.4 6-7.2 6zm-406.5 0c-3.8-.1-7.1-2.9-7.1-6.2 0-3.7 3.9-7.4 7.7-7.4 3.6.2 6.4 3.2 6.5 6.8-.3 3.7-3.3 6.6-7 6.8h-.1zm171.7-7.9c0-1.3 1.1-2.4 2.4-2.5h.1c1.2-.1 2.2.7 2.4 1.9v.3c.1 1.4-.9 2.6-2.3 2.7h-.1c-1.6 0-2.5-.9-2.5-2.4zm58.3.1v-.1c.2-1.6 1.1-2.5 2.6-2.3 1.4.1 2.4 1.2 2.4 2.5v.1c.1 1.2-.9 2.2-2 2.3h-.4c-1.4-.1-2.5-1.2-2.6-2.5zm21-2.2v-.2c-.2-1.1.5-2.1 1.6-2.3h.6c1.1-.1 2.1.8 2.2 1.9v.1c.1 1.1-.8 2.1-2 2.2h-.5c-1 .1-1.9-.7-1.9-1.7zm-99.5 0v-.4c-.1-1.1.8-2 1.8-2h.2c1.1-.1 2.1.6 2.2 1.7v.3c.1 1-.6 2-1.6 2.1h-.7c-1 .1-1.8-.7-1.9-1.7zm105.4-8.2c-.1-1 .6-2 1.6-2.1h.4c1.1-.1 2.1.6 2.2 1.7v.3c.1 1.4-.8 2-2.1 2.2-1.2-.2-2.1-.8-2.1-2.1zm-111.3.4v-.3c0-1.2.9-2.2 2.1-2.2 1.1 0 2.1.8 2.2 1.9.1 1.1-.8 2.1-1.9 2.2h-.4c-1 .1-1.9-.6-2-1.6zm-.4-7.7c-1.4-.2-2.1-.9-2.1-2.3-.1-1.1.7-2 1.7-2.1h.4c1.1-.1 2.1.8 2.2 1.9v.5c-.1 1.1-1.1 2-2.2 2zm116.4-.1c-1.2.1-2.1-.8-2.2-1.9v-.5c.1-1.4 1.1-1.8 2.3-2 1.3.3 2 1 2 2.3.1 1.1-.7 2-1.8 2.1h-.1-.2zm-92-2.7c-.1-1.2.7-2.2 1.9-2.3 1.2-.1 2.2.7 2.3 1.9v.2c0 1.3-.7 2-2.1 2.2-1.1-.1-2-.6-2.1-2zm63.3.3v-.3c-.2-1.1.6-2.1 1.7-2.2h.5c1.1-.1 2 .7 2 1.8v.2c.1 1.1-.6 2.1-1.7 2.2H376.2c-1 0-1.8-.8-1.9-1.7zm-20-5.6v-.4c-.1-1.2.8-2.3 2-2.3 1.2-.1 2.3.8 2.3 2v.3c.1 1.1-.8 2.1-1.9 2.2h-.2c-1.1.2-2.1-.6-2.2-1.8zm-21.3 1.9h-.2c-1.1 0-2-.9-2-2v-.2c-.1-1.2.9-2.3 2.2-2.4h.1c1.3.1 2.2 1.1 2.2 2.4v.1c.1 1.1-.8 2.1-1.9 2.2h-.1c-.2-.1-.2-.1-.3-.1zm-29.9-2.6c-.1-1.1.7-2 1.8-2.1h.3c1-.1 1.9.6 2.1 1.6v.5c0 1.1-.8 2.1-1.9 2.2-1.6-.2-2.3-1-2.3-2.2zm79.2.1v-.1c-.2-1 .5-2 1.5-2.1h.5c1.2 0 2.1 1 2.1 2.2 0 1.1-.9 2-2 2.1h-.1c-1.1-.1-2-1-2-2.1zm18.1-2.5c-.1-1.1.7-2.2 1.8-2.3h.4c1.2-.2 2.3.6 2.4 1.8v.5c0 1.4-.8 2.2-2.2 2.4-1.3 0-2.4-1-2.4-2.4zm-115.9.1c-.2-1.2.7-2.2 1.8-2.4h.5c1.1-.1 2.2.7 2.3 1.9v.3c0 1.3-1 2.4-2.3 2.5-1.4-.1-2.3-.8-2.3-2.3zm109.2 1.9h-.1c-1.1 0-2-1-2-2.1v-.1c0-1.2 1-2.1 2.2-2.1 1.2 0 2.1 1 2.1 2.2 0 1.2-1 2.1-2.2 2.1zm-100.1-2v-.3c0-1.1.8-2 1.9-2h.3c1.1 0 2.1.8 2.2 2-.1 1.4-.8 2.2-2.1 2.3h-.1-.1c-1.2 0-2.1-.9-2.1-2zm37.3-7.3c-.1-1.1.8-2.1 1.9-2.2h.2c1.2-.1 2.2.7 2.3 1.9v.3c.1 1.5-1 2.1-2.2 2.3-1.4-.1-2.3-.9-2.2-2.3zm25.4 2.3c-1.1 0-2-.8-2.1-1.9v-.2c-.1-1.2.8-2.2 2-2.3h.3c1.5 0 2.1.9 2.2 2.3-.2 1.3-.8 2.1-2.1 2.1h-.3zm-21.2-11.1v-.2c-.2-1.1.5-2.2 1.6-2.4 1.3-.2 2.5.6 2.9 1.9v.2c.1 1.2-.7 2.2-1.9 2.3h-.3c-1.2.1-2.2-.7-2.3-1.8zm17.3 1.8H352.1c-1.1.1-2-.8-2.1-1.9v-.3c-.1-1.1.7-2.2 1.8-2.3h.4c1.4-.1 2.2.9 2.3 2.3 0 1.3-1 2.2-2.1 2.2zm-201-3.7c-.4 0-.8-.1-1.2-.2-10.3-3.2-21-4.6-31.7-4.1-2.5.3-4.8-1-5.8-3.3-2.8-5.4-5.7-10.6-8.6-16-2.1-3.9-.3-7 4.1-7.3 1.7-.1 3.5 0 5.2 0 5.8-.4 11.6-.8 17.4-.8 1.9-.2 3.8 1 4.3 2.9 3.7 9.6 10.1 17.2 17.7 24 1.2 1.1 1.7 2.3.8 3.7-.4.7-1.2 1.1-2.2 1.1zm-8.6-7.5c-5.4-5.6-9.4-11.3-12-17.9-.4-.9-1-.9-1.9-.9-6 .2-11.9.4-17.9.6-1.6 0-1.8.5-1 1.8 2.5 4.4 4.9 8.9 7.3 13.4.3.8 1.1 1.4 2 1.3 1.4-.1 2.8-.1 4.2-.1 6.5-.1 13 .5 19.3 1.8zm393.1 6.4c-.9-1.5-.3-2.7 1-3.8 7.4-6.6 13.7-13.9 17.3-23.3.9-2.4 2.4-3.5 5-3.4 7.5.4 15 .5 22.6.9 3.7.2 5.6 3.5 3.9 6.8-3.1 5.8-6.2 11.5-9.3 17.3-.8 1.6-2.4 2.6-4.2 2.5H567c-9.3.1-18.5 1.1-27.3 4-.5.2-1 .3-1.6.3h-.1c-.9-.2-1.7-.6-2.1-1.3zm20.7-20.2c-1.8 5.1-5.7 9.2-9.3 13.4 3.8-.6 7.6-1.1 11.4-1.3 3.9-.2 7.8-.2 11.6-.2.7 0 1.3-.4 1.6-1.1 2.5-4.6 5-9.2 7.6-13.8.8-1.4.1-1.5-1.1-1.6-4.3-.1-8.6-.1-12.9-.5-.7-.1-1.3-.1-1.9-.1-3.2.1-5.5 1.2-7 5.2zM342.2 264v-.2c-.1-1.4 1-2.2 2.3-2.3 1.3-.2 2.6.7 2.8 2v.1c-.2 1.5-.9 2.5-2.4 2.6H344.6c-1.3.1-2.3-.9-2.4-2.2zm-219-9.1h-.4c-2.5-.2-4.4-2.1-4.2-4.3.3-2.5 2.5-4.3 5-4.2 2.3.2 4 2.2 3.8 4.5v.1c-.2 2.2-2 3.9-4.2 3.9zm438.9-4c-.1-2.4 1.7-4.4 4-4.5h.1c2.5 0 4.6 2 4.8 4.5 0 2.1-2.1 4-4.5 4h-.2c-2.3 0-4.1-1.8-4.2-4zm-43.4-26.4c-3.4-.1-7.2-4-7.1-7.4.1-3 3-5.2 6.6-5.1 3.9.1 6.4 2.7 6.4 6.4 0 3.2-2.6 5.9-5.9 6.1zm-348 0c-3.3-.2-5.9-2.9-5.8-6.3 0-3.6 2.7-6.1 6.6-6.2 3.5 0 6.3 2.1 6.4 5 .1 3.4-3.6 7.3-7.1 7.4l-.1.1zm41.4-53.1c.1-3.9 2.7-6.6 6.3-6.5 3.3-.1 6.1 2.6 6.2 5.9v.1c-.2 3.3-3.9 7-7.2 7-3.1 0-5.4-2.9-5.3-6.5zm260.1 6.5c-3.4 0-7.3-3.9-7.2-7.2 0-3.2 2.9-5.8 6.4-5.8s6.1 2.9 6 6.7c0 3.6-2.2 6.3-5.2 6.3zm-208.1-25c-6.9-7.9-14.9-14.4-24.8-18.2-1.7-.6-2.2-2-2.2-3.7-.1-5.9.3-11.8.8-17.6 0-1.8-.1-3.6 0-5.4.3-4.2 3.5-5.9 7.3-3.9 5.6 3 11.1 6 16.7 9 1.9.9 3 2.8 2.7 4.8-.5 11 .9 22 4.2 32.5.5 1.4-.2 3-1.6 3.5-.3.1-.6.2-.8.2-1-.1-1.8-.5-2.3-1.2zm-21.7-24.2c-.2 1 .4 2.1 1.4 2.3 2.6 1.1 5.2 2.4 7.6 3.9 3.3 2.2 6.4 4.7 9.3 7.4.1-.4.2-.5.2-.7-1.3-7.4-1.8-14.9-1.5-22.4 0-1.1-.6-1.5-1.4-1.9-4.4-2.4-8.8-4.7-13.2-7.2-.4-.3-.8-.4-1.3-.5-.6 0-.7.6-.7 1.8.1 5.7-.1 11.5-.4 17.3zM422 153.6c-1.2-.7-1.7-2.1-1.1-3.4 3.3-10.4 4.7-21.3 4.1-32.2-.1-2.3.6-4 2.7-5.1 5.6-2.9 11.1-6 16.6-8.9 3.9-2.1 7-.3 7.3 4.1.1 1.7 0 3.5 0 5.2.4 5.7.8 11.4.8 17.1 0 2.4-.8 3.8-3.1 4.7-9.5 3.6-17 10-23.7 17.5-.6.8-1.4 1.3-2.4 1.3-.4.1-.8-.1-1.2-.3zm9.5-36.4c-.8.4-1.5.8-1.5 1.9.3 7.7-.2 15.4-1.4 23 5.1-4.7 10.9-8.6 17.3-11.3 1.2-.5 1.1-1.3 1.1-2.3-.2-5.8-.5-11.6-.6-17.3 0-1.2-.2-1.6-.7-1.6-.5.1-.9.3-1.4.5-4.1 2.4-8.4 4.8-12.8 7.1zm-58.6 31.3c-3.7-.2-6.7-3.2-6.9-7-.1-3.8 2.7-7.2 6-7.3 3.5-.1 7.5 3.9 7.6 7.5-.1 3.7-3 6.6-6.7 6.8zm-56.3 0c-3.6-.1-6.5-2.9-6.7-6.5 0-3.8 3.7-7.7 7.4-7.7 3.2 0 6.1 3.3 6.2 7.1-.2 3.7-3.1 6.8-6.9 7.1zm-65.9-21.2c-2.4 0-4.2-1.8-4.3-4.1v-.1c.1-2.4 1.9-4.4 4.3-4.6 2.2-.1 4.2 2.1 4.2 4.7 0 2.3-1.8 4.2-4.1 4.2.1-.1 0-.1-.1-.1zm183.8-3.9v-.2c0-2.4 1.8-4.6 3.9-4.7 2.5.1 4.5 2.1 4.6 4.6 0 2.3-1.7 4.1-4 4.2h-.5c-2.1 0-3.9-1.7-4-3.9z" fill="#eaeded"/>
</svg>
