<svg xmlns="http://www.w3.org/2000/svg" viewBox="0 0 559.2 559.2">
  <path d="M255.1 553c-16.8-8.4-30.6-20.2-40.4-36.3-11.8 9.3-24.5 17.4-38 24.1-2.8 1.4-5.6 2.8-8.5 4.2-1.1.5-2.3.9-3.5 1.2-4.5 1.1-6.1.3-8.3-3.8-5.4-10-7.5-21-8.9-32-1.1-8.2-1.7-16.4-1.8-24.7-4.9.9-9.9 1.3-14.9 1.3-17.4-.1-32.4-4.3-47.1-9.6-2.3-.9-4.3-2.4-5.7-4.5-8-10.8-11.8-23.2-13.5-36.2-1.7-11.9-1.5-23.7 1.5-35.4-18.1-2.2-35.9-6.5-53-12.9-1-.4-1.9-.8-2.8-1.3-4-2.4-4.8-4.5-3.5-9 3.3-10.9 9.6-20.1 16.4-28.9 4.9-6.5 10.3-12.6 16-18.5-2.8-1.9-5.4-4.1-7.9-6.4-9-7.7-15.9-17.2-21.7-27.4-3.1-5.2-6-10.6-8.4-16.2-.6-1.3-1-2.8-1.1-4.2.7-7.5 2.8-14.8 6.1-21.5 8.4-16.8 20.2-30.6 36.3-40.4-9.3-11.6-17.3-24.1-23.9-37.3-1.2-2.5-2.5-4.9-3.6-7.4-.8-1.6-1.4-3.3-1.9-5.1-1.2-4.4-.3-6.2 3.7-8.4 10.2-5.5 21.3-7.6 32.6-9 8-1 16.1-1.6 24.2-1.7-.9-4.9-1.3-9.9-1.3-14.9 0-17.4 4.3-32.2 9.5-46.8 1-2.7 2.8-5 5.2-6.6 11.1-7.9 23.7-11.6 37-13.2 11.5-1.4 22.8-1.2 34.1 1.7 1.2-10.4 3.2-20.7 5.9-30.9 1.9-7.5 4.3-14.8 7-22 .4-1.1.9-2.1 1.5-3.1 2.4-3.9 4.4-4.6 8.8-3.3 10.9 3.3 20.1 9.6 28.9 16.4 6.5 5 12.7 10.3 18.5 16 2-2.8 4.2-5.5 6.5-8.1 7.7-8.9 17-15.7 27.2-21.5 5.2-3.2 10.6-6 16.2-8.4 1.5-.6 3-1 4.6-1.2 5.1.6 10.2 1.8 15 3.6 19.7 8 35.2 20.8 46.4 38.9 11.8-9.3 24.6-17.4 38-24.1 3.1-1.7 6.3-3.2 9.5-4.5 1.3-.4 2.5-.8 3.9-1 3.3-.6 5.3.8 6.8 3.8 5.5 10.6 7.6 22.1 9.2 33.7 1 7.7 1.6 15.4 1.6 23.1 2.9-.5 5.8-.8 8.7-1 11.9-.8 23.9.4 35.3 3.8 6.2 1.8 12.5 3.3 18.5 5.9 1.9.8 3.6 2.1 4.9 3.8 9.5 12.7 13.2 27.3 14.5 42.7.9 9.8.2 19.8-2.2 29.3 14.9 1.7 29.6 4.9 43.8 9.7 3.2 1 6.3 2.2 9.4 3.3 2.1.8 4 2.2 5.5 3.9 1.2 1.1 1.6 2.9 1 4.4-2.1 7.1-5.2 13.9-9.4 20.1-6.9 10.5-14.8 20.3-23.6 29.3 4.6 3.1 8.8 6.6 12.6 10.6 11.1 11.3 18.8 24.8 25.4 39.1.7 1.4 1.1 3 1.2 4.6-.8 7.4-2.9 14.7-6.2 21.3-8.4 16.7-20.1 30.5-36.2 40.3 9.3 11.8 17.4 24.6 24.1 38.1 1.4 2.7 2.7 5.4 4 8.2.5 1 .8 2.1 1.1 3.2 1.3 4.8.6 6.4-3.8 8.8-10.4 5.6-21.9 7.5-33.4 9.1-7.7 1-15.4 1.6-23.1 1.6.8 4.5 1.3 9.1 1.3 13.8 0 18.3-4.3 33-9.4 47.6-1 2.7-2.8 5-5.1 6.6-10.7 7.7-22.9 11.4-35.8 13.2-11.9 1.6-23.7 1.4-35.4-1.6-2.1 18-6.4 35.7-12.8 52.7-.4 1-.8 1.9-1.3 2.8-2.4 4.2-4.6 5-9.1 3.6-10.8-3.3-19.9-9.5-28.7-16.3-6.5-5-12.8-10.4-18.6-16.1-1.9 2.8-4.1 5.4-6.3 7.9-7.7 9-17.1 15.9-27.4 21.7-5.3 3-10.5 6.1-16.2 8.4-1.4.6-2.9 1-4.5 1.1-7.4-.4-14.6-2.5-21.2-5.8zm-35.8-40.1c11.3 18.1 26.9 31 47.2 38.2 2.9.9 5.9 1.5 8.9 2 1 .2 2.1 0 3.1-.5 13.2-6.4 26.1-13.4 37-23.5 4.3-3.9 8.1-8.3 11.3-13.1-.9-.9-1.8-1.9-2.6-2.8-1.5 2.1-3.3 4.1-5.2 5.9-11.6 11.4-24.1 21.6-39.2 28.2-3.9 1.8-8.5 1.7-12.3-.3-3.4-1.6-7.1-2.9-10.5-4.5-11-5.2-19.4-13.7-27.7-22.3-2.7-2.6-5.1-5.4-7.4-8.4-.1-.2-.3-.4-.4-.6-.8.6-1.5 1.2-2.2 1.7zm154.4 23.7c-.7 2.4-3.4 5-1.5 7.2 1.7 1.9 4.9 2.4 7.5 3.2.7.2 1.2.5 1.7-.3 1.4-2.6 2.6-5.3 3.5-8.1.2-1.2-.4-1.5-1-1.8-1.5-.9-2.9-1.8-4.5-2.6-2.2-1.1-3.2-1.9-3.9-1.9-.7.1-.9 1.2-1.8 4.3zm-206.9-10.1c-2.5 1.3-5.1 2.6-7.7 3.8-1.3.6-1.4 1.3-.9 2.5 1 2.1 1.9 4.2 2.7 6.3.5 1.3 1.2 1.7 2.6 1.2 2.3-.8 4.6-1.8 6.8-2.9.8-.4 1.3-.7 1.2-1.4-.6-2.9-1.4-5.8-2.4-8.6-.3-1-.7-1.3-1.2-1.3-.3 0-.8.2-1.1.4zm202.2-6.7c-2.4 4.2-4.5 8.6-6.6 13-2 4.3-2 4.3 1.9 6.8 1.3.8 1.8.9 2.3-.7 1.1-3.4 2.4-6.8 3.6-10.2.7-1.8 1.8-3.2 3.6-3.2 1.1.1 2.2.5 3.2 1.1 2.6 1.5 5.1 3 7.7 4.3.7.4 2 2.3 2.4 0 .3-1.5 3-3.3-.1-4.7-5.1-2.2-10.1-4.5-14.9-7.1-.4-.3-.9-.5-1.5-.5-.6-.1-1.1.3-1.6 1.2zm-108.4-20c.7 13.2 4.5 26 11 37.5 2.1 3.7 2.3 3.6 4.5 0 8.8-14.4 14-30.9 14.9-47.8.3-3.7.3-7.5-.1-11.2-3.1 8.4-6.1 16.4-16.4 16-9.5-.4-11.3-8.3-13.3-15.6-1 7-1.3 14.1-.6 21.1zm4.4 37.4c-3.1-6.1-5.5-12.4-7.4-19-1.7-6.3-2.7-12.9-3.1-19.4-.5-6.7-.3-13.4.4-20-11.7 18.1-4.4 47.2 10.1 58.4zm-91.3-14.8c.9 3.1 1.7 6.2 2.6 9.3.2.8.2 2.7 1.7 1.5 1.2-.9 4.5-.3 3.2-3.4-2.1-5.1-4-10.3-5.5-15.6-.6-1.9-1.5-2-3.1-1.6-4.8 1.3-9.4 3.1-14.1 4.6-2.9.9-4.3 2.1-3.2 5.4.6 1.7.7 2.7 2.8 1.6 2.7-1.5 5.6-2.7 8.5-4.1 1-.6 2.2-.9 3.4-1h.4c1.9.2 2.8 1.6 3.3 3.3zm52-15.2c.3.3.5.6.8 1 7.7 9.5 16.5 17.9 26.4 25.1-6.3-9.8-9.7-21.1-10-32.8-.2-4.7.4-9.4 1.8-13.9-5.8 7.4-12.1 14.3-19 20.6zm137.2-2.9c-1 2.5-2.3 4.8-3.4 7.2l-7.8 16.5c-.8 1.8.3 3.7 2.9 4.8 2 .9 1.7-1.2 2.1-2 2.7-5.3 5.2-10.8 8.6-15.8 2.4-3.4 3.7-3.7 7.4-1.9 4.8 2.4 9.6 4.7 14.4 7 3 1.4 4 .7 4-3.1-.2-1.3-2-1-3-1.6-7.3-4.1-14.7-8-22-12.1-.5-.3-1.1-.5-1.6-.6-.7 0-1.1.5-1.6 1.6zm-77.5 28.5c19.3-15.6 22.6-33.5 11.7-53 .5 18.3-3.5 36.5-11.7 53zm23.6-30.3c-.2 8.7-3.3 17.2-8.8 24-.4.5-1.1.8-.9 1.9 7.6-5.3 14.5-11.5 20.5-18.5.2-.2.4-.5.6-.8-4.3-4.9-8.4-10.1-12.1-15.5.5 2.9.8 5.9.7 8.9zm-128.8 7.6c1.9 5.5 3.8 11 5.7 16.4.3.8.4 2.6 2 1.4 1-.8 3.2-.6 2.5-3-2.6-8.5-5.3-16.9-7.7-25.4-.7-2.5-1.6-2.8-3.9-2-7.9 3-15.9 5.8-23.9 8.6-1.4.5-2.2 1.1-1.7 2.5.2 4.2.2 4.2 3.9 2.9 5.7-1.9 11.3-4.1 17.3-5 .6-.1 1.1-.1 1.7-.1 2.2.1 3.2 1.1 4.1 3.7zm103.3-99.2c.1 3 .6 6 1.3 9 3.3 15.9 7.2 31.6 14.1 46.3 8.2 17.4 19.4 32.6 32.6 46.2 0 0 .1 0 .1.1.7.3 1.2.8 1.4 1.5 3.6 3.6 7.3 7.1 11.2 10.5 1.6 1.4 2.1.7 2.8-.7 3.7-7.9 7.5-15.8 11.3-23.7 2-4.1 4.8-5 8.7-2.8 7.7 4.4 15.4 8.7 23.2 13 1.3.7 2.3 1.3 2.6-.9 1.5-8.7 3.1-17.4 3.5-26.3.9-17.9-.6-35.8-4.4-53.3-1.7-8-4.2-15.9-7.3-23.5-4.3-6.5-8-13.5-10.9-20.7-2.3-3.5-4.8-6.9-7.5-10.2-.7-.9-1.3-2.1-2.7-2.3-.5 1.4-.9 2.9-2 3.8-1.6 1.3-1.1 2.3-.1 3.7 3.1 3.9 2.7 9.5-.9 13-1.6 1.6-1.5 2.4-.4 4.1 3.5 5.1 1.7 12.2-4 14.5-2.6 1.1-2.3 1.8-1.4 3.9 3.1 6.6 1.5 13-4 15.6-2 .9-2 1.9-1.7 3.7.9 5.4-2.4 10.6-7.6 12.1-5.1 1.5-10.3-.9-12.8-6-.3-.7 0-2.1-1.7-1.6-7.2 2-10.7.6-14.5-6-.6-1-1.1-1.1-2.2-1-6.3.6-11-2.7-12.4-8.9-.4-1.6-1-1.8-2.4-2-5.8-.6-9.1-3.7-10.1-9.4-.2-1-.4-1.7-1.5-1.7h-.3zm-96 84.3c2.3 8.4 4.7 16.9 7 25.3.5 2 1.1 2.7 3.1 1.2 5.7-4 11.4-8 16.7-12.5 15.8-13.4 29.4-29.2 40.1-46.9 3.7-5.9 6.9-12.2 9.7-18.6 1.6-7.9 4-15.6 7.1-23 1.1-5.2 1.8-10.5 2-15.8-1.5.4-2.8 1.1-4.1 1.1-2.4-.1-2.9 1.1-3.3 3.1-.8 4.9-5.2 8.5-10.1 8.3-1.9-.1-2.3.5-2.6 2.2-1 6.1-7.1 10-12.8 7.8-2.8-1.1-3.3-.4-4.2 2-2.2 6-8.1 10.8-14.8 7.6-1.6-.8-1.8.6-2.3 1.4-3.2 4.3-8 6-12.5 4.4-5.9-2.1-8.7-7.9-6.6-14.1.2-.7 1.2-1.5-.2-2.3-6.4-3.6-7.9-7.4-5.9-14.4.4-.8.1-1.9-.7-2.4-5.1-4.3-6.1-9.3-2.7-14.9 1-1.6.6-2.3-.5-3.6-3.4-3.7-3.6-9.4-.4-13.3.7-1 1.3-1.7-.1-2.7-.6.7-1.2 1.4-1.7 2.2-6.8 9.6-13 19.7-18.5 30.2-10.8 20.1-15.7 41.7-17.2 64.3-.2 3.1-.3 6.1-.3 9.2 0 .1.1.1.1.2.2.6.2 1.2-.1 1.8 0 4.6.2 9.3.3 13.9.1 3.8 0 3.8 3.6 2.6 8-2.8 16-5.7 23.9-8.5.9-.3 1.9-.5 2.9-.6 2.5.1 4.2 1.7 5.1 4.8zm214.5-8c1.3.3 2.6.6 4 .8 20.1 3.6 39.3 1.2 57.8-7.8 7.2-3.5 9.7-9.6 11.5-16.6 2.5-9.7 5.3-19.2 6-29.3.5-7 .1-14.1-1.2-21-1.2 0-2.5-.1-3.7-.1.1.5.1 1 .2 1.5.9 16.6-1 33.2-5.7 49.1-1.3 4.3-3 8.3-6.7 11.3-1.7 1.3-3.6 1.6-5.4 2.5-14.2 7.3-29.5 8.3-45.1 7.6-3.7-.2-7.4.1-11.1-.7-.1 0-.2-.1-.4-.1-.1 1-.2 1.9-.2 2.8zM274.2 434c-1.2 4.2-2.6 8.3-4.4 12.3-1.1 5.4-1.9 10.9-2.5 16.4-.6 6.3-.8 12.6 1 18.7 1 3.3 2.3 6.4 6.3 6.9 3.2.4 6-1.7 8.1-5.7.6-1.3 1.1-2.6 1.6-4 2.3-6.8 1.5-13.7.8-20.7-1.2-11.8-4.2-23.3-7.1-34.8-.2-.1-.5-.3-.7-.4-1.1 3.9-2.1 7.6-3.1 11.3zM71 405.9c-3.6 20.1-1.2 39.3 7.8 57.8 3.5 7.2 9.6 9.7 16.6 11.5 9.8 2.6 19.6 5.4 29.8 6.1 6.9.5 13.7 0 20.5-1.3 0-1.2.1-2.5.1-3.7-.5.1-1.1.2-1.6.2-16.6.9-33.2-1-49.1-5.7-4.3-1.3-8.4-3-11.3-6.7-1.3-1.6-1.5-3.4-2.4-5.1-7.4-14.5-8.4-30.1-7.6-45.9.2-3.5-.1-7.1.7-10.5 0-.1.1-.2.1-.3-.9-.1-1.8-.1-2.8-.2-.2 1.2-.5 2.5-.8 3.8zm331.5 72.7c.3 0 .6 0 1 .1 12.4 1.3 25 1 37.3-.8-7.9-1.8-15.4-4.9-22.2-9.3-7.1-4.5-13-10.7-17.1-18 1 9.3 1.3 18.7 1 28zm48.7-6.7c-19.4-6.2-34.7-17.8-47.9-33.6 4.1 21.1 31.7 36.7 47.9 33.6zm-311-11.8c-5.6 4.5-12.3 7.4-19.4 8.4-1 .1-2.1.4-3.1.7 8.6 1.8 17.3 2.3 26.1 1.7l2.4-.3c.4-6.2 1.1-12.5 2.1-18.7 0-.2.1-.5.1-.8-2.2 3.5-5 6.5-8.2 9zm281.3-11.7c10.1 9.1 22.2 15.7 35.3 19.3 3.3.9 3.5.7 2.8-2.6-3.2-14.3-9.5-27.6-18.6-39.2-3.7-5.1-8-9.7-12.8-13.8 3.7 8.1 7.3 16.1-.4 23-7 6.3-13.8 2-21-2.3 4.3 5.7 9.2 11 14.7 15.6zm-292.6 2.9c-7.8 4.7-16 8.6-24.5 11.6 24.3 2.1 39-6.6 46.1-29.1-6.7 6.6-13.9 12.4-21.6 17.5zm-18-30c-9.2 10.1-15.8 22.3-19.4 35.5-.9 3.3-.7 3.5 2.7 2.7 15.5-3.5 29.9-10.7 42.1-20.9 4-3.2 7.7-6.8 11.1-10.6-8.2 3.8-15.9 7.3-22.9.1-6.8-7-2.4-14 1.9-21.2-5.8 4.2-11 9-15.5 14.4zm352 33.6c2.5-23.8-6.7-39.6-28.9-45.9 13.1 12.7 23 28.5 28.9 45.9zm-375.8-4.2c6.4-19.1 18.1-34.4 33.6-47.4-18 2.9-35.9 27.5-33.6 47.4zm246.8-12.8c.3 2 1.9 3.6 4 4 1.8.4 3.7-.4 4.7-2 1.3-2.2 1.2-4.5-.6-6.9-2.1 4.4-2.1 4.4-6.8 3.5-.2 0-.5-.1-.7-.1-.9-.1-.9.5-.6 1.5zM460 418.7c4.6 5.6 7.6 12.4 8.5 19.6.1 1 .4 2.1.7 3.1 1.8-8.6 2.4-17.3 1.7-26-.1-.8-.2-1.5-.3-2.3-2.5-.2-5-.4-7.5-.7-4-.4-8-1-11.9-1.6 3.4 2.1 6.3 4.8 8.8 7.9zM80.4 403.4c-1.3 12.4-1 25 .8 37.3 1.7-7.7 4.8-15.1 9-21.7 4.5-7.3 10.8-13.3 18.3-17.5-9.3 1.1-18.7 1.4-28 1 0 .3 0 .6-.1.9zm125.4 31.7c.9 1.9 3 2.9 5 2.3 2.4-.5 4.2-2.6 4.2-5.1-4.7 1.2-4.7 1.2-8-3.7-1.9 1.9-2.4 4.1-1.2 6.5zm112-6.1c-.3.5-.5 1-.4 1.6.2 2.2 3 4.8 5.5 4.8.5 0 .9-.1 1.4-.3.8-.4 1.8-1.1 1.9-2 .1-1-1.1-1-1.8-1.4l-4.8-2.4c-.4-.2-.8-.6-1.1-.6-.3 0-.5.1-.7.3zm-94-1.7c-2.2 1.2-2.3 2.7-.2 4.1 1.5 1.2 3.6.9 4.8-.6v-.1c2-2.2 3.2-5 3.5-8-3 1.8-5.5 3.2-8.1 4.6zm155.5-44.9c0 .3 0 .6.1.8 4.5 6.6 8.2 13.7 11.1 21.1 5.1 7.9 11.2 15.2 18 21.8 2.9 2.8 6.2 5.1 10.3 5.9 3.3.8 6.6-1.3 7.3-4.6.1-.3.1-.6.1-.9.2-1.9-.1-3.8-.7-5.6-1.6-4.4-4.1-8.4-7.5-11.6-9.3-9-20-16.1-31-22.7-2.2-1.3-4.7-2.4-6.7-4.1-.4-.1-.7-.1-1-.1zm-99.2-21.8c.1 1.5.1 3 .1 4.5-.3 14.1 5.6 26.1 14.1 36.6 10.5 13 24.6 21.7 39.9 28.5 2 .9 2.2-.1 2.7-1.5 3.5-11.1 6.7-22.2 9.1-33.6 2.1-9.9 3.1-19.8.6-29.7-1.5-6.1-2.6-12.6-7.5-17.3-.4 3.8-1.2 7.5-2.6 11.1-1.1 2.6-2 5.3-2.7 8.1-.5 2.5-2.1 3.3-4.4 2.7-1.4-.3-2.7-.7-4.1-1 4.5 5 8.6 10.5 14.4 14.2 1.5.9 2.4 2.5 2.6 4.2.1 4-2.4 5.7-5.6 4.5-3.9-1.6-6-5-8.2-8.1-3.4-4.8-6.9-9.5-10.7-14.1l-.6-.6c-.7-.7-1.2-1.6-1.6-2.5-.3-.1-.6-.2-1-.3 2.7 6.9 5.4 13.9 7.9 20.9 2 5.7 5.2 10.8 9.4 15.1 1.8 1.7 3.1 3.9 3.7 6.3 1 3.8-1.3 7.7-5.1 8.7-3.6.8-7.1-1.6-8-5.5-.4-1.3-.6-2.6-.6-3.9.2-8.2-3.2-15.3-6.1-22.6l-8.7-21.6-.3-.1c.6 11 1.2 21.9 4.3 32.6.6 2 1.4 4 1.2 6.1-.2 2.9-2 5.2-4.2 5.4-2 .1-4.3-1.9-5-4.4-.9-3.1-.5-6.3-.4-9.4.4-10.4-.9-20.7-2.3-30.9-.1-1.2-.2-2.5-.2-3.7-.4-.4-.9-.7-1.3-1.1-1.7-1.7-2.8-4-3-6.4-.9.1-.8.8-.9 1.2-2.6 5.9-6.2 8.1-12.6 7.3-.3-.1-.7-.1-1-.1-.6-.1-1 .1-1.3.4zm23.8 59c-1.1 1-.9 2.8-.2 4.3.9 2.3 3.1 3.7 5.5 3.7 1.1-.2 2.7-.5 3.2-1.7.5-1.3-1.3-1.5-2-2.2-1.1-.9-2.2-1.8-3.4-2.6-.8-.5-1.7-1.7-2.5-1.7-.3 0-.5 0-.6.2zm40.7 3.9c-.7 2.3.2 3.3 2.6 3.1 2-.2 3.4-2 3.2-4v-.3c-.2-2.8-1.3-5.5-3.2-7.6-1 3.2-1.8 6-2.6 8.8zm-180.9-37c-3.1 1.6-6.2 3-9.4 4.3-7.7 5-14.8 10.9-21.2 17.6-2.9 2.8-5 6.4-5.9 10.3-.8 3.3 1.3 6.5 4.6 7.3.3.1.6.1 1 .1 1.8.2 3.6-.1 5.3-.6 4.3-1.4 8.1-3.8 11.3-7 9.3-9.4 16.5-20.3 23.3-31.6 1.3-2.2 2.4-4.8 4.2-6.7-.1-.3-.2-.7-.3-1-4.4 2.3-8.5 5-12.9 7.3zm58.7-49c-.3.3-.6.7-.9 1-2.8 2.9-6.1 5.4-8 8.9-6.3 11.3-10.9 23.2-10.3 36.4.4 13.8 3.2 27.3 8.2 40.1.9 2.2 1.6 2.5 3.6 1.4 10.7-5.6 21.2-11.5 31.4-18.2 11.2-7.3 19.8-16.9 25.1-29.3 1.1-2.4 1.7-5.1 1.7-7.8-2.7 2.2-5.6 4-8.6 5.5-2.9 1.5-5.9 2.6-8.7 4.3-2.1 1.3-3.8.9-5.1-1.3-.7-1.2-1.4-2.4-2.1-3.5-.5 6.6-1.5 13.3.1 19.9 0 .3.1.6 0 .9 0 3.2-1.9 6-4.3 6.3s-4.2-2-4.6-5.5c-.5-4.6.7-9.1 1.4-13.6s1.4-9 1.7-13.6c0-.8.1-1.5.3-2.2 0-.2.1-.3.2-.5-.2-.3-.4-.6-.5-1-3.7 8.2-7.4 16.4-10.9 24.6-1.4 3.2-2.1 6.6-2 10 0 3.3-.1 6.7-1.8 9.7-2.1 3.7-6.5 5.1-9.7 3-3.4-2.1-4.2-6.4-1.8-10 .6-1.1 1.4-2.1 2.2-3 5.3-4.8 7.8-11.4 10.5-17.7 3.4-8 7.1-15.9 10.2-24.1-.1-.2-.1-.4-.2-.5-7.6 9.2-15.9 18-21.3 28.8-.8 1.5-2 2.8-3.5 3.7-1.7 1-3.4 1.2-5.1 0s-1.8-3-1.5-4.9c.4-1.8 1.4-3.4 2.8-4.5 7.6-7.2 14.6-14.9 21-23.2 1.5-2.1 3.1-4.1 4.7-6.1.4-.5.8-1 1.3-1.4 0-.4-.1-.9-.1-1.3-.1-2.8.9-5.5 2.9-7.5-2.1.7-4.1 1.8-6.2 2-3.7.5-7.4-1.1-9.4-4.3-.5-1-1.4-1.6-2.5-1.6l-.2.1zM245 415c-1.6 1-3.2 2.1-4.8 3-1.5.8-1.8 1.6-.2 2.7s3.1 2 5 1.1c2.3-1 2.6-3.1 2.7-5.6-.1-.5 0-1.6-.5-2.1-.1-.1-.3-.2-.5-.2-.6 0-1.2.8-1.7 1.1zm-45-2.3c-1.4 1.5-1.9 3.6-1.2 5.5.6 1.9 1.7 3.1 3.9 3.1.9-.1 2 0 1.4-1.6-.8-2.1-1.5-4.3-2.2-6.5-.2-.7-.6-1.1-1-1.1-.4.2-.7.3-.9.6zm92.5 1.9c1.8 1.8 4 2.5 6.5.5-2.2-2-4.3-3.8-6.4-5.7-1.7 1.8-1.6 3.7-.1 5.2zm-33.7-9.4c-1.5 1.2-3 2.6-4.6 3.7-1.4 1-1 1.6.2 2.2 1.3.7 2.8.7 4-.2 1.8-1.2 2.1-3 2.3-5-.2-.5.2-1.2-.5-1.5-.1 0-.2-.1-.3-.1-.5.1-.8.6-1.1.9zm116.4-35.4c.7.6 1.5 1.2 2.2 1.7 8.8 6.2 17.9 11.9 27.4 17 21.1 11.8 43.8 17.2 67.7 18.7 2.8.2 5.7.2 8.5.2.1 0 .1 0 .2-.1.6-.2 1.2-.2 1.8.1 4.7 0 9.4-.2 14.1-.3 3.6-.1 3.6 0 2.5-3.4-.2-.4-.3-.9-.5-1.3-2.7-7.6-5.4-15.2-8.1-22.9-1.4-4 .1-6.6 4.1-7.7 8.4-2.3 16.9-4.7 25.3-7 2.3-.6 2.7-1.2 1.2-3.3-14.5-21.7-33.4-40.2-55.4-54.2-7.3-4.7-14.9-8.8-22.8-12.2-7.8-1.6-15.3-3.9-22.6-7-.9-.2-1.9-.4-2.9-.5-4.3-.7-8.5-1.6-13-1.4.4 1.5 1.1 2.8 1 4-.2 2.5 1.1 2.8 3.1 3.2 4.9.8 8.5 5.2 8.3 10.1-.1 1.9.5 2.3 2.2 2.6 6.1 1 10 7.1 7.8 12.8-1.1 2.8-.3 3.3 2 4.2 6.7 2.5 9.9 8.1 7.9 13.7-.6 1.8-.3 2.6 1.2 3.6 4.2 2.8 5.9 8.2 4 12.9-1.9 4.7-6.4 7.6-11.4 6.5-3.1-.7-4.6-.6-6.4 2.5-2.2 3.9-7.4 4.8-12.3 3.4-1-.3-1.9-.8-2.9.5-4.2 5.1-9.3 6-15 2.7-1.4-.8-2.1-.8-3.3.3-4.2 3.7-9.1 3.8-13.5.6-.4-.4-.9-.6-1.4-.7-.1-.2-.5.1-1 .7zm-24.3 29.7c-.3 2.1-.9 4.1-1.4 6.1-.3 1.3 0 2.1 1.6 1.7 1.9 0 3.7-.6 4.5-2.7.9-2.4-.4-4.2-2-5.8-.6-.6-1.2-1.2-1.7-1.2-.4 0-.8.5-1 1.9zm-156.3-1c-.3.7-.4 1.4-.5 2.1.1 2.5.8 4.1 2.8 5.1.9.4 2 .9 2.7.5.9-.5.1-1.6 0-2.4-.2-1.6-.5-3.2-.7-4.8-.2-1.2 0-3.1-1-3.2h-.2c-1.5-.1-2.4 1.4-3.1 2.7zm330.7-29.8c-8.8 2.6-17.6 5.4-26.5 8-1.8.5-2 1.1-1.4 2.8 3 8.2 5.9 16.5 8.8 24.7.5 1.4 1.1 2.2 2.5 1.7 4.2-.2 4.2-.2 2.9-3.9-1.9-5.7-4.1-11.3-5-17.3-.5-3.5.3-4.7 3.5-5.8 5.6-1.9 11.2-3.8 16.7-5.8.8-.3 2.2-.5 1.1-1.9-.7-.9-.8-2.7-2.1-2.7-.1.1-.3.2-.5.2zM286 405c.7.4 1.5.7 2.1.1.8-.7-.1-1.2-.4-1.7-1.4-2.3-2.9-4.5-4.5-7-.8 3.3.6 7.5 2.8 8.6zm244.2-27.1c-5.3 2-10.7 4-16.1 5.7-1.2.4-1.8.9-1.4 2.2 1.6 5.9 3.5 11.7 5.8 17.3.3.8.7 1.4 2.2 1 .7-.2 1.5-.3 2.3-.4 2.2-.2 2.4-1 1.4-2.9-1.6-3.1-3.1-6.3-4.5-9.5-1.3-3.1-.4-4.9 2.8-5.8 3.1-.9 6.2-1.7 9.3-2.7.7-.2 2.5 0 1.5-1.5-.8-1.1-.6-3.7-2.3-3.7-.4.1-.7.1-1 .3zm-3.4 12.3c-1.2.4-.6 1.2-.3 1.8 1.3 2.7 2.7 5.5 4 8.2.4.9.9 1.1 2 .8 8.5-2.4 9.4-4.3 5.1-12-.1-.2-.3-.5-.4-.8-.3-.6-.8-.8-1.5-.9-2.9 1.1-5.9 2-8.9 2.9zm-260.6 7.2c-1.3 1.6-.5 2.3.9 2.9 1.6.7 2.7 0 3.6-1.4 1.6-2.6 1.5-5.3 1-8.7-2.1 2.8-3.7 5.1-5.5 7.2zm-127-112.6c-15.9 3.3-31.6 7.2-46.3 14.1-17.1 8.2-32.7 19.2-46.2 32.5 0 .1-.1.2-.1.2-.3.6-.8 1.1-1.5 1.3-3.6 3.6-7.1 7.3-10.5 11.2-1.4 1.6-.7 2.1.8 2.8 8 3.8 16 7.6 24 11.5 3.8 1.8 4.7 4.8 2.6 8.3l-13.2 23.4c-.8 1.4-1.2 2.2 1 2.6 8.2 1.5 16.5 3 24.9 3.4 17.5 1 35.1-.2 52.2-3.8 8.9-1.8 17.5-4.4 25.9-7.8 6.6-4.4 13.7-8.1 21-11.1l3.9-2.7c3-2.2 6.1-4.2 8.8-7.3-1.6-.6-3-.9-3.9-1.9-1.3-1.5-2.3-1.5-4-.2-4 3.2-9.8 2.7-13.2-1.1-1.4-1.5-2.2-1.3-3.7-.3-5.2 3.6-12.4 1.9-14.7-3.9-1.1-2.7-1.9-2.2-3.9-1.3-7.3 3.2-14 1.1-16.2-5-.6-1.8-1.9-.8-2.9-.6-5.6 1-11-2.4-12.5-7.9-1.4-5 1.1-10 6.1-12.5.6-.3 2.1 0 1.6-1.7-2-6.9-.3-11.1 5.8-14.4 1-.3 1.5-1.4 1.2-2.3-.7-6.1 2.7-11 8.6-12.3 1.8-.4 2.1-1.2 2.3-2.8.6-5.7 3.7-8.9 9.4-9.9 1.1-.2 1.8-.4 1.7-1.8-3 .1-6 .6-9 1.3zM26.9 353.7c-1 1.5-1 2 .8 2.8 5.9 2.5 11.5 5.5 16.8 9 3.1 2.1 3.3 3.6 1.7 7-2.4 4.9-4.8 9.7-7.1 14.6-1.5 3.1-1.3 3.3 2.3 3.7.8.4 1.2 0 1.6-.8 4.1-7.8 8.2-15.7 12.5-23.4 1.1-2.1 1.4-3-1.2-4.1-7.4-3.3-14.7-6.7-21.9-10.4-.7-.4-1.5-.7-2.4-.7-1.3 0-2.1.9-3.1 2.3zm326.8 29c-.1 1.8-.4 3.6-.5 5.4-.1.8-.7 1.9.2 2.3 1 .5 2-.1 2.9-.8.9-.8 1.3-1.9 1.3-3.1-.1-1.7-.9-3.3-2.3-4.4-.2-.3-.6-.5-.9-.6-.4.1-.7.4-.7 1.2zM195 381c-1.8 1-2.3 3.6-1.1 5.8.7 1.2 1.8 2.5 3 2.2 1.5-.3.1-1.9.4-2.9v-.8c-.1-1-.2-2.1-.1-3.1 0-1.2-.3-1.6-.8-1.6-.6 0-1.1.2-1.4.4zM19.4 364.4c-.8 1.2-.7 1.7.7 2.2 3.4 1.1 6.8 2.4 10.2 3.6 1.8.7 3.2 1.7 3.3 3.6 0 1.1-.4 2.2-1 3.1-1.5 2.6-3 5.3-4.4 8-.4.7-2 1.9 0 2.2 1.5.3 3.4 2.9 4.7 0 2.4-5.1 4.5-10.3 7.3-15.2.8-1.4.5-2.1-.8-2.9-4.2-2.4-8.6-4.6-13-6.6-1.9-.9-3-1.4-3.8-1.4-1.1.1-1.7 1.1-3.2 3.4zm-4.3 7.7c-1.1 2.6-2.1 5.3-3.2 7.9-.3.6 0 1 .6 1.4 2.7 1.6 5.7 3.4 8.7 3.3 2-.1 2.5-3.5 3.8-5.4.5-.9 1-1.8 1.5-2.8.3-.6.7-1.3-.2-1.7-3.3-1.2-6.7-2.3-9.9-3.4h-.3c-.5 0-.9.3-1 .7zm182.4 2.4c.7-3.2 1.4-6.3 2.2-9.9-4.6 3.2-5.5 7.9-2.2 9.9zm155.9-3.1c.2 1.4 0 3.1 2.2 2.6 1.4-.1 2.5-1.4 2.4-2.9 0-.2-.1-.5-.2-.7-.9-2.9-2.8-5.4-5.5-6.8.4 2.8.8 5.3 1.1 7.8zm-109.7-20.9c.8 6.8 4.4 12.5 7.9 18.2 3.1 5 3.1 5 8.4 2.6 1.3-.6 2.6-1.1 3.9-1.8 3.8-2.1 7.4-4.6 9.8-8.3.3-.8.7-1.6 1.1-2.4l.3-.6c.3-1.1 0-2.2-.6-3.1-2.6-4.2-1.3-9.7 2.8-12.3.1-.1.2-.1.3-.2 3-1.7 6.8-1 9 1.8 1 1.2.9 2.8-.1 3.9-.8 1.1-2.3 1.4-3.4.6l-.1-.1c-1.2-.9-2.1-1.6-3.2.1-1 1.6-.5 2.9.7 4 2.1 2.1 5.5 2.2 7.6.1.6-.6 1.1-1.4 1.4-2.3 1.4-3.9 1.4-8.1.1-12.1-1.3-4.4-3.1-8.6-5.4-12.5-.7.9-1.6 1.5-2.6 1.9.1.7.1 1.4 0 2.1-.7 3.8-3 7.1-6.3 9.1l-7.5 4.8c-2.2 1.4-4.4 1.4-6.1-.8-3.4-4.5-6.8-9-6.3-15.2 0-1.3.1-2.7.3-4 0-.2.1-.4.2-.5-.8-1.2-1.3-2.6-1.5-4-2.1 7.7-5.5 14.7-11.4 20.3 1.4-.4 2.7-.8 4.1-1.1 5.1-1.2 10.3 1.9 11.5 7 .2.6.2 1.3.3 1.9.3 2.7-1 5.4-3.4 6.8-1.9 1.4-4.4 1.7-6.5.7-1.4-.4-2.2-1.7-2-3.1.2-1.4 1.4-2.4 2.8-2.4h.5c1.3 0 2.6 0 2.4-2 0-1.7-1.4-3.1-3.1-3.1-.4 0-.8-.1-1.2-.1-3.5.2-5.2 2.2-4.7 6.1zm137 12.2c-.1 1 .3 1.9 1.1 2.4 2.6 2.1 6.2.4 7.4-3.5-1.3.1-2.3.2-3.4.3s-2.1.1-3.1.2h-1c-.5 0-.9.1-1 .6zm24.4-3.4c-3.2.6-6.3 1.1-9.6 1.6 1.5 3.2 3.3 4.4 6.2 4 2.3-.1 4.1-1.9 4.4-4.2.2-.8.3-1.6-.6-1.6-.1.1-.2.2-.4.2zm-30.4 2.4l-9.9-2.1c2.6 4.3 7.5 5.4 9.9 2.1zm-69.3-15.5c-3.8 1.6-4.5 5.8-1.4 8.4 4.3 3.7 9.6 5.4 15 6.7 3.1.8 7 2.9 9.2 1.8 2.5-1.2 2.8-5.7 3.8-8.8 1.5-4.2 1.9-8.7 1-13-.4-.8-.7-1.6-.9-2.4-.1-.2-.1-.4-.1-.6-.6-1-1.7-1.6-2.8-1.8-5.3-1.1-8.2-7.6-5.8-12.5 1.4-2.5 4.1-3.9 6.9-3.6 1.5.1 2.7 1.2 2.9 2.7.2 1.5-.8 2.8-2.2 3.1h-.1c-1.3.3-2.5.5-2 2.3.2 1.5 1.6 2.6 3.2 2.4h.2c4.5-.4 6.8-4.4 4.7-8.5-1.8-3.3-4.4-6-7.7-7.8-4.1-2.3-8.6-4.1-13.2-5.3v.6c0 .9-.2 1.7-.5 2.5.6.4 1.1.9 1.4 1.5 1.6 2.4 2.4 5.3 2.4 8.2-.3 3.8-1.7 8.1-2.7 12.4-.4 2-2.1 2.9-4.2 2.7-6.8-.7-13-2.6-17.4-8.4-.4-.5-.7-1-.9-1.5-1.4-.2-2.8-.8-3.9-1.7 3.9 7.3 7.1 14.8 5.7 24 .7-2.2 1.8-4.2 3.3-6 3.1-3.7 7.7-4.9 11.8-2.8 3 1.5 4.9 4 4.9 7.4 0 2.7-1.5 5.1-3.9 6.2-1.4.8-2.8.9-3.9-.4-1.1-1.2-.9-3 .3-4.1.8-.8 2-1.5.9-2.8-.6-.8-1.5-1.3-2.5-1.3-.6.1-1.1.2-1.5.4zm113.9 9c-1.6.7-3.2 1.1-4.8 1.7-.8.3-2.2.1-2.1 1.4 0 1.2 1.1 1.7 2.2 1.9.7.2 1.5.3 1.9.4 2.8 0 4.8-1.7 4.9-3.8.1-1.1-.1-2-.9-2-.4.1-.8.2-1.2.4zm-232.9-1.7c-1.2.1-1.3.9-1.3 1.8.1 1.5 1.4 2.7 2.9 2.6.3 0 .5-.1.8-.2 2.9-.7 4.9-2.7 6.9-5.5-3.5.5-6.4.9-9.3 1.3zm-17.7-.3c-.3.7-.2 1.5.3 2.2.6 1.3 2 2.1 3.5 2.1 2.3 0 4.4-1.4 5.3-3.6-2.6-.3-4.9-.6-7.2-.9-.4-.1-.8-.1-1.1-.2-.3 0-.6.2-.8.4zm174.8-28.5c.5 3.7-1.1 7.4-4.3 9.4-1 .5-1.6 1.5-1.6 2.6.3.3.7.6 1 .9 2.9 2.8 5.4 6.1 8.9 8.1 11.2 6.3 23.1 10.8 36.1 10.3 13.9-.4 27.5-3.1 40.4-8.2 2.2-.9 2.5-1.6 1.4-3.6-5.6-10.7-11.5-21.2-18.2-31.4-7.2-11-16.4-19.4-28.5-24.7-2.6-1.3-5.5-2-8.4-2.1 2.2 2.7 4.1 5.7 5.5 8.9 1.2 2.9 2.6 5.7 4.2 8.5 1.3 2.1.9 3.8-1.3 5.1-1.2.7-2.3 1.4-3.5 2.1 5 .4 10 1.3 15 .6 1.9-.3 3.8-.5 5.7-.6 1.7-.2 3.5.4 4.8 1.5 2.3 2.2 1.9 5.1-1 6.5-1.9 1-4 .9-6.4.9-6.1-.9-12.5-1.9-18.9-2.7-2-.3-4-.3-6-.5-.6-.1-1.1-.2-1.7-.4-.3.2-.6.3-.9.5 7.8 3.5 15.7 7 23.5 10.5 3.5 1.6 7.2 2.4 11 2.5 3.3.1 6.7.1 9.7 1.8 3.7 2.2 5.1 6.5 3 9.7-2.1 3.4-6.4 4.2-10 1.8-1.1-.6-2.1-1.4-3-2.2-4.9-5.3-11.4-7.8-17.7-10.5-7.8-3.4-15.7-6.8-23.6-10.2-.1 0-.2-.1-.3-.1-.2.1-.5.2-.7.3 9.2 7.6 17.9 15.9 28.9 21.3 1.3.6 2.4 1.6 3.2 2.8 1.3 1.9 2.1 4 .3 6-1.7 1.9-3.9 1.7-6 .8-1.4-.7-2.6-1.6-3.6-2.8-8.6-9.1-18.1-17.4-28.2-24.8-.1 0-.2-.1-.2-.2-.6-.5-1.3-1.1-1.8-1.6-.3 0-.5.1-.8.1-3 .3-5.9-.8-8.1-2.9.7 1.9 1.8 3.9 2.1 6zm-191.7 25.6c-.5 2.6 1.3 5.1 3.9 5.5.2 0 .4.1.6.1 2.1-.4 3.9-1.7 5-3.5.5-.8.2-1.1-.6-1.3-2.4-.5-4.8-1.1-7.2-1.6-.2-.1-.5-.1-.8-.1-.4 0-.8.2-.9.9zm280.4-6.1c1.6 4.7 1.6 4.7-3.5 7.8 2.1 2.1 4.4 2.6 6.6 1.3 1.9-1 2.7-3.1 2.1-5.1-.7-2.2-2.2-3.9-5-3.9l-.2-.1zm-299 .3c-.8 1-.9 2.4-.4 3.5.6 1.6 2.2 2.5 3.9 2.3 2.9-.2 5.6-1.3 7.8-3.2-3-.9-5.8-1.8-8.6-2.5-.6-.2-1.1-.4-1.7-.5-.5 0-.8.1-1 .4zm18.8-45.4c-9.8 10-17.6 21.7-22.9 34.6-.8 1.8-.5 2.4 1.3 3 10 3 20 6.1 30.3 8.4 11 2.4 22 4.1 33.1 1.3 6.2-1.5 12.6-2.7 17.3-7.5-3.8-.4-7.5-1.2-11.1-2.6-2.6-1.1-5.3-2-8.1-2.7-2.5-.5-3.3-2.1-2.7-4.5.4-1.4.7-2.7 1-4.1-5 4.4-10.4 8.5-14.1 14.3-1.1 1.7-3 2.8-5.1 2.8-3.3 0-5-2.5-3.7-5.7 1.6-3.8 5.1-5.9 8.2-8.1 4.7-3.3 9.4-6.8 13.8-10.5.3-.2.5-.6.8-.8.7-.6 1.5-1.1 2.3-1.6.1-.3.2-.6.2-.8-6.9 2.7-13.8 5.4-20.8 7.9-5.7 2-10.8 5.2-15.1 9.4-1.7 1.8-3.9 3.1-6.3 3.7-3.8 1-7.7-1.3-8.7-5.1-.8-3.6 1.6-7.1 5.5-8 1.3-.4 2.6-.6 3.9-.6 8.2.2 15.3-3.2 22.6-6.1 7.2-2.9 14.5-5.8 21.7-8.8l.1-.3c-10.9.6-21.8 1.2-32.4 4.2-2 .7-4 1.2-6.1 1.3-3.1-.1-5.5-1.9-5.7-4.2-.1-2.1 2-4.5 4.7-5 4.7-.7 9.5-.8 14.2-.4 5.3.4 10.4-.7 15.6-1.1 4.3-.3 8.5-1 12.8-1.4.4 0 .8-.1 1.2 0 .4-.4.7-.8 1.1-1.3 1.7-1.7 4-2.8 6.4-3-.1-.9-.9-.8-1.3-.9-5.9-2.6-8-6.1-7.2-12.6.1-.9.2-1.5-.4-2.1-1.3.1-2.6.1-3.8.1-17-.1-31 7.2-42.6 18.8zm-30.7 34.7c-2.1.3-3.8 2.1-4.1 4.2-.4 1.8.5 3.7 2.2 4.6 2.1 1.2 4.8.9 6.6-.8-3.7-1.8-4.9-2.3-3.4-6.7.4-1.1.1-1.4-.6-1.4-.1 0-.4 0-.7.1zm391.9-98.7c2.2 1.6 4.2 3.4 6.1 5.4 11.3 11.6 21.5 24 28 39 1.8 3.9 1.7 8.5-.3 12.3-1.6 3.4-2.9 7.1-4.5 10.5-5.2 11-13.7 19.4-22.3 27.7-2.6 2.8-5.5 5.3-8.6 7.5-.1.1-.3.2-.4.3.6.7 1.2 1.3 1.8 2 3.2-1.8 6.2-3.9 9-6.2 13.5-11 23.6-24.5 29.2-41.1.8-2.8 1.5-5.7 1.9-8.6.2-1.1.1-2.3-.5-3.3-6.4-13.2-13.4-26.1-23.5-36.9-3.9-4.3-8.3-8-13.1-11.2-.9.9-1.8 1.8-2.8 2.6zm-250 89.6c-.6.2-1.3.3-2 .4-.1 1.8-.1 3.5 0 5.3.4 2.9 1.9 5.1 3.4 7.5.2.5.8.8 1.4.6.1 0 .2-.1.3-.2 2.3-1.5 4.7-2.9 7-4.4 1.7-1.2 2.3-3.2 3-5.1.2-.5.4-1 .7-1.4-.8-.7-1.5-1.4-2.1-2.3-4.5 3.8-6.1 3.8-10.2-.1-.2-.2-.5-.4-.8-.4-.2 0-.5.1-.7.1zm-32.8 4.1c-1.5.3-2.5 1.9-2.2 3.4v.1c.6 4.6 4.6 6.5 8.6 4.3 3.2-1.8 5.8-4.4 7.5-7.6 2.3-4.1 4.1-8.6 5.3-13.2v-.1c-1.1.1-2.2 0-3.2-.4-.4.6-.9 1-1.5 1.4-2.4 1.6-5.3 2.4-8.2 2.4-3.8-.3-8.1-1.7-12.4-2.7-1.9-.4-3.1-2.3-2.7-4.2.7-6.8 2.5-13 8.4-17.4.5-.4 1-.7 1.5-1 .1-1.4.7-2.7 1.6-3.8-7.3 3.9-14.8 7.1-23.6 5.7 1.9.7 3.8 1.7 5.4 2.9 3.3 2.6 4.8 5.9 3.9 10.1-.8 3.5-3.6 6.3-7.1 6.9-2.9.3-5.8-1.1-7.2-3.7-.8-1.5-1.1-3 .5-4.1 1.2-1 3.1-.8 4.1.4.8.9 1.6 1.9 2.8.8 1.2-.9 1.5-2.6.8-3.9-1.7-3.8-5.8-4.4-8.5-1.2-.8 1-1.5 2-2.1 3-3.7 6.3-4.8 13.4-6.5 20.3-.3 1.3.4 1.5 1.2 1.8 2.9 1.1 5.9 2.3 8.9 3.2 3.7 1.2 7.7 1.5 11.6.8.9-.5 1.8-.8 2.8-1 .2 0 .4-.1.6-.1 1-.6 1.6-1.6 1.7-2.8 1.1-5.3 7.5-8.2 12.5-5.9 2.6 1.4 4 4.3 3.6 7.2-.1 1.5-1.4 2.6-2.9 2.7-1.4.1-2.7-.9-2.8-2.3-.2-1.3-.5-2.2-1.7-2.2-.2.1-.5.1-.7.2zm197 6.5c.4.8.5 2.1 1.7 1.9 1.2-.2 2.1-.9 2.7-2 .8-1.5.5-3.3-.8-4.4-2.2-2-5.1-3.3-8.1-3.6 1.6 3 3 5.6 4.5 8.1zm79.9-1.8c.3-.3.6-.5.9-.8 9.5-7.7 18-16.5 25.2-26.4-9.1 5.7-19.4 9.1-30.1 9.8-5.6.5-11.3-.1-16.6-1.8 7.3 5.9 14.2 12.3 20.6 19.2zm-207.4-10.3c-.3.5-.6 1.1-1 1.6.1.1.2.3.4.4 2.6 3.4 6.4 5.5 10.6 6 .7.1 1.6.7 1.8-.6.5-3.1 1.9-6 1.9-9.2-.1-1.7-.6-3.4-1.5-4.9-.3-.5-.4-1-.5-1.6h-.8c-1.7 0-2.4.2-2.6 2.2-.3 3.7-2.8 5.4-6.6 5h-.4c-.6.2-1 .4-1.3 1.1zM7.8 267.1c-2 5.9-2.1 11.4 1.3 17.2 6.4 10.7 12 21.9 20.7 31 4 4.3 8.4 8.2 13.3 11.4.9-.9 1.9-1.8 2.8-2.6-3.2-2.3-6.2-5.1-8.8-8.1-10-11-19.5-22.5-25.3-36.4-1.7-3.9-1.6-8.3.3-12.1 1.7-3.8 3.1-7.8 5-11.5 5.3-10.5 13.5-18.6 21.7-26.7 1.8-1.8 3.7-3.5 5.7-5.2 1.1-1 2.3-1.9 3.5-2.7l-1.8-2.1c-18.3 11.4-31.3 27.2-38.4 47.8zm120.8 50.3c-2.3.2-4.8 3-4.8 5.5-.1 1.4.8 2.7 2.2 3.2 1.3.4 1.2-1.4 1.7-2.2.8-1.5 1.6-3 2.3-4.6.2-.5.8-.9.2-1.5-.3-.3-.7-.5-1.2-.4h-.4zm151.8 4.6c1.3-4.3.6-8.2-.5-12.4-1.7 4.3-1.6 9.1.5 12.4zm8.5-13.6c-.6 0-.6.6-.7 1.1-.4 3.2 2.8 9.8 6.2 11.8-.4-4.9-2.5-8.7-4.6-12.5-.2-.3-.5-.5-.9-.4zM270 320.6c2.1-3.3 3-7.2 2.6-11.1-1.3 3.6-3.2 7.1-2.6 11.1zM34.2 303.9c4.7 6 9.7 11.7 15.9 16.4 4.9-4.3 10.1-8.3 15.4-12.1-11.5 2.2-23.4-.6-32.6-7.8-.6-.5-1.2-.9-2.3-1.7 1 1.9 2.2 3.7 3.6 5.2zm379.9 8.2c-.5.8.5 1.5 1 2.2 1 1.6 2.1 3.2 3 4.8s1.7 1.4 2.7 0c1.1-1.5 2-3.1 1-5-1-2.1-3-2.5-5.1-2.6-.3 0-.6.1-.9 0h-.4c-.5 0-1 .2-1.3.6zM264.4 307c-2.3 2.8-3.8 6.2-4.3 9.8.1.7-.3 1.7.5 2 .9.4 1.2-.7 1.6-1.2 1.8-3 3.1-6.3 4-9.7.2-.6.3-1.1-.4-1.5-.1-.1-.3-.1-.5-.1-.4 0-.7.3-.9.7zm55-2.2c7.8 2.1 14.8 5.5 20.5 11.4-.4-1.6-.9-3.1-1.2-4.7-.8-4.5 1.7-8.9 6-10.5 3.3-1.2 6.4-1 9 1.6 2 1.9 2.7 4.8 1.7 7.4-.5 1.5-1.5 2.5-3.2 2.2-1.5-.2-2.6-1.6-2.4-3.1.1-1.3.1-2.6-1.7-2.6-1.5-.1-2.9.9-3.2 2.3-1.2 4.2 1.1 7.1 5.4 6.7.5 0 .9-.1 1.4-.2 8-1.5 14.4-6.3 21.2-10.3 1-.6.6-1.2.3-1.9-1.3-2.8-2.5-5.8-4-8.5-2-3.5-4.4-6.8-7.9-9-.8-.3-1.6-.7-2.4-1.1l-.4-.2c-1.2-.3-2.5-.1-3.6.7-4.3 2.7-10.2.7-12.4-3.8-1.3-2.9-.5-6.3 1.9-8.3 1.2-1.1 3-1.1 4.2 0 1.1.9 1.3 2.4.4 3.5l-.1.1c-.8 1.1-1.5 2 0 3.1 1.1 1 2.8.8 3.8-.3 2.3-1.9 2.6-5.3.7-7.6-.6-.7-1.4-1.3-2.3-1.6-3.8-1.4-7.9-1.5-11.8-.3-4.5 1.2-8.9 3.1-13 5.5.9.7 1.5 1.5 1.9 2.6 1-.1 1.9 0 2.9.3 3.5.9 6.4 3.1 8.3 6.1l4.8 7.5c1.4 2.2 1.4 4.4-.8 6.1-4.6 3.5-9.2 6.9-15.5 6.3-1-.1-1.9-.1-2.9-.2-.5 0-.9-.1-1.4-.3-1.2.5-2.7 1-4.2 1.1zM302 315.7c-.9-4.2-3.9-8.7-6.8-10.3 2.3 3.6 3.2 7.5 6.8 10.3zm-68-16.5c-3.4 2.7-5.6 6.6-6.1 10.9-.1.9-.1 1.4.9 1.6 2.4.5 4.8 1.1 7.2 1.7 2.3.4 4.6-.1 6.6-1.3.5-.3 1-.5 1.6-.6-.1-.4-.1-.8-.1-1.1 0-1.3 0-2-1.7-2.1-4.1-.4-5.8-2.6-5.5-6.7.1-.8 0-1.1-.7-1.6-.6-.4-1.1-.8-1.7-1.2-.2.1-.3.2-.5.4zm-98.7 4.4c-2.2.8-3.7 3-3.7 5.4.2 1.2.5 2.8 1.7 3.3 1.4.6 1.5-1.3 2.2-2 .9-1.1 1.8-2.2 2.6-3.4.7-1 2.2-2.2 1.5-3-.5-.5-1.2-.8-1.9-.8-.8 0-1.6.2-2.4.5zm401.3-8.9c-18.1 9.1-37.3 11.5-57.8 9.6 18.2 11.7 47.4 4.3 57.8-9.6zm-286.3 15.1c3.6-2 6.4-5.1 7.9-8.9-3.2 2.4-6.8 4.5-7.9 8.9zm60.2-.6c-2.9-3.8-5.6-6.7-9.5-8.3 4.1 5.9 5.6 7.2 9.5 8.3zm94.7-10.6c-1.1.3-.8.9-.3 1.4 1.1 1.4 2.2 2.8 3.5 4.1.6.6.8 2.1 1.9 1.7 1.1-.4 1.3-1.7 1.5-2.7 0-2.4-2.9-4.7-5.4-4.7-.5 0-.9.1-1.2.2zM79 297.3c-18.3.2-36.3-3.8-52.7-11.9 14.9 18.1 31.4 23.1 52.7 11.9zm191 4.2c1.8 1.6 3.6 1.4 5.4 1.2.7-.1 1.4-.1 2.1-.1 3.5.2 5-1.7 6.2-4.3 1.9-4.1.5-7.7-2.4-11.5-1.3 7-4.4 12.4-11.3 14.7zm-26.8.8c4-1.1 7.6-3.4 10.4-6.5-3.5 1.6-7.4 2.6-10.4 6.5zm45.2-.4c4.4-1 8.5-5.6 8.2-9.1-.5-5.1-4.6-8.8-10.3-9 3.6 5.7 5.3 11.5 2.1 18.1zm190.7-33.4c7.7 2.9 15.5 5.8 15.3 15.7-.2 9.8-8.2 11.7-16.1 13.7 19.9 3.7 49-2.1 62-12.3-7-8.4-37.5-17.7-54.6-17.7-2.2-.1-4.5.1-6.6.6zm-332.4 22.9c-3.2.5-4.5 3.9-2.7 7.7.8-1 1.5-1.8 2.2-2.6.7-.7 1.4-1.5 2.1-2.3.4-.6 1.8-.9 1-1.9-.5-.6-1.2-.9-2-.9-.2-.1-.4 0-.6 0zm159.9 3c1.7 2.5 9 5.1 12.8 4.1-3.6-3.2-7.9-4.4-12.1-5.6h-.3c-.6 0-.9.7-.4 1.5zm19.8-11.3c-1.3 1.2-1.1 1.6-.1 2.8 2.4 2.7 2 5.9-.7 8.3-.7.6-1.2.8-.8 2 .2.6.3 1.2.4 1.8 4.2.6 8.5-.4 11.9-2.9 1.3-.9 1.7-1.5.7-2.9-1-1.5-1.9-3-2.8-4.6-1.2-2.2-3.3-3.8-5.7-4.4-.7-.2-1.4-.5-2.1-.9l-.8.8zm-60 13.4c5.2-.5 8.8-4.6 9-10.3-5.6 3.7-11.4 5.4-18.1 2.1 1 4.5 5.7 8.5 9.1 8.2zm-16.9-8.3c-2.3.2-4.5.8-6.6 1.8-1.9.9-4.1 1.6-4.9 4.3 4.7-.3 8.5-2.4 12.3-4.5.4-.2.6-.8.4-1.2v-.1c-.2-.3-.5-.5-.8-.4-.1.1-.3.1-.4.1zm141-.6c2.6 2 5 3.8 7.4 5.6.5.5 1.3.5 1.8 0 .1-.1.2-.3.3-.4 1.1-1.7.9-3.3-.9-4.3-1.5-.9-3.3-1.4-5.1-1.4-1.2.1-2.4.2-3.5.5zm56.4-11.7c-7.9 1.2-15.5 3.5-23.6 5.4-.2.3-.4.6-.5.9 7.4 1.5 14.6 3.7 21.6 6.4.7.3 1.4.6 2 .9 8.2 1.7 16.5 2.6 24.8 2.8 3.9.1 7.8-.5 11.5-1.8 2.9-1 5.4-2.6 5.7-6.1.3-3.4-1.8-5.5-4.4-7.1-2.9-1.7-6-2.9-9.4-3.3-2.3-.4-4.7-.5-7-.5-6.8-.1-13.7 1.3-20.7 2.4zm-428.7-2.2c19.1 12.7 39.6 17.9 61.9 17.1-7.6-3-15.5-6-15.4-16 .2-9.8 8.2-11.6 15.7-13.8-4.6-.5-9.2-.7-13.8-.7-16.8.1-33 3.7-48.4 13.4zm188.2 6.5c-2.2 2.1-2.3 5.5-.3 7.7.6.6 1.3 1.1 2.1 1.4 3.9 1.4 8.1 1.5 12.1.2 4.4-1.3 8.7-3.1 12.7-5.4-.9-.7-1.5-1.6-1.9-2.6-.7.1-1.4.1-2.1 0-3.8-.7-7.1-3-9.1-6.3l-4.8-7.5c-1.4-2.2-1.4-4.4.9-6.1 4.4-3.3 8.9-6.7 15.1-6.1 1 0 2.1-.1 3.2 0 .5 0 .9.1 1.4.3 1.1-.9 2.4-1.4 3.8-1.5-7.5-2.2-14.6-5.3-20-11.4l-1.4-1.7c-1-2.7-2.6-5.2-2.4-8.3.2-3.4 2-6.5 4.9-8.3.7-.5 1.4-.8 1.3-1.8l-1.2-1.2c-3-2.9-5.7-6.3-9.3-8.3-10.2-5.7-21-9.9-32.7-10-15.2-.1-30.3 2.8-44.4 8.6-2 .8-1 1.9-.5 2.9 5.6 11.1 11.9 21.9 18.7 32.4 6.9 10.8 17 19.3 28.8 24.4 2.4 1.1 5.1 1.7 7.8 1.7-2.2-2.7-4-5.6-5.5-8.7-1.5-2.9-2.6-5.9-4.3-8.7-1.3-2.1-.8-3.8 1.3-5.1l3.6-2.1c-6.7-.4-13.5-1.4-20.2.2-.5.1-1 .1-1.4 0-2.9-.3-5.5-2.3-5.5-4.5s2-3.9 5.2-4.4c4.5-.6 8.9.6 13.3 1.3 4.9.8 9.8 1.5 14.7 1.8.8.1 1.6.2 2.4.5.3-.2.7-.4 1-.6-8.2-3.7-16.5-7.4-24.8-11-3.2-1.4-6.6-2.1-10-2-3.3 0-6.7-.1-9.7-1.8-3.7-2.1-5.1-6.4-3-9.7s6.4-4.2 10-1.8c1.1.6 2.1 1.4 3 2.2 4.8 5.3 11.3 7.8 17.7 10.5 8 3.4 15.9 7.1 24 10.2.2-.1.4-.1.6-.2-9.2-7.6-17.9-15.9-28.8-21.2-1.6-.8-2.8-2-3.7-3.5-1-1.7-1.2-3.4 0-5.1 1.2-1.7 3-1.8 4.9-1.4 1.8.5 3.3 1.4 4.5 2.8 7.2 7.6 14.9 14.6 23.2 21 2.1 1.5 4.1 3.1 6.1 4.7.5.4 1 .8 1.4 1.3.4 0 .9-.1 1.4-.1 3-.2 5.9 1.1 7.8 3.4l1.4 1.7c.3 1.4.7 2.8 1 4.2 1.2 6.2-2.7 11.3-9 11.8-2.7.3-5.4-1-6.8-3.4-1.4-1.9-1.7-4.4-.7-6.5.4-1.4 1.7-2.2 3.1-2 1.4.2 2.4 1.4 2.4 2.8 0 1.5-.3 3 2 2.9 1.9-.1 2.9-1.3 3.1-3.1.5-4.3-1.5-6.4-5.8-5.8-6.8.8-12.5 4.5-18.2 7.9-5 3.1-5 3.1-2.6 8.4.6 1.3 1.1 2.7 1.8 3.9 2.1 3.8 4.6 7.3 8.3 9.8.8.3 1.6.7 2.3 1.1.2.1.3.2.5.3 1.2.3 2.5 0 3.5-.7 4.4-2.8 10.4-.7 12.6 4 1.2 2.9.3 6.3-2.2 8.2-1.2.9-2.8.9-4-.1-1.1-.8-1.3-2.4-.5-3.5 0 0 0-.1.1-.1.7-1.1 1.7-1.9.1-3.1-.5-.4-1.2-.7-1.9-.7-1.1-.2-1.9.2-2.4.9zm80.8-2.2c6.9 1.1 11.9 4.4 14.4 11.3.4-.6.6-1 .8-1.3 1.6-2.2 0-4.4.2-6.6.2-1.8-.5-3.6-2.1-4.7-1.7-1.4-3.7-2.1-5.9-2.1-2.7.1-5.4 1.3-7.4 3.4zm22.4 8.6c3.6 1.4 7.1 3.2 11.1 2.6-2.8-1.7-6.1-2.6-9.4-2.7-.6 0-1.2 0-1.7.1zm-155.2-.9c-.5.7-.9 1.6-.3 2.4.7 1 1.3-.1 1.9-.4 2.3-1.4 4.5-2.8 7-4.5-.7-.2-1.3-.2-2-.2-2.9 0-5.7 1.1-6.6 2.7zM75 269.3c-3.3 1.5-4.8 3.9-4.3 7 .5 2.9 2.5 4.7 4.9 6 3.4 1.8 7.1 3 10.9 3.3 7.7.8 15.2-.7 22.7-1.7 9-1.2 17.8-3.9 26.6-5.9.1-.2.3-.4.4-.6-1.4-1-3.1-1-4.7-1.3-6.3-1.5-12.4-3.5-18.3-6.1-8.2-1.7-16.5-2.7-24.8-2.9h-1.2c-4.2-.3-8.3.5-12.2 2.2zm183.5 13c3.8 3.3 9.4 2.9 13.5-1.1-6.7-1.3-12-4.4-14.3-11.2-2.5 3.6-2 9.9.8 12.3zm-21.6-2.2c4.5 1.7 8.4.8 12.3-.4-2.1-.5-4.2-.8-6.3-.9-2.1 0-4.1.4-6 1.3zm73.1-.6c3.9.9 7.9 1.6 12.5-.5-1.7-.5-3.5-.8-5.2-.8-2.5 0-5 .5-7.3 1.3zm55.2-.4c6.2.2 12.4-1 18-3.6 9-3.8 17.7-8.2 24.3-15.7 9.1-10.1 16.8-21.2 22.3-33.7 1-2.3.9-3.2-1.6-3.9-9.1-2.7-18.2-5.6-27.5-7.7-11.7-2.7-23.4-4.8-35.3-1.8-6.1 1.6-12.6 2.6-17.2 7.5 3.6.3 7.1 1.1 10.5 2.3 3 1 5.8 2.3 8.9 3 2.4.6 3 2.2 2.5 4.3-.3 1.4-.7 2.7-1 4.1 5-4.5 10.5-8.6 14.2-14.4.9-1.5 2.5-2.4 4.2-2.6 4-.1 5.7 2.5 4.4 5.6-1.6 3.9-5 5.9-8.2 8.2-4.8 3.4-9.5 6.9-14.1 10.7l-.6.6c-.7.7-1.6 1.2-2.4 1.6-.1.3-.2.6-.3 1 6.9-2.7 13.9-5.4 20.9-7.9 5.7-2 10.8-5.2 15.1-9.4 1.7-1.8 3.9-3.1 6.3-3.7 3.8-1 7.7 1.3 8.7 5.1.8 3.6-1.6 7.1-5.5 8-1.3.4-2.6.6-3.9.6-8.2-.2-15.3 3.2-22.6 6.1l-21.6 8.7c0 .1-.1.2-.1.3 11-.6 21.9-1.2 32.6-4.3 1.9-.7 3.8-1.1 5.8-1.2 3.1.1 5.5 1.9 5.7 4.2.1 2.1-1.9 4.5-4.7 5-4.7.7-9.5.8-14.2.4-5.3-.4-10.4.7-15.6 1.1-4.3.3-8.5 1-12.8 1.4-.4 0-.8.1-1.2 0-.4.4-.7.8-1.1 1.2-1.7 1.9-4.1 2.7-7.2 3.2 4.6 1.6 8 3.6 9.1 8 .1.5.4 1 .3 1.4-.8 2.8-.2 4.6 1.2 6.1h.1c1.3.2 2.4.2 3.6.2zm-135.9-17.9c-3 .2-5.4 1.7-7.8 3.3-.7.5-1.2.9-.6 1.8 1.6 2.4 3 4.9 4.6 7.2 1.2 1.6 3.1 2.1 4.9 2.8.5.2 1 .4 1.5.7.3-.3.5-.7.9-1 1-.9 1.5-1.3.3-2.5-2.7-3-2.3-5.9.7-8.6.5-.4.9-.6.7-1.6-.2-.7-.3-1.4-.4-2h-.3c-1.1 0-2.2-.1-3.3-.1-.4-.1-.8 0-1.2 0zm173.9 10.3c-2.2 1.3-4.3 2.8-6.8 4.4 3.1.8 7.2-.5 8.4-2.5.4-.7.9-1.6.2-2.4-.1-.2-.4-.3-.6-.3-.4 0-.8.6-1.2.8zm43.5-55.9c2.8 5.6.6 11.9-5.1 14.7-.7.4-2.3 0-1.6 1.9 2.2 6.2.2 11-5.8 14.2-1 .5-1.5.9-1.4 2.3.7 6.5-2.6 10.9-9 12.5-1 .1-1.8 1-1.8 2-.7 6.4-3.3 9.2-9.6 10.5-1 .2-1.5.6-1.5 1.9 1.3-.2 2.6-.3 3.9-.5 7.5-1.2 14.9-2.8 22.3-4.9 12.3-3.4 24.5-7.1 35.7-13.3 14.5-8 27.8-17.9 39.7-29.4 0-.1 0-.1.1-.2.3-.6.8-1.1 1.4-1.3 3.1-3.1 6.2-6.3 9.1-9.6 2.9-3.3 3-3.2-1.1-5.2-7.2-3.4-14.5-6.9-21.7-10.2-4.4-2.1-5.3-4.9-2.9-9.1 4.4-7.7 8.7-15.5 13-23.2.8-1.4.8-2.1-1-2.4-8.2-1.5-16.5-3-24.9-3.4-17.5-.8-34.9 0-52.2 3.8-8.9 1.9-17.5 4.4-26 7.7-6.6 4.4-13.7 8.1-21 11.1-.2.1-.4.3-.6.4-4.3 2.8-8.4 6-12.2 9.6 1.9.7 3.4 1.1 4.4 2.3 1.1 1.4 2 1.1 3.3.1 4.5-3.4 10-3.1 13.7 1 1.4 1.5 2.1 1.1 3.4.2 4.4-2.9 9.1-2.6 12.6.7 1.6 1.6 2.7 3.5 3.3 5.7 1.1-.5 2-1 3-1.4 6.8-2.9 12.9-1.3 15.6 4.3.8 1.6 1.5 1.9 3.2 1.6.7-.1 1.5-.2 2.2-.2 4 0 7.7 2.2 9.5 5.8zM263 264c-.3.6-.5 1.3-.4 1.9.3 5.4 4.9 9.6 10.3 9.3-3.7-5.6-5.3-11.4-2.1-18.1-4.5.6-5.6 4.4-7.8 6.9zm244.3.7c8.9 2 17.3 5.3 26.2 9.5-15.5-19-33.3-23.4-53.7-12.2h1.6c8.7-.1 17.4.9 25.9 2.7zM63.5 152c-5.2.3-5.2.1-3.4 5 2.7 7.4 5.3 14.9 7.9 22.3 1.5 4.3.1 6.9-4.2 8.1-8.4 2.3-16.7 4.7-25 6.9-2.5.7-2.6 1.5-1.2 3.5 14.3 20.8 31.4 38.7 52.8 52.4 7.9 5.2 16.1 9.8 24.7 13.8 7.9 1.6 15.7 4 23.1 7.1 5.3 1.1 10.6 1.8 16 2.1-.5-1.7-1.2-3-1.1-4.2.1-2.3-1-2.8-2.9-3.1-5-.8-8.7-5.2-8.5-10.3 0-1.7-.3-2.2-2-2.5-6.2-1-10.2-6.9-8-12.7 1.2-3.3 0-3.5-2.4-4.5-6.5-2.6-9.5-8-7.6-13.4.6-1.9.4-2.7-1.2-3.8-4.1-2.8-5.8-8-4-12.6 1.8-4.6 6.1-7.7 11-6.8 3.2.6 5 .7 7.1-2.7 2.6-4.1 7.4-4.6 12.1-3.2 1 .3 1.9.8 2.9-.5 4.2-5.1 9.3-6 15-2.7 1.4.8 2.1.8 3.3-.3 4.2-3.7 9.1-3.8 13.5-.5 1 .7 1.7 1.2 2.7-.1-.6-.5-1.1-1-1.7-1.4-9.7-7.1-20.1-13-30.6-18.8-15.8-8.7-32.8-13.3-50.4-15.9-7.6-1.1-15.2-1.6-22.8-1.7-.1 0-.2.1-.3.1-.7.3-1.5.2-2.1-.1-4.4.2-8.5.3-12.7.5zM284 272.8c8.6-4.4 9.7-4.5 17.8-2.2-.6-3.3-5.1-7.7-8-7.9h-.6c-5-.1-9.7 5-9.2 10.1zm-46.3-2.9c3.6 2.1 7.8 3 11.9 2.7-3.2-1.1-6.2-2.8-10.1-2.8-.6-.1-1.2 0-1.8.1zm-78.4-3.7c-1.2 1.7-1 3.2.8 4.4 2.6 1.7 5.4 1.6 8.8 1-2.8-2.1-5.2-3.9-7.7-5.8-.2-.2-.5-.3-.8-.3-.5 0-.9.3-1.1.7zm117.8-8c-3.5 3.8-3.2 9.7.8 13.7 1.3-6.7 4.4-11.9 11.2-14.2-1.8-2-3.8-1.6-5.7-1.3-.8.2-1.7.2-2.5.2h-.3c-1.4-.1-2.6.5-3.5 1.6zM310 271c3.7-.5 7.2-1.9 10.2-4.3.4-.4 1-.8.7-1.4-.4-.8-1.1-.5-1.7-.3-3.5.9-6.8 2.3-9.9 4.1-.5.3-1 .6-.8 1.3.2.6.6.6 1.1.6h.4zm12.5-30.9c3.6.3 7.8 1.7 12.1 2.6 2.1.4 3.1 2.2 2.9 4.4-.7 6.8-2.6 13-8.5 17.4-.4.3-.9.6-1.4.8-.2 1.4-.8 2.8-1.7 3.9 7.3-4 14.8-7.1 23.8-5.7-2.1-.7-4.1-1.7-5.8-3.1-3.8-3.1-5-7.9-2.9-12 1.5-2.9 3.9-4.8 7.2-4.8 2.8-.1 5.3 1.5 6.5 4 .7 1.4.8 2.8-.6 3.8-1.2.9-2.9.8-3.9-.3-.9-.8-1.6-2.2-3-.9-1.3 1.1-1.6 3-.5 4.4 2.2 3.5 5.6 3.7 8.2.6.4-.5.8-1 1.2-1.6 4.5-6.6 5.5-14.5 7.5-22 .3-1.2-.7-1.2-1.3-1.4-2.8-1.1-5.7-2.3-8.6-3.1-4-1.1-8.2-1.8-12.3-.8-.8.4-1.6.7-2.4.9-.1 0-.3.1-.4.1-1.1.7-1.8 1.8-2 3-1.2 5.3-7.7 8-12.6 5.5-2.4-1.4-3.7-4.2-3.3-7 .1-1.5 1.4-2.7 2.9-2.7 1.4-.1 2.7.9 2.8 2.3.3 1.5.7 2.6 2.5 2 1.5-.3 2.5-1.8 2.2-3.4v-.1c-.6-4.6-4.6-6.5-8.7-4.3-3.2 1.8-5.8 4.4-7.6 7.6-2.3 4.1-4.1 8.6-5.3 13.2h.5c.9 0 1.8.2 2.6.5.4-.6 1-1.1 1.6-1.5 2.4-1.6 5.3-2.4 8.3-2.3zm88.3 24.9c-.4.5-1.6 1-1.1 1.7.6.9 1.7 1.3 2.8 1 3.2-.6 4.5-3.9 2.6-7.6-1.5 1.8-2.9 3.3-4.3 4.9zm-170.4-4.5c-.4.9.7 1.2 1.2 1.6 3 1.8 6.3 3.1 9.7 4 .6.2 1.1.3 1.5-.4.4-.7-.1-1-.5-1.4-2.8-2.3-6.2-3.8-9.8-4.3h-1.1c-.4 0-.8.2-1 .5zm-218.2 4.3c18.4-9.4 37.5-11.9 58-10-6.2-4.1-13.8-5.8-21.4-5.8-14.9 0-30.2 6.8-36.6 15.8zm283.4-1.4c3.8-1.1 7.2-3.2 9.9-6.1-3.7.7-8.3 3.6-9.9 6.1zm-157.6-9c-1.5 3 1.1 6.1 5.1 6.2h.5c.4 0 .8 0 1.1-.4.4-.6-.2-1-.6-1.4-1.2-1.5-2.6-3-3.7-4.6-.5-.7-.8-.9-1.2-.9-.5-.1-.9.4-1.2 1.1zm168.8-7.3c-.5.3-1.1.5-1.7.6v.7c-.1 1.9.4 2.5 2.4 2.7 3.5.3 5.2 2.8 4.9 6.4-.1.8-.2 1.3.7 1.8.6.3 1.1.7 1.6 1.1.1-.1.2-.2.4-.3 3.3-2.6 5.6-6.4 6.2-10.6.2-1.3.2-1.8-1.3-2.1-2.3-.4-4.6-1.1-6.9-1.6-.5-.1-1-.2-1.5-.2-1.7.1-3.3.6-4.8 1.5zm192 3.7c6.8 1.2 13.1 4.2 18.4 8.7.3.2.6.4 1 .4-4.1-6.3-8.9-12-14.4-17.1-1.4-1.4-3-2.7-4.6-3.9-.1 0-.1-.1-.2-.1-3.8 3.3-7.7 6.5-11.7 9.5l-3.6 2.7c2.6-.5 5.3-.8 8-.8 2.4 0 4.8.2 7.1.6zm-250.5 7.4c-2.3-3.3-4.5-6.7-8.8-7.9 2.1 3.4 4.8 6.4 8.8 7.9zm42.7 0c3.3-2.3 6.8-4.6 8-8.8-3.6 2-6.4 5.1-8 8.8zm123.8-10.9c-1.7 2.8-4.1 5-5.5 7.9 3.1 1.2 5.4.7 7.1-1.6 1.5-1.7 1.6-4.2.2-6.1-.3-.5-.6-1-1-1-.3.1-.5.3-.8.8zm-161.4 6.3c-1.6-3.4-2.6-7.3-6-9.6 1 3.7 3.1 7.1 6 9.6zM51.5 226.1c-9.1 7-16.9 15.4-24.2 24.2-.8.7-1.4 1.7-1.6 2.9 6.5-4.2 13.7-7.3 21.3-8.9 8.4-2 17.2-1.8 25.6.6-7.4-5.8-14.3-12.2-20.6-19.1-.2 0-.3.2-.5.3zm245.6 15.4c-1.8 3-3.1 6.3-4 9.7-.2.6-.3 1.1.3 1.5.7.4 1 0 1.4-.5 2.4-2.9 3.9-6.5 4.4-10.2-.2-.5.3-1.4-.4-1.7-.1-.1-.3-.1-.4-.1-.7.1-1 .9-1.3 1.3zm-31.9-3.1c-.7.4-.3 1.2-.2 1.8.9 3.4 2.2 6.6 4 9.7.3.6.7 1.2 1.5.9.7-.3.4-1 .5-1.5 0-2.5-2.4-8.4-4.1-10.1-.4-.3-.7-.9-1.2-.9-.2 0-.4 0-.5.1zm-38.3-10.2c-4.5.6-6.6 4.4-4.5 8.3 1.2 2.4 2.9 4.5 5.1 6.1 4.6 3.2 9.8 5.5 15.2 7 .2.1.4.1.6.2v-.6c0-.9.2-1.7.5-2.6-.6-.4-1.1-.9-1.4-1.5-1.6-2.4-2.4-5.3-2.4-8.2.3-3.8 1.7-8.1 2.7-12.4.4-1.9 2.3-3.1 4.2-2.7 6.8.7 13 2.6 17.4 8.4.4.5.7.9.9 1.5 1.4.2 2.8.9 3.9 1.8-4-7.3-7.2-14.9-5.7-24-.6 2-1.6 3.9-2.9 5.6-2.6 3.3-5.8 4.8-10 4-3.6-.7-6.3-3.5-6.9-7.1-.4-2.9 1-5.8 3.6-7.2 1.5-.8 3-1.1 4.1.4 1 1.2.9 3-.4 4.1h-.1c-.8.8-1.9 1.5-.8 2.8.9 1.2 2.5 1.6 3.9.9 3.8-1.7 4.5-5.8 1.3-8.5-.6-.5-1.2-1-1.8-1.4-6.6-4.4-14.3-5.4-21.8-7.3-1.2-.3-1.3.6-1.5 1.2-1.1 2.9-2.4 5.8-3.2 8.9-1.2 3.8-1.5 7.9-.8 11.9.4.9.8 1.8 1 2.7 0 .1.1.2.1.3.7 1 1.7 1.7 3 1.9 5.3 1.1 8 7.7 5.6 12.6-1.4 2.4-4.2 3.8-7 3.4-1.5-.1-2.7-1.3-2.7-2.8-.1-1.4.9-2.7 2.3-2.9 1.5-.3 2.6-.6 2.1-2.5-.2-1.4-1.5-2.3-2.9-2.2-.3-.1-.5-.1-.7-.1zm59.7 21.4c1.4-3.6 3.2-7.1 2.6-11.1-2 3.3-2.9 7.2-2.6 11.1zm-6.7-.4c.5-4 1.3-7.9-.5-11.8-1.8 2.7-1.6 9.3.5 11.8zm-141.4-9.3c-1.2 1.6-2 3.2-1 5.3 1.1 2.1 3 2.3 5.3 2.5.6-.1 1.8 0 2.2-.5.7-.9-.5-1.7-1-2.4-1-1.6-2.1-3.2-3-4.8-.4-.7-.8-1-1.2-1-.4-.1-.8.2-1.3.9zm109-11.2c-.4 2.2-1.1 4.4-1.6 6.6-.5 2.4-.1 5 1.2 7.1.3.5.5 1 .6 1.6h.8c1.7 0 2.4-.2 2.6-2.2.3-3.7 2.8-5.4 6.5-5.1.9.1 1.3 0 1.8-.8.3-.6.7-1.1 1-1.6-.1-.1-.2-.3-.4-.4-2.6-3.4-6.4-5.5-10.6-6-.3-.1-.7-.1-1-.1-.4 0-.7.2-.9.9zm184.2 6.1l-2.4 4.8c-.3.5-1 1.1-.3 1.7.5.3 1 .5 1.6.4 2.2-.2 4.8-3 4.8-5.5 0-.5-.1-.9-.3-1.4-.4-.8-1.1-1.8-2-1.9h-.1c-.9.1-.9 1.3-1.3 1.9zm-134.2-19c3.4 4.5 6.8 9 6.4 15.2 0 1-.1 2.1-.2 3.1 0 .5-.1 1-.3 1.5.8 1.1 1.2 2.3 1.4 3.6v.5c2.1-7.7 5.5-14.8 11.4-20.4-1.4.4-2.7.8-4.1 1.1-5.1 1.2-10.2-1.9-11.5-7-.2-.6-.2-1.3-.3-1.9-.3-2.7 1.1-5.4 3.4-6.8 1.9-1.4 4.4-1.7 6.5-.7 1.4.4 2.2 1.7 2 3.1-.2 1.4-1.4 2.4-2.8 2.4h-.4c-1.4 0-2.6 0-2.5 2 .1 1.9 1.3 2.9 3.1 3.1 4.3.5 6.4-1.5 5.8-5.8-.8-6.8-4.5-12.5-7.9-18.2-3.1-5-3.1-5-8.4-2.6-1.2.6-2.5 1-3.6 1.7-3.9 2.2-7.6 4.7-10.1 8.5-.3.7-.6 1.5-1 2.1-.1.2-.2.4-.4.6-.3 1.2 0 2.5.7 3.5 2.8 4.4.7 10.4-4 12.6-2.8 1.2-6.1.4-8-2-1.1-1.2-1.1-3-.1-4.2.9-1.1 2.5-1.3 3.6-.5.1.1.2.1.2.2.9.7 1.7 1.4 2.6.2.9-1.1 1.4-2.3.3-3.6-1.3-1.7-3.4-2.6-5.5-2.3-1.9.1-3.5 1.4-4.1 3.1-.8 1.9-1.2 4-1.1 6.1.1 6.8 2.9 12.7 6 18.5.1.1.1.3.2.4.7-.9 1.6-1.5 2.6-1.9-.1-.7-.1-1.5.1-2.2.7-3.7 3-6.9 6.2-8.9 2.5-1.7 5.1-3.3 7.7-4.9.8-.5 1.8-.8 2.7-.9 1.5 0 2.7.7 3.4 1.7zm-5.5 5.6c-1.5 1-3 2-4.6 2.8-2.2 1.3-3.9 3.5-4.4 6-.1.6-.4 1.1-.7 1.6.8.7 1.5 1.4 2.1 2.3l2.1-1.8c2.1-1.3 4.6-1.8 6.4 0 1.2 1.5 3.3 2.2 5.1 1.5v-.2c.6-4.1-.4-8.3-2.8-11.6-.6-.9-1.1-1.3-1.6-1.3-.7.1-1.2.4-1.6.7zm-164 1.8c-1.3 1.3-1.4 3.4-.2 4.7.1.1.2.2.4.3 2.2 2.1 5 3.4 8 3.6-1.6-2.9-3-5.6-4.4-8.2-.6-1.1-1.2-1.7-1.9-1.7-.5.1-1.1.5-1.9 1.3zm305.1-6c3.9 2.1 4 2.1 3.3 7-.2 1.5.4 1.3 1.4 1.1 2.2-.3 3.8-2 4.1-4.2.4-1.8-.5-3.7-2.2-4.6-.9-.5-1.9-.8-3-.8-1.2.1-2.5.6-3.6 1.5zm-102.3-.2l1.5.9c2.6 2.1 3.6 2.9 5.3 3l.3-.3c2.8-3 6.2-5.5 8.2-9.1 5.6-10 9.8-20.6 10-32.1.2-15-2.5-29.9-8.1-43.9-.9-2.3-1.6-2.7-3.8-1.5-10.6 5.6-21.1 11.5-31.1 18-11 7.2-19.5 16.4-24.8 28.4-1.3 2.7-2.1 5.6-2.2 8.6 2.7-2.2 5.6-4 8.7-5.4 3-1.3 5.9-2.7 8.7-4.3 2.1-1.3 3.8-.7 5.1 1.4.7 1.2 1.4 2.3 2.1 3.5 0-1.1.1-2.1.3-3.2.8-5.3.7-10.6-.3-15.9-.3-1.7-.2-3.5.5-5 .6-1.7 2.1-2.8 3.9-2.9 1.7 0 3.2 1.1 3.7 2.7.7 2 1 4.1.8 6.2-.9 6.2-1.9 12.7-2.8 19.1-.3 2.1-.3 4.2-.6 6.2-.1.4-.2.9-.3 1.3.2.3.3.6.5.9 3.7-8.2 7.4-16.5 11-24.8 1.3-3.1 2-6.4 2-9.7 0-3.4 0-6.9 1.8-10 2.2-3.7 6.4-5.1 9.7-3s4.2 6.4 1.8 10c-.6 1.1-1.4 2.1-2.2 3-5.3 4.9-7.8 11.4-10.5 17.7-3.4 8-7.1 15.8-10.2 24 .1.2.1.4.2.6 7.6-9.2 15.9-17.9 21.3-28.8.6-1.3 1.6-2.4 2.8-3.2 1.9-1.4 4-2 6-.3 1.9 1.7 1.7 3.9.8 6-.7 1.4-1.6 2.6-2.8 3.6-9.1 8.7-17.4 18.1-24.8 28.2-.5.8-1.1 1.5-1.8 2.1 0 .3 0 .5.1.8.3 3.2-1 6.3-3.4 8.4 2.6-1.3 5.3-2.5 8-2.5 1.5 0 3.2.4 4.6 1.3zm-206.6-11.3c-1.9.8-2.9 3-2.4 5 .5 2.5 2.2 4.1 5.3 4.4-1.6-4.9-1.6-4.9 3.6-8-1-1.2-2.5-1.9-4-1.9-1 0-1.8.2-2.5.5zm298.6 3.1c-3 .1-5.8 1.2-8 3.2 3.1.9 5.8 1.8 8.7 2.5.8.2 1.9 1 2.6 0 1.2-1.7.8-4-.9-5.1-.6-.4-1.3-.6-2-.7-.2.1-.3.1-.4.1zm-200.5-78.1c-3.4 11.1-6.7 22.2-9.1 33.6-2.1 9.9-3 19.8-.5 29.7 1.5 6.1 2.6 12.5 7.4 17.1.4-3.8 1.3-7.5 2.6-11.1 1.1-2.6 2-5.4 2.7-8.1.5-2.5 2.1-3.3 4.4-2.7 1.3.3 2.6.6 4 1-1-1.1-1.9-2.3-2.9-3.5-3-3.7-6.4-7-10.3-9.8-2.2-1.6-4-3.6-3.6-6.6.2-2.2 1.7-3 3.6-3.4 2.8.5 5.2 2.1 6.8 4.4 2.6 3.4 5.1 6.8 7.6 10.3 2.1 3 4.5 5.9 6.9 8.7.3.3.6.8.9 1.1.3.4.6.8.8 1.3.3.1.6.2.9.2-2.7-7-5.4-13.9-7.9-20.9-2-5.7-5.2-10.8-9.4-15.1-1.7-1.7-3-3.8-3.6-6.1-1.1-3.7 1-7.7 4.7-8.8 3.7-1 7.3 1.4 8.3 5.4.4 1.3.6 2.6.6 3.9-.2 8.2 3.2 15.3 6.1 22.6l8.7 21.6c.1.1.2.1.3.1-.6-10.9-1.2-21.7-4.2-32.3-.7-2-1.2-4-1.3-6.1 0-3.1 1.9-5.5 4.2-5.7 2.1-.2 4.5 1.9 5 4.7.7 4.7.9 9.5.4 14.2-.4 5.3.7 10.4 1.1 15.6.3 4.3 1 8.5 1.4 12.8 0 .4.1.8 0 1.2.4.4.8.7 1.2 1.1 1.9 1.7 2.7 4.1 3.2 7.2 1.6-4.6 3.6-8 8-9.1.4-.2.9-.3 1.4-.3 2.1.7 4.4.2 6-1.3v-2.8c.1-17.1-7.3-31.1-18.9-42.7-10-9.8-21.7-17.6-34.6-23-.5-.2-1-.4-1.5-.4s-.9.7-1.4 2zm175.5 76.1c-.4 1 .1 1.1.9 1.2 2.3.5 4.6 1.1 6.9 1.6 1.3.3 2.1.1 1.8-1.5-.2-2.3-.8-4.3-3.5-4.8h-.5c-2 0-4.9 1.8-5.6 3.5zM516.3 169c-4.2 8.1-8.5 16.1-12.9 24.1-.9 1.6-.8 2.3 1 3.1 7.5 3.4 15 6.9 22.4 10.7 2.7 1.4 4 .7 5.5-1.5 1.2-1.7.7-2.2-.9-3-5.8-2.5-11.3-5.4-16.6-8.9-3-2.1-3.4-3.7-1.8-7 2.5-5 4.9-10.1 7.4-15.1.3-.6.5-1.2.8-1.8-.2-1.2-1.2-1.1-2-1.1-.6 0-1.2-.5-1.7-.5-.5.1-.8.3-1.2 1zm-146 32.4c-2.9.8-4.9 2.7-6.7 5.4 3.3-.4 6.3-.8 9.3-1.2 1-.1 1.1-.8 1.1-1.6.1-1.5-1.1-2.7-2.6-2.7h-.2c-.2 0-.6 0-.9.1zm11.1 3.9c2.5.3 4.7.5 6.8.7.8.1 1.8.7 2.3-.3.3-.9 0-2-.7-2.6-.7-.9-1.8-1.5-3-1.5-1.8.1-3.9 1.3-5.4 3.7zm-240.5-6.5c-1.8.6-3 1.6-3.1 3.6-.1 1.4.2 2.3 1.9 1.6 1.9-.8 3.9-1.4 5.9-2 1.2-.4 1.7-1.1.8-2-1-1-2.3-1.5-3.6-1.5-.7 0-1.3.1-1.9.3zm16.5-4.6c-2.3.2-4.1 1.9-4.4 4.2-.2.9-.3 1.8 1.1 1.5 3.2-.6 6.3-1.1 9.5-1.6-1.3-2.9-2.9-4.1-5.3-4.1-.2-.1-.6-.1-.9 0zm27.3 3.3c3.2.7 6.4 1.4 10.2 2.2-1.7-2.6-4.5-4.2-7.6-4.4h-.3c-1.2 0-2 .7-2.3 2.2zm341.7-25.7c-2.5 5.3-4.9 10.7-7.6 15.9-.8 1.5.2 1.8 1.1 2.4 3.6 2.1 7.3 4.1 11.1 5.8 1.8.8 3.6 1.6 5.6 2.5 1.9-.5 2.2-2.5 3.3-3.6 1-1.1.7-1.7-.7-2.1-3.3-1-6.5-2.2-9.7-3.4-4.1-1.5-4.8-3.5-2.7-7.2 1.5-2.6 3-5.3 4.5-8 .4-.7 1.7-1.8-.2-2-1-.1-2.2-1.3-3.3-1.3-.5-.1-1 .2-1.4 1zm-356.5 25.7c1.3-.1 2.3-.2 3.3-.3s2.1-.1 3.1-.2h.7c.6.1 1.3.1 1.4-.7 0-1-.4-1.9-1.3-2.4-.7-.5-1.5-.8-2.3-.8-1.9 0-3.8 1.6-4.9 4.4zm31.5-8.6c.8 2.9 2.7 4.9 5.4 6.7-.4-3.3-.8-6.3-1.2-9.3-.1-1-.8-1.2-1.6-1.2-1.9 0-3.1 1.7-2.6 3.8zm160.1-3.2c-.6 2.8-1.2 5.7-1.9 9.1 2.3-1.6 3.9-4.1 4.3-6.9.3-.9 0-1.9-.7-2.6-.4-.3-.7-.7-1-.7-.3.1-.6.4-.7 1.1zm-311-32.5c-4.1.2-4.1.1-2.9 3.9 1.8 5.6 4 11.1 4.9 17 .6 3.8-.1 5-3.7 6.2-5.5 1.9-11 3.8-16.4 5.7-.7.2-2.3.4-1.2 1.8.8 1 .6 3.3 2.9 2.6 8.8-2.7 17.6-5.4 26.4-8 1.6-.5 1.9-.9 1.3-2.5-3.1-8.4-6-16.8-8.9-25.3-.4-1.1-1-1.5-1.7-1.5-.3 0-.5 0-.7.1zm486.1 22.5c-1.2 2.3-2.5 4.5-3.7 6.7-.3.6-1 1.5.1 1.9 3.3 1.2 6.6 2.3 9.9 3.5.4.1.8 0 1-.4 1.4-2.8 3.3-5.7 3.2-8.7 0-2-3.3-2.2-5.2-3.2-.8-.4-1.6-.5-2.4-.9-.4-.2-.8-.3-1.2-.4-.7.1-1.2.6-1.7 1.5zM166.4 49.8c-1.4 8.2-3 16.3-3.4 24.6-.9 17.6 0 35.1 3.8 52.5 1.8 8.9 4.4 17.5 7.8 25.9 4.4 6.6 8.1 13.7 11.1 21 .9 1.4 1.9 2.7 2.9 4.1 2.1 3.1 4.5 6 7.2 8.7.5-1.9.9-3.4 2.1-4.3 1.7-1.3 1.1-2.3.1-3.7-3.1-4-2.7-9.8 1-13.3 1.4-1.3 1.4-2.1.4-3.7-3.6-5.2-2.1-12 3.5-14.6 2.6-1.2 2.6-1.9 1.5-4.3-3-6.5-1.3-12.8 4-15.4 2-.9 2-1.8 1.7-3.7-.9-5.1 2-10.1 6.8-11.9 5.3-2 11 .4 13.7 5.7.3.7 0 2.1 1.7 1.6 7.3-2 10.9-.5 14.5 6 .6 1 1.1 1.1 2.2 1 6.1-.7 11 2.7 12.3 8.6.4 1.8 1.1 2.1 2.8 2.3 5.7.6 8.9 3.7 9.9 9.4.2 1.1.4 1.8 1.8 1.7v-1.1c-.8-6.1-1.9-12.2-3.5-18.2-3.4-13.6-7.1-27.1-13.5-39.6-8.1-15.7-18.5-30-30.9-42.6 0 0-.1 0-.1-.1-.6-.3-1.1-.8-1.4-1.5-2.9-2.9-5.8-5.7-8.9-8.4-4.1-3.7-4-3.8-6.4 1.1-3.4 7.2-6.7 14.3-10.2 21.4-1.8 3.8-4.8 4.6-8.4 2.6l-23.4-13.2c-.5-.3-1-.5-1.6-.6-.6.4-.9.8-1.1 2zm186.1 66.4c6.1 2.1 8.8 8 6.7 14.3-.3.8-1.2 1.4.4 2.2 6.1 3 7.9 7.5 5.9 14.1-.3 1.1-.4 1.7.7 2.6 5.1 4.2 6 9.3 2.7 15-.8 1.4-.8 2.1.3 3.3 3.6 4.2 3.8 9.1.5 13.5-.7 1-1.1 1.7.1 2.6l.8-.8c11.3-15.5 21.2-32 27.7-50.1 6.4-17.7 9.1-36 9.4-54.6 0-.1-.1-.2-.1-.3-.3-.7-.2-1.6.1-2.3 0-5.1-.1-10.2-.5-15.3-.1-1.8-.8-2.1-2.3-1.4-1.8.7-3.6 1.3-5.4 1.9-6.5 2.3-13.1 4.7-19.6 7-4.3 1.5-6.9 0-8.1-4.3-2.3-8.3-4.7-16.7-7-25-.6-2.1-1.1-2.8-3.3-1.3-20.9 14.3-38.8 31.5-52.6 52.9-5.2 7.8-9.8 16.1-13.7 24.6-1.6 7.9-4 15.7-7.1 23.2-1.1 5.3-1.8 10.6-2.1 15.9 1.6-.4 3-1.1 4.3-1.1 2.1.1 2.7-.7 3-2.7.7-5.2 5.2-8.9 10.4-8.7 1.8.1 2.2-.4 2.5-2.1 1.1-6.3 7.2-10.2 13-7.9 2.7 1.1 3.1.3 4-1.9 2.5-6.9 8.1-10.1 13.9-8 1.7.6 2.4.3 3.4-1.1 2-3 5.3-4.9 9-4.9.9.2 2 .3 3 .7zM36.1 155.5c-1.6.3-2.4.6-1.4 2.5 1.7 3.1 3.1 6.3 4.6 9.5 1.5 3.3.6 5.3-2.9 6.3-3.1.9-6.2 1.7-9.3 2.6-.8.2-2.3.4-1.3 1.7 1 1.2.5 4.3 3.2 3.3 5.4-2.1 10.9-4 16.4-5.8.8-.3 1.5-.5 1.2-1.9 0-.2-.2-.7-.3-1.3-1.2-4.6-2.7-9.1-4.5-13.5-1-2.9-1.4-3.7-2.9-3.7-.9 0-1.9.1-2.8.3zm385.9-22c-4.9 1.4-9.3 4.1-12.7 7.9-9 9.3-16.1 20-22.7 31-1.3 2.3-2.4 4.8-4.2 6.7 0 .4.1.8.2 1.1 5.3-3.4 10.8-6.5 16.5-9.3 1.9-.9 3.8-1.7 5.7-2.5 7.7-5.1 14.9-11 21.3-17.6 2.8-2.9 5.1-6.2 5.9-10.3.8-3.3-1.3-6.5-4.6-7.3-.2-.1-.5-.1-.7-.1-.5-.1-1-.1-1.5-.1-1.1.1-2.2.2-3.2.5zm-59.8 42.9c.1.7-.5 1.9.7 2.1 1 0 1.9-.5 2.4-1.3 1.8-2.6.3-5.9-3.6-7.2.2 2.3.3 4.4.5 6.4zm-159-7c-1 .8-1.5 2-1.5 3.3.1 1.5.8 3 1.9 4 .4.4 1 .9 1.4.8.7-.1.5-.9.6-1.4.2-1.7.4-3.4.5-5.1.1-.8.7-1.8-.3-2.3-.2-.1-.5-.2-.7-.2-.7.1-1.4.4-1.9.9zm-70.1-37c-.2 1.6-.1 3.2.4 4.8 1.3 4.6 3.8 8.8 7.3 12.1 9.4 9.3 20.3 16.5 31.6 23.3 2.2 1.4 4.8 2.4 6.7 4.2.3-.1.7-.2 1-.3-1.9-3.2-3.9-6.5-5.8-9.7-2.2-4-4.2-8.1-5.8-12.4-5-7.8-11-14.9-17.7-21.3-2.8-2.9-6.4-4.9-10.3-5.9-.4-.1-.9-.1-1.3-.1-3.1-.1-5.7 2.2-6.1 5.3zM26.9 158c-8.4 2-9.4 4.1-5.5 11.7.2.3.4.7.5 1 .3.8.9.9 1.1.9 3.2-.6 6.3-1.5 9.3-2.6 1.4-.4.8-1.3.4-2-1.3-2.7-2.6-5.3-3.9-7.9-.3-.6-.6-1.1-1.3-1.1-.2-.1-.4 0-.6 0zm261.5 2.3c-1.4 2.6-1.5 5.3-.8 8.5 2-2.7 3.8-5.1 5.6-7.4.9-1.1.3-1.8-.6-2.3-.5-.3-1.1-.5-1.8-.5-1 0-1.9.7-2.4 1.7zm71.1-5.5c.5 1.8.6 3.7.9 5.6.2 1.1 0 2.8.9 3 1.3.3 2.2-1.2 3-2.3 1.6-2.6.7-6-1.9-7.6-.3-.2-.7-.4-1.1-.5-.4-.1-.8-.2-1.2-.2-.7.1-1 .5-.6 2zm-88.4-.8c-.9.7 0 1.2.3 1.7 1.5 2.3 3 4.6 4.6 7.2.8-3.5-.7-7.6-2.8-8.7-.4-.2-.9-.4-1.3-.4-.3 0-.6.1-.8.2zm-62.9-2.2c-2.3.2-4.3.8-4.8 3.5-.3 2 1.6 5.3 3.4 6 1 .4 1.1-.2 1.2-.9.5-2.3 1.1-4.6 1.6-6.9.2-1.1.1-1.8-.9-1.8-.1.1-.3.1-.5.1zm260.5-11.1c-4.5 7.1-10.7 13-18.1 17.1 7.4-.9 14.8-1.3 22.2-1.2 2 0 3.9.1 5.9.2v-.1c1.1-10.8 1.2-21.7.2-32.5-.1-2.1-.4-4.1-1-6.1-1.6 8-4.7 15.7-9.2 22.6zM467 89.5c5 1.6 9 5.5 10.8 10.4 2.5 6.5 5.4 12.8 6.5 19.7 1.3 8.4 1.7 16.9 1.3 25.3-.2 4 .1 8-.8 12v.1c.9.1 1.8.1 2.7.2v-.1c4.6-20.1 2.9-39.7-5.5-58.6-3.2-7.1-7.7-12.1-15.8-14-10.6-2.5-21.1-5.8-32-6.7-2.7-.2-5.3-.2-8 0-4.2.1-8.3.5-12.4 1.2 0 1.2-.1 2.5-.1 3.7.4-.1.8-.1 1.2-.1 2.7-.1 5.4-.2 8.1-.2 14.8.1 29.6 2.1 44 7.1zm-28.4 66.3c18.4-3.1 35.8-27.9 33.6-47.4-6.4 19.1-18.1 34.4-33.6 47.4zm-140-2.6c.1.4-.2 1.1.4 1.4.6.4 1-.3 1.4-.6 1.5-1.2 3-2.6 4.6-3.7 1.7-1.2.8-1.7-.3-2.3-.5-.3-1.1-.4-1.7-.4-2.4 0-4.4 2.3-4.4 5.6zm136.1-22.3c7 7 2.6 14.1-1.3 21 11.8-8.9 21.5-20.4 28.3-33.5 2.7-5.3 4.8-11 6.3-16.8.6-2.3-.3-2.5-2.1-2.1-4.4.9-8.7 2.2-12.9 3.8-15.5 5.8-29.4 15.2-40.4 27.5 4.3-1.9 8.6-3.8 12.8-3.8 3.6-.1 6.9 1.3 9.3 3.9zm-333.6 2.3c5.5 8.9 13.8 14 23.6 16.8-12.8-13.2-22.6-28.2-28.5-45.7-.5 10.1-.6 20 4.9 28.9zM260.2 144c1.7 1.6 3.2 3 4.8 4.3.6.5 1 1.8 1.9 1 .7-.6 1.1-1.6.9-2.6-.3-2.2-2.2-3.7-4.4-3.6-1.1.1-2.2.4-3.2.9zm-172-.2l.3 2.4c6.6.4 13.1 1.2 19.6 2.3-3.4-2.3-6.5-5.1-9-8.3-4.5-5.6-7.4-12.3-8.4-19.4-.1-1-.4-2.1-.7-3.1-1.8 8.6-2.4 17.4-1.8 26.1zm11.5-49.7c3.5 15.5 10.7 29.9 20.9 42.1 3.2 4 6.8 7.7 10.6 11.1-3.9-8.2-7.3-16-.1-22.9 7-6.8 14-2.4 21.2 1.9-4.2-5.7-9-10.8-14.4-15.4-10.1-9.2-22.3-15.8-35.5-19.4-.7-.2-1.5-.4-2.2-.4-1.1-.1-1 .7-.5 3zm255.5 45.6c.8 1.9 1.4 3.9 2 5.9.4 1.2 1.1 1.7 2 .7 1.4-1.5 1.9-3.6 1.2-5.6-.3-1.7-1.9-3-3.6-3h-.3c-1.2.1-1.9.5-1.3 2zM95.6 78.8c-7.3 3.5-9.9 9.7-11.7 16.8-2.4 9.6-5.3 19-6 29-.5 7.1-.1 14.3 1.2 21.3 1.2 0 2.5.1 3.7.1-.1-.4-.1-.9-.2-1.3-.8-17.5.9-34.8 6.5-51.5 1.9-5.6 5.2-9.5 11-11.7 6.4-2.4 12.6-5.3 19.5-6.3 8.4-1.3 16.9-1.7 25.3-1.3 4 .2 8-.1 12 .8.1-.9.1-1.8.2-2.7-1.3-.3-2.5-.6-3.8-.8-5.9-1.1-11.8-1.6-17.8-1.7-13.7 0-27.4 3.2-39.9 9.3zm218.6 58.7c-2.2 1.1-2.5 3.2-2.6 5.5.4.6-.3 1.7.6 2.2.8.4 1.4-.5 2-.8 1.7-1 3.3-2.2 5.1-3.2 1.7-.9 1.3-1.7 0-2.7-.9-.8-2.1-1.3-3.3-1.4-.7-.1-1.3.1-1.8.4zm-103.3-4.6c-1.5.7-2.4 2.3-2.1 4 .2 2.8 1.3 5.5 3.2 7.6.9-3.1 1.8-5.9 2.5-8.6.2-.9 1.2-2-.1-2.8-.6-.4-1.3-.6-2-.6-.5 0-1 .1-1.5.4zm36.6-.3c-.9.6-1.2 1.1-.1 1.9 2.6 1.8 5.1 3.6 7.9 5.7 1.2-3.2.7-5.6-1.7-7.5-.8-.7-1.9-1.1-3-1.1-1.1.1-2.2.4-3.1 1zm83.5-4.4c-2.1 2.2-3.5 5.1-3.7 8.2 3-1.7 5.6-3.1 8.2-4.5 2.2-1.2 2.4-2.4.4-3.9-.7-.6-1.5-.9-2.4-.9-1-.1-1.9.3-2.5 1.1zm-53.2-53.9c-2.1 3-3.4 6.4-3.8 10.1-1.5 9.5.5 18.8 1.9 28.1 1.2 7.9 3.6 15.5 5.3 23.4.3.2.6.3.9.4 1.3-5.6 2.8-11.2 4.6-16.7.8-2.4 1.7-4.7 2.7-7 1.7-8.2 2.6-16.5 2.8-24.8.2-4.1-.5-8.2-2-12.1-1.4-3.4-3.8-5.1-6.3-5.1-2 0-4.3 1.2-6.1 3.7zm74.3 56.4c2-2.3 2.6-4.5 1.1-6.9-1.1-1.8-3.3-2.6-5.2-1.8-2.3.6-3.8 2.7-3.8 5.1 1.2-.5 2.4-.7 3.7-.9 1.5-.1 2.2 1.1 4.2 4.5zM233.2 126c-.4 1.2 1.3 1.3 2.1 1.7 1.5.9 3.1 1.5 4.6 2.3 1.7 1 2 0 2-1.4-.1-2.3-2.9-4.8-5.6-4.8h-.3c-1.4 0-2.5.9-2.8 2.2zm-16.5-6.7c-1.3 2.2-1.2 4.5.5 7 2.2-4.4 2.2-4.5 6.8-3.5 1.5.3 1.6-.2 1.3-1.4-.3-2-1.9-3.6-4-4-.3-.1-.7-.1-1.1-.1-1.3-.1-2.7.7-3.5 2zm192.3 6c13.3-13.4 28.4-23.1 46-28.9-2.4-.3-4.9-.4-7.3-.4-19.4 0-32.9 9.1-38.7 29.3zM108 87.2c19.5 6.3 34.8 18 47.8 33.5-2.9-18.1-26.3-33.8-43.6-33.8-1.4-.1-2.8 0-4.2.3zm16.1-6.9c-2 .1-4.1.4-6.1 1 7.9 1.6 15.4 4.6 22.2 8.9 7.3 4.5 13.3 10.8 17.5 18.3-1.1-9.3-1.4-18.7-1-28h-.1c-5.3-.6-10.7-.9-16-.9-5.5 0-11 .3-16.5.7zm291.3 7.9c-.8.1-1.6.2-2.3.3l-.6 7.5c-.4 4-1 8-1.6 12 2.2-3.3 4.9-6.2 8-8.7 5.6-4.6 12.4-7.6 19.6-8.5 1-.1 2.1-.4 3.1-.7-6.4-1.3-12.9-2-19.5-2-2.3-.2-4.5-.1-6.7.1zM284 64.7c10 .4 11.9 8.1 14 15.8 2.3-21.9-.3-42.7-12.3-61.7-9.9 8.8-20.9 47.9-17.2 61.2 5.3-11.6 8.7-15.3 14.9-15.3h.6zm20.4 15.8c11.8-18.7 4-47.7-9.6-57.9 9 18.1 11.5 37.3 9.6 57.9zm-42.3-1.1c-.4-18.4 3.6-36.6 11.7-53-19 15.2-22.8 33.1-11.7 53zm52-35.7c2.8 10.1 2.9 19.7.3 28.9 5.8-7.4 12.2-14.3 19.1-20.6-.1-.1-.2-.2-.3-.4-7-9-15.3-16.7-24-24-.9-.9-1.9-1.5-3.1-1.9 3.5 5.5 6.2 11.6 8 18zm-59.9-8.6c-1.9 1.5-3.8 3-5.5 4.6-3.4 3.3-7.1 6.5-9.8 10.4 4.3 5 8.4 10.1 12.2 15.5-1-4.9-1.1-9.9-.2-14.8 1.4-7.3 4.5-14.1 9-20-2 1.5-3.9 2.8-5.7 4.3zm116.4-3.6c-1.7 1.1-2 1.8-1.3 3.9 2.7 7.9 4.9 16 7.2 24 .6 2.2 1.1 3.2 3.7 2.1 8-3.1 16.1-5.8 24.2-8.6 1.5-.5 2-1.2 1.7-2.5-.2-4.1-.2-4.1-3.9-2.8-5.6 1.8-11.1 4-17 4.9-3.8.6-4.9-.1-6.2-3.8-1.8-5.4-3.7-10.8-5.6-16.2-.3-1-.7-1.6-1.4-1.6-.5.1-1 .3-1.4.6zM168.8 39c-.1 1.3-1.9 2.8.2 3.9 8 4.3 16 8.4 23.9 12.8 1.9 1 2.6.8 3.5-1.1 3.1-6.8 6.5-13.6 9.7-20.3.7-1.5 1.3-3 2-4.6-.2-1-1.3-1.4-2-2.2-1.8-1.8-2.7-1.7-3.8.9-2.3 5.4-5.1 10.7-8.3 15.6-2.4 3.5-3.8 3.9-7.6 2.1-5.1-2.5-10.3-5-15.4-7.4-.5-.3-1-.5-1.5-.6-.3-.1-.6.1-.7.9zm122.9-26.8c3.8 1.7 7.8 3.2 11.5 5 10.7 5.2 18.8 13.5 26.9 21.9 2.7 2.6 5.3 5.5 7.5 8.6.1.1.1.2.2.3.7-.6 1.4-1.2 2-1.8-.1-.2-.3-.5-.4-.7-11.5-18-27.1-30.7-47.4-37.7-5.9-2-11.4-2.1-17.2 1.3-10.8 6.4-22.1 12.1-31.2 20.9-4.3 3.9-8 8.3-11.3 13.1.9.9 1.8 1.8 2.6 2.8 1.6-2.2 3.3-4.1 5.3-5.9 11.6-11.4 24.1-21.6 39.2-28.1 1.8-.8 3.7-1.2 5.7-1.2 2.4 0 4.6.5 6.6 1.5zm89.6 13.5c-1.2.9-4.5.4-3.4 3.3 2 5.2 4 10.5 5.6 15.8.5 1.5 1.1 2 2.6 1.6 5.7-1.5 11.3-3.4 16.7-5.7.8-.3 1.6-.7 1.2-2.2-.1-.4-.3-1.3-.4-2.1-.2-2-.7-2.9-3-1.6-3 1.7-6.1 3.1-9.3 4.5-3.2 1.4-5.1.4-6.1-2.9-.9-3.1-1.7-6.2-2.6-9.3-.2-.6-.1-1.8-.8-1.8 0 .1-.3.3-.5.4zm-209.2 2.4c-.3 1.5-2.8 3.5-.1 4.8 5.1 2.4 10.4 4.7 15.4 7.4.6.3 1.4 1.1 2 .1 3.5-5.6 6.4-11.5 8.8-17.6 0-.2.1-.3.1-.5-.7-1.5-2.5-1.9-3.8-3-1-.9-1.5-.5-1.9.7-1.2 3.5-2.4 7-3.7 10.5-1.3 3.2-3.3 4-6.3 2.3-2.8-1.5-5.6-3.2-8.5-4.7-.4-.2-1-.8-1.4-.8-.3 0-.5.2-.6.8zm217-6.4c-.2.1-.3.2-.5.2-.8.3-1 .8-1 1.6.9 3 1.9 6 2.8 9 .3 1 1 .6 1.6.3 2.8-1.4 5.6-2.8 8.5-4.1.9-.5 1.1-1 .7-2-2.4-5.7-2.8-7.9-4.6-7.9-1.4 0-3.5 1.1-7.5 2.9zm-211.4-9.1c-1.5 2.7-3.5 5.7-3.2 8.6.2 2.1 3.6 2.6 5.6 3.9.9.6 1.8.9 2.8 1.4.7.4 1.3.2 1.6-.6l3.3-9.6c.2-.8-.2-1.1-.8-1.3-2.5-1-5.1-2-7.6-3.1-.2-.1-.4-.1-.6-.1-.5.1-.8.3-1.1.8zM257.1 370c-1.2 0-2.2-1-2.2-2.2v-.3c-.1-1.3.9-2.4 2.1-2.4h.4c1.4 0 2.2 1 2.3 2.6 0 1.3-1.1 2.3-2.4 2.3h-.2zm6.1-3.9c-1.3.1-2.3-.9-2.4-2.2v-.1c-.1-1.2.7-2.3 2-2.5h.5c1.4 0 2.5 1 2.6 2.4-.3 1.4-1 2.3-2.5 2.3-.1.1-.1.1-.2.1zm2.9-7.3c-.1-1.3.8-2.4 2.1-2.5h.4c1.3-.1 2.5.9 2.6 2.2 0 1.9-1 2.7-2.5 2.8h-.2c-1.2.1-2.3-.9-2.4-2.1v-.4zm57.5-1.5c0-1.2 1-2.2 2.2-2.2h.3c1.2 0 2.3.9 2.3 2.2v.5c-.1 1.5-1.1 2.1-2.4 2.2-1.6-.2-2.5-1.1-2.4-2.7zm1.6-6.7c-.1-1.2.8-2.3 2.1-2.4h.5c1.2-.1 2.2.8 2.3 1.9v.4c0 1.6-1 2.3-2.6 2.4-1.2.1-2.2-.7-2.3-1.9v-.4zm.1-7.2c-.1-1.7 1-2.4 2.5-2.5 1.2-.1 2.3.8 2.4 2.1v.2c.2 1.3-.7 2.5-1.9 2.7H327.7c-1.3 0-2.4-1-2.4-2.3v-.2zM264.7 332c-.2-1.3.7-2.5 2-2.7h.2c1.2-.2 2.3.7 2.5 1.9v.3c.3 1.2-.5 2.3-1.6 2.6-.2 0-.4.1-.6 0h-.1c-1.1.2-2.2-.7-2.4-1.8v-.3zm-51.3-4.3c-.1-1.3.9-2.4 2.2-2.4h.4c1.7 0 2.4 1.1 2.4 2.6s-1.1 2.1-2.4 2.3c-1.6-.1-2.7-.9-2.6-2.5zm-4.8 2.3c-1.2.1-2.3-.9-2.4-2.1v-.5c-.1-1.1.8-2.2 1.9-2.3h.5c1.6 0 2.4 1 2.4 2.7 0 1.2-.9 2.1-2.1 2.2H208.6zm-7.2-1.6c-1.2 0-2.2-.9-2.2-2.1v-.4c-.1-1.2.9-2.3 2.1-2.3h.5c1.3.1 2.3 1.2 2.2 2.5-.1 1.3-1.2 2.3-2.5 2.2 0 .1 0 .1-.1.1zm103.9-3c-.2-1.2.7-2.3 1.9-2.4h.6c1.2 0 2.2.9 2.3 2.1v.2c0 1.6-1 2.3-2.5 2.4-1.2 0-2.2-1-2.2-2.2-.1 0-.1-.1-.1-.1zM233.8 310c-1.2.1-2.3-.8-2.3-2v-.6c.1-1.5 1-2.1 2.4-2.2 1.2-.1 2.2.8 2.3 2v.3c.1 1.2-.7 2.3-2 2.5h-.4zm131.3-8.2c0-1.5 1-2.2 2.5-2.3 1.3 0 2.4 1 2.4 2.3v.2c.1 1.2-.9 2.3-2.1 2.3h-.3c-1.3.1-2.4-.8-2.5-2.1v-.4zm-3.7-5.7c-.1-1.4.9-2.6 2.3-2.8 1.5.2 2.5.9 2.5 2.5.1 1.3-.8 2.4-2 2.5h-.5c-1.2.1-2.2-.9-2.3-2.1v-.1zm-32-4c-.1-1.2.8-2.2 1.9-2.3h.3c1.5 0 2.5.7 2.5 2.1.1 1.5-.6 2.6-2.2 2.6-1.2.2-2.4-.7-2.5-2v-.4zm29.4 1c-1.3.1-2.4-.8-2.5-2.1v-.4c-.1-1.2.8-2.3 2-2.6 2 0 2.9 1 3 2.5.2 1.2-.7 2.4-1.9 2.5-.2.1-.4.1-.6.1zM198 268.6c-.2-1.2.7-2.4 1.9-2.6h.4c1.3-.1 2.5.9 2.6 2.3v.3c-.2 1.3-.8 2.4-2.4 2.4h-.1c-1.3.1-2.4-.9-2.5-2.2.1 0 .1-.1.1-.2zm27.1-1.5c-.1-1.2.7-2.3 2-2.4h.3c1.3-.1 2.4.9 2.5 2.1v.3c.1 1.2-.7 2.2-1.8 2.3H227.5c-1.2.1-2.2-.7-2.3-1.9-.2-.1-.2-.3-.1-.4zm-32-3.8c-.1-1.3.9-2.5 2.3-2.5 1.2-.1 2.3.8 2.5 2 0 1.8-.8 2.9-2.3 2.9h-.2c-1.2.1-2.3-.9-2.3-2.1-.1 0-.1-.1 0-.3zm-3.9-6.1c-.1-1.2.9-2.3 2.1-2.4h.3c1.6-.1 2.4 1 2.6 2.4-.2 1.5-1 2.4-2.4 2.4h-.1c-1.3.1-2.4-.8-2.5-2v-.4zm133.8-5.4c-.2-1.2.6-2.4 1.8-2.6h.5c1.3 0 2.4 1 2.4 2.3 0 1.3-1 2.4-2.2 2.4-1.5 0-2.4-.7-2.5-2.1zm-73.8-18.2c0-1.2.9-2.2 2.1-2.2h.3c1.6 0 2.4 1 2.3 2.6 0 1.2-1 2.3-2.2 2.3h-.1c-1.6-.3-2.5-1.1-2.4-2.7zm105.9-.4c-.1-1.2.8-2.3 2-2.4h.5c1.2-.1 2.2.8 2.3 2v.4c0 1.6-.9 2.4-2.7 2.4-1.1 0-2.1-1.1-2.1-2.4 0 .1 0 0 0 0zm-6.8-1.7c-.1-1.2.7-2.2 1.9-2.3h.5c1.2-.1 2.3.8 2.5 2v.5c0 1.5-.9 2.2-2.5 2.4-1.3 0-2.3-1-2.3-2.3-.2-.2-.2-.2-.1-.3zm-7.4-.1c-.1-1.2.7-2.3 1.9-2.4h.3c1.3-.2 2.6.8 2.8 2.1.2 1.3-.8 2.6-2.1 2.8H343.2c-1.5 0-2.2-1-2.3-2.5zm-51.1-4.1c0-1.5.9-2.2 2.4-2.3 1.3.2 2.3.6 2.4 2.2.2 1.2-.7 2.4-1.9 2.6H292.1c-1.6 0-2.3-1-2.3-2.5zM229 216c-.2-1.3.6-2.4 1.9-2.7h.4c1.6-.1 2.4.9 2.6 2.5.1 1.3-.9 2.4-2.2 2.5h-.5c-1.2 0-2.2-.9-2.2-2.1v-.2zm.2-7.4c-.1-1.2.8-2.3 2-2.4h.5c1.1-.1 2.2.7 2.3 1.8v.5c0 1.6-1 2.4-2.6 2.5-1.2.1-2.2-.8-2.2-2v-.4zm4-4.6c-1.2.1-2.3-.8-2.4-2v-.5c-.1-1.2.8-2.2 2-2.3h.4c1.6 0 2.4.9 2.4 2.7 0 1.2-1.1 2.2-2.4 2.1.1 0 .1 0 0 0zm57.4-1.1c-1.3.1-2.4-.9-2.5-2.2v-.3c0-1.6 1.1-2.3 2.6-2.5 1.4.2 2.5 1 2.4 2.5.1 1.3-.9 2.4-2.1 2.5h-.4zm5.2-5.1c-1.3 0-2.3-.9-2.4-2.2v-.4c0-1.2 1.1-2.2 2.3-2.2h.2c1.6 0 2.3 1 2.6 2.4-.3 1.4-1 2.4-2.4 2.4h-.3zm3.7-5.9c-.2-1.6.8-2.4 2.2-2.8 1.3-.1 2.5.9 2.6 2.2.2 1.3-.6 2.5-1.9 2.7h-.7c-1.1.1-2.1-.8-2.2-2.1z" opacity=".1" fill="#fff"/>
</svg>
