<?xml version="1.0" encoding="utf-8"?>
<!-- Generator: Adobe Illustrator 25.2.3, SVG Export Plug-In . SVG Version: 6.00 Build 0)  -->
<svg version="1.1" id="Layer_1" xmlns="http://www.w3.org/2000/svg" xmlns:xlink="http://www.w3.org/1999/xlink" x="0px" y="0px"
	 viewBox="0 0 170 170" style="enable-background:new 0 0 170 170;" xml:space="preserve">
<style type="text/css">
	.st0{fill:#EFF1F1;}
	.st1{fill:#5C7474;}
	.st2{fill:#E2A379;}
	.st3{fill:#779393;}
	.st4{fill:#F4B382;}
	.st5{fill:#FFFFFF;}
	.st6{fill:#4C230C;}
	.st7{fill:#602F0F;}
</style>
<ellipse id="Ellipse_1057" class="st0" cx="84.4" cy="91.3" rx="43" ry="42.5"/>
<g id="Group_893-2" transform="translate(0)">
	<g id="Group_785">
		<path id="Path_6712" class="st1" d="M69.3,119.5l0.7,5.7l14.6,3.7l14.6-3.7l0.7-5.7H69.3z"/>
		<g id="Group_766" transform="translate(8.453 85.274)">
			<g id="Group_762">
				<g id="Group_760" transform="translate(23.556 8.791)">
					<path id="Path_6713" class="st2" d="M44,29.2c7.6,4.2,16.1,8.9,18.3,9.3c9.2,1.6,16,6.2,15.3,8.1c0,0-21.8-3.1-37.8-6.4
						C33.6,39,38.1,25.9,44,29.2z"/>
				</g>
				<g id="Group_761">
					<path id="Path_6714" class="st3" d="M67.5,38c-5.9-3.3-11.1-6.3-12.4-6.7c-4.6-1.8-15.5-5.8-17.9,2.2s5.8,9.6,11.7,11.9
						c4.7,1.5,9.5,2.7,14.3,3.6C64.2,45.1,65.6,41.4,67.5,38z"/>
				</g>
			</g>
			<g id="Group_765" transform="translate(14.048)">
				<g id="Group_763" transform="translate(0 8.791)">
					<path id="Path_6715" class="st4" d="M70.5,29.2c-7.6,4.2-16.1,8.9-18.3,9.3c-9.2,1.6-16,6.2-15.3,8.1c0,0,21.8-3.1,37.8-6.4
						C80.8,39,76.3,25.9,70.5,29.2z"/>
				</g>
				<g id="Group_764" transform="translate(33.627)">
					<path id="Path_6716" class="st3" d="M36.8,38c5.9-3.3,11.1-6.3,12.4-6.7c4.6-1.8,15.5-5.8,17.9,2.2s-5.8,9.6-11.7,11.9
						c-4.7,1.5-9.5,2.7-14.3,3.6C40.1,45.1,38.7,41.4,36.8,38z"/>
				</g>
			</g>
		</g>
		<path id="Path_6717" class="st5" d="M99,82.5c1-6.3-4.1-17.8-4.1-17.8c-2.3-0.3-4.7-0.4-7-0.4H81c-2.3,0-4.7,0.2-7,0.4
			c0,0-5.2,11.5-4.1,17.8c1,5.9,2.6,14.5-0.7,37h30.4C96.4,97,98.1,88.4,99,82.5z"/>
		<g id="Group_769" transform="translate(0 36.017)">
			<path id="Path_6718" class="st4" d="M49.7,78.5l-12.9-7.8l1.6-1l10.8,4l9.2-12.9c1.9-5.1,1.6-27.5,6.6-30.1
				c3.6-1.9,8.9-2.1,8.9-2.1s-2.3,12.5-3.8,12.6s-1.2,4-2.4,9.2c-0.6,4.9-1,8.8-2.1,12L49.7,78.5z"/>
			<g id="Group_767" transform="translate(9.351 38.909)">
				<path id="Path_6719" class="st4" d="M42,35.2l-4.3-0.4l1.5-3.8l-2.5-1.3l0.8-1l3.8,0.9L42,35.2z"/>
			</g>
			<g id="Group_768" transform="translate(5.571 39.479)">
				<path id="Path_6720" class="st4" d="M36.8,33.4l2.4,0.3l0.9-3.2l2.1-0.8L42,28.7l-2.9,0.1L36.8,33.4z"/>
			</g>
		</g>
		<g id="Group_772" transform="translate(58.093 36.017)">
			<path id="Path_6721" class="st4" d="M61.2,78.5L74,70.7l-1.6-1l-10.8,4l-9.2-12.9c-1.9-5.1-1.6-27.5-6.6-30.1
				c-3.6-1.9-8.9-2.1-8.9-2.1s2.4,12.5,3.8,12.6s1.2,4,2.4,9.2c0.5,4.9,1,8.8,2.1,12L61.2,78.5z"/>
			<g id="Group_770" transform="translate(22.67 38.909)">
				<path id="Path_6722" class="st4" d="M36.8,35.2l4.3-0.4L39.5,31l2.5-1.3l-0.8-1l-3.8,0.9L36.8,35.2z"/>
			</g>
			<g id="Group_771" transform="translate(26.198 39.479)">
				<path id="Path_6723" class="st4" d="M42.3,33.4l-2.4,0.3l-0.9-3.2l-2.1-0.8l0.3-1.2l2.9,0.1L42.3,33.4z"/>
			</g>
		</g>
		<g id="Group_784" transform="translate(37.016)">
			<path id="Path_6724" class="st2" d="M52.1,57.9h-9.3c1.5,4.4,0.1,6.4,0.1,6.4s0.3,2.9,4.5,2.9s4.5-2.9,4.5-2.9
				S50.6,62.3,52.1,57.9z"/>
			<g id="Group_781" transform="translate(1.092 2.889)">
				<g id="Group_780">
					<g id="Group_779">
						<g id="Group_778">
							<g id="Group_777">
								<g id="Group_776">
									<g id="Group_775">
										<g id="Group_774">
											<g id="Group_773">
												<path id="Path_6725" class="st4" d="M55.9,42.2c0-11-4.3-13.6-9.5-13.6s-9.5,2.5-9.5,13.6c-0.1,3.1,0.5,6.1,1.7,8.9
													c2.2,5,6,6.7,7.9,6.7s5.7-1.7,7.9-6.7C55.4,48.3,56,45.3,55.9,42.2z"/>
											</g>
										</g>
									</g>
								</g>
							</g>
						</g>
					</g>
				</g>
			</g>
			<path id="Path_6728" class="st6" d="M42.4,32.1c0-1.9,2.2-3.4,5-3.4s5,1.5,5,3.4s-2.2,3.4-5,3.4S42.4,34,42.4,32.1z"/>
			<path id="Path_6729" class="st7" d="M57.3,45.6c0-11-3-14-9.9-14s-9.9,3-9.9,14c0,0,14.7-3.2,14.7-7.2
				C52.2,42.4,57.3,45.6,57.3,45.6z"/>
			<g id="Group_782" transform="translate(0 16.801)">
				<path id="Path_6730" class="st4" d="M37,32.2c0.5,3,1.2,3.1,2.1,3l-1-6.5C37.2,28.8,36.5,29.2,37,32.2z"/>
				<path id="Path_6731" class="st4" d="M56.8,28.7l-1,6.5c0.9,0.2,1.6,0,2.1-3S57.7,28.8,56.8,28.7z"/>
			</g>
			<g id="Group_783" transform="translate(0.746 15.998)">
				<path id="Path_6732" class="st7" d="M37.9,30.1c0-0.3-0.1-0.6-0.1-0.9c0-0.2,0-0.4,0.1-0.6l-1.1,0.4c0,0.2,0,0.3,0,0.5
					c0,0,0.1,0,0.3-0.1l0,0c0.2,0.4,0.4,0.8,0.5,1.3C37.7,30.7,38.1,31.1,37.9,30.1z"/>
				<path id="Path_6733" class="st7" d="M55.5,29.2c0,0.3,0,0.6,0,0.9c-0.2,1,0.3,0.7,0.3,0.7c0.1-0.4,0.3-0.9,0.5-1.3
					c0.2,0.1,0.3,0.1,0.3,0.1c0-0.2,0-0.3,0-0.5l-1.1-0.4C55.5,28.8,55.5,29,55.5,29.2"/>
			</g>
		</g>
	</g>
</g>
</svg>
