<?xml version="1.0" encoding="utf-8"?>
<!-- Generator: Adobe Illustrator 25.2.3, SVG Export Plug-In . SVG Version: 6.00 Build 0)  -->
<svg version="1.1" id="Layer_1" xmlns="http://www.w3.org/2000/svg" xmlns:xlink="http://www.w3.org/1999/xlink" x="0px" y="0px"
	 viewBox="0 0 170 170" style="enable-background:new 0 0 170 170;" xml:space="preserve">
<style type="text/css">
	.st0{fill:#EFF1F1;}
	.st1{fill:#E2A379;}
	.st2{fill:#333333;}
	.st3{fill:#779393;}
	.st4{fill:#F4B382;}
	.st5{fill:#FFFFFF;}
	.st6{fill:#602F0F;}
	.st7{fill:#4C230C;}
</style>
<g id="Group_894_1_" transform="translate(0)">
	<circle id="Ellipse_1059" class="st0" cx="84.2" cy="91.4" r="42.5"/>
	<g id="Group_897" transform="translate(11.566 0)">
		<g id="Group_799" transform="translate(0)">
			<path id="Path_6735" class="st1" d="M102.2,109c-2.2,0.5-4.8-5.2-7.7-7.5c-1.6-1.2-3-2.5-3.1-4.4c-0.2-2.5,1.7-3.6,1.8-4.4
				c0.4-4.8-4.7-18.3-4.4-21.9c0,0,11.9-4.5,11.8-2.6c-0.3,7.9-1.7,24-2.1,26.8c0.4,2.2,1,4.4,1.8,6.5
				C100.8,102.7,104.2,108.5,102.2,109z"/>
			<path id="Path_6736" class="st2" d="M89.5,53.1c-0.7,7.7-1,10-0.7,17.6c4.6-1.2,9.4-0.1,11.7,0.1c0.4-4.5,1-11.6,1-18.2
				C101.4,44.9,89.5,53.1,89.5,53.1z"/>
			<path id="Path_6737" class="st3" d="M61.8,79.3c0.6-0.3,1.2-0.6,1.9-0.9c8.1-3.7,5.3-11.7,7.1-13.2c0,0-8-11.9-9.5-12.7
				c-4.7,2.9-9.9,8.8-13.4,14.2C46.3,69.1,58,82.1,61.8,79.3z"/>
			<path id="Path_6738" class="st4" d="M102.9,109.4c-2.2,0.6-4-5.7-7-7.9c-1.6-1.2-3-2.4-3.2-4.3c-0.3-2.5,1.6-3.6,1.7-4.5
				c0.3-4.8-5.1-18.2-4.9-21.8c0,0,11.8-4.8,11.7-2.8c-0.1,7.9-1.1,24-1.5,26.9c0.4,2.2,1.1,4.4,1.9,6.5
				C102.2,102.5,104.9,108.8,102.9,109.4z"/>
			<path id="Path_6739" class="st1" d="M60.7,143.1c-1.9,0-3.3-0.5-3.7-1s-0.7-2.1-0.7-4.3c0.1-5.4,4.4-26.6,7.8-31.1
				c2.3-3.1,8.5,7.4,7.4,9.5c-1.3,2.6-2.4,5.3-3.3,8.1c-1.1,3.3-3,7.9-4.2,11.5c0,0,4.8,0.5,9.5,1.5c3.7,0.8,9.5,2.8,9.6,2.8
				c1.8-0.2,3-1.5,4.8-1.3c4,0.6,7.4,3.1,7.4,4.4H60.7z"/>
			<path id="Path_6740" class="st3" d="M89.7,53.2c-0.5,7.7-0.8,10-0.3,17.6c4.6-1.3,9.3-0.3,11.7-0.2c0.7-9.8,1.9-32.1-3.9-33.8
				c-6-1.7-30.8,12.3-36,15.5s-9.1,10.7-6.2,14.2c4.2,1.1,8.5,1.3,12.7,0.7C66.7,67.4,89.7,53.2,89.7,53.2z"/>
			<path id="Path_6741" class="st5" d="M51,121.8c4.7,4.9,9,2.5,17.1,2.3c1,0,5-2.8,6-4.7c1.2-2.2,1.5-4.7,0.8-7.1
				c-1.5-5.1-13.4-11.1-16.7-23c0.4-3.4,1.4-6.7,2.9-9.8L47.9,66.6c-12.8,24.5-2.3,44.1,1.9,49.8C49.8,116.4,49,119.8,51,121.8z"/>
			<path id="Path_6742" class="st1" d="M73.1,122.1c2.7-0.3,5.5,0,8.1,0.8l2.9-6.6c-3.1,0.3-6.1-0.2-8.9-1.5c-0.6,6-4.2,6.9-5.3,8.5
				L73.1,122.1z"/>
			<g id="Group_798" transform="translate(34.854 61.113)">
				<g id="Group_797" transform="translate(1.787 3.566)">
					<g id="Group_796">
						<g id="Group_795">
							<g id="Group_794">
								<g id="Group_793">
									<g id="Group_792">
										<g id="Group_791">
											<path id="Path_6743" class="st4" d="M60.1,52.8c3-1.8,2.9-4.9,2.6-6.8c-0.9-5.8-3.8-7.5-7.7-9
												c-5.2-2.1-12.6,10.8-13.1,13.3c-1.2,6.5,6.1,12.1,9.5,13.6c3.7,1.6,3.3-0.1,3.7-1.6c0-0.1,0.3-0.2,0.3-0.2
												c0.2-0.7,0.6-1.3,1.1-1.8c0-0.3,0.1-0.5,0.1-0.8c0.1-0.2,0.1-0.3,0.3-0.3c0.5,0.1,1,0,1.5-0.1
												C59.3,58.7,58.7,53.6,60.1,52.8z"/>
										</g>
									</g>
								</g>
							</g>
						</g>
					</g>
				</g>
				<path id="Path_6746" class="st6" d="M56.7,39.5c-6.3-2.5-18.4,3.2-14.1,17.4c0.3,0.9,1.3,2.3,3.8,1.6c1.2-0.3,2.3-0.8,3.3-1.5
					c0.4-0.3,0.9-0.6,1.4-1c0.6-0.4,1.4-3.7,2.1-3.5c6.6,1.5,10.5-0.7,11.2-2.4C65.3,45.9,63.5,42.2,56.7,39.5z"/>
				<path id="Path_6747" class="st4" d="M49.4,54.8c-0.2,3.2,0.9,3.8,2.7,4.3l0.8-4.7l-0.2-2.1C51,51.8,49.6,51.6,49.4,54.8z"/>
				<path id="Path_6748" class="st7" d="M43,45.2c-1-1.9,0.9-4.6,4.3-6.2s6.8-1.4,7.8,0.5s-0.8,3.8-4.1,5.4S43.9,47,43,45.2z"/>
				<path id="Path_6749" class="st6" d="M53.7,53.5c0.1-0.5,0.3-0.9,0.5-1.4c0.1-0.3,0.3-0.6,0.4-0.8l-2.1-0.1
					c-0.1,0.3-0.2,0.5-0.3,0.8c-0.2,0.4,0.2,0,0.6,0c0,0,0,0-0.1,0c0.1,0.8,0.1,1.6,0.1,2.3C52.8,54.3,53.3,55.1,53.7,53.5z"/>
				<path id="Path_6750" class="st6" d="M42,44.6c-1-2,1.1-4.9,4.7-6.7s7.4-1.5,8.4,0.4s-1,4.1-4.6,5.8S43,46.5,42,44.6z"/>
				<path id="Path_6751" class="st7" d="M45.3,39.4c-0.1-0.2,0.7-0.8,1.8-1.3s2.1-0.8,2.2-0.6s-0.6,0.7-1.7,1.2S45.4,39.6,45.3,39.4
					z"/>
			</g>
			<path id="Path_6752" class="st4" d="M60.2,146.6c-1.9,0-3.3-0.5-3.7-1s-0.7-2.1-0.7-4.3c0.1-5.4,4.4-26.6,7.8-31.1
				c2.3-3.1,7-0.9,8.6,2.2c1,2.1-0.1,5.2-1.2,7.2c-1.3,2.6-2.4,5.3-3.3,8.1c-1.1,3.3-3,7.9-4.2,11.5c0,0,4.8,0.5,9.5,1.5
				c3.7,0.8,9.5,2.8,9.6,2.8c1.8-0.2,3-1.5,4.8-1.3c4,0.6,7.4,3.1,7.4,4.4L60.2,146.6z"/>
		</g>
	</g>
</g>
</svg>
