<?xml version="1.0" encoding="utf-8"?>
<!-- Generator: Adobe Illustrator 25.2.3, SVG Export Plug-In . SVG Version: 6.00 Build 0)  -->
<svg version="1.1" id="Layer_1" xmlns="http://www.w3.org/2000/svg" xmlns:xlink="http://www.w3.org/1999/xlink" x="0px" y="0px"
	 viewBox="0 0 170 170" style="enable-background:new 0 0 170 170;" xml:space="preserve">
<style type="text/css">
	.st0{fill:#EFF1F1;}
	.st1{fill:#779393;}
	.st2{fill:#F4B382;}
	.st3{fill:#FFFFFF;}
	.st4{fill:#E2A379;}
	.st5{fill:#602F0F;}
	.st6{fill:#4C230C;}
</style>
<circle id="Ellipse_1062" class="st0" cx="84.8" cy="91.1" r="42.5"/>
<g id="Group_935" transform="translate(0 24.239)">
	<path id="Path_6943" class="st1" d="M93.7,67.8c0.3,0.8,0.7,1.6,1.2,2.3c4.8,7.5,11.6,5.7,13,6.8c1.5,1.2,12.3-15.8,9.7-18.5
		c-5.1-5.3-7.1-6.1-11.7-8.2c-2-0.7-4.1-1.2-6.2-1.4C98.6,48.6,92.5,63.2,93.7,67.8z"/>
	<path id="Path_6944" class="st2" d="M56.5,110.2c0.6-2.2,10.9-1.6,12.5-2.3c0.8-0.3,1.6-1.5,3.5-1.5c2.5,0,3.8,1.9,4.7,2
		c4.8,0.9,20.7-6.5,23.4-6.8c5.4-0.7,2.2,11.9,0.2,11.8c-7.7-0.4-23.7,0.2-26.5,0.1c0,0-9.5,0.2-11.5-0.1
		C61.7,113.2,55.9,112.3,56.5,110.2z"/>
	<path id="Path_6945" class="st1" d="M120.1,101.8c-7.7-0.1-11.8-1.7-19.5-0.1c1.5,4.5,0.8,9.2,0.5,11.8c9.7,0.3,34.2,1,35.6-4.8
		c1.5-6-10.7-40.6-19.2-50.2c0,0-10.9,11.2-9.7,18.3C110.1,89.5,120.1,101.8,120.1,101.8z"/>
	<path id="Path_6946" class="st3" d="M53,63.7c-5.4,4.1-5.9,9.4-5.6,16.3c0.2,2.5,1.4,4.9,3.2,6.7c1.4,1.1,3,1.8,4.7,2.2
		C59,89.6,81.1,67,84.4,66.5c3.2-0.4,5.5-0.2,9.3,1.3l6-19.1c-28-1.8-36.3,9.1-41,13.7C58.7,62.4,55,62.2,53,63.7z"/>
	<g id="Group_934" transform="translate(0 35.826)">
		<path id="Path_6947" class="st4" d="M48.8,48.6c-1.1,2.3-2.2,4.6-3.5,6.8l6.7,6.2c0.3-3.1,1.5-6.1,3.3-8.7
			C50,51.7,49.1,48.6,48.8,48.6z"/>
		<g id="Group_933" transform="translate(0 3.035)">
			<g id="Group_932">
				<g id="Group_931">
					<g id="Group_930">
						<g id="Group_929">
							<g id="Group_928">
								<g id="Group_927">
									<path id="Path_6948" class="st2" d="M36.4,62.5c-1.7,3-0.1,5.7,1.1,7.2c3.6,4.6,6.9,4.7,11.1,4.1c5.5-0.7,5.8-15.5,5-17.9
										c-2.1-6.2-11.2-7.6-14.8-7.2c-4,0.4-2.8,1.6-2.5,3.2c0,0.1-0.2,0.3-0.2,0.3c0.1,0.7,0.1,1.4-0.1,2.1
										c0.1,0.2,0.2,0.5,0.3,0.7c0,0.2,0,0.3-0.2,0.4c-0.5,0.2-0.9,0.5-1.3,0.8C34.2,57,37.2,61.1,36.4,62.5z"/>
								</g>
							</g>
						</g>
					</g>
				</g>
			</g>
		</g>
		<path id="Path_6951" class="st5" d="M49.1,77.7c6.7-0.9,14.5-11.7,3.8-22c-0.7-0.7-2.2-1.4-4.1,0.4c-0.9,0.9-1.6,1.8-2.2,2.9
			c-0.2,0.5-0.5,1-0.8,1.6c-0.3,0.6,0.6,3.9-0.1,4.1c-6.5,1.9-8.8,5.7-8.6,7.5C38.5,76.3,41.9,78.6,49.1,77.7z"/>
		<path id="Path_6952" class="st2" d="M48,60.8c-1.4-2.9-2.7-2.8-4.4-2.5l1.6,4.5l1.1,1.7C48.1,64.2,49.4,63.7,48,60.8z"/>
		<path id="Path_6953" class="st6" d="M58.3,66.1c1.7,1.1,1.4,4.5-0.7,7.5s-5.3,4.5-7,3.3s-1.1-3.7,1-6.7S56.6,64.9,58.3,66.1z"/>
		<path id="Path_6954" class="st5" d="M45,64c0.1,0.5,0.2,0.9,0.3,1.4c0,0.3,0,0.6,0,1l1.9-1c0-0.3-0.1-0.6-0.1-0.9
			c0,0-0.2,0.1-0.6,0.3l0,0c-0.5-0.6-0.9-1.3-1.2-2C45.3,62.8,44.5,62.4,45,64z"/>
		<path id="Path_6955" class="st5" d="M59.4,66.1c1.8,1.2,1.4,4.8-0.9,8.1s-5.7,4.9-7.6,3.7s-1.1-4,1.2-7.3S57.6,64.9,59.4,66.1z"/>
		<path id="Path_6956" class="st6" d="M59.1,72.2c0.2,0.1-0.2,1.1-0.9,2.1s-1.5,1.7-1.7,1.6s0.2-0.9,0.9-1.9S58.9,72.1,59.1,72.2z"
			/>
	</g>
	<path id="Path_6957" class="st2" d="M128,109.3c0.9-1.8-7.4-4.7-9.5-6.3l-3.4-0.1c-16.5-9.5-25.5-10-25.5-10
		C80,86.7,60.9,75.9,56.7,74.7c-4.2-1.2-7.5,6.9-3.8,9.1s7.3,3.7,11.2,5.6s18.7,8.4,22.3,9.7c0.5,0.2,26.6,7.9,26.6,7.9
		c0.9,0.5,1.7,1.2,2.3,1.9c2.1,2,4.8,3.2,7.6,3.4C125.1,112.3,127,111.1,128,109.3z"/>
	<path id="Path_6958" class="st2" d="M120.5,104.9c0,0,2.4,1.4,3.2,0.2c0.7-1,0.9-1.4-5.2-2.2C118.5,102.9,118.2,103.7,120.5,104.9z
		"/>
</g>
</svg>
