<?xml version="1.0" encoding="utf-8"?>
<!-- Generator: Adobe Illustrator 25.2.3, SVG Export Plug-In . SVG Version: 6.00 Build 0)  -->
<svg version="1.1" id="Layer_1" xmlns="http://www.w3.org/2000/svg" xmlns:xlink="http://www.w3.org/1999/xlink" x="0px" y="0px"
	 viewBox="0 0 170 170" style="enable-background:new 0 0 170 170;" xml:space="preserve">
<style type="text/css">
	.st0{fill:#EFF1F1;}
	.st1{fill:#E2A379;}
	.st2{fill:#FFFFFF;}
	.st3{fill:#F4B382;}
	.st4{fill:#602F0F;}
	.st5{fill:#4C230C;}
	.st6{fill:#779393;}
</style>
<circle id="Ellipse_1058" class="st0" cx="84.1" cy="91.3" r="42.5"/>
<g id="Group_894" transform="translate(0 0)">
	<g id="Group_828">
		<g id="Group_810" transform="translate(26.124 31.922)">
			<path id="Path_6754" class="st1" d="M112,46c0-1-8-2.8-12.5-1.6c-1.6,0.3-3.1,0.4-4.7,0.4c-16.1,0-25.2-2-25.2-2
				c-11.3-1.6-33-8.3-37.3-7.7c-4.3,0.6-4.1,9.4,0.3,9.9c4.4,1.5,9.1,2.3,13.7,2.6c11.2,1.8,19.2,2,23,2.3
				c6.2,0.5,25.6-0.5,25.6-0.5c1.1,0.4,2.3,0.7,3.5,0.7c2.3,0,4.5-0.5,6.6-1.5C108.2,47.4,112,47.1,112,46z"/>
		</g>
		<path id="Path_6755" class="st2" d="M75.7,82.3c-1.1-6.7-7-7.2-12-13.5c-0.6-0.8-5.2-2.3-7.4-2c-2.4,0.4-4.8,1.3-6.2,3.6
			c-1.1,1.8-2.9,7.1,1.4,19.6c1.1,3.2,8.8,14.2,16.8,25.8c2.6,3.8,4.8,7.9,6.4,12.2l15.6-16.4c-3-3.1-15.6-17.1-16-23.9
			C74.3,87.6,76,84.1,75.7,82.3z"/>
		<g id="Group_825" transform="translate(0 6.703)">
			<g id="Group_811" transform="translate(15.844 18.581)">
				<path id="Path_6756" class="st1" d="M42.3,42.3c-0.5-0.3-2.6-0.1-6.2-7.3l-7,2.4c3,3.5,4.3,9.4,4.3,9.4c2.4-1.4,5.1-2.1,7.9-2.1
					c0.7,0.1,1.4-0.3,1.6-0.9C43.2,43.1,42.8,42.7,42.3,42.3z"/>
			</g>
			<g id="Group_824">
				<g id="Group_820" transform="translate(5.694 0.876)">
					<g id="Group_819">
						<g id="Group_818">
							<g id="Group_817">
								<g id="Group_816">
									<g id="Group_815">
										<g id="Group_814">
											<g id="Group_813">
												<g id="Group_812">
													<path id="Path_6757" class="st3" d="M46.8,41.1c-0.2-3.5-3.1-4.8-4.9-5.4c-5.5-1.8-8.4,0-11.5,2.7
														c-4.2,3.7,3.8,16.2,5.8,17.7c5.2,4,13.6,0.1,16.4-2.2c3.1-2.5,1.4-2.9,0.3-4.1c0-0.1,0-0.2,0-0.4
														c-0.5-0.5-0.9-1.1-1.1-1.8c-0.2-0.1-0.4-0.3-0.6-0.5c-0.1-0.1-0.2-0.2-0.1-0.4c0.3-0.4,0.5-0.9,0.6-1.4
														C51.7,44.5,46.9,42.8,46.8,41.1z"/>
												</g>
											</g>
										</g>
									</g>
								</g>
							</g>
						</g>
					</g>
				</g>
				<path id="Path_6760" class="st4" d="M35.1,38.9c-5.1,4.5-5.6,17.8,9,20.5c1,0.2,2.6-0.1,3.2-2.6c0.2-1.2,0.3-2.4,0.2-3.6
					c-0.1-0.5-0.1-1.1-0.2-1.7c-0.1-0.7-2.6-2.9-2.2-3.5c4.4-5.2,4.2-9.7,3-11.1C44.7,34.2,40.6,34.1,35.1,38.9z"/>
				<g id="Group_822" transform="translate(14.421 13.251)">
					<path id="Path_6761" class="st3" d="M31,39.1c2.8,1.6,3.8,0.9,5.1-0.4l-3.8-2.9L30.3,35C29,36.3,28.2,37.5,31,39.1z"/>
				</g>
				<path id="Path_6762" class="st5" d="M33.9,53.7c-2.1,0-3.7-2.9-3.6-6.6s1.9-6.7,4-6.7s3,2.5,2.9,6.1S36,53.7,33.9,53.7z"/>
				<g id="Group_823" transform="translate(14.41 11.156)">
					<path id="Path_6763" class="st4" d="M31.7,36.8c-0.4-0.3-0.7-0.7-1-1c-0.2-0.2-0.4-0.5-0.5-0.8l-1,1.8c0.2,0.2,0.4,0.4,0.6,0.7
						c0,0,0.1-0.2,0.3-0.5c0,0,0,0,0,0c0.7,0.2,1.4,0.6,2.1,1C32.1,38,33.1,37.9,31.7,36.8z"/>
				</g>
				<path id="Path_6764" class="st4" d="M32.9,54.3c-2.2,0-3.9-3.2-3.8-7.3s2-7.3,4.2-7.3s3.2,2.7,3.1,6.7S35.1,54.3,32.9,54.3z"/>
				<path id="Path_6765" class="st5" d="M29.8,49c-0.2,0-0.4-1-0.4-2.2s0.3-2.2,0.5-2.2s0.3,0.8,0.3,2.1S30,49,29.8,49z"/>
			</g>
		</g>
		<path id="Path_6766" class="st6" d="M74.7,128c3.9,7.3,14,7,18.9,5c15.3-6.2,0.1-29.4-2.6-26.4c-2.2,2.4-4.3,4.6-6.1,6.4
			C82.8,115.2,74.7,128,74.7,128z"/>
		<g id="Group_826" transform="translate(52.616)">
			<path id="Path_6767" class="st3" d="M106.9,36.2c-0.5,2.6-3.7,7.8-4,11.2c-0.2,2-0.6,5.8-1.9,7.2c-2.1,2.4-4.4,2.2-5.1,2.8
				c-4.3,3.4-11,17.4-13.2,19.9c-3.6,4.1-10.3-4.7-9-6.2C84.4,59,90.2,53.7,92.3,51.7c0,0,9.5-13.9,11-15.4
				C104.1,35.4,107.3,34,106.9,36.2z"/>
			<path id="Path_6768" class="st6" d="M70.4,90.9c4.3-4.1,8.3-8.5,12-13.2c-3.4-0.3-7.9-4.5-8.7-6.6c-1.4,1.4-12.5,12-12.5,12
				c-3.5,3.4-24.5,22.9-29.1,30.5c-1.1,1.7-2.1,3.5-2.9,5.3c-1.4,3,13.7,12.9,17,9.9c5.7-7.9,13.3-24.6,15.7-28.4
				C64.2,96.8,70.4,90.9,70.4,90.9z"/>
		</g>
		<g id="Group_827" transform="translate(22.872 38.474)">
			<path id="Path_6769" class="st3" d="M112,46c0-1-8-2.8-12.5-1.6c-1.6,0.3-3.1,0.4-4.7,0.4c-16.1,0-25.2-2-25.2-2
				c-11.3-1.6-33-8.3-37.3-7.7c-4.3,0.6-4.1,9.4,0.3,9.9c4.4,1.5,9.1,2.3,13.7,2.6c11.2,1.8,19.2,2,23,2.3
				c6.2,0.5,25.6-0.5,25.6-0.5c1.1,0.4,2.3,0.7,3.5,0.7c2.3,0,4.5-0.5,6.6-1.5C108.2,47.4,112,47.1,112,46z"/>
		</g>
	</g>
</g>
</svg>
