<?xml version="1.0" encoding="utf-8"?>
<!-- Generator: Adobe Illustrator 25.2.3, SVG Export Plug-In . SVG Version: 6.00 Build 0)  -->
<svg version="1.1" id="Layer_1" xmlns="http://www.w3.org/2000/svg" xmlns:xlink="http://www.w3.org/1999/xlink" x="0px" y="0px"
	 viewBox="0 0 170 170" style="enable-background:new 0 0 170 170;" xml:space="preserve">
<style type="text/css">
	.st0{fill:#EFF1F1;}
	.st1{fill:#779393;}
	.st2{fill:#FFFFFF;}
	.st3{fill:#E2A379;}
	.st4{fill:#F4B382;}
	.st5{fill:#602F0F;}
	.st6{fill:#4C230C;}
</style>
<ellipse id="Ellipse_1060" class="st0" cx="84.5" cy="90.7" rx="43" ry="42.5"/>
<g id="Group_896_1_" transform="translate(0 11.226)">
	<g id="Group_891" transform="translate(0 0)">
		<path id="Path_6811" class="st1" d="M103.2,74.5c0,0,1.5-7.4,1.5-11c0-5.1-3.2-9.2-6.2-11.4c-2.9-2.1-9.1-4.5-17.5,2.2
			c-5.6,4.5,3.4,13,2.7,16.4c-0.4,2.3,10.4,5.5,10.4,5.5L103.2,74.5z"/>
		<path id="Path_6812" class="st2" d="M81.4,103.5c-0.2,6.5,0.2,10,6,15.9c1.1,1.1,2.5,1.8,4,1.9c1.7,0,5.6,0,7.4-1.9
			c1.4-1.5,6.9-4.4,4.7-16.5c-0.7-5.6,1.6-31.7,1.2-39.4L86,74.2c0,0-1.4,18.6-2.2,24.5C83.7,98.8,81.5,101.7,81.4,103.5z"/>
		<path id="Path_6813" class="st3" d="M82.1,111.4c-0.9,0.4-1.2,0.1-1.8-0.9l-3.8,7.7c4.4-0.3,11,1.3,11,1.3
			c-1.2-1.2-2.3-2.5-3.3-3.9C83.2,114.2,82.5,112.8,82.1,111.4z"/>
		<g id="Group_890" transform="translate(57.628 53.774)">
			<g id="Group_889">
				<g id="Group_888">
					<g id="Group_887">
						<path id="Path_6814" class="st4" d="M10.1,48.8c-2.8-1.9-5.4-0.5-6.9,0.5c-4.6,3.1-4.9,6.3-4.7,10.3
							c0.3,5.3,14.5,6.5,16.8,5.9c6.1-1.6,8-10.2,7.9-13.7c-0.1-3.8-1.4-2.8-2.9-2.6c-0.1,0-0.3-0.2-0.3-0.2c-0.7,0.1-1.3,0-2-0.2
							c-0.2,0.1-0.5,0.1-0.7,0.2c-0.2,0-0.3,0-0.4-0.2c-0.1-0.5-0.4-0.9-0.7-1.3C15.5,47,11.4,49.7,10.1,48.8z"/>
					</g>
				</g>
			</g>
		</g>
		<path id="Path_6817" class="st5" d="M55.2,113.9c0.4,6.5,10.3,14.6,20.8,5.1c0.7-0.6,1.5-2-0.1-4c-0.8-0.9-1.7-1.6-2.6-2.3
			c-0.4-0.3-0.9-0.5-1.5-0.8c-0.6-0.3-3.8,0.3-3.9-0.4c-1.4-6.3-4.9-8.8-6.6-8.7C57.2,103.8,54.8,106.9,55.2,113.9z"/>
		<path id="Path_6818" class="st4" d="M71.5,114c2.8-1.1,2.9-2.4,2.6-4.1l-4.4,1.2l-1.8,1C68.2,113.8,68.6,115.1,71.5,114z"/>
		<path id="Path_6819" class="st6" d="M65.7,123.5c-1.2,1.6-4.4,1.1-7.1-1.2c-2.7-2.2-3.9-5.3-2.7-6.9s3.6-0.8,6.4,1.4
			C65,119,66.9,121.9,65.7,123.5z"/>
		<path id="Path_6820" class="st5" d="M68.6,110.9c-0.5,0.1-0.9,0.2-1.4,0.2c-0.3,0-0.6,0-0.9,0l0.8,1.9c0.3,0,0.6,0,0.8,0
			c0,0-0.1-0.2-0.2-0.6c0,0,0,0,0,0c0.6-0.4,1.3-0.8,2-1C69.7,111.3,70.2,110.5,68.6,110.9z"/>
		<path id="Path_6821" class="st5" d="M65.6,124.6c-1.3,1.7-4.7,1.1-7.7-1.4s-4.4-5.8-3.1-7.5c1.3-1.7,3.9-0.8,6.9,1.6
			C64.7,119.8,66.9,122.9,65.6,124.6z"/>
		<path id="Path_6822" class="st6" d="M59.8,123.8c-0.1,0.2-1-0.3-1.9-1c-0.9-0.7-1.5-1.5-1.4-1.7c0.1-0.2,0.8,0.2,1.7,1
			C59.1,122.9,59.9,123.6,59.8,123.8z"/>
		<path id="Path_6823" class="st4" d="M1,122.5c-0.8-2,7.2-6.6,8.1-8c0.4-0.7,0.4-2.1,1.8-3.2c1.9-1.4,4.1-0.7,4.8-1.2
			c3.4-2.8,11.8-11.9,15.9-15.2c1-0.8,2.2-1.7,3.2-2.5c4.2-3.1,8.1,7.3,6.4,8.2c-6.6,3.8-22.2,13.9-24.7,15c0,0-7,4.7-8.7,5.6
			C6.7,121.8,1.8,124.5,1,122.5z"/>
		<path id="Path_6824" class="st1" d="M49.1,83.1c-5,2.7-9.8,5.8-14.3,9.3c1.5,1,5.9,6.7,6.4,8.2c1.6-1,14.5-8.1,14.5-8.1
			c3.2-1.8,17.7-10.5,27.8-16.8c2.6-1.6,4.7-2.7,6.8-4c1.4-1.4,2.6-2.8,3.8-4.4c2-2.5-11.2-14.5-13.2-12.8
			c-6.5,6-18.4,18.9-21.5,21.9C56.2,79.3,49.1,83.1,49.1,83.1z"/>
		<path id="Path_6825" class="st4" d="M168,118.5c0.3-2-13.7-2-13.7-2c-17.9-3.7-26.3-1.6-26.3-1.6c-10.6-2.7-31.2-6.9-35.4-6.7
			c-4.2,0.1-4.8,8.5-0.7,9.4c4.1,0.9,7.8,1.2,11.9,1.8s19.6,2.1,23.2,2.2c0.5,0,26.6-0.7,26.6-0.7c0.9,0.2,1.9,0.6,2.7,1
			C158.6,123.1,167.7,120.5,168,118.5z"/>
	</g>
</g>
</svg>
