<?xml version="1.0" encoding="utf-8"?>
<!-- Generator: Adobe Illustrator 25.2.3, SVG Export Plug-In . SVG Version: 6.00 Build 0)  -->
<svg version="1.1" id="Layer_1" xmlns="http://www.w3.org/2000/svg" xmlns:xlink="http://www.w3.org/1999/xlink" x="0px" y="0px"
	 viewBox="0 0 170 170" style="enable-background:new 0 0 170 170;" xml:space="preserve">
<style type="text/css">
	.st0{fill:#EFF1F1;}
	.st1{fill:#F4B382;}
	.st2{fill:#5C7474;}
	.st3{fill:#779393;}
	.st4{fill:#FFFFFF;}
	.st5{fill:#E2A379;}
	.st6{fill:#4C230C;}
	.st7{fill:#602F0F;}
</style>
<circle id="Ellipse_1062" class="st0" cx="84.8" cy="91.1" r="42.5"/>
<g id="Group_896" transform="translate(-0.057)">
	<circle id="Ellipse_1061" class="st0" cx="84.3" cy="90.5" r="42.5"/>
	<g id="Group_895" transform="translate(3.583 0)">
		<g id="Group_883" transform="translate(0)">
			<path id="Path_6792" class="st1" d="M82.2,4.2c1,5.5,2.5,15.4,2.5,15.4c3.5,3.7,7.2,7.5,10.6,11.3c3.4,3.7,6.8,7.6,10.2,11.4
				l1.1,1.2l-0.3,2.1c-0.7,4.3-1.2,8.6-1.8,12.9c-0.5,4.3-1.3,8.6-2.4,12.8c-1.1,4.2-2.3,8.4-3.7,12.5c-1.4,4.1-3,8.3-4.8,12.2
				L90,95.4c-0.1-4.4,0-8.8,0.4-13.2c0.3-4.4,0.9-8.7,1.6-13c0.7-4.3,1.7-8.5,2.9-12.7c1-3.7,2.1-7.3,3.1-11
				c0.1-0.5-4.7-6.5-7.5-10.7c-2.9-4.2-6-8.4-8.8-12.7l-0.4-0.6V21c-0.1-5.6,0-11.1,0-16.7L82.2,4.2z"/>
			<path id="Path_6793" class="st2" d="M65.7,128.4l0.7,5.7l14.6,3.7l14.6-3.7l0.7-5.7H65.7z"/>
			<path id="Path_6794" class="st1" d="M80.6,4.3c0.1,5.6,0.1,11.2,0,16.7v0.4l-0.4,0.6c-2.8,4.2-5.9,8.5-8.8,12.7
				c-2.5,3.6-5,7.2-7.5,10.8c-0.4,0.6,1.9,6.8,3.1,10.9c1.2,4.2,2.2,8.4,2.9,12.7c0.7,4.3,1.2,8.6,1.6,13c0.4,4.4,0.5,8.8,0.4,13.2
				L68.3,96c-1.8-4-3.4-8.1-4.8-12.2c-1.4-4.1-2.6-8.3-3.7-12.5c-1-4.2-1.8-8.5-2.4-12.8c-0.6-4.3-1.1-8.6-1.8-12.9l-0.3-2.1
				l1.1-1.2c3.4-3.8,6.7-7.6,10.2-11.4c3.4-3.8,7.1-7.5,10.6-11.3c0,0,1.5-9.9,2.5-15.4L80.6,4.3z"/>
			<g id="Group_870" transform="translate(0 118.602)">
				<g id="Group_866">
					<g id="Group_864" transform="translate(23.556 8.791)">
						<path id="Path_6795" class="st1" d="M48.9,4.8C56.4,9,65,13.7,67.2,14.1c9.2,1.6,16,6.2,15.3,8.1c0,0-21.8-3.1-37.8-6.4
							C38.5,14.5,43,1.5,48.9,4.8z"/>
					</g>
					<g id="Group_865">
						<path id="Path_6796" class="st3" d="M72.4,13.6c-5.9-3.3-11.1-6.3-12.4-6.7C55.4,5.1,44.6,1,42.2,9.1S48,18.7,53.9,21
							c4.7,1.5,9.5,2.7,14.3,3.6C69.1,20.7,70.5,17,72.4,13.6z"/>
					</g>
				</g>
				<g id="Group_869" transform="translate(14.048)">
					<g id="Group_867" transform="translate(0 8.791)">
						<path id="Path_6797" class="st1" d="M75.3,4.8C67.8,9,59.2,13.7,57,14.1c-9.2,1.6-16,6.2-15.3,8.1c0,0,21.8-3.1,37.8-6.4
							C85.7,14.5,81.2,1.5,75.3,4.8z"/>
					</g>
					<g id="Group_868" transform="translate(33.627)">
						<path id="Path_6798" class="st3" d="M41.7,13.6c5.9-3.3,11.1-6.3,12.4-6.7C58.7,5.1,69.6,1,72,9.1S66.2,18.7,60.3,21
							c-4.7,1.5-9.5,2.7-14.3,3.6C45,20.7,43.6,17,41.7,13.6z"/>
					</g>
				</g>
			</g>
			<path id="Path_6799" class="st4" d="M95.5,91.4c1-6.3-4.1-17.8-4.1-17.8c-2.3-0.3-4.7-0.4-7-0.4h-6.9c-2.3,0-4.7,0.2-7,0.4
				c0,0-5.2,11.5-4.1,17.8c1,5.9,2.6,14.5-0.7,37h30.4C92.8,105.9,94.5,97.3,95.5,91.4z"/>
			<g id="Group_882" transform="translate(28.564 33.328)">
				<path id="Path_6800" class="st5" d="M57,33.5h-9.3c1.5,4.4,0.1,6.4,0.1,6.4s0.3,2.9,4.5,2.9s4.5-2.9,4.5-2.9S55.5,37.9,57,33.5z
					"/>
				<g id="Group_879" transform="translate(1.093 2.889)">
					<g id="Group_878">
						<g id="Group_877">
							<g id="Group_876">
								<g id="Group_875">
									<g id="Group_874">
										<g id="Group_873">
											<g id="Group_872">
												<g id="Group_871">
													<path id="Path_6801" class="st1" d="M60.8,17.8c0-11-4.3-13.6-9.5-13.6s-9.5,2.5-9.5,13.6c-0.1,3.1,0.5,6.1,1.7,8.9
														c2.2,5,6,6.7,7.9,6.7s5.7-1.7,7.9-6.7C60.3,23.9,60.9,20.9,60.8,17.8z"/>
												</g>
											</g>
										</g>
									</g>
								</g>
							</g>
						</g>
					</g>
				</g>
				<path id="Path_6804" class="st6" d="M47.3,7.7c0-1.9,2.2-3.4,5-3.4s5,1.5,5,3.4s-2.2,3.4-5,3.4S47.3,9.6,47.3,7.7z"/>
				<path id="Path_6805" class="st7" d="M62.2,21.2c0-11-3-14-9.9-14s-9.9,3-9.9,14c0,0,14.7-3.2,14.7-7.2
					C57.1,18,62.2,21.2,62.2,21.2z"/>
				<g id="Group_880" transform="translate(0 16.801)">
					<path id="Path_6806" class="st1" d="M41.9,7.8c0.5,3,1.2,3.1,2.1,3l-1-6.5C42.1,4.4,41.4,4.8,41.9,7.8z"/>
					<path id="Path_6807" class="st1" d="M61.7,4.2l-1,6.5c0.9,0.2,1.6,0,2.1-3S62.6,4.4,61.7,4.2z"/>
				</g>
				<g id="Group_881" transform="translate(0.746 15.998)">
					<path id="Path_6808" class="st7" d="M42.8,5.7c0-0.3-0.1-0.6-0.1-0.9c0-0.2,0-0.4,0.1-0.6l-1.1,0.4c0,0.2,0,0.3,0,0.5
						c0,0,0.1,0,0.3-0.1l0,0c0.2,0.4,0.4,0.8,0.5,1.3C42.5,6.3,43,6.7,42.8,5.7z"/>
					<path id="Path_6809" class="st7" d="M60.4,4.8c0,0.3,0,0.6,0,0.9c-0.2,1,0.3,0.7,0.3,0.7c0.1-0.4,0.3-0.9,0.5-1.3
						c0.2,0.1,0.3,0.1,0.3,0.1c0-0.2,0-0.3,0-0.5l-1.1-0.4C60.4,4.4,60.4,4.6,60.4,4.8"/>
				</g>
			</g>
		</g>
	</g>
</g>
</svg>
