<?xml version="1.0" encoding="utf-8"?>
<!-- Generator: Adobe Illustrator 25.2.3, SVG Export Plug-In . SVG Version: 6.00 Build 0)  -->
<svg version="1.1" id="Layer_1" xmlns="http://www.w3.org/2000/svg" xmlns:xlink="http://www.w3.org/1999/xlink" x="0px" y="0px"
	 viewBox="0 0 50 50" style="enable-background:new 0 0 50 50;" xml:space="preserve">
<style type="text/css">
	.st0{opacity:0.4;fill:#779393;enable-background:new    ;}
</style>
<path id="lotus" class="st0" d="M49.6,36.2L49.6,36.2c-1.4-1.4-3-2.6-4.8-3.4c3.3-3.7,4.6-8.1,4.6-8.8c0-0.7-0.5-1.3-1.1-1.4
	C45.9,22,43.4,21.8,41,22c0.1-0.5,0.2-0.9,0.2-1.4c0.4-2.8,0.2-5.7-0.6-8.4c-0.2-0.8-1-1.2-1.8-1c0,0,0,0,0,0
	c-2.8,0.7-5.3,2-7.6,3.8c-1.1-3.1-2.9-5.9-5.2-8.2c-0.6-0.6-1.5-0.6-2.1,0c-2.3,2.3-4.1,5.1-5.2,8.2c-2.3-1.7-4.8-3-7.6-3.8
	c-0.8-0.2-1.6,0.3-1.8,1c-0.9,3.2-1,6.5-0.3,9.8c-2.5-0.3-4.9-0.1-7.3,0.6c-0.7,0.2-1.1,0.7-1.1,1.4c0,0.5,1.1,4.9,4.6,8.8
	c-1.8,0.9-3.4,2-4.8,3.4c-0.6,0.6-0.6,1.5,0,2.1c6.7,6.7,17.4,7.1,24.6,1c7.2,6.1,17.9,5.7,24.5-0.9C50.1,37.8,50.2,36.9,49.6,36.2
	C49.6,36.3,49.6,36.2,49.6,36.2L49.6,36.2z M40.1,25.1c2-0.3,4-0.3,5.9,0c-2.4,6.5-8.4,10.9-15.3,11.3
	C35.1,33.9,38.4,29.9,40.1,25.1z M3.9,25.1c2-0.3,4-0.3,5.9,0c1.7,4.7,5,8.7,9.3,11.3C12.3,36.1,6.3,31.6,3.9,25.1L3.9,25.1z
	 M13.2,40.7c-3.5,0-6.9-1.2-9.6-3.4c1.2-1,2.5-1.7,3.9-2.3c3.4,2.7,7.6,4.2,11.9,4.4C17.5,40.2,15.4,40.7,13.2,40.7L13.2,40.7z
	 M14.1,27.2c-2.2-3.8-3-8.3-2.2-12.7c2.2,0.8,4.3,2,6,3.6c-1.1,5.4-0.2,10.9,2.5,15.7C17.8,32.1,15.6,29.9,14.1,27.2z M25,35.1
	c-6.2-7.2-6.2-17.9,0-25.1C31.2,17.2,31.2,27.9,25,35.1z M32.6,22.6c0-1.5-0.2-3-0.5-4.5c1.8-1.6,3.8-2.8,6-3.6
	c1.4,7.6-2,15.2-8.6,19.2C31.5,30.3,32.6,26.5,32.6,22.6z M36.8,40.7c-2.1,0-4.3-0.4-6.2-1.3c4.3-0.2,8.5-1.7,11.9-4.4
	c1.4,0.6,2.7,1.3,3.9,2.3C43.6,39.5,40.3,40.7,36.8,40.7z"/>
</svg>
