<svg xmlns="http://www.w3.org/2000/svg" viewBox="0 0 50 50">
  <path d="M24.3 49.8c-.9-.5-1.7-1.1-2.5-1.7-2 .9-4.2 1.6-6.4 1.9-.5.1-1-.1-1.3-.6-1.3-1.8-2.4-3.8-3.2-5.9-1-.1-2-.3-3-.5-.5-.1-.9-.5-1-1-.2-1-.4-2-.5-3-2.1-.8-4.1-1.8-5.9-3.2-.4-.3-.6-.8-.6-1.3.3-2.2 1-4.3 1.9-6.4-.6-.8-1.2-1.6-1.7-2.5-.3-.4-.3-1 0-1.5.5-.9 1.1-1.7 1.7-2.5-.9-2-1.6-4.2-1.9-6.4-.1-.5.1-1 .6-1.3 1.8-1.3 3.8-2.4 5.9-3.2.1-1 .3-2 .5-3 .1-.5.5-.9 1-1 1-.2 2-.4 3-.5.8-2.1 1.8-4.1 3.2-5.8.3-.4.8-.6 1.3-.6 2.2.3 4.3 1 6.4 1.9.8-.6 1.6-1.2 2.5-1.7.4-.3 1-.3 1.5 0 .9.5 1.7 1.1 2.5 1.7 2-.9 4.2-1.6 6.4-1.9.5-.1 1 .1 1.3.6 1.3 1.8 2.4 3.8 3.2 5.8 1 .1 2 .3 3 .5.5.1.9.5 1 1 .2 1 .4 2 .5 3 2.1.8 4.1 1.8 5.8 3.2.4.3.6.8.6 1.3-.3 2.2-1 4.3-1.9 6.4.6.8 1.2 1.6 1.7 2.5.3.4.3 1 0 1.5-.5.9-1.1 1.7-1.7 2.5.9 2 1.6 4.2 1.9 6.4.1.5-.1 1-.6 1.3-1.8 1.3-3.8 2.4-5.8 3.2-.1 1-.3 2-.5 3-.1.5-.5.9-1 1-1 .2-2 .4-3 .5-.8 2.1-1.8 4.1-3.2 5.9-.3.4-.8.6-1.3.6-2.2-.3-4.3-1-6.4-1.9-.8.6-1.6 1.2-2.5 1.7-.3.1-.5.2-.8.2-.3 0-.5-.1-.7-.2zm6.2-3.9c1.2.4 2.3.8 3.6 1 .7-1 1.3-2.1 1.8-3.2-1.1 0-2.3-.2-3.4-.6-.5 1-1.2 2-2 2.8zm-16.4-2.2c.5 1.1 1.1 2.2 1.8 3.2 1.2-.2 2.4-.6 3.6-1-.8-.8-1.4-1.8-2-2.8-1.1.3-2.2.5-3.4.6zm7.2-1.7l-.9.3c1.2 1.8 2.8 3.4 4.6 4.5 1.1-.8 3.3-2.4 4.6-4.5l-.9-.3c-1.3-.4-2.6-1.1-3.7-1.9-1.1.8-2.4 1.5-3.7 1.9zM9.6 40.4c1.3.3 4.1.6 6.5.1-.1-.3-.3-.5-.4-.8-.7-1.2-1.1-2.6-1.3-4-1.4-.2-2.7-.6-4-1.3-.3-.1-.6-.3-.8-.4-.7 2.3-.3 5.1 0 6.4zm30.1-6c-1.2.7-2.6 1.1-4 1.3-.2 1.4-.6 2.7-1.3 4-.1.3-.3.6-.4.8 2.1.4 4.3.4 6.5 0 .3-1.3.6-4.1.1-6.5-.4.1-.7.2-.9.4zm-13.6 2.7c1.2 1.4 3.5 2.2 4.9 2.5.8-1.2 1.9-3.4 1.7-5.2 0-.4.1-.8.4-1.1.3-.3.7-.5 1.1-.4 1.8.1 4-1 5.2-1.7-.3-1.4-1.1-3.7-2.5-4.9-.3-.3-.5-.7-.5-1.1 0-.4.2-.8.5-1.1 1.4-1.2 2.2-3.5 2.5-4.9-1.2-.8-3.4-1.9-5.2-1.7-.4 0-.8-.1-1.1-.4-.3-.3-.5-.7-.4-1.1.1-1.8-1-4-1.7-5.2-1.4.3-3.7 1.1-4.9 2.5-.3.3-.7.5-1.1.5-.4 0-.8-.2-1.1-.5-1.2-1.4-3.5-2.2-4.9-2.5-.8 1.2-1.9 3.4-1.7 5.2 0 .4-.1.8-.4 1.1-.3.3-.7.5-1.1.4-1.9-.1-4 1-5.2 1.7.3 1.4 1.1 3.7 2.5 4.9.3.3.5.7.5 1.1 0 .4-.2.8-.5 1.1-1.4 1.2-2.2 3.5-2.5 4.9 1.2.8 3.4 1.9 5.2 1.7.4 0 .8.1 1.1.4.3.3.5.7.4 1.1-.1 1.9 1 4 1.7 5.2 1.4-.3 3.7-1.1 4.9-2.5.3-.3.7-.5 1.1-.5.4 0 .8.2 1.1.5zm17-4.6c.3 1.1.5 2.2.6 3.4 1.1-.5 2.2-1.1 3.2-1.8-.2-1.2-.6-2.4-1-3.6-.8.8-1.8 1.5-2.8 2zm-40 1.6c1 .7 2.1 1.3 3.2 1.8 0-1.1.2-2.3.6-3.4-1-.5-2-1.2-2.8-2-.5 1.2-.8 2.4-1 3.6zm.1-9.1c.8 1.1 2.4 3.3 4.5 4.6l.3-.9c.4-1.3 1.1-2.6 1.9-3.7-.8-1.1-1.5-2.4-1.9-3.7l-.3-.9c-1.8 1.2-3.3 2.8-4.5 4.6zM42 21.3c-.4 1.3-1.1 2.6-1.9 3.7.8 1.1 1.5 2.4 1.9 3.7l.3.9c1.8-1.2 3.4-2.8 4.5-4.6-.8-1.1-2.4-3.3-4.5-4.6l-.3.9zm1.1-3.8c1 .5 2 1.2 2.8 2 .4-1.2.8-2.3 1-3.6-1-.7-2.1-1.3-3.2-1.8-.1 1.2-.3 2.3-.6 3.4zm-40-1.6c.2 1.2.6 2.4 1 3.6.8-.8 1.8-1.4 2.8-2-.3-1.1-.5-2.2-.6-3.4-1.1.5-2.2 1.1-3.2 1.8zm6.5-6.3c-.3 1.3-.6 4.1-.1 6.5.3-.1.5-.3.8-.4 1.2-.7 2.6-1.1 4-1.3.2-1.4.6-2.7 1.3-4 .1-.3.3-.6.4-.8-.9-.2-1.9-.3-2.8-.3-1.2-.1-2.4.1-3.6.3zm24.3-.1c.1.3.3.5.4.8.7 1.2 1.1 2.6 1.3 4 1.4.2 2.7.6 4 1.3.3.1.6.3.8.4.4-2.1.4-4.3 0-6.5-1.2-.2-2.4-.4-3.6-.4-1 .1-1.9.2-2.9.4zM20.4 7.7l.9.3c1.3.4 2.6 1.1 3.7 1.9 1.1-.8 2.4-1.5 3.7-1.9l.9-.3c-1.2-1.8-2.8-3.4-4.6-4.5-1.1.8-3.3 2.4-4.6 4.5zm10.1-3.6c.8.8 1.4 1.8 2 2.8 1.1-.3 2.2-.5 3.4-.6-.5-1.1-1.1-2.2-1.8-3.2-1.2.2-2.4.6-3.6 1zM14.1 6.3c1.1 0 2.3.2 3.4.6.5-1 1.2-2 2-2.8-1.2-.4-2.3-.8-3.6-1-.7 1-1.3 2.1-1.8 3.2zM15.7 25c0-5.1 4.2-9.3 9.3-9.3 5.1 0 9.3 4.2 9.3 9.3 0 5.1-4.2 9.3-9.3 9.3-5.1 0-9.3-4.2-9.3-9.3zm2.9 0c0 3.5 2.9 6.4 6.4 6.4 3.5 0 6.4-2.9 6.4-6.4 0-3.5-2.9-6.4-6.4-6.4-3.5 0-6.4 2.9-6.4 6.4z" opacity=".4" fill="#779393"/>
</svg>
