<?xml version="1.0" encoding="utf-8"?>
<!-- Generator: Adobe Illustrator 25.2.3, SVG Export Plug-In . SVG Version: 6.00 Build 0)  -->
<svg version="1.1" id="Layer_1" xmlns="http://www.w3.org/2000/svg" xmlns:xlink="http://www.w3.org/1999/xlink" x="0px" y="0px"
	 viewBox="0 0 50 50" style="enable-background:new 0 0 50 50;" xml:space="preserve">
<style type="text/css">
	.st0{opacity:0.4;fill:#779393;}
</style>
<path id="Union_11" class="st0" d="M0,25C0,11.2,11.2,0,25,0c13.8,0,25,11.2,25,25c0,13.8-11.2,25-25,25l0,0C11.2,50,0,38.8,0,25
	C0,25,0,25,0,25z M38.2,13.2c0,7.3-5.9,13.2-13.2,13.2c-5.7,0-10.3,4.6-10.3,10.3c0,5.7,4.6,10.3,10.3,10.3c12.2,0,22.1-9.9,22.1-22
	c0,0,0,0,0,0c0-7.9-4.2-15.2-11.1-19.2C37.4,8,38.2,10.6,38.2,13.2L38.2,13.2z M2.9,25c0,7.9,4.2,15.2,11.1,19.2
	c-1.5-2.2-2.3-4.8-2.3-7.4c0-7.3,5.9-13.2,13.2-13.2c5.7,0,10.3-4.6,10.3-10.3c0-5.7-4.6-10.3-10.3-10.3C12.8,2.9,2.9,12.8,2.9,25
	C2.9,25,2.9,25,2.9,25L2.9,25z M19.6,36.8c0-3,2.4-5.4,5.4-5.4c3,0,5.4,2.4,5.4,5.4c0,3-2.4,5.4-5.4,5.4
	C22,42.2,19.6,39.7,19.6,36.8L19.6,36.8z M22.5,36.8c0,1.4,1.1,2.5,2.5,2.5c1.4,0,2.5-1.1,2.5-2.5c0-1.4-1.1-2.5-2.5-2.5
	C23.6,34.3,22.5,35.4,22.5,36.8L22.5,36.8z M19.6,13.2c0-3,2.4-5.4,5.4-5.4c3,0,5.4,2.4,5.4,5.4c0,3-2.4,5.4-5.4,5.4
	C22,18.6,19.6,16.2,19.6,13.2L19.6,13.2z M22.5,13.2c0,1.4,1.1,2.5,2.5,2.5c1.4,0,2.5-1.1,2.5-2.5c0-1.4-1.1-2.5-2.5-2.5
	C23.6,10.8,22.5,11.9,22.5,13.2L22.5,13.2z"/>
</svg>
