<?xml version="1.0" encoding="utf-8"?>
<!-- Generator: Adobe Illustrator 25.2.3, SVG Export Plug-In . SVG Version: 6.00 Build 0)  -->
<svg version="1.1" id="Layer_1" xmlns="http://www.w3.org/2000/svg" xmlns:xlink="http://www.w3.org/1999/xlink" x="0px" y="0px"
	 viewBox="0 0 131.3 42.5" style="enable-background:new 0 0 131.3 42.5;" xml:space="preserve">
<style type="text/css">
	.st0{fill:#111518;enable-background:new    ;}
	.st1{fill:#779393;}
</style>
<path class="st0" d="M59.8,32v-2.4l3.7-0.5v-6.8l-7.1-12l-1.9-0.5V7.5h10.6v2.4l-2.1,0.5l4.1,8l0.6,2l0.8-1.9l3.8-8.1l-2.7-0.5V7.5
	h8.4v2.4l-2.4,0.5l-5.9,12v6.8l4,0.5V32H59.8z M78.5,23c0-1.7,0.3-3.2,0.8-4.4c0.5-1.2,1.2-2.2,2-3c0.9-0.8,1.8-1.4,3-1.8
	c1.1-0.4,2.3-0.6,3.6-0.6c1.4,0,2.6,0.2,3.7,0.6c1.1,0.4,2,1,2.8,1.8c0.8,0.8,1.3,1.8,1.8,2.9c0.4,1.2,0.6,2.5,0.6,4.1
	c0,1.8-0.3,3.2-0.8,4.5c-0.5,1.2-1.2,2.3-2,3c-0.9,0.8-1.8,1.4-3,1.7c-1.1,0.4-2.3,0.5-3.6,0.5c-1.4,0-2.6-0.2-3.7-0.6
	c-1.1-0.4-2-1-2.8-1.8c-0.8-0.8-1.4-1.8-1.8-2.9C78.7,25.9,78.5,24.5,78.5,23z M87.6,30c0.5,0,0.9-0.1,1.3-0.4
	c0.4-0.2,0.7-0.6,0.9-1.2c0.2-0.5,0.4-1.2,0.5-2.1c0.1-0.9,0.2-1.9,0.2-3.1c0-1.3-0.1-2.5-0.2-3.5c-0.1-1-0.3-1.8-0.5-2.4
	c-0.2-0.6-0.5-1.1-0.9-1.4s-0.9-0.5-1.4-0.5c-0.5,0-0.9,0.1-1.3,0.4c-0.4,0.2-0.7,0.6-0.9,1.2s-0.4,1.2-0.5,2.1
	c-0.1,0.9-0.2,1.9-0.2,3.2c0,1.3,0.1,2.5,0.2,3.5c0.1,1,0.3,1.8,0.5,2.4c0.2,0.6,0.6,1.1,1,1.4C86.6,29.9,87.1,30,87.6,30z
	 M107.2,25.8c-0.5,0-0.9,0-1.3,0c-0.4,0-0.8-0.1-1.2-0.1c-0.1,0.2-0.2,0.3-0.3,0.5s-0.1,0.4-0.1,0.7c0,0.3,0.1,0.6,0.2,0.8
	c0.1,0.2,0.3,0.4,0.6,0.5s0.7,0.2,1.1,0.2c0.5,0,1.1,0.1,1.8,0.1h3.1c1.2,0,2.3,0.1,3.2,0.3s1.7,0.5,2.3,0.9
	c0.6,0.4,1.1,0.9,1.4,1.6s0.5,1.4,0.5,2.4c0,1.2-0.3,2.2-0.9,3.1c-0.6,0.9-1.4,1.7-2.5,2.3c-1,0.6-2.2,1.1-3.5,1.4s-2.6,0.5-4,0.5h0
	c-1.6,0-2.9-0.1-4-0.4c-1.1-0.3-2-0.6-2.7-1.1c-0.7-0.5-1.2-1-1.5-1.7c-0.3-0.7-0.5-1.4-0.5-2.1c0-0.5,0.1-0.9,0.3-1.3
	c0.2-0.4,0.4-0.8,0.8-1.2c0.3-0.3,0.7-0.7,1.1-0.9c0.4-0.3,0.9-0.5,1.3-0.6c-0.7-0.3-1.2-0.8-1.5-1.3s-0.5-1.1-0.5-1.8
	c0-0.8,0.2-1.5,0.6-2c0.4-0.6,0.9-1.1,1.6-1.5c-1.1-0.5-2-1.2-2.5-2.1c-0.5-0.9-0.8-2-0.8-3.3c0-1,0.2-1.8,0.7-2.6s1-1.5,1.8-2
	c0.8-0.6,1.7-1,2.7-1.3c1-0.3,2.2-0.5,3.4-0.5h0c2.8,0,4.9,0.5,6.2,1.5c0.2-0.2,0.4-0.4,0.6-0.6s0.6-0.3,0.9-0.5
	c0.3-0.1,0.7-0.3,1.1-0.3c0.4-0.1,0.8-0.1,1.3-0.1h0.8V17h-3.1c0.2,0.7,0.3,1.4,0.3,2.2c0,0.9-0.2,1.8-0.6,2.6
	c-0.4,0.8-1,1.5-1.7,2.1c-0.8,0.6-1.7,1.1-2.7,1.4C109.7,25.7,108.5,25.8,107.2,25.8L107.2,25.8z M106.1,32.3c-0.2,0-0.5,0-0.7,0
	c-0.2,0-0.5,0-0.7-0.1c-0.2,0.2-0.4,0.5-0.6,0.8c-0.2,0.3-0.3,0.8-0.3,1.5c0,0.8,0.1,1.4,0.3,1.9c0.2,0.5,0.5,0.9,0.8,1.2
	s0.8,0.5,1.3,0.6s1.1,0.2,1.8,0.2h0c0.6,0,1.2-0.1,1.8-0.2c0.6-0.1,1.1-0.4,1.6-0.7c0.5-0.3,0.8-0.7,1.1-1.1c0.3-0.4,0.4-1,0.4-1.6
	c0-0.5-0.1-0.8-0.2-1.2c-0.1-0.3-0.3-0.6-0.5-0.8s-0.6-0.3-1-0.4c-0.4-0.1-1-0.1-1.6-0.1H106.1z M107.6,23.6L107.6,23.6
	c0.5,0,0.9-0.1,1.2-0.3c0.3-0.2,0.6-0.5,0.7-0.9c0.2-0.4,0.3-0.8,0.4-1.3c0.1-0.5,0.1-1,0.1-1.6c0-1.4-0.2-2.4-0.6-3
	c-0.4-0.6-1-0.9-2-0.9h0c-0.5,0-0.9,0.1-1.2,0.3c-0.3,0.2-0.6,0.4-0.8,0.8s-0.3,0.7-0.4,1.2s-0.1,1-0.1,1.6c0,0.7,0,1.3,0.1,1.8
	c0.1,0.5,0.2,1,0.4,1.3s0.5,0.6,0.8,0.8S107.1,23.6,107.6,23.6z M120,32v-2.4l2.2-0.3V17.4l-2.1-0.7v-2.7l6.4-0.9h0.1l1.3,0.7v15.3
	l2.2,0.3V32H120z M124.4,10.7c-0.4,0-0.8-0.1-1.1-0.2s-0.6-0.4-0.8-0.6c-0.2-0.3-0.4-0.6-0.5-0.9c-0.1-0.3-0.2-0.7-0.2-1.1
	c0-0.5,0.1-0.9,0.2-1.3c0.1-0.4,0.3-0.7,0.6-1c0.2-0.3,0.6-0.5,0.9-0.7c0.4-0.2,0.8-0.3,1.3-0.3h0c0.5,0,0.9,0.1,1.2,0.2
	c0.3,0.2,0.6,0.4,0.9,0.6c0.2,0.3,0.4,0.5,0.5,0.9c0.1,0.3,0.2,0.7,0.2,1.1c0,0.5-0.1,0.9-0.2,1.3c-0.1,0.4-0.3,0.8-0.6,1
	c-0.3,0.3-0.6,0.5-1,0.7S125,10.7,124.4,10.7L124.4,10.7z"/>
<path id="Union_11" class="st1" d="M19.8,42.2c-1.5-1.4-2.7-3.1-3.7-4.9c1.5-2.5,4.7-3.3,7.2-1.9c0.8,0.5,1.4,1.1,1.9,1.9
	c-1,1.8-2.2,3.4-3.7,4.9C21,42.6,20.3,42.6,19.8,42.2L19.8,42.2z M23,33.4c1.8-0.1,3.6-0.4,5.4-0.8c3.5-0.8,6.8-2.5,9.4-5.1
	c0.2-0.2,0.5-0.5,0.7-0.7c0.9,0.7,1.7,1.4,2.5,2.2c0.4,0.5,0.4,1.2,0,1.6c-0.2,0.2-4.8,5.3-10.6,5.3C27.7,35.8,25.2,35,23,33.4
	L23,33.4z M0.3,30.7c-0.4-0.5-0.4-1.2,0-1.6c0.8-0.8,1.6-1.6,2.5-2.2c0.2,0.3,0.5,0.5,0.7,0.7c2.6,2.5,5.9,4.2,9.4,5.1
	c1.8,0.4,3.6,0.7,5.4,0.8c-2.1,1.5-4.7,2.4-7.3,2.5C5.1,35.9,0.5,30.9,0.3,30.7L0.3,30.7z M19.8,30.8c-0.3-0.3-7.3-6.6-7.3-14.6
	s7-14.4,7.3-14.6c0.5-0.4,1.2-0.4,1.6,0c0.3,0.3,7.3,6.6,7.3,14.6s-7,14.4-7.3,14.6C21,31.2,20.3,31.2,19.8,30.8z M27.2,27.7
	c1.1-1.6,2-3.3,2.7-5.1c0.8-2.1,1.2-4.3,1.3-6.5c0-1.8-0.3-3.6-0.8-5.3c2.9-1.1,6-1.6,9.1-1.6c0.4,0,0.7,0,0.8,0
	c0.6,0,1.1,0.5,1.1,1.1c0,0.4,0.5,9.8-5.2,15.5c-3.4,3.4-8,4.6-11.3,5C25.6,29.9,26.5,28.8,27.2,27.7L27.2,27.7z M5.2,25.9
	C-0.5,20.2,0,10.8,0,10.4c0-0.6,0.5-1.1,1.1-1.1c0.1,0,0.3,0,0.8,0c3.1,0,6.2,0.6,9.1,1.6c-0.5,1.7-0.8,3.5-0.8,5.3
	c0,2.2,0.4,4.4,1.3,6.5c0.7,1.8,1.6,3.5,2.7,5.1c0.7,1.1,1.6,2.2,2.5,3.1C13.2,30.4,8.6,29.2,5.2,25.9L5.2,25.9z"/>
</svg>
