<svg xmlns="http://www.w3.org/2000/svg" viewBox="0 0 50 50"><path d="M0 25C0 11.2 11.2 0 25 0s25 11.2 25 25-11.2 25-25 25S0 38.8 0 25zm38.2-11.8c0 7.3-5.9 13.2-13.2 13.2-5.7 0-10.3 4.6-10.3 10.3C14.7 42.4 19.3 47 25 47c12.2 0 22.1-9.9 22.1-22 0-7.9-4.2-15.2-11.1-19.2 1.4 2.2 2.2 4.8 2.2 7.4zM2.9 25c0 7.9 4.2 15.2 11.1 19.2-1.5-2.2-2.3-4.8-2.3-7.4 0-7.3 5.9-13.2 13.2-13.2 5.7 0 10.3-4.6 10.3-10.3C35.2 7.6 30.6 3 24.9 3c-12.1-.1-22 9.8-22 22zm16.7 11.8c0-3 2.4-5.4 5.4-5.4 3 0 5.4 2.4 5.4 5.4 0 3-2.4 5.4-5.4 5.4-3 0-5.4-2.5-5.4-5.4zm2.9 0c0 1.4 1.1 2.5 2.5 2.5s2.5-1.1 2.5-2.5-1.1-2.5-2.5-2.5-2.5 1.1-2.5 2.5zm-2.9-23.6c0-3 2.4-5.4 5.4-5.4 3 0 5.4 2.4 5.4 5.4 0 3-2.4 5.4-5.4 5.4-3 0-5.4-2.4-5.4-5.4zm2.9 0c0 1.4 1.1 2.5 2.5 2.5s2.5-1.1 2.5-2.5-1.1-2.5-2.5-2.5c-1.4.1-2.5 1.2-2.5 2.5z" opacity=".4"/></svg>