<svg xmlns="http://www.w3.org/2000/svg" viewBox="0 0 50 50"><path d="M49.6 36.2c-1.4-1.4-3-2.6-4.8-3.4 3.3-3.7 4.6-8.1 4.6-8.8 0-.7-.5-1.3-1.1-1.4-2.4-.6-4.9-.8-7.3-.6.1-.5.2-.9.2-1.4.4-2.8.2-5.7-.6-8.4-.2-.8-1-1.2-1.8-1-2.8.7-5.3 2-7.6 3.8-1.1-3.1-2.9-5.9-5.2-8.2-.6-.6-1.5-.6-2.1 0-2.3 2.3-4.1 5.1-5.2 8.2-2.3-1.7-4.8-3-7.6-3.8-.8-.2-1.6.3-1.8 1-.9 3.2-1 6.5-.3 9.8-2.5-.3-4.9-.1-7.3.6-.7.2-1.1.7-1.1 1.4 0 .5 1.1 4.9 4.6 8.8-1.8.9-3.4 2-4.8 3.4-.6.6-.6 1.5 0 2.1 6.7 6.7 17.4 7.1 24.6 1 7.2 6.1 17.9 5.7 24.5-.9.6-.6.7-1.5.1-2.2 0 .1 0 0 0 0zm-9.5-11.1c2-.3 4-.3 5.9 0-2.4 6.5-8.4 10.9-15.3 11.3 4.4-2.5 7.7-6.5 9.4-11.3zm-36.2 0c2-.3 4-.3 5.9 0 1.7 4.7 5 8.7 9.3 11.3-6.8-.3-12.8-4.8-15.2-11.3zm9.3 15.6c-3.5 0-6.9-1.2-9.6-3.4 1.2-1 2.5-1.7 3.9-2.3 3.4 2.7 7.6 4.2 11.9 4.4-1.9.8-4 1.3-6.2 1.3zm.9-13.5c-2.2-3.8-3-8.3-2.2-12.7 2.2.8 4.3 2 6 3.6-1.1 5.4-.2 10.9 2.5 15.7-2.6-1.7-4.8-3.9-6.3-6.6zM25 35.1c-6.2-7.2-6.2-17.9 0-25.1 6.2 7.2 6.2 17.9 0 25.1zm7.6-12.5c0-1.5-.2-3-.5-4.5 1.8-1.6 3.8-2.8 6-3.6 1.4 7.6-2 15.2-8.6 19.2 2-3.4 3.1-7.2 3.1-11.1zm4.2 18.1c-2.1 0-4.3-.4-6.2-1.3 4.3-.2 8.5-1.7 11.9-4.4 1.4.6 2.7 1.3 3.9 2.3-2.8 2.2-6.1 3.4-9.6 3.4z" opacity=".4"/></svg>